# 3ds Max Wavefront OBJ Exporter v0.99 - (c)2007 guruware
# File Created: 22.03.2025 13:03:27

mtllib cofre.mtl

#
# object Front_1_0
#

v  -8.7968 -2.9978 -12.7389
v  -9.8978 -1.8670 -8.4733
v  -5.1926 -1.1564 -8.5701
v  -4.5238 -2.3135 -12.8561
v  -3.1649 -14.5476 -23.7015
v  -4.1678 -11.8423 -22.6726
v  -2.0797 -11.7466 -23.0830
v  -1.7161 -14.8020 -23.8744
v  -6.5099 -6.4141 -19.0606
v  -7.7621 -4.3189 -16.0542
v  -3.8752 -3.7838 -16.1992
v  -3.1360 -5.9951 -19.3431
v  -6.2605 -0.1550 -0.0971
v  -5.7908 -0.4556 -4.2670
v  -10.9245 -1.2385 -4.1789
v  -11.9297 -1.0130 0.3671
v  -9.9481 -3.7770 -12.5902
v  -11.0392 -2.7360 -8.3664
v  -0.3482 -0.0848 -4.3023
v  -0.3482 -0.8410 -8.6374
v  -4.0579 -14.2443 -23.2448
v  -5.1396 -11.9790 -22.2014
v  -0.3482 -5.7799 -19.3386
v  -0.3482 -8.5620 -21.7272
v  -2.4709 -8.6060 -21.5864
v  -7.7730 -6.9025 -18.7384
v  -8.9673 -5.0420 -15.8649
v  -0.3482 -2.0267 -12.8861
v  -0.3482 -3.5338 -16.1984
v  -0.3482 0.2430 -0.4436
v  -12.0433 -2.0902 -4.1269
v  -13.0357 -1.5677 0.5659
v  -5.3432 -8.7884 -21.1946
v  -8.9816 -7.7822 -17.9986
v  -8.4233 -7.3467 -18.4562
v  -7.1673 -9.3900 -20.4660
v  -7.5798 -9.7538 -20.0016
v  -10.5558 -4.3729 -12.4656
v  -11.6617 -3.2993 -8.2853
v  -4.4442 -13.9565 -22.9156
v  -5.5652 -12.0736 -22.0112
v  -9.5741 -5.6606 -15.6772
v  -12.6168 -2.6274 -4.1445
v  -13.4822 -2.0560 0.3977
v  -6.5483 -9.0969 -20.7744
v  -11.0545 -5.0125 -12.2756
v  -12.2350 -3.9696 -8.1444
v  -4.8338 -13.6695 -22.6172
v  -5.8971 -12.1801 -21.7560
v  -10.0655 -6.3021 -15.4056
v  -13.1838 -3.3767 -4.1532
v  -13.9311 -2.9476 -0.1979
v  -0.3482 -11.7270 -23.1673
v  -0.3482 -14.8025 -23.9063
v  -5.1258 -1.7458 -8.4322
v  -9.6655 -2.4052 -8.3080
v  -8.5782 -3.5178 -12.5094
v  -4.4569 -2.8812 -12.6461
v  -2.0096 -11.9512 -22.5137
v  -3.9723 -12.0105 -22.1209
v  -3.0334 -14.6889 -23.1239
v  -1.6865 -14.9476 -23.2839
v  -3.8139 -4.3052 -15.8905
v  -7.5678 -4.7981 -15.7325
v  -6.3430 -6.8142 -18.6330
v  -3.0750 -6.4354 -18.9270
v  -10.6890 -1.7897 -4.0714
v  -5.7235 -1.0556 -4.1880
v  -6.1894 -0.7577 -0.0465
v  -11.7095 -1.5733 0.4588
v  -10.6561 -3.1730 -8.1846
v  -9.5708 -4.1915 -12.3521
v  -0.3482 -1.4349 -8.5029
v  -0.3482 -0.6888 -4.2245
v  -4.8724 -12.1011 -21.6681
v  -3.7748 -14.3400 -22.6374
v  -2.4048 -8.9268 -21.0728
v  -0.3482 -8.8907 -21.2145
v  -0.3482 -6.2297 -18.9280
v  -8.6057 -5.4155 -15.5477
v  -7.4655 -7.2190 -18.3186
v  -0.3482 -4.0615 -15.8944
v  -0.3482 -2.5990 -12.6781
v  -0.3482 -0.3639 -0.3932
v  -12.6800 -2.0451 0.6942
v  -11.6621 -2.5447 -3.9888
v  -5.1783 -9.0644 -20.6774
v  -6.7963 -9.5250 -20.0024
v  -8.0168 -7.5747 -18.0642
v  -8.5312 -7.9777 -17.6382
v  -7.4027 -9.8274 -19.7111
v  -11.2293 -3.6857 -8.0993
v  -10.1096 -4.7123 -12.2277
v  -5.2412 -12.1467 -21.5008
v  -4.1567 -14.0432 -22.3858
v  -9.1265 -5.9432 -15.3761
v  -13.0392 -2.4512 0.5334
v  -12.1783 -3.0235 -3.9973
v  -6.2687 -9.3057 -20.2753
v  -11.7739 -4.3220 -7.9599
v  -10.5785 -5.3107 -12.0402
v  -5.5178 -12.2131 -21.2807
v  -4.4704 -13.6882 -22.1289
v  -9.5879 -6.5454 -15.1167
v  -13.4433 -3.2865 -0.0631
v  -12.7135 -3.7347 -4.0065
v  -0.3482 -11.9274 -22.5922
v  -0.3482 -14.9447 -23.3141
v  8.1004 -2.9978 -12.7389
v  3.8275 -2.3135 -12.8561
v  4.4963 -1.1564 -8.5701
v  9.2015 -1.8670 -8.4733
v  2.4687 -14.5476 -23.7015
v  1.0198 -14.8020 -23.8744
v  1.3834 -11.7466 -23.0830
v  3.4715 -11.8423 -22.6726
v  5.8136 -6.4141 -19.0606
v  2.4398 -5.9951 -19.3431
v  3.1789 -3.7838 -16.1992
v  7.0659 -4.3189 -16.0542
v  5.5643 -0.1550 -0.0971
v  11.2334 -1.0130 0.3671
v  10.2283 -1.2385 -4.1789
v  5.0945 -0.4556 -4.2670
v  9.2518 -3.7770 -12.5902
v  10.3429 -2.7360 -8.3664
v  3.3616 -14.2443 -23.2448
v  4.4433 -11.9790 -22.2014
v  1.7747 -8.6060 -21.5864
v  7.0766 -6.9025 -18.7384
v  8.2710 -5.0420 -15.8649
v  11.3469 -2.0902 -4.1269
v  12.3395 -1.5677 0.5659
v  4.6469 -8.7884 -21.1946
v  8.2853 -7.7822 -17.9986
v  6.8835 -9.7538 -20.0016
v  6.4710 -9.3900 -20.4660
v  7.7271 -7.3467 -18.4562
v  10.9655 -3.2993 -8.2853
v  9.8595 -4.3729 -12.4656
v  3.7480 -13.9565 -22.9156
v  4.8690 -12.0736 -22.0112
v  8.8779 -5.6606 -15.6772
v  12.7860 -2.0560 0.3977
v  11.9206 -2.6274 -4.1446
v  5.8521 -9.0969 -20.7744
v  11.5387 -3.9696 -8.1444
v  10.3582 -5.0125 -12.2756
v  4.1375 -13.6695 -22.6172
v  5.2008 -12.1801 -21.7560
v  9.3692 -6.3021 -15.4056
v  13.2348 -2.9476 -0.1979
v  12.4876 -3.3767 -4.1532
v  4.4296 -1.7458 -8.4322
v  3.7607 -2.8812 -12.6461
v  7.8820 -3.5178 -12.5094
v  8.9693 -2.4052 -8.3080
v  1.3133 -11.9512 -22.5137
v  0.9902 -14.9476 -23.2839
v  2.3371 -14.6889 -23.1239
v  3.2760 -12.0105 -22.1209
v  3.1176 -4.3052 -15.8905
v  2.3787 -6.4354 -18.9270
v  5.6467 -6.8142 -18.6330
v  6.8716 -4.7981 -15.7325
v  9.9928 -1.7897 -4.0714
v  11.0133 -1.5733 0.4588
v  5.4931 -0.7577 -0.0465
v  5.0273 -1.0556 -4.1880
v  8.8746 -4.1915 -12.3521
v  9.9598 -3.1730 -8.1846
v  3.0785 -14.3400 -22.6374
v  4.1762 -12.1011 -21.6681
v  1.7086 -8.9268 -21.0728
v  6.7693 -7.2190 -18.3186
v  7.9094 -5.4155 -15.5477
v  10.9658 -2.5447 -3.9888
v  11.9837 -2.0451 0.6942
v  4.4820 -9.0644 -20.6774
v  6.1000 -9.5250 -20.0024
v  6.7064 -9.8274 -19.7111
v  7.8350 -7.9777 -17.6382
v  7.3206 -7.5747 -18.0642
v  10.5330 -3.6857 -8.0993
v  9.4133 -4.7123 -12.2277
v  3.4604 -14.0432 -22.3858
v  4.5448 -12.1467 -21.5008
v  8.4303 -5.9432 -15.3761
v  12.3429 -2.4512 0.5334
v  11.4821 -3.0235 -3.9973
v  5.5724 -9.3057 -20.2753
v  11.0777 -4.3220 -7.9599
v  9.8823 -5.3107 -12.0402
v  3.7741 -13.6882 -22.1289
v  4.8216 -12.2131 -21.2807
v  8.8916 -6.5454 -15.1167
v  12.7471 -3.2865 -0.0631
v  12.0172 -3.7347 -4.0065
# 198 vertices

vn -0.3583 0.8541 -0.3769
vn -0.3806 0.8840 -0.2713
vn -0.1099 0.9678 -0.2265
vn -0.1099 0.9322 -0.3449
vn -0.3453 -0.4851 -0.8034
vn -0.3169 0.2849 -0.9047
vn -0.1153 0.3363 -0.9347
vn -0.1059 -0.5329 -0.8395
vn -0.2741 0.6571 -0.7023
vn -0.3188 0.7869 -0.5284
vn -0.1007 0.8561 -0.5069
vn -0.1004 0.7231 -0.6834
vn -0.0396 0.7750 0.6307
vn -0.1107 0.9853 -0.1298
vn -0.3861 0.9054 -0.1765
vn -0.2149 0.8163 0.5361
vn -0.6190 0.6811 -0.3911
vn -0.6284 0.7183 -0.2986
vn 0.0000 0.9918 -0.1279
vn 0.0000 0.9753 -0.2210
vn -0.6343 -0.5119 -0.5793
vn -0.4423 0.2039 -0.8734
vn 0.0000 0.7385 -0.6742
vn 0.0000 0.5397 -0.8418
vn -0.1086 0.5266 -0.8431
vn -0.5045 0.5199 -0.6893
vn -0.5931 0.6138 -0.5210
vn 0.0000 0.9399 -0.3415
vn 0.0000 0.8665 -0.4992
vn 0.0000 0.7881 0.6156
vn -0.6251 0.7469 -0.2266
vn -0.5229 0.6351 0.5685
vn -0.2706 0.4534 -0.8492
vn -0.9266 -0.2804 -0.2507
vn -0.6673 0.3745 -0.6437
vn -0.6491 0.1790 -0.7394
vn -0.8815 -0.3890 -0.2678
vn -0.7325 0.5574 -0.3909
vn -0.7100 0.6345 -0.3054
vn -0.7437 -0.5144 -0.4270
vn -0.5322 0.1205 -0.8380
vn -0.7346 0.4644 -0.4946
vn -0.7200 0.6505 -0.2418
vn -0.8074 0.3220 0.4943
vn -0.4590 0.3430 -0.8195
vn -0.9545 -0.2068 -0.2149
vn -0.9659 -0.1332 -0.2221
vn -0.8057 -0.5188 -0.2859
vn -0.8583 -0.4385 -0.2664
vn -0.9401 -0.2711 -0.2068
vn -0.9718 -0.1398 -0.1897
vn -0.9542 -0.1832 0.2364
vn 0.0000 0.3292 -0.9442
vn -0.0000 -0.5179 -0.8554
vn 0.1080 -0.9681 0.2263
vn 0.3857 -0.8816 0.2720
vn 0.3616 -0.8527 0.3770
vn 0.1083 -0.9325 0.3444
vn 0.1141 -0.3351 0.9353
vn 0.3229 -0.2740 0.9059
vn -0.1016 -0.8689 0.4844
vn -0.0421 -0.8710 0.4894
vn 0.0994 -0.8565 0.5065
vn 0.3205 -0.7861 0.5285
vn 0.2745 -0.6567 0.7024
vn 0.0994 -0.7236 0.6830
vn 0.3912 -0.9030 0.1778
vn 0.1088 -0.9856 0.1295
vn 0.1271 -0.6287 0.7672
vn 0.3127 -0.4795 0.8199
vn 0.6338 -0.7135 0.2988
vn 0.6235 -0.6771 0.3907
vn -0.0000 -0.9753 0.2208
vn -0.0000 -0.9918 0.1278
vn 0.4373 -0.1997 0.8769
vn -0.0097 -0.7448 0.6672
vn 0.1077 -0.5265 0.8433
vn 0.0000 -0.5393 0.8421
vn -0.0000 -0.7387 0.6740
vn 0.5974 -0.6103 0.5202
vn 0.5062 -0.5183 0.6893
vn -0.0000 -0.8666 0.4989
vn -0.0000 -0.9400 0.3412
vn -0.0000 -0.6415 0.7671
vn 0.2271 -0.3809 0.8963
vn 0.6302 -0.7424 0.2272
vn 0.2717 -0.4517 0.8498
vn 0.5398 -0.2894 0.7905
vn 0.6691 -0.3736 0.6424
vn 0.1143 -0.7782 0.6176
vn -0.1346 -0.7294 0.6707
vn 0.7102 -0.6344 0.3053
vn 0.7336 -0.5562 0.3905
vn 0.5325 -0.1182 0.8381
vn -0.0708 -0.6782 0.7315
vn 0.7370 -0.4619 0.4934
vn 0.1402 -0.5600 0.8165
vn 0.7201 -0.6505 0.2417
vn 0.4602 -0.3412 0.8196
vn 0.0996 -0.9729 0.2085
vn 0.1564 -0.9267 0.3416
vn 0.0252 -0.5231 0.8519
vn 0.0307 -0.5260 0.8499
vn 0.1658 -0.8637 0.4760
vn 0.0275 -0.8633 0.5039
vn 0.1136 -0.9820 0.1511
vn -0.0000 -0.3283 0.9446
vn 0.0000 -0.8571 0.5151
vn 0.3583 0.8541 -0.3769
vn 0.1099 0.9322 -0.3449
vn 0.1099 0.9678 -0.2265
vn 0.3806 0.8840 -0.2713
vn 0.3453 -0.4851 -0.8034
vn 0.1059 -0.5329 -0.8395
vn 0.1153 0.3363 -0.9347
vn 0.3169 0.2849 -0.9047
vn 0.2741 0.6571 -0.7023
vn 0.1004 0.7231 -0.6834
vn 0.1007 0.8561 -0.5069
vn 0.3188 0.7869 -0.5284
vn 0.0396 0.7750 0.6307
vn 0.2149 0.8163 0.5361
vn 0.3861 0.9054 -0.1765
vn 0.1107 0.9853 -0.1298
vn 0.6190 0.6811 -0.3911
vn 0.6284 0.7183 -0.2986
vn 0.6343 -0.5119 -0.5793
vn 0.4423 0.2039 -0.8734
vn 0.1086 0.5266 -0.8431
vn 0.5045 0.5199 -0.6893
vn 0.5931 0.6138 -0.5210
vn 0.6251 0.7469 -0.2266
vn 0.5229 0.6351 0.5685
vn 0.2706 0.4534 -0.8492
vn 0.9266 -0.2804 -0.2507
vn 0.8815 -0.3890 -0.2678
vn 0.6491 0.1790 -0.7394
vn 0.6673 0.3745 -0.6437
vn 0.7100 0.6345 -0.3054
vn 0.7325 0.5574 -0.3909
vn 0.7437 -0.5144 -0.4270
vn 0.5322 0.1205 -0.8380
vn 0.7346 0.4644 -0.4946
vn 0.8074 0.3220 0.4943
vn 0.7200 0.6505 -0.2418
vn 0.4590 0.3430 -0.8195
vn 0.9659 -0.1332 -0.2221
vn 0.9545 -0.2068 -0.2149
vn 0.8057 -0.5188 -0.2859
vn 0.8583 -0.4385 -0.2664
vn 0.9401 -0.2711 -0.2068
vn 0.9542 -0.1832 0.2364
vn 0.9718 -0.1398 -0.1897
vn -0.1080 -0.9681 0.2263
vn -0.1083 -0.9325 0.3444
vn -0.3616 -0.8527 0.3770
vn -0.3857 -0.8816 0.2720
vn -0.1141 -0.3351 0.9353
vn 0.0421 -0.8710 0.4894
vn 0.1016 -0.8689 0.4844
vn -0.3229 -0.2740 0.9059
vn -0.0994 -0.8565 0.5065
vn -0.0994 -0.7236 0.6830
vn -0.2745 -0.6567 0.7024
vn -0.3205 -0.7861 0.5285
vn -0.3912 -0.9030 0.1778
vn -0.3127 -0.4795 0.8199
vn -0.1271 -0.6287 0.7672
vn -0.1088 -0.9856 0.1295
vn -0.6235 -0.6771 0.3907
vn -0.6338 -0.7135 0.2988
vn 0.0097 -0.7448 0.6672
vn -0.4373 -0.1997 0.8769
vn -0.1077 -0.5265 0.8433
vn -0.5062 -0.5183 0.6893
vn -0.5974 -0.6103 0.5202
vn -0.6302 -0.7424 0.2272
vn -0.2271 -0.3809 0.8963
vn -0.2717 -0.4517 0.8498
vn -0.5398 -0.2894 0.7905
vn 0.1346 -0.7294 0.6707
vn -0.1143 -0.7782 0.6176
vn -0.6691 -0.3736 0.6424
vn -0.7102 -0.6344 0.3053
vn -0.7336 -0.5562 0.3905
vn 0.0708 -0.6782 0.7315
vn -0.5325 -0.1182 0.8381
vn -0.7370 -0.4619 0.4934
vn -0.1402 -0.5600 0.8165
vn -0.7201 -0.6505 0.2417
vn -0.4602 -0.3412 0.8196
vn -0.0996 -0.9729 0.2085
vn -0.1564 -0.9267 0.3416
vn -0.0307 -0.5260 0.8499
vn -0.0252 -0.5231 0.8519
vn -0.1658 -0.8637 0.4760
vn -0.0275 -0.8633 0.5039
vn -0.1136 -0.9820 0.1511
# 198 vertex normals

vt 0.2068 -0.5139 0.0000
vt 0.2157 -0.5488 0.0000
vt 0.1778 -0.5504 0.0000
vt 0.1724 -0.5155 0.0000
vt 0.1656 -0.3804 0.0000
vt 0.1717 -0.4042 0.0000
vt 0.1544 -0.4022 0.0000
vt 0.1530 -0.3769 0.0000
vt 0.1887 -0.4570 0.0000
vt 0.1984 -0.4859 0.0000
vt 0.1673 -0.4870 0.0000
vt 0.1617 -0.4569 0.0000
vt 0.1874 -0.6182 0.0000
vt 0.1828 -0.5850 0.0000
vt 0.2245 -0.5831 0.0000
vt 0.2343 -0.6190 0.0000
vt 0.2177 -0.5122 0.0000
vt 0.2270 -0.5470 0.0000
vt 0.1389 -0.5856 0.0000
vt 0.1391 -0.5508 0.0000
vt 0.1736 -0.3849 0.0000
vt 0.1807 -0.4056 0.0000
vt 0.1397 -0.4578 0.0000
vt 0.1399 -0.4291 0.0000
vt 0.1567 -0.4298 0.0000
vt 0.1997 -0.4564 0.0000
vt 0.2093 -0.4840 0.0000
vt 0.1394 -0.5161 0.0000
vt 0.1396 -0.4879 0.0000
vt 0.1387 -0.6165 0.0000
vt 0.2356 -0.5814 0.0000
vt 0.2445 -0.6190 0.0000
vt 0.1799 -0.4316 0.0000
vt 0.2130 -0.4557 0.0000
vt 0.2062 -0.4557 0.0000
vt 0.1964 -0.4320 0.0000
vt 0.2021 -0.4313 0.0000
vt 0.2244 -0.5107 0.0000
vt 0.2336 -0.5459 0.0000
vt 0.1773 -0.3885 0.0000
vt 0.1848 -0.4061 0.0000
vt 0.2160 -0.4824 0.0000
vt 0.2417 -0.5797 0.0000
vt 0.2496 -0.6164 0.0000
vt 0.1904 -0.4321 0.0000
vt 0.2309 -0.5097 0.0000
vt 0.2406 -0.5450 0.0000
vt 0.1806 -0.3919 0.0000
vt 0.1884 -0.4064 0.0000
vt 0.2226 -0.4811 0.0000
vt 0.2490 -0.5779 0.0000
vt 0.2563 -0.6097 0.0000
vt 0.1401 -0.4016 0.0000
vt 0.1404 -0.3763 0.0000
vt 0.8163 -0.5028 0.0000
vt 0.7798 -0.5016 0.0000
vt 0.7886 -0.4672 0.0000
vt 0.8217 -0.4684 0.0000
vt 0.8400 -0.3592 0.0000
vt 0.8237 -0.3612 0.0000
vt 0.8295 -0.3378 0.0000
vt 0.8412 -0.3344 0.0000
vt 0.8268 -0.4407 0.0000
vt 0.7968 -0.4399 0.0000
vt 0.8063 -0.4119 0.0000
vt 0.8325 -0.4116 0.0000
vt 0.7711 -0.5354 0.0000
vt 0.8113 -0.5368 0.0000
vt 0.8068 -0.5699 0.0000
vt 0.7613 -0.5712 0.0000
vt 0.7699 -0.5002 0.0000
vt 0.7791 -0.4658 0.0000
vt 0.8545 -0.5030 0.0000
vt 0.8547 -0.5374 0.0000
vt 0.8154 -0.3627 0.0000
vt 0.8227 -0.3425 0.0000
vt 0.8375 -0.3857 0.0000
vt 0.8538 -0.3850 0.0000
vt 0.8540 -0.4124 0.0000
vt 0.7874 -0.4384 0.0000
vt 0.7965 -0.4117 0.0000
vt 0.8541 -0.4415 0.0000
vt 0.8543 -0.4690 0.0000
vt 0.8549 -0.5681 0.0000
vt 0.7524 -0.5718 0.0000
vt 0.7613 -0.5342 0.0000
vt 0.8151 -0.3877 0.0000
vt 0.8005 -0.3886 0.0000
vt 0.7909 -0.4114 0.0000
vt 0.7847 -0.4114 0.0000
vt 0.7946 -0.3880 0.0000
vt 0.7639 -0.4993 0.0000
vt 0.7732 -0.4647 0.0000
vt 0.8119 -0.3635 0.0000
vt 0.8194 -0.3460 0.0000
vt 0.7816 -0.4371 0.0000
vt 0.7482 -0.5694 0.0000
vt 0.7558 -0.5328 0.0000
vt 0.8056 -0.3884 0.0000
vt 0.7571 -0.4986 0.0000
vt 0.7670 -0.4639 0.0000
vt 0.8089 -0.3638 0.0000
vt 0.8168 -0.3496 0.0000
vt 0.7753 -0.4359 0.0000
vt 0.7420 -0.5629 0.0000
vt 0.7489 -0.5311 0.0000
vt 0.8537 -0.3587 0.0000
vt 0.8533 -0.3339 0.0000
vt 0.0070 -0.9408 0.0000
vt 0.0056 -0.9287 0.0000
vt 0.0105 -0.9285 0.0000
vt 0.0118 -0.9397 0.0000
vt 0.8004 -0.5933 0.0000
vt 0.7547 -0.5864 0.0000
vt 0.7565 -0.5819 0.0000
vt 0.8009 -0.5885 0.0000
vt 0.0108 -0.9483 0.0000
vt 0.0159 -0.9459 0.0000
vt 0.8477 -0.5965 0.0000
vt 0.8480 -0.5917 0.0000
vt 0.7459 -0.5815 0.0000
vt 0.7488 -0.5776 0.0000
vt 0.5245 -0.2951 0.0000
vt 0.5364 -0.2780 0.0000
vt 0.5379 -0.2805 0.0000
vt 0.5283 -0.2982 0.0000
vt 0.0136 -0.9515 0.0000
vt 0.0180 -0.9491 0.0000
vt 0.7420 -0.5776 0.0000
vt 0.7457 -0.5744 0.0000
vt 0.4968 -0.3791 0.0000
vt 0.5068 -0.3439 0.0000
vt 0.5109 -0.3459 0.0000
vt 0.5007 -0.3807 0.0000
vt 0.5610 -0.2623 0.0000
vt 0.5763 -0.2544 0.0000
vt 0.5787 -0.2590 0.0000
vt 0.5636 -0.2668 0.0000
vt 0.0161 -0.9548 0.0000
vt 0.0201 -0.9517 0.0000
vt 0.5153 -0.3172 0.0000
vt 0.5193 -0.3197 0.0000
vt 0.4823 -0.4468 0.0000
vt 0.4887 -0.4131 0.0000
vt 0.4927 -0.4144 0.0000
vt 0.4865 -0.4480 0.0000
vt 0.7367 -0.5699 0.0000
vt 0.7407 -0.5671 0.0000
vt 0.0053 -0.9173 0.0000
vt 0.0102 -0.9173 0.0000
vt 0.0720 -0.5131 0.0000
vt 0.1063 -0.5151 0.0000
vt 0.1005 -0.5499 0.0000
vt 0.0626 -0.5478 0.0000
vt 0.1149 -0.3801 0.0000
vt 0.1277 -0.3767 0.0000
vt 0.1259 -0.4020 0.0000
vt 0.1085 -0.4037 0.0000
vt 0.0908 -0.4563 0.0000
vt 0.1179 -0.4566 0.0000
vt 0.1118 -0.4866 0.0000
vt 0.0808 -0.4851 0.0000
vt 0.0900 -0.6176 0.0000
vt 0.0432 -0.6177 0.0000
vt 0.0534 -0.5820 0.0000
vt 0.0950 -0.5844 0.0000
vt 0.0611 -0.5111 0.0000
vt 0.0514 -0.5459 0.0000
vt 0.1069 -0.3844 0.0000
vt 0.0995 -0.4050 0.0000
vt 0.1231 -0.4296 0.0000
vt 0.0799 -0.4556 0.0000
vt 0.0699 -0.4831 0.0000
vt 0.0423 -0.5801 0.0000
vt 0.0329 -0.6177 0.0000
vt 0.1000 -0.4310 0.0000
vt 0.0666 -0.4547 0.0000
vt 0.0777 -0.4304 0.0000
vt 0.0834 -0.4312 0.0000
vt 0.0733 -0.4548 0.0000
vt 0.0448 -0.5446 0.0000
vt 0.0544 -0.5096 0.0000
vt 0.1032 -0.3880 0.0000
vt 0.0954 -0.4055 0.0000
vt 0.0632 -0.4814 0.0000
vt 0.0279 -0.6149 0.0000
vt 0.0362 -0.5784 0.0000
vt 0.0894 -0.4314 0.0000
vt 0.0377 -0.5437 0.0000
vt 0.0479 -0.5085 0.0000
vt 0.0998 -0.3913 0.0000
vt 0.0918 -0.4057 0.0000
vt 0.0566 -0.4800 0.0000
vt 0.0212 -0.6082 0.0000
vt 0.0289 -0.5765 0.0000
vt 0.8926 -0.5023 0.0000
vt 0.8868 -0.4680 0.0000
vt 0.9200 -0.4664 0.0000
vt 0.9292 -0.5007 0.0000
vt 0.8673 -0.3590 0.0000
vt 0.8656 -0.3342 0.0000
vt 0.8774 -0.3375 0.0000
vt 0.8836 -0.3607 0.0000
vt 0.8815 -0.4403 0.0000
vt 0.8754 -0.4113 0.0000
vt 0.9016 -0.4113 0.0000
vt 0.9115 -0.4392 0.0000
vt 0.9382 -0.5344 0.0000
vt 0.9484 -0.5701 0.0000
vt 0.9029 -0.5693 0.0000
vt 0.8980 -0.5363 0.0000
vt 0.9294 -0.4649 0.0000
vt 0.9390 -0.4992 0.0000
vt 0.8844 -0.3421 0.0000
vt 0.8919 -0.3622 0.0000
vt 0.8701 -0.3855 0.0000
vt 0.9114 -0.4110 0.0000
vt 0.9209 -0.4376 0.0000
vt 0.9480 -0.5331 0.0000
vt 0.9574 -0.5706 0.0000
vt 0.8925 -0.3872 0.0000
vt 0.9072 -0.3879 0.0000
vt 0.9130 -0.3873 0.0000
vt 0.9232 -0.4105 0.0000
vt 0.9170 -0.4106 0.0000
vt 0.9451 -0.4982 0.0000
vt 0.9353 -0.4638 0.0000
vt 0.8877 -0.3455 0.0000
vt 0.8954 -0.3629 0.0000
vt 0.9266 -0.4362 0.0000
vt 0.9615 -0.5681 0.0000
vt 0.9535 -0.5317 0.0000
vt 0.9020 -0.3878 0.0000
vt 0.9518 -0.4974 0.0000
vt 0.9415 -0.4628 0.0000
vt 0.8904 -0.3491 0.0000
vt 0.8984 -0.3632 0.0000
vt 0.9329 -0.4350 0.0000
vt 0.9676 -0.5616 0.0000
vt 0.9603 -0.5299 0.0000
vt 0.0070 -0.8938 0.0000
vt 0.0118 -0.8949 0.0000
vt 0.0105 -0.9061 0.0000
vt 0.0056 -0.9059 0.0000
vt 0.8951 -0.5985 0.0000
vt 0.8952 -0.5936 0.0000
vt 0.9402 -0.5947 0.0000
vt 0.9411 -0.5995 0.0000
vt 0.0108 -0.8863 0.0000
vt 0.0159 -0.8887 0.0000
vt 0.9488 -0.5922 0.0000
vt 0.9507 -0.5967 0.0000
vt 0.0640 -0.6236 0.0000
vt 0.0659 -0.6282 0.0000
vt 0.0463 -0.6326 0.0000
vt 0.0443 -0.6304 0.0000
vt 0.0136 -0.8831 0.0000
vt 0.0180 -0.8855 0.0000
vt 0.9526 -0.5898 0.0000
vt 0.9554 -0.5939 0.0000
vt 0.1524 -0.6201 0.0000
vt 0.1528 -0.6244 0.0000
vt 0.1166 -0.6246 0.0000
vt 0.1158 -0.6201 0.0000
vt 0.0224 -0.6497 0.0000
vt 0.0261 -0.6534 0.0000
vt 0.0144 -0.6658 0.0000
vt 0.0106 -0.6622 0.0000
vt 0.0161 -0.8798 0.0000
vt 0.0201 -0.8828 0.0000
vt 0.0878 -0.6209 0.0000
vt 0.0891 -0.6254 0.0000
vt 0.2215 -0.6249 0.0000
vt 0.2214 -0.6292 0.0000
vt 0.1874 -0.6259 0.0000
vt 0.1873 -0.6217 0.0000
vt 0.9593 -0.5841 0.0000
vt 0.9625 -0.5878 0.0000
# 278 texture coords

o Front_1_0
g Front_1_0
usemtl material
s 1
f 1/1/1 2/2/2 3/3/3 
f 1/1/1 3/3/3 4/4/4 
f 5/5/5 6/6/6 7/7/7 
f 5/5/5 7/7/7 8/8/8 
f 9/9/9 10/10/10 11/11/11 
f 9/9/9 11/11/11 12/12/12 
f 13/13/13 14/14/14 15/15/15 
f 13/13/13 15/15/15 16/16/16 
f 17/17/17 18/18/18 2/2/2 
f 17/17/17 2/2/2 1/1/1 
f 19/19/19 20/20/20 3/3/3 
f 19/19/19 3/3/3 14/14/14 
f 21/21/21 22/22/22 6/6/6 
f 21/21/21 6/6/6 5/5/5 
f 23/23/23 24/24/24 25/25/25 
f 23/23/23 25/25/25 12/12/12 
f 26/26/26 27/27/27 10/10/10 
f 26/26/26 10/10/10 9/9/9 
f 28/28/28 29/29/29 11/11/11 
f 28/28/28 11/11/11 4/4/4 
f 30/30/30 19/19/19 14/14/14 
f 30/30/30 14/14/14 13/13/13 
f 31/31/31 32/32/32 16/16/16 
f 31/31/31 16/16/16 15/15/15 
f 33/33/33 9/9/9 12/12/12 
f 33/33/33 12/12/12 25/25/25 
f 34/34/34 35/35/35 36/36/36 
f 34/34/34 36/36/36 37/37/37 
f 17/17/17 38/38/38 39/39/39 
f 17/17/17 39/39/39 18/18/18 
f 40/40/40 41/41/41 22/22/22 
f 40/40/40 22/22/22 21/21/21 
f 35/35/35 42/42/42 27/27/27 
f 35/35/35 27/27/27 26/26/26 
f 31/31/31 43/43/43 44/44/44 
f 31/31/31 44/44/44 32/32/32 
f 9/9/9 33/33/33 45/45/45 
f 9/9/9 45/45/45 26/26/26 
f 35/35/35 26/26/26 45/45/45 
f 35/35/35 45/45/45 36/36/36 
f 38/38/38 46/46/46 47/47/47 
f 38/38/38 47/47/47 39/39/39 
f 48/48/48 49/49/49 41/41/41 
f 48/48/48 41/41/41 40/40/40 
f 34/34/34 50/50/50 42/42/42 
f 34/34/34 42/42/42 35/35/35 
f 43/43/43 51/51/51 52/52/52 
f 43/43/43 52/52/52 44/44/44 
f 6/6/6 33/33/33 25/25/25 
f 6/6/6 25/25/25 7/7/7 
f 22/22/22 45/45/45 33/33/33 
f 22/22/22 33/33/33 6/6/6 
f 41/41/41 36/36/36 45/45/45 
f 41/41/41 45/45/45 22/22/22 
f 49/49/49 37/37/37 36/36/36 
f 49/49/49 36/36/36 41/41/41 
f 2/2/2 15/15/15 14/14/14 
f 2/2/2 14/14/14 3/3/3 
f 31/31/31 15/15/15 2/2/2 
f 31/31/31 2/2/2 18/18/18 
f 43/43/43 31/31/31 18/18/18 
f 43/43/43 18/18/18 39/39/39 
f 51/51/51 43/43/43 39/39/39 
f 51/51/51 39/39/39 47/47/47 
f 10/10/10 1/1/1 4/4/4 
f 10/10/10 4/4/4 11/11/11 
f 27/27/27 17/17/17 1/1/1 
f 27/27/27 1/1/1 10/10/10 
f 38/38/38 17/17/17 27/27/27 
f 38/38/38 27/27/27 42/42/42 
f 46/46/46 38/38/38 42/42/42 
f 46/46/46 42/42/42 50/50/50 
f 7/7/7 25/25/25 24/24/24 
f 7/7/7 24/24/24 53/53/53 
f 8/8/8 7/7/7 53/53/53 
f 8/8/8 53/53/53 54/54/54 
f 4/4/4 3/3/3 20/20/20 
f 4/4/4 20/20/20 28/28/28 
f 12/12/12 11/11/11 29/29/29 
f 12/12/12 29/29/29 23/23/23 
f 55/55/55 56/56/56 57/57/57 
f 55/55/55 57/57/57 58/58/58 
f 59/59/59 60/60/60 61/61/61 
f 59/59/59 61/61/61 62/62/62 
f 63/63/63 64/64/64 65/65/65 
f 63/63/63 65/65/65 66/66/66 
f 67/67/67 68/68/68 69/69/69 
f 67/67/67 69/69/69 70/70/70 
f 56/56/56 71/71/71 72/72/72 
f 56/56/56 72/72/72 57/57/57 
f 55/55/55 73/73/73 74/74/74 
f 55/55/55 74/74/74 68/68/68 
f 60/60/60 75/75/75 76/76/76 
f 60/60/60 76/76/76 61/61/61 
f 77/77/77 78/78/78 79/79/79 
f 77/77/77 79/79/79 66/66/66 
f 64/64/64 80/80/80 81/81/81 
f 64/64/64 81/81/81 65/65/65 
f 63/63/63 82/82/82 83/83/83 
f 63/63/63 83/83/83 58/58/58 
f 68/68/68 74/74/74 84/84/84 
f 68/68/68 84/84/84 69/69/69 
f 70/70/70 85/85/85 86/86/86 
f 70/70/70 86/86/86 67/67/67 
f 66/66/66 65/65/65 87/87/87 
f 66/66/66 87/87/87 77/77/77 
f 88/88/88 89/89/89 90/90/90 
f 88/88/88 90/90/90 91/91/91 
f 92/92/92 93/93/93 72/72/72 
f 92/92/92 72/72/72 71/71/71 
f 75/75/75 94/94/94 95/95/95 
f 75/75/75 95/95/95 76/76/76 
f 80/80/80 96/96/96 89/89/89 
f 80/80/80 89/89/89 81/81/81 
f 97/97/97 98/98/98 86/86/86 
f 97/97/97 86/86/86 85/85/85 
f 99/99/99 87/87/87 65/65/65 
f 99/99/99 65/65/65 81/81/81 
f 99/99/99 81/81/81 89/89/89 
f 99/99/99 89/89/89 88/88/88 
f 100/100/100 101/101/101 93/93/93 
f 100/100/100 93/93/93 92/92/92 
f 94/94/94 102/102/102 103/103/103 
f 94/94/94 103/103/103 95/95/95 
f 96/96/96 104/104/104 90/90/90 
f 96/96/96 90/90/90 89/89/89 
f 105/105/105 106/106/106 98/98/98 
f 105/105/105 98/98/98 97/97/97 
f 77/77/77 87/87/87 60/60/60 
f 77/77/77 60/60/60 59/59/59 
f 87/87/87 99/99/99 75/75/75 
f 87/87/87 75/75/75 60/60/60 
f 99/99/99 88/88/88 94/94/94 
f 99/99/99 94/94/94 75/75/75 
f 88/88/88 91/91/91 102/102/102 
f 88/88/88 102/102/102 94/94/94 
f 68/68/68 67/67/67 56/56/56 
f 68/68/68 56/56/56 55/55/55 
f 56/56/56 67/67/67 86/86/86 
f 56/56/56 86/86/86 71/71/71 
f 71/71/71 86/86/86 98/98/98 
f 71/71/71 98/98/98 92/92/92 
f 92/92/92 98/98/98 106/106/106 
f 92/92/92 106/106/106 100/100/100 
f 58/58/58 57/57/57 64/64/64 
f 58/58/58 64/64/64 63/63/63 
f 57/57/57 72/72/72 80/80/80 
f 57/57/57 80/80/80 64/64/64 
f 80/80/80 72/72/72 93/93/93 
f 80/80/80 93/93/93 96/96/96 
f 96/96/96 93/93/93 101/101/101 
f 96/96/96 101/101/101 104/104/104 
f 78/78/78 77/77/77 59/59/59 
f 78/78/78 59/59/59 107/107/107 
f 107/107/107 59/59/59 62/62/62 
f 107/107/107 62/62/62 108/108/108 
f 73/73/73 55/55/55 58/58/58 
f 73/73/73 58/58/58 83/83/83 
f 82/82/82 63/63/63 66/66/66 
f 82/82/82 66/66/66 79/79/79 
f 5/109/5 8/110/8 62/111/62 
f 5/109/5 62/111/62 61/112/61 
f 13/113/13 16/114/16 70/115/70 
f 13/113/13 70/115/70 69/116/69 
f 21/117/21 5/109/5 61/112/61 
f 21/117/21 61/112/61 76/118/76 
f 30/119/30 13/113/13 69/116/69 
f 30/119/30 69/116/69 84/120/84 
f 16/114/16 32/121/32 85/122/85 
f 16/114/16 85/122/85 70/115/70 
f 34/123/34 37/124/37 91/125/91 
f 34/123/34 91/125/91 90/126/90 
f 40/127/40 21/117/21 76/118/76 
f 40/127/40 76/118/76 95/128/95 
f 32/121/32 44/129/44 97/130/97 
f 32/121/32 97/130/97 85/122/85 
f 47/131/47 46/132/46 101/133/101 
f 47/131/47 101/133/101 100/134/100 
f 49/135/49 48/136/48 103/137/103 
f 49/135/49 103/137/103 102/138/102 
f 48/139/48 40/127/40 95/128/95 
f 48/139/48 95/128/95 103/140/103 
f 50/141/50 34/123/34 90/126/90 
f 50/141/50 90/126/90 104/142/104 
f 52/143/52 51/144/51 106/145/106 
f 52/143/52 106/145/106 105/146/105 
f 44/129/44 52/147/52 105/148/105 
f 44/129/44 105/148/105 97/130/97 
f 37/124/37 49/135/49 102/138/102 
f 37/124/37 102/138/102 91/125/91 
f 51/144/51 47/131/47 100/134/100 
f 51/144/51 100/134/100 106/145/106 
f 46/132/46 50/141/50 104/142/104 
f 46/132/46 104/142/104 101/133/101 
f 8/110/8 54/149/54 108/150/108 
f 8/110/8 108/150/108 62/111/62 
f 109/151/109 110/152/110 111/153/111 
f 109/151/109 111/153/111 112/154/112 
f 113/155/113 114/156/114 115/157/115 
f 113/155/113 115/157/115 116/158/116 
f 117/159/117 118/160/118 119/161/119 
f 117/159/117 119/161/119 120/162/120 
f 121/163/121 122/164/122 123/165/123 
f 121/163/121 123/165/123 124/166/124 
f 125/167/125 109/151/109 112/154/112 
f 125/167/125 112/154/112 126/168/126 
f 19/19/19 124/166/124 111/153/111 
f 19/19/19 111/153/111 20/20/20 
f 127/169/127 113/155/113 116/158/116 
f 127/169/127 116/158/116 128/170/128 
f 23/23/23 118/160/118 129/171/129 
f 23/23/23 129/171/129 24/24/24 
f 130/172/130 117/159/117 120/162/120 
f 130/172/130 120/162/120 131/173/131 
f 28/28/28 110/152/110 119/161/119 
f 28/28/28 119/161/119 29/29/29 
f 30/30/30 121/163/121 124/166/124 
f 30/30/30 124/166/124 19/19/19 
f 132/174/132 123/165/123 122/164/122 
f 132/174/132 122/164/122 133/175/133 
f 134/176/134 129/171/129 118/160/118 
f 134/176/134 118/160/118 117/159/117 
f 135/177/135 136/178/136 137/179/137 
f 135/177/135 137/179/137 138/180/138 
f 125/167/125 126/168/126 139/181/139 
f 125/167/125 139/181/139 140/182/140 
f 141/183/141 127/169/127 128/170/128 
f 141/183/141 128/170/128 142/184/142 
f 138/180/138 130/172/130 131/173/131 
f 138/180/138 131/173/131 143/185/143 
f 132/174/132 133/175/133 144/186/144 
f 132/174/132 144/186/144 145/187/145 
f 117/159/117 130/172/130 146/188/146 
f 117/159/117 146/188/146 134/176/134 
f 138/180/138 137/179/137 146/188/146 
f 138/180/138 146/188/146 130/172/130 
f 140/182/140 139/181/139 147/189/147 
f 140/182/140 147/189/147 148/190/148 
f 149/191/149 141/183/141 142/184/142 
f 149/191/149 142/184/142 150/192/150 
f 135/177/135 138/180/138 143/185/143 
f 135/177/135 143/185/143 151/193/151 
f 145/187/145 144/186/144 152/194/152 
f 145/187/145 152/194/152 153/195/153 
f 116/158/116 115/157/115 129/171/129 
f 116/158/116 129/171/129 134/176/134 
f 128/170/128 116/158/116 134/176/134 
f 128/170/128 134/176/134 146/188/146 
f 142/184/142 128/170/128 146/188/146 
f 142/184/142 146/188/146 137/179/137 
f 150/192/150 142/184/142 137/179/137 
f 150/192/150 137/179/137 136/178/136 
f 112/154/112 111/153/111 124/166/124 
f 112/154/112 124/166/124 123/165/123 
f 132/174/132 126/168/126 112/154/112 
f 132/174/132 112/154/112 123/165/123 
f 145/187/145 139/181/139 126/168/126 
f 145/187/145 126/168/126 132/174/132 
f 153/195/153 147/189/147 139/181/139 
f 153/195/153 139/181/139 145/187/145 
f 120/162/120 119/161/119 110/152/110 
f 120/162/120 110/152/110 109/151/109 
f 131/173/131 120/162/120 109/151/109 
f 131/173/131 109/151/109 125/167/125 
f 140/182/140 143/185/143 131/173/131 
f 140/182/140 131/173/131 125/167/125 
f 148/190/148 151/193/151 143/185/143 
f 148/190/148 143/185/143 140/182/140 
f 115/157/115 53/53/53 24/24/24 
f 115/157/115 24/24/24 129/171/129 
f 114/156/114 54/54/54 53/53/53 
f 114/156/114 53/53/53 115/157/115 
f 110/152/110 28/28/28 20/20/20 
f 110/152/110 20/20/20 111/153/111 
f 118/160/118 23/23/23 29/29/29 
f 118/160/118 29/29/29 119/161/119 
f 154/196/154 155/197/155 156/198/156 
f 154/196/154 156/198/156 157/199/157 
f 158/200/158 159/201/159 160/202/160 
f 158/200/158 160/202/160 161/203/161 
f 162/204/162 163/205/163 164/206/164 
f 162/204/162 164/206/164 165/207/165 
f 166/208/166 167/209/167 168/210/168 
f 166/208/166 168/210/168 169/211/169 
f 157/199/157 156/198/156 170/212/170 
f 157/199/157 170/212/170 171/213/171 
f 154/196/154 169/211/169 74/74/74 
f 154/196/154 74/74/74 73/73/73 
f 161/203/161 160/202/160 172/214/172 
f 161/203/161 172/214/172 173/215/173 
f 174/216/174 163/205/163 79/79/79 
f 174/216/174 79/79/79 78/78/78 
f 165/207/165 164/206/164 175/217/175 
f 165/207/165 175/217/175 176/218/176 
f 162/204/162 155/197/155 83/83/83 
f 162/204/162 83/83/83 82/82/82 
f 169/211/169 168/210/168 84/84/84 
f 169/211/169 84/84/84 74/74/74 
f 167/209/167 166/208/166 177/219/177 
f 167/209/167 177/219/177 178/220/178 
f 163/205/163 174/216/174 179/221/179 
f 163/205/163 179/221/179 164/206/164 
f 180/222/180 181/223/181 182/224/182 
f 180/222/180 182/224/182 183/225/183 
f 184/226/184 171/213/171 170/212/170 
f 184/226/184 170/212/170 185/227/185 
f 173/215/173 172/214/172 186/228/186 
f 173/215/173 186/228/186 187/229/187 
f 176/218/176 175/217/175 183/225/183 
f 176/218/176 183/225/183 188/230/188 
f 189/231/189 178/220/178 177/219/177 
f 189/231/189 177/219/177 190/232/190 
f 191/233/191 175/217/175 164/206/164 
f 191/233/191 164/206/164 179/221/179 
f 191/233/191 180/222/180 183/225/183 
f 191/233/191 183/225/183 175/217/175 
f 192/234/192 184/226/184 185/227/185 
f 192/234/192 185/227/185 193/235/193 
f 187/229/187 186/228/186 194/236/194 
f 187/229/187 194/236/194 195/237/195 
f 188/230/188 183/225/183 182/224/182 
f 188/230/188 182/224/182 196/238/196 
f 197/239/197 189/231/189 190/232/190 
f 197/239/197 190/232/190 198/240/198 
f 174/216/174 158/200/158 161/203/161 
f 174/216/174 161/203/161 179/221/179 
f 179/221/179 161/203/161 173/215/173 
f 179/221/179 173/215/173 191/233/191 
f 191/233/191 173/215/173 187/229/187 
f 191/233/191 187/229/187 180/222/180 
f 180/222/180 187/229/187 195/237/195 
f 180/222/180 195/237/195 181/223/181 
f 169/211/169 154/196/154 157/199/157 
f 169/211/169 157/199/157 166/208/166 
f 157/199/157 171/213/171 177/219/177 
f 157/199/157 177/219/177 166/208/166 
f 171/213/171 184/226/184 190/232/190 
f 171/213/171 190/232/190 177/219/177 
f 184/226/184 192/234/192 198/240/198 
f 184/226/184 198/240/198 190/232/190 
f 155/197/155 162/204/162 165/207/165 
f 155/197/155 165/207/165 156/198/156 
f 156/198/156 165/207/165 176/218/176 
f 156/198/156 176/218/176 170/212/170 
f 176/218/176 188/230/188 185/227/185 
f 176/218/176 185/227/185 170/212/170 
f 188/230/188 196/238/196 193/235/193 
f 188/230/188 193/235/193 185/227/185 
f 78/78/78 107/107/107 158/200/158 
f 78/78/78 158/200/158 174/216/174 
f 107/107/107 108/108/108 159/201/159 
f 107/107/107 159/201/159 158/200/158 
f 73/73/73 83/83/83 155/197/155 
f 73/73/73 155/197/155 154/196/154 
f 82/82/82 79/79/79 163/205/163 
f 82/82/82 163/205/163 162/204/162 
f 113/241/113 160/242/160 159/243/159 
f 113/241/113 159/243/159 114/244/114 
f 121/245/121 168/246/168 167/247/167 
f 121/245/121 167/247/167 122/248/122 
f 127/249/127 172/250/172 160/242/160 
f 127/249/127 160/242/160 113/241/113 
f 30/119/30 84/120/84 168/246/168 
f 30/119/30 168/246/168 121/245/121 
f 122/248/122 167/247/167 178/251/178 
f 122/248/122 178/251/178 133/252/133 
f 135/253/135 182/254/182 181/255/181 
f 135/253/135 181/255/181 136/256/136 
f 141/257/141 186/258/186 172/250/172 
f 141/257/141 172/250/172 127/249/127 
f 133/252/133 178/251/178 189/259/189 
f 133/252/133 189/259/189 144/260/144 
f 147/261/147 192/262/192 193/263/193 
f 147/261/147 193/263/193 148/264/148 
f 150/265/150 195/266/195 194/267/194 
f 150/265/150 194/267/194 149/268/149 
f 149/269/149 194/270/194 186/258/186 
f 149/269/149 186/258/186 141/257/141 
f 151/271/151 196/272/196 182/254/182 
f 151/271/151 182/254/182 135/253/135 
f 152/273/152 197/274/197 198/275/198 
f 152/273/152 198/275/198 153/276/153 
f 144/260/144 189/259/189 197/277/197 
f 144/260/144 197/277/197 152/278/152 
f 136/256/136 181/255/181 195/266/195 
f 136/256/136 195/266/195 150/265/150 
f 153/276/153 198/275/198 192/262/192 
f 153/276/153 192/262/192 147/261/147 
f 148/264/148 193/263/193 196/272/196 
f 148/264/148 196/272/196 151/271/151 
f 114/244/114 159/243/159 108/150/108 
f 114/244/114 108/150/108 54/149/54 
# 0 polygons - 392 triangles

