# 3ds Max Wavefront OBJ Exporter v0.99 - (c)2007 guruware
# File Created: 22.03.2025 12:52:05

mtllib llantaizqTrasera.mtl

#
# object Wheel_B_L_2_0
#

v  -1.8381 0.3522 -1.4405
v  -1.8381 0.3522 -1.5377
v  -1.8381 0.0519 -1.5013
v  -1.8381 -0.2309 -1.3940
v  -1.8381 0.3524 -1.2602
v  -1.8381 -0.4798 -1.2222
v  -1.8381 0.3522 -1.0343
v  -1.8381 -0.6804 -0.9958
v  -1.8381 0.3522 -0.7366
v  -1.8381 -0.8210 -0.7279
v  -1.8381 0.3524 -0.4969
v  -1.8381 -0.8934 -0.4343
v  -1.8381 0.9353 -1.3940
v  -1.8381 0.6524 -1.5013
v  -1.8381 1.1842 -1.2222
v  -1.8381 1.3848 -0.9958
v  -1.8381 1.5253 -0.7279
v  -1.8381 1.5977 -0.4343
v  -0.9595 1.1670 -3.5890
v  -1.4489 1.0111 -2.9563
v  -1.4489 1.6317 -2.7210
v  -0.9595 1.9345 -3.2979
v  -1.4489 2.1780 -2.3439
v  -0.9595 2.6101 -2.8317
v  -1.4489 2.6181 -1.8471
v  -0.9595 3.1544 -2.2173
v  -1.4489 2.9266 -1.2594
v  -0.9595 3.5359 -1.4905
v  -1.4489 3.0854 -0.6149
v  -0.9595 3.7323 -0.6935
v  -0.9595 -3.0279 -0.6935
v  -1.4489 -2.3811 -0.6149
v  -1.4489 -2.2222 -1.2594
v  -0.9595 -2.8315 -1.4905
v  -1.4489 -1.9137 -1.8471
v  -0.9595 -2.4501 -2.2173
v  -1.4489 -1.4736 -2.3439
v  -0.9595 -1.9057 -2.8317
v  -1.4489 -0.9273 -2.7210
v  -0.9595 -1.2302 -3.2979
v  -1.4489 -0.3067 -2.9563
v  -0.9595 -0.4626 -3.5890
v  -1.4489 0.3522 -3.0364
v  -0.9595 0.3522 -3.6880
v  -0.7345 1.3515 -4.3375
v  -0.1307 1.2599 -3.9661
v  -0.1307 2.1150 -3.6418
v  -0.7345 2.2928 -3.9805
v  -0.1307 2.8676 -3.1224
v  -0.7345 3.1212 -3.4086
v  -0.1307 3.4740 -2.4379
v  -0.7345 3.7887 -2.6551
v  -0.1307 3.8990 -1.6281
v  -0.7345 4.2566 -1.7638
v  -0.1307 4.1178 -0.7403
v  -0.7345 4.4975 -0.7863
v  -0.7345 -3.7932 -0.7863
v  -0.1307 -3.4135 -0.7403
v  -0.1307 -3.1946 -1.6281
v  -0.7345 -3.5522 -1.7638
v  -0.1307 -2.7696 -2.4379
v  -0.7345 -3.0844 -2.6551
v  -0.1307 -2.1633 -3.1224
v  -0.7345 -2.4169 -3.4086
v  -0.1307 -1.4107 -3.6419
v  -0.7345 -1.5884 -3.9805
v  -0.1307 -0.5556 -3.9661
v  -0.7345 -0.6471 -4.3375
v  -0.1307 0.3522 -4.0763
v  -0.7345 0.3522 -4.4588
v  -1.0164 1.4650 -4.7979
v  -1.0164 2.5131 -4.4004
v  -1.0164 3.4356 -3.7636
v  -1.0164 4.1790 -2.9245
v  -1.0164 4.7000 -1.9320
v  -1.0164 4.9682 -0.8436
v  -1.0164 -4.2639 -0.8436
v  -1.0164 -3.9956 -1.9320
v  -1.0164 -3.4747 -2.9245
v  -1.0164 -2.7313 -3.7636
v  -1.0164 -1.8088 -4.4004
v  -1.0164 -0.7607 -4.7979
v  -1.0164 0.3522 -4.9331
v  -1.2645 1.5701 -5.2245
v  -1.2645 2.7173 -4.7894
v  -1.2645 3.7271 -4.0924
v  -1.2645 4.5406 -3.1741
v  -1.2645 5.1108 -2.0877
v  -1.2645 5.4044 -0.8965
v  -1.0164 4.9682 0.2774
v  -1.2645 5.4044 0.3304
v  -1.2645 -4.7000 -0.8965
v  -1.2645 -4.4064 -2.0877
v  -1.2645 -3.8362 -3.1741
v  -1.2645 -3.0227 -4.0924
v  -1.2645 -2.0129 -4.7894
v  -1.2645 -0.8657 -5.2245
v  -1.2645 0.3522 -5.3723
v  -1.5302 0.9737 -2.8046
v  -1.5302 1.5591 -2.5827
v  -1.4628 1.5614 -2.5871
v  -1.4628 0.9749 -2.8095
v  -1.5302 2.0744 -2.2270
v  -1.4628 2.0777 -2.2307
v  -1.5302 2.4895 -1.7584
v  -1.4628 2.4936 -1.7612
v  -1.5302 2.7804 -1.2039
v  -1.4628 2.7851 -1.2058
v  -1.5302 2.9303 -0.5961
v  -1.4628 2.9353 -0.5967
v  -1.5302 -2.2259 -0.5961
v  -1.5302 -2.0761 -1.2039
v  -1.4628 -2.0808 -1.2058
v  -1.4628 -2.2309 -0.5967
v  -1.5302 -1.7851 -1.7584
v  -1.4628 -1.7893 -1.7612
v  -1.5302 -1.3700 -2.2270
v  -1.4628 -1.3733 -2.2307
v  -1.5302 -0.8548 -2.5827
v  -1.4628 -0.8570 -2.5871
v  -1.5302 -0.2693 -2.8046
v  -1.4628 -0.2705 -2.8095
v  -1.5302 0.3522 -2.8801
v  -1.4628 0.3522 -2.8851
v  -1.8381 0.0519 0.9352
v  -1.8381 0.3522 0.9716
v  -1.8381 0.3522 0.8745
v  -1.8381 -0.2309 0.8279
v  -1.8381 0.3524 0.6941
v  -1.8381 -0.4798 0.6561
v  -1.8381 0.3522 0.4683
v  -1.8381 -0.6804 0.4297
v  -1.8381 0.3522 0.1704
v  -1.8381 -0.8210 0.1619
v  -1.8381 0.3524 -0.0692
v  -1.8381 -0.8934 -0.1318
v  -1.8381 0.6524 0.9352
v  -1.8381 0.9353 0.8279
v  -1.8381 1.1842 0.6561
v  -1.8381 1.3848 0.4297
v  -1.8381 1.5253 0.1619
v  -1.8381 1.5977 -0.1318
v  -1.4489 1.6317 2.1549
v  -1.4489 1.0111 2.3903
v  -0.9595 1.1670 3.0230
v  -0.9595 1.9345 2.7319
v  -1.4489 2.1780 1.7779
v  -0.9595 2.6101 2.2656
v  -1.4489 2.6181 1.2810
v  -0.9595 3.1544 1.6512
v  -1.4489 2.9266 0.6933
v  -0.9595 3.5359 0.9243
v  -1.4489 3.0854 0.0489
v  -0.9595 3.7323 0.1274
v  -1.4489 -2.2222 0.6933
v  -1.4489 -2.3811 0.0489
v  -0.9595 -3.0279 0.1274
v  -0.9595 -2.8315 0.9243
v  -1.4489 -1.9137 1.2810
v  -0.9595 -2.4501 1.6512
v  -1.4489 -1.4736 1.7779
v  -0.9595 -1.9057 2.2656
v  -1.4489 -0.9273 2.1549
v  -0.9595 -1.2302 2.7319
v  -1.4489 -0.3067 2.3903
v  -0.9595 -0.4626 3.0230
v  -1.4489 0.3522 2.4703
v  -0.9595 0.3522 3.1219
v  -0.1307 2.1150 3.0757
v  -0.1307 1.2599 3.4000
v  -0.7345 1.3515 3.7713
v  -0.7345 2.2928 3.4144
v  -0.1307 2.8676 2.5563
v  -0.7345 3.1212 2.8426
v  -0.1307 3.4740 1.8718
v  -0.7345 3.7887 2.0891
v  -0.1307 3.8990 1.0621
v  -0.7345 4.2566 1.1977
v  -0.1307 4.1178 0.1742
v  -0.7345 4.4975 0.2203
v  -0.1307 -3.1946 1.0621
v  -0.1307 -3.4135 0.1742
v  -0.7345 -3.7932 0.2203
v  -0.7345 -3.5522 1.1977
v  -0.1307 -2.7696 1.8718
v  -0.7345 -3.0844 2.0891
v  -0.1307 -2.1633 2.5563
v  -0.7345 -2.4169 2.8426
v  -0.1307 -1.4107 3.0757
v  -0.7345 -1.5884 3.4144
v  -0.1307 -0.5556 3.4000
v  -0.7345 -0.6471 3.7713
v  -0.1307 0.3522 3.5103
v  -0.7345 0.3522 3.8928
v  -1.0164 1.4650 4.2318
v  -1.0164 2.5131 3.8343
v  -1.0164 3.4356 3.1975
v  -1.0164 4.1790 2.3584
v  -1.0164 4.7000 1.3658
v  -1.0164 -4.2639 0.2774
v  -1.0164 -3.9956 1.3659
v  -1.0164 -3.4747 2.3584
v  -1.0164 -2.7313 3.1975
v  -1.0164 -1.8088 3.8343
v  -1.0164 -0.7607 4.2318
v  -1.0164 0.3522 4.3669
v  -1.2645 1.5701 4.6584
v  -1.2645 2.7173 4.2233
v  -1.2645 3.7271 3.5264
v  -1.2645 4.5406 2.6080
v  -1.2645 5.1108 1.5217
v  -1.2645 -4.7000 0.3304
v  -1.2645 -4.4064 1.5217
v  -1.2645 -3.8362 2.6080
v  -1.2645 -3.0227 3.5264
v  -1.2645 -2.0129 4.2233
v  -1.2645 -0.8657 4.6584
v  -1.2645 0.3522 4.8063
v  -1.4628 1.5614 2.0210
v  -1.5302 1.5591 2.0165
v  -1.5302 0.9737 2.2385
v  -1.4628 0.9749 2.2434
v  -1.4628 2.0777 1.6646
v  -1.5302 2.0744 1.6608
v  -1.4628 2.4936 1.1951
v  -1.5302 2.4895 1.1922
v  -1.4628 2.7851 0.6396
v  -1.5302 2.7804 0.6379
v  -1.4628 2.9353 0.0306
v  -1.5302 2.9303 0.0300
v  -1.4628 -2.2309 0.0306
v  -1.5302 -2.2259 0.0300
v  -1.4628 -2.0808 0.6396
v  -1.5302 -2.0761 0.6379
v  -1.4628 -1.7893 1.1951
v  -1.5302 -1.7851 1.1922
v  -1.4628 -1.3733 1.6646
v  -1.5302 -1.3700 1.6609
v  -1.4628 -0.8570 2.0210
v  -1.5302 -0.8548 2.0165
v  -1.4628 -0.2705 2.2434
v  -1.5302 -0.2693 2.2385
v  -1.4628 0.3522 2.3191
v  -1.5302 0.3522 2.3140
v  -1.0956 1.5871 -5.2932
v  -1.0956 2.7502 -4.8520
v  -1.0956 3.7739 -4.1454
v  -1.0956 4.5988 -3.2143
v  -1.0956 5.1769 -2.1129
v  -1.0956 5.4746 -0.9050
v  -1.0956 5.4746 0.3389
v  -1.0956 5.1769 1.5467
v  -1.0956 4.5988 2.6482
v  -1.0956 3.7739 3.5793
v  -1.0956 2.7502 4.2860
v  -1.0956 1.5871 4.7271
v  -1.0956 0.3522 4.8770
v  -1.0956 -0.8827 4.7271
v  -1.0956 -2.0458 4.2860
v  -1.0956 -3.0696 3.5793
v  -1.0956 -3.8945 2.6482
v  -1.0956 -4.4725 1.5467
v  -1.0956 -4.7702 0.3389
v  -1.0956 -4.7702 -0.9050
v  -1.0956 -4.4725 -2.1129
v  -1.0956 -3.8945 -3.2143
v  -1.0956 -3.0696 -4.1454
v  -1.0956 -2.0458 -4.8520
v  -1.0956 -0.8827 -5.2932
v  -1.0956 0.3522 -5.4431
v  -0.5823 0.3522 -8.0320
v  -0.9211 0.3522 -7.2894
v  -0.9211 2.0289 -7.0858
v  -0.5823 2.2067 -7.8069
v  -0.9211 3.6082 -6.4869
v  -0.5823 3.9533 -7.1444
v  -0.9211 4.9982 -5.5274
v  -0.5823 5.4907 -6.0832
v  -0.9211 6.1183 -4.2631
v  -0.5823 6.7294 -4.6850
v  -0.9211 6.9032 -2.7676
v  -0.5823 7.5976 -3.0308
v  -0.9211 7.3075 -1.1276
v  -0.5823 8.0446 -1.2171
v  -0.5823 -7.3403 0.6510
v  -0.9211 -6.6031 0.5615
v  -0.9211 -6.6031 -1.1276
v  -0.5823 -7.3403 -1.2171
v  -0.9211 -6.1989 -2.7676
v  -0.5823 -6.8932 -3.0308
v  -0.9211 -5.4140 -4.2631
v  -0.5823 -6.0251 -4.6850
v  -0.9211 -4.2939 -5.5274
v  -0.5823 -4.7863 -6.0832
v  -0.9211 -2.9039 -6.4869
v  -0.5823 -3.2490 -7.1444
v  -0.9211 -1.3246 -7.0858
v  -0.5823 -1.5023 -7.8069
v  0.9609 0.3522 -8.0320
v  0.9609 2.2067 -7.8069
v  0.9609 3.9533 -7.1444
v  0.9609 5.4907 -6.0832
v  0.9609 6.7294 -4.6850
v  0.9609 7.5976 -3.0308
v  0.9609 8.0446 -1.2171
v  0.9609 -7.3403 -1.2171
v  0.9609 -7.3403 0.6510
v  0.9609 -6.8932 -3.0308
v  0.9609 -6.0251 -4.6850
v  0.9609 -4.7863 -6.0832
v  0.9609 -3.2490 -7.1444
v  0.9609 -1.5023 -7.8069
v  -1.0956 3.1625 -5.6376
v  -1.0956 1.7994 -6.1546
v  -1.0956 4.3622 -4.8095
v  -1.0956 5.3290 -3.7183
v  -1.0956 6.0065 -2.4275
v  -1.0956 6.3554 -1.0120
v  -1.0956 -4.7703 -0.9051
v  -1.0956 -5.3021 -2.4275
v  -1.0956 -5.6510 -1.0120
v  -1.0956 -4.6246 -3.7183
v  -1.0956 -3.6579 -4.8095
v  -1.0956 -2.4581 -5.6376
v  -1.0956 -1.0951 -6.1546
v  -1.0956 0.3522 -6.3303
v  -0.9211 2.0289 6.5197
v  -0.9211 0.3522 6.7233
v  -0.5823 0.3522 7.4659
v  -0.5823 2.2067 7.2407
v  -0.9211 3.6082 5.9207
v  -0.5823 3.9533 6.5783
v  -0.9211 4.9982 4.9613
v  -0.5823 5.4907 5.5171
v  -0.9211 6.1183 3.6970
v  -0.5823 6.7294 4.1188
v  -0.9211 6.9032 2.2014
v  -0.5823 7.5976 2.4648
v  -0.9211 7.3075 0.5615
v  -0.5823 8.0446 0.6509
v  -0.9211 -6.1989 2.2014
v  -0.5823 -6.8932 2.4648
v  -0.9211 -5.4140 3.6970
v  -0.5823 -6.0251 4.1189
v  -0.9211 -4.2939 4.9613
v  -0.5823 -4.7863 5.5171
v  -0.9211 -2.9039 5.9207
v  -0.5823 -3.2489 6.5783
v  -0.9211 -1.3246 6.5197
v  -0.5823 -1.5023 7.2407
v  0.9609 0.3522 7.4659
v  0.9609 2.2067 7.2407
v  0.9609 3.9533 6.5783
v  0.9609 5.4907 5.5171
v  0.9609 6.7294 4.1188
v  0.9609 7.5976 2.4648
v  0.9609 8.0446 0.6509
v  0.9609 -6.8932 2.4648
v  0.9609 -6.0251 4.1189
v  0.9609 -4.7863 5.5171
v  0.9609 -3.2489 6.5783
v  0.9609 -1.5023 7.2407
v  -1.0956 3.1625 5.0716
v  -1.0956 1.5871 4.7270
v  -1.0956 1.7994 5.5885
v  -1.0956 4.3622 4.2434
v  -1.0956 5.3290 3.1522
v  -1.0956 6.0065 1.8613
v  -1.0956 6.3554 0.4458
v  -1.0956 -5.3021 1.8613
v  -1.0956 -5.6510 0.4459
v  -1.0956 -4.6246 3.1522
v  -1.0956 -3.6579 4.2434
v  -1.0956 -2.4581 5.0716
v  -1.0956 -1.0951 5.5885
v  -1.0956 0.3522 5.7642
v  2.8427 2.0289 -7.0858
v  2.8427 0.3522 -7.2894
v  2.5040 0.3522 -8.0320
v  2.5040 2.2067 -7.8069
v  2.8427 3.6082 -6.4869
v  2.5040 3.9533 -7.1444
v  2.8427 4.9982 -5.5274
v  2.5040 5.4907 -6.0832
v  2.8427 6.1183 -4.2631
v  2.5040 6.7294 -4.6850
v  2.8427 6.9032 -2.7676
v  2.5040 7.5976 -3.0308
v  2.8427 7.3075 -1.1276
v  2.5040 8.0446 -1.2171
v  2.8427 -6.6031 -1.1276
v  2.8427 -6.6031 0.5615
v  2.5040 -7.3403 0.6510
v  2.5040 -7.3403 -1.2171
v  2.8427 -6.1989 -2.7676
v  2.5040 -6.8932 -3.0308
v  2.8427 -5.4140 -4.2631
v  2.5040 -6.0251 -4.6850
v  2.8427 -4.2939 -5.5274
v  2.5040 -4.7863 -6.0832
v  2.8427 -2.9039 -6.4869
v  2.5040 -3.2490 -7.1444
v  2.8427 -1.3246 -7.0858
v  2.5040 -1.5023 -7.8069
v  3.0173 3.1625 -5.6376
v  3.0173 2.7502 -4.8520
v  3.0173 1.5871 -5.2932
v  3.0173 1.7994 -6.1546
v  3.0173 4.3622 -4.8095
v  3.0173 3.7739 -4.1454
v  3.0173 5.3290 -3.7183
v  3.0173 4.5988 -3.2143
v  3.0173 6.0065 -2.4275
v  3.0173 5.1769 -2.1129
v  3.0173 6.3554 -1.0120
v  3.0173 5.4746 -0.9051
v  3.0173 -5.3021 -2.4275
v  3.0173 -4.4725 -2.1129
v  3.0173 -4.7703 -0.9051
v  3.0173 -5.6510 -1.0120
v  3.0173 -4.6246 -3.7183
v  3.0173 -3.8945 -3.2143
v  3.0173 -3.6579 -4.8095
v  3.0173 -3.0696 -4.1454
v  3.0173 -2.4581 -5.6376
v  3.0173 -2.0458 -4.8520
v  3.0173 -1.0951 -6.1546
v  3.0173 -0.8827 -5.2932
v  3.0173 0.3522 -6.3303
v  3.0173 0.3522 -5.4431
v  2.5040 0.3522 7.4659
v  2.8427 0.3522 6.7233
v  2.8427 2.0289 6.5197
v  2.5040 2.2067 7.2407
v  2.8427 3.6082 5.9207
v  2.5040 3.9533 6.5783
v  2.8427 4.9982 4.9613
v  2.5040 5.4907 5.5171
v  2.8427 6.1183 3.6970
v  2.5040 6.7294 4.1188
v  2.8427 6.9032 2.2014
v  2.5040 7.5976 2.4648
v  2.8427 7.3075 0.5615
v  2.5040 8.0446 0.6509
v  2.8427 -6.1989 2.2014
v  2.5040 -6.8932 2.4648
v  2.8427 -5.4140 3.6970
v  2.5040 -6.0251 4.1189
v  2.8427 -4.2939 4.9613
v  2.5040 -4.7863 5.5171
v  2.8427 -2.9039 5.9207
v  2.5040 -3.2489 6.5783
v  2.8427 -1.3246 6.5197
v  2.5040 -1.5023 7.2407
v  3.0173 1.5871 4.7270
v  3.0173 2.7502 4.2860
v  3.0173 3.1625 5.0716
v  3.0173 1.7994 5.5885
v  3.0173 3.7739 3.5793
v  3.0173 4.3622 4.2434
v  3.0173 4.5988 2.6482
v  3.0173 5.3290 3.1522
v  3.0173 5.1769 1.5467
v  3.0173 6.0065 1.8613
v  3.0173 5.4746 0.3389
v  3.0173 6.3554 0.4458
v  3.0173 -4.7702 0.3389
v  3.0173 -4.4725 1.5467
v  3.0173 -5.3021 1.8613
v  3.0173 -5.6510 0.4458
v  3.0173 -3.8945 2.6482
v  3.0173 -4.6246 3.1522
v  3.0173 -3.0696 3.5793
v  3.0173 -3.6579 4.2434
v  3.0173 -2.0458 4.2860
v  3.0173 -2.4581 5.0716
v  3.0173 -0.8827 4.7271
v  3.0173 -1.0951 5.5885
v  3.0173 0.3522 4.8770
v  3.0173 0.3522 5.7642
v  2.0523 1.4294 -2.3356
v  2.0523 0.9070 -2.5339
v  2.6561 1.3515 -4.3375
v  2.6561 2.2927 -3.9805
v  2.0523 1.8894 -2.0183
v  2.6561 3.1212 -3.4086
v  2.0523 2.2599 -1.5999
v  2.6561 3.7887 -2.6551
v  2.0523 2.5197 -1.1051
v  2.6561 4.2566 -1.7638
v  2.0523 2.6534 -0.5625
v  2.6561 4.4975 -0.7864
v  2.0523 -1.8154 -1.1051
v  2.0523 -1.9491 -0.5625
v  2.6561 -3.7932 -0.7864
v  2.6561 -3.5522 -1.7638
v  2.0523 -1.5556 -1.5999
v  2.6561 -3.0844 -2.6551
v  2.0523 -1.1850 -2.0183
v  2.6561 -2.4169 -3.4086
v  2.0523 -0.7251 -2.3356
v  2.6561 -1.5884 -3.9805
v  2.0523 -0.2026 -2.5339
v  2.6561 -0.6471 -4.3375
v  2.0523 0.3522 -2.6013
v  2.6561 0.3522 -4.4588
v  2.9381 1.4650 -4.7979
v  2.9381 2.5131 -4.4004
v  2.9381 3.4356 -3.7636
v  2.9381 4.1790 -2.9245
v  2.9381 4.7000 -1.9320
v  2.9381 4.9682 -0.8436
v  2.9381 -4.2639 -0.8436
v  2.9381 -3.9956 -1.9320
v  2.9381 -3.4747 -2.9245
v  2.9381 -2.7313 -3.7636
v  2.9381 -1.8088 -4.4004
v  2.9381 -0.7607 -4.7979
v  2.9381 0.3522 -4.9331
v  3.1862 1.5701 -5.2245
v  3.1862 2.7173 -4.7894
v  3.1862 3.7270 -4.0925
v  3.1862 4.5406 -3.1741
v  3.1862 5.1108 -2.0877
v  3.1862 5.4044 -0.8965
v  3.1862 5.4044 0.3304
v  2.9381 4.9682 0.2774
v  3.1862 -4.7000 -0.8965
v  3.1862 -4.4064 -2.0877
v  3.1862 -3.8362 -3.1741
v  3.1862 -3.0227 -4.0925
v  3.1862 -2.0129 -4.7894
v  3.1862 -0.8657 -5.2245
v  3.1862 0.3522 -5.3723
v  2.6561 1.3515 3.7713
v  2.0524 0.9070 1.9677
v  2.0523 1.4294 1.7696
v  2.6561 2.2927 3.4144
v  2.0523 1.8894 1.4521
v  2.6561 3.1212 2.8426
v  2.0523 2.2599 1.0339
v  2.6561 3.7887 2.0891
v  2.0523 2.5197 0.5390
v  2.6561 4.2566 1.1977
v  2.0523 2.6534 -0.0036
v  2.6561 4.4975 0.2203
v  2.6561 -3.7932 0.2203
v  2.0523 -1.9491 -0.0036
v  2.0524 -1.8154 0.5390
v  2.6561 -3.5522 1.1977
v  2.0524 -1.5556 1.0339
v  2.6561 -3.0844 2.0891
v  2.0524 -1.1850 1.4521
v  2.6561 -2.4169 2.8426
v  2.0524 -0.7251 1.7696
v  2.6561 -1.5884 3.4144
v  2.0524 -0.2026 1.9677
v  2.6561 -0.6471 3.7713
v  2.0524 0.3522 2.0351
v  2.6561 0.3522 3.8927
v  2.9381 1.4650 4.2318
v  2.9381 2.5131 3.8343
v  2.9381 3.4356 3.1975
v  2.9381 4.1790 2.3584
v  2.9381 4.7000 1.3658
v  2.9381 -4.2639 0.2774
v  2.9381 -3.9956 1.3658
v  2.9381 -3.4747 2.3584
v  2.9381 -2.7313 3.1975
v  2.9381 -1.8088 3.8343
v  2.9381 -0.7607 4.2318
v  2.9381 0.3522 4.3669
v  3.1862 1.5701 4.6584
v  3.1862 2.7173 4.2233
v  3.1862 3.7270 3.5264
v  3.1862 4.5406 2.6080
v  3.1862 5.1108 1.5217
v  3.1862 -4.7000 0.3304
v  3.1862 -4.4064 1.5217
v  3.1862 -3.8362 2.6080
v  3.1862 -3.0227 3.5264
v  3.1862 -2.0129 4.2233
v  3.1862 -0.8657 4.6584
v  3.1862 0.3522 4.8063
v  2.0524 0.3522 1.7696
v  2.0524 0.3522 1.4521
v  2.0524 0.3522 1.0339
v  2.0524 0.3522 0.5390
v  2.0523 0.3522 -0.0036
v  2.0523 0.3522 -0.5625
v  2.0523 0.3522 -1.1051
v  2.0523 0.3522 -1.5999
v  2.0523 0.3522 -2.0183
v  2.0523 0.3522 -2.3356
# 594 vertices

vn -1.0000 0.0000 -0.0000
vn -0.9927 -0.0000 -0.1210
vn -0.9927 -0.0290 -0.1175
vn -0.9927 -0.0562 -0.1072
vn -0.9927 -0.0802 -0.0906
vn -0.9927 -0.0996 -0.0687
vn -0.9927 -0.1131 -0.0429
vn -0.9927 -0.1201 -0.0146
vn -0.9927 0.0562 -0.1072
vn -0.9927 0.0290 -0.1175
vn -0.9927 0.0802 -0.0906
vn -0.9927 0.0996 -0.0687
vn -0.9927 0.1131 -0.0429
vn -0.9927 0.1201 -0.0146
vn -0.6218 0.1874 -0.7605
vn -0.9260 0.0904 -0.3666
vn -0.9260 0.1755 -0.3344
vn -0.6218 0.3640 -0.6935
vn -0.9260 0.2504 -0.2826
vn -0.6218 0.5194 -0.5862
vn -0.9260 0.3108 -0.2145
vn -0.6218 0.6446 -0.4449
vn -0.9260 0.3531 -0.1339
vn -0.6218 0.7323 -0.2777
vn -0.9260 0.3749 -0.0455
vn -0.6218 0.7775 -0.0944
vn -0.6218 -0.7775 -0.0944
vn -0.9260 -0.3749 -0.0455
vn -0.9260 -0.3531 -0.1339
vn -0.6218 -0.7323 -0.2777
vn -0.9260 -0.3108 -0.2145
vn -0.6218 -0.6446 -0.4449
vn -0.9260 -0.2504 -0.2826
vn -0.6218 -0.5194 -0.5862
vn -0.9260 -0.1755 -0.3344
vn -0.6218 -0.3640 -0.6935
vn -0.9260 -0.0904 -0.3666
vn -0.6218 -0.1874 -0.7605
vn -0.9260 0.0000 -0.3776
vn -0.6218 -0.0000 -0.7832
vn -0.7260 -0.1646 0.6677
vn -1.0000 -0.0010 0.0042
vn -1.0000 -0.0020 0.0038
vn -0.7260 -0.3196 0.6089
vn -1.0000 -0.0028 0.0032
vn -0.7260 -0.4560 0.5147
vn -1.0000 -0.0035 0.0024
vn -0.7260 -0.5659 0.3906
vn -1.0000 -0.0040 0.0015
vn -0.7260 -0.6430 0.2438
vn -1.0000 -0.0042 0.0005
vn -0.7260 -0.6826 0.0829
vn -0.7260 0.6826 0.0829
vn -1.0000 0.0042 0.0005
vn -1.0000 0.0040 0.0015
vn -0.7260 0.6430 0.2438
vn -1.0000 0.0035 0.0024
vn -0.7260 0.5659 0.3906
vn -1.0000 0.0028 0.0032
vn -0.7260 0.4560 0.5147
vn -1.0000 0.0020 0.0038
vn -0.7260 0.3196 0.6089
vn -1.0000 0.0010 0.0042
vn -0.7260 0.1646 0.6677
vn -1.0000 0.0000 0.0043
vn -0.7260 0.0000 0.6877
vn -0.8656 -0.1198 0.4862
vn -0.8656 -0.2327 0.4434
vn -0.8656 -0.3321 0.3749
vn -0.8656 -0.4122 0.2845
vn -0.8656 -0.4683 0.1776
vn -0.8656 -0.4972 0.0604
vn -0.8656 0.4972 0.0604
vn -0.8656 0.4683 0.1776
vn -0.8656 0.4122 0.2845
vn -0.8656 0.3321 0.3749
vn -0.8656 0.2327 0.4434
vn -0.8656 0.1198 0.4863
vn -0.8656 -0.0000 0.5008
vn -0.9276 0.0894 -0.3628
vn -0.9276 0.1736 -0.3308
vn -0.9276 0.2477 -0.2796
vn -0.9276 0.3075 -0.2122
vn -0.9276 0.3493 -0.1325
vn -0.9276 0.3709 -0.0450
vn -0.8656 -0.4972 -0.0604
vn -0.9276 0.3709 0.0450
vn -0.9276 -0.3709 -0.0450
vn -0.9276 -0.3493 -0.1325
vn -0.9276 -0.3075 -0.2122
vn -0.9276 -0.2477 -0.2796
vn -0.9276 -0.1736 -0.3308
vn -0.9276 -0.0894 -0.3627
vn -0.9276 0.0000 -0.3736
vn -0.6300 0.1858 -0.7540
vn -0.6300 0.3609 -0.6876
vn -0.7266 0.3193 -0.6083
vn -0.7266 0.1644 -0.6670
vn -0.6300 0.5150 -0.5813
vn -0.7267 0.4556 -0.5142
vn -0.6300 0.6391 -0.4412
vn -0.7266 0.5654 -0.3903
vn -0.6300 0.7261 -0.2754
vn -0.7266 0.6424 -0.2436
vn -0.6300 0.7709 -0.0936
vn -0.7266 0.6820 -0.0828
vn -0.6300 -0.7709 -0.0936
vn -0.6300 -0.7261 -0.2754
vn -0.7266 -0.6424 -0.2436
vn -0.7266 -0.6820 -0.0828
vn -0.6300 -0.6391 -0.4412
vn -0.7266 -0.5654 -0.3903
vn -0.6300 -0.5150 -0.5813
vn -0.7266 -0.4556 -0.5142
vn -0.6300 -0.3609 -0.6876
vn -0.7266 -0.3193 -0.6083
vn -0.6300 -0.1858 -0.7540
vn -0.7266 -0.1644 -0.6670
vn -0.6300 -0.0000 -0.7766
vn -0.7266 0.0000 -0.6870
vn -0.9927 -0.0290 0.1175
vn -0.9927 -0.0000 0.1210
vn -1.0000 -0.0000 -0.0000
vn -0.9927 -0.0562 0.1072
vn -0.9927 -0.0802 0.0906
vn -0.9927 -0.0996 0.0687
vn -1.0000 -0.0000 0.0000
vn -0.9927 -0.1131 0.0429
vn -1.0000 0.0000 0.0000
vn -0.9927 -0.1201 0.0146
vn -0.9927 0.0290 0.1175
vn -0.9927 0.0562 0.1071
vn -0.9927 0.0802 0.0906
vn -0.9927 0.0996 0.0687
vn -0.9927 0.1131 0.0429
vn -0.9927 0.1201 0.0146
vn -0.9260 0.1755 0.3344
vn -0.9260 0.0904 0.3666
vn -0.6218 0.1874 0.7605
vn -0.6218 0.3640 0.6935
vn -0.9260 0.2504 0.2826
vn -0.6218 0.5194 0.5862
vn -0.9260 0.3108 0.2145
vn -0.6218 0.6446 0.4449
vn -0.9260 0.3531 0.1339
vn -0.6218 0.7323 0.2777
vn -0.9260 0.3749 0.0455
vn -0.6218 0.7775 0.0944
vn -0.9260 -0.3531 0.1339
vn -0.9260 -0.3749 0.0455
vn -0.6218 -0.7775 0.0944
vn -0.6218 -0.7323 0.2777
vn -0.9260 -0.3108 0.2145
vn -0.6218 -0.6446 0.4449
vn -0.9260 -0.2504 0.2826
vn -0.6218 -0.5194 0.5862
vn -0.9260 -0.1755 0.3344
vn -0.6218 -0.3640 0.6935
vn -0.9260 -0.0904 0.3666
vn -0.6218 -0.1874 0.7605
vn -0.9260 -0.0000 0.3776
vn -0.6218 -0.0000 0.7832
vn -1.0000 -0.0020 -0.0038
vn -1.0000 -0.0010 -0.0042
vn -0.7260 -0.1646 -0.6677
vn -0.7260 -0.3196 -0.6089
vn -1.0000 -0.0028 -0.0032
vn -0.7260 -0.4560 -0.5147
vn -1.0000 -0.0035 -0.0024
vn -0.7260 -0.5659 -0.3906
vn -1.0000 -0.0040 -0.0015
vn -0.7260 -0.6430 -0.2438
vn -1.0000 -0.0042 -0.0005
vn -0.7260 -0.6826 -0.0829
vn -1.0000 0.0040 -0.0015
vn -1.0000 0.0042 -0.0005
vn -0.7260 0.6826 -0.0829
vn -0.7260 0.6430 -0.2438
vn -1.0000 0.0035 -0.0024
vn -0.7260 0.5659 -0.3906
vn -1.0000 0.0028 -0.0032
vn -0.7260 0.4560 -0.5147
vn -1.0000 0.0020 -0.0038
vn -0.7260 0.3196 -0.6089
vn -1.0000 0.0010 -0.0042
vn -0.7260 0.1646 -0.6677
vn -1.0000 -0.0000 -0.0043
vn -0.7260 -0.0000 -0.6877
vn -0.8656 -0.1198 -0.4862
vn -0.8656 -0.2327 -0.4434
vn -0.8656 -0.3321 -0.3749
vn -0.8656 -0.4122 -0.2845
vn -0.8656 -0.4683 -0.1776
vn -0.8656 0.4972 -0.0604
vn -0.8656 0.4683 -0.1776
vn -0.8656 0.4122 -0.2845
vn -0.8656 0.3321 -0.3749
vn -0.8656 0.2327 -0.4434
vn -0.8656 0.1198 -0.4862
vn -0.8656 -0.0000 -0.5008
vn -0.9276 0.0894 0.3628
vn -0.9276 0.1736 0.3308
vn -0.9276 0.2477 0.2797
vn -0.9276 0.3075 0.2122
vn -0.9276 0.3493 0.1325
vn -0.9276 -0.3709 0.0450
vn -0.9276 -0.3493 0.1325
vn -0.9276 -0.3075 0.2122
vn -0.9276 -0.2477 0.2796
vn -0.9276 -0.1736 0.3308
vn -0.9276 -0.0894 0.3627
vn -0.9276 0.0000 0.3736
vn -0.7266 0.3193 0.6083
vn -0.6300 0.3609 0.6876
vn -0.6300 0.1858 0.7540
vn -0.7266 0.1644 0.6671
vn -0.7267 0.4556 0.5142
vn -0.6300 0.5150 0.5813
vn -0.7266 0.5654 0.3903
vn -0.6300 0.6391 0.4412
vn -0.7266 0.6424 0.2436
vn -0.6300 0.7261 0.2754
vn -0.7266 0.6820 0.0828
vn -0.6300 0.7709 0.0936
vn -0.7266 -0.6820 0.0828
vn -0.6300 -0.7709 0.0936
vn -0.7266 -0.6424 0.2436
vn -0.6300 -0.7261 0.2754
vn -0.7266 -0.5654 0.3903
vn -0.6300 -0.6391 0.4412
vn -0.7266 -0.4556 0.5143
vn -0.6300 -0.5150 0.5813
vn -0.7266 -0.3193 0.6083
vn -0.6300 -0.3609 0.6876
vn -0.7266 -0.1644 0.6671
vn -0.6300 -0.1859 0.7540
vn -0.7267 0.0000 0.6870
vn -0.6300 0.0000 0.7766
vn -0.3863 0.2207 -0.8956
vn -0.3863 0.4286 -0.8167
vn -0.3863 0.6116 -0.6904
vn -0.3863 0.7591 -0.5240
vn -0.3863 0.8624 -0.3271
vn -0.3863 0.9157 -0.1112
vn -0.3863 0.9157 0.1112
vn -0.3863 0.8624 0.3271
vn -0.3863 0.7591 0.5240
vn -0.3863 0.6117 0.6904
vn -0.3863 0.4287 0.8167
vn -0.3863 0.2207 0.8956
vn -0.3863 0.0000 0.9224
vn -0.3863 -0.2207 0.8956
vn -0.3863 -0.4287 0.8167
vn -0.3863 -0.6116 0.6904
vn -0.3863 -0.7591 0.5240
vn -0.3863 -0.8624 0.3271
vn -0.3863 -0.9157 0.1112
vn -0.3863 -0.9157 -0.1112
vn -0.3863 -0.8624 -0.3271
vn -0.3863 -0.7591 -0.5240
vn -0.3863 -0.6116 -0.6904
vn -0.3863 -0.4286 -0.8167
vn -0.3863 -0.2207 -0.8956
vn -0.3863 0.0000 -0.9224
vn -0.5227 0.0000 -0.8525
vn -0.9514 0.0000 -0.3079
vn -0.9514 0.0737 -0.2990
vn -0.5227 0.2040 -0.8277
vn -0.9514 0.1431 -0.2727
vn -0.5227 0.3962 -0.7548
vn -0.9514 0.2042 -0.2305
vn -0.5227 0.5653 -0.6381
vn -0.9514 0.2534 -0.1749
vn -0.5227 0.7016 -0.4843
vn -0.9514 0.2879 -0.1092
vn -0.5227 0.7971 -0.3023
vn -0.9514 0.3057 -0.0371
vn -0.5227 0.8463 -0.1028
vn -0.5227 -0.8463 0.1028
vn -0.9514 -0.3057 0.0371
vn -0.9514 -0.3057 -0.0371
vn -0.5227 -0.8463 -0.1028
vn -0.9514 -0.2879 -0.1092
vn -0.5227 -0.7971 -0.3023
vn -0.9514 -0.2534 -0.1749
vn -0.5227 -0.7016 -0.4843
vn -0.9514 -0.2042 -0.2305
vn -0.5227 -0.5653 -0.6381
vn -0.9514 -0.1431 -0.2727
vn -0.5227 -0.3962 -0.7548
vn -0.9514 -0.0737 -0.2990
vn -0.5227 -0.2040 -0.8277
vn -0.0000 0.0000 -1.0000
vn -0.0000 0.2393 -0.9709
vn -0.0000 0.4647 -0.8855
vn -0.0000 0.6631 -0.7485
vn -0.0000 0.8230 -0.5681
vn -0.0000 0.9350 -0.3546
vn 0.0000 0.9927 -0.1205
vn 0.0000 -0.9927 -0.1205
vn 0.0000 -0.9927 0.1205
vn 0.0000 -0.9350 -0.3546
vn 0.0000 -0.8230 -0.5681
vn -0.0000 -0.6631 -0.7485
vn -0.0000 -0.4647 -0.8855
vn -0.0000 -0.2393 -0.9709
vn -0.9953 0.0450 -0.0857
vn -0.9953 0.0232 -0.0939
vn -0.9953 0.0642 -0.0724
vn -0.9953 0.0796 -0.0550
vn -0.9953 0.0905 -0.0343
vn -0.9953 0.0960 -0.0117
vn -0.9953 -0.0905 -0.0343
vn -0.9953 -0.0960 -0.0117
vn -0.9953 -0.0796 -0.0550
vn -0.9953 -0.0642 -0.0724
vn -0.9953 -0.0450 -0.0857
vn -0.9953 -0.0232 -0.0939
vn -0.9953 -0.0000 -0.0967
vn -0.9514 0.0737 0.2990
vn -0.9514 0.0000 0.3079
vn -0.5227 -0.0000 0.8525
vn -0.5227 0.2040 0.8277
vn -0.9514 0.1431 0.2727
vn -0.5227 0.3962 0.7548
vn -0.9514 0.2042 0.2305
vn -0.5227 0.5653 0.6381
vn -0.9514 0.2534 0.1749
vn -0.5227 0.7016 0.4843
vn -0.9514 0.2879 0.1092
vn -0.5227 0.7971 0.3023
vn -0.9514 0.3057 0.0371
vn -0.5227 0.8463 0.1028
vn -0.9514 -0.2879 0.1092
vn -0.5227 -0.7971 0.3023
vn -0.9514 -0.2534 0.1749
vn -0.5227 -0.7016 0.4843
vn -0.9514 -0.2042 0.2305
vn -0.5227 -0.5653 0.6381
vn -0.9514 -0.1431 0.2727
vn -0.5227 -0.3962 0.7548
vn -0.9514 -0.0737 0.2990
vn -0.5228 -0.2040 0.8277
vn -0.0000 -0.0000 1.0000
vn -0.0000 0.2393 0.9709
vn -0.0000 0.4647 0.8855
vn -0.0000 0.6631 0.7485
vn -0.0000 0.8230 0.5681
vn -0.0000 0.9350 0.3546
vn 0.0000 0.9927 0.1205
vn 0.0000 -0.9350 0.3546
vn 0.0000 -0.8230 0.5681
vn 0.0000 -0.6631 0.7485
vn 0.0000 -0.4647 0.8855
vn 0.0000 -0.2393 0.9709
vn -0.9953 0.0450 0.0857
vn -0.9953 0.0232 0.0939
vn -0.9953 0.0642 0.0724
vn -0.9953 0.0796 0.0550
vn -0.9953 0.0905 0.0343
vn -0.9953 0.0960 0.0117
vn -0.9953 -0.0905 0.0343
vn -0.9953 -0.0960 0.0117
vn -0.9953 -0.0796 0.0550
vn -0.9953 -0.0642 0.0724
vn -0.9953 -0.0450 0.0857
vn -0.9953 -0.0232 0.0939
vn -0.9953 0.0000 0.0968
vn 0.9514 0.0737 -0.2990
vn 0.9514 0.0000 -0.3079
vn 0.5228 -0.0000 -0.8525
vn 0.5227 0.2040 -0.8277
vn 0.9514 0.1431 -0.2727
vn 0.5227 0.3962 -0.7548
vn 0.9514 0.2042 -0.2305
vn 0.5227 0.5653 -0.6381
vn 0.9514 0.2534 -0.1749
vn 0.5228 0.7016 -0.4843
vn 0.9514 0.2879 -0.1092
vn 0.5227 0.7971 -0.3023
vn 0.9514 0.3057 -0.0371
vn 0.5227 0.8463 -0.1028
vn 0.9514 -0.3057 -0.0371
vn 0.9514 -0.3057 0.0371
vn 0.5227 -0.8463 0.1028
vn 0.5227 -0.8463 -0.1028
vn 0.9514 -0.2879 -0.1092
vn 0.5227 -0.7971 -0.3023
vn 0.9514 -0.2534 -0.1749
vn 0.5227 -0.7016 -0.4843
vn 0.9514 -0.2042 -0.2305
vn 0.5227 -0.5653 -0.6381
vn 0.9514 -0.1431 -0.2727
vn 0.5227 -0.3962 -0.7548
vn 0.9514 -0.0737 -0.2990
vn 0.5227 -0.2040 -0.8277
vn 0.9953 0.0450 -0.0857
vn 0.8523 0.2431 -0.4631
vn 0.8523 0.1252 -0.5078
vn 0.9953 0.0232 -0.0939
vn 0.9953 0.0642 -0.0724
vn 0.8523 0.3468 -0.3915
vn 0.9953 0.0796 -0.0550
vn 0.8523 0.4305 -0.2971
vn 0.9953 0.0905 -0.0343
vn 0.8523 0.4890 -0.1855
vn 0.9953 0.0960 -0.0117
vn 0.8523 0.5192 -0.0630
vn 0.9953 -0.0905 -0.0343
vn 0.8523 -0.4890 -0.1855
vn 0.8523 -0.5192 -0.0630
vn 0.9953 -0.0960 -0.0117
vn 0.9953 -0.0796 -0.0550
vn 0.8523 -0.4304 -0.2971
vn 0.9953 -0.0642 -0.0724
vn 0.8523 -0.3468 -0.3915
vn 0.9953 -0.0450 -0.0857
vn 0.8523 -0.2431 -0.4631
vn 0.9953 -0.0232 -0.0939
vn 0.8523 -0.1252 -0.5078
vn 0.9953 -0.0000 -0.0968
vn 0.8523 0.0000 -0.5230
vn 0.5228 -0.0000 0.8525
vn 0.9514 0.0000 0.3079
vn 0.9514 0.0737 0.2990
vn 0.5227 0.2040 0.8277
vn 0.9514 0.1431 0.2727
vn 0.5227 0.3962 0.7548
vn 0.9514 0.2042 0.2305
vn 0.5227 0.5653 0.6381
vn 0.9514 0.2534 0.1749
vn 0.5228 0.7016 0.4843
vn 0.9514 0.2879 0.1092
vn 0.5227 0.7971 0.3023
vn 0.9514 0.3057 0.0371
vn 0.5227 0.8463 0.1028
vn 0.9514 -0.2879 0.1092
vn 0.5227 -0.7971 0.3023
vn 0.9514 -0.2534 0.1749
vn 0.5227 -0.7016 0.4843
vn 0.9514 -0.2042 0.2305
vn 0.5227 -0.5653 0.6381
vn 0.9514 -0.1431 0.2727
vn 0.5227 -0.3962 0.7548
vn 0.9514 -0.0737 0.2990
vn 0.5228 -0.2040 0.8277
vn 0.8523 0.1252 0.5078
vn 0.8523 0.2431 0.4631
vn 0.9953 0.0450 0.0857
vn 0.9953 0.0232 0.0939
vn 0.8523 0.3468 0.3915
vn 0.9953 0.0642 0.0724
vn 0.8523 0.4305 0.2971
vn 0.9953 0.0796 0.0550
vn 0.8523 0.4890 0.1855
vn 0.9953 0.0905 0.0343
vn 0.8523 0.5192 0.0630
vn 0.9953 0.0960 0.0117
vn 0.8523 -0.5192 0.0630
vn 0.8523 -0.4890 0.1855
vn 0.9953 -0.0905 0.0343
vn 0.9953 -0.0960 0.0117
vn 0.8523 -0.4304 0.2971
vn 0.9953 -0.0796 0.0550
vn 0.8523 -0.3468 0.3915
vn 0.9953 -0.0642 0.0724
vn 0.8523 -0.2431 0.4631
vn 0.9953 -0.0450 0.0857
vn 0.8523 -0.1252 0.5078
vn 0.9953 -0.0232 0.0939
vn 0.8523 0.0000 0.5230
vn 0.9953 0.0000 0.0968
vn 0.9858 -0.0781 0.1489
vn 0.9858 -0.0402 0.1633
vn 0.9077 -0.1004 0.4075
vn 0.9077 -0.1950 0.3716
vn 0.9858 -0.1115 0.1259
vn 0.9077 -0.2783 0.3141
vn 0.9858 -0.1384 0.0955
vn 0.9077 -0.3454 0.2384
vn 0.9858 -0.1572 0.0596
vn 0.9077 -0.3924 0.1488
vn 0.9858 -0.1669 0.0203
vn 0.9077 -0.4166 0.0506
vn 0.9858 0.1572 0.0596
vn 0.9858 0.1669 0.0203
vn 0.9077 0.4166 0.0506
vn 0.9077 0.3924 0.1488
vn 0.9858 0.1384 0.0955
vn 0.9077 0.3454 0.2384
vn 0.9858 0.1115 0.1259
vn 0.9077 0.2783 0.3141
vn 0.9858 0.0782 0.1489
vn 0.9077 0.1950 0.3716
vn 0.9858 0.0402 0.1633
vn 0.9077 0.1004 0.4075
vn 0.9858 0.0000 0.1682
vn 0.9077 -0.0000 0.4197
vn 0.8656 -0.1198 0.4862
vn 0.8656 -0.2327 0.4434
vn 0.8656 -0.3321 0.3749
vn 0.8656 -0.4121 0.2845
vn 0.8656 -0.4683 0.1776
vn 0.8656 -0.4971 0.0604
vn 0.8656 0.4971 0.0604
vn 0.8656 0.4683 0.1776
vn 0.8656 0.4122 0.2845
vn 0.8656 0.3321 0.3749
vn 0.8656 0.2327 0.4434
vn 0.8656 0.1198 0.4862
vn 0.8656 -0.0000 0.5008
vn 0.9276 0.0894 -0.3628
vn 0.9276 0.1736 -0.3308
vn 0.9276 0.2477 -0.2796
vn 0.9276 0.3075 -0.2122
vn 0.9276 0.3493 -0.1325
vn 0.9276 0.3709 -0.0450
vn 0.9276 0.3709 0.0450
vn 0.8656 -0.4971 -0.0604
vn 0.9276 -0.3709 -0.0450
vn 0.9276 -0.3493 -0.1325
vn 0.9276 -0.3075 -0.2122
vn 0.9276 -0.2477 -0.2796
vn 0.9276 -0.1736 -0.3308
vn 0.9276 -0.0894 -0.3627
vn 0.9276 0.0000 -0.3736
vn 0.9077 -0.1004 -0.4075
vn 0.9858 -0.0402 -0.1633
vn 0.9858 -0.0781 -0.1489
vn 0.9077 -0.1950 -0.3716
vn 0.9858 -0.1115 -0.1259
vn 0.9077 -0.2783 -0.3141
vn 0.9858 -0.1384 -0.0955
vn 0.9077 -0.3454 -0.2384
vn 0.9858 -0.1572 -0.0596
vn 0.9077 -0.3924 -0.1488
vn 0.9858 -0.1669 -0.0203
vn 0.9077 -0.4166 -0.0506
vn 0.9077 0.4166 -0.0506
vn 0.9858 0.1669 -0.0203
vn 0.9858 0.1572 -0.0596
vn 0.9077 0.3924 -0.1488
vn 0.9858 0.1384 -0.0955
vn 0.9077 0.3454 -0.2384
vn 0.9858 0.1115 -0.1259
vn 0.9077 0.2783 -0.3141
vn 0.9858 0.0782 -0.1489
vn 0.9077 0.1950 -0.3716
vn 0.9858 0.0402 -0.1633
vn 0.9077 0.1004 -0.4075
vn 0.9858 -0.0000 -0.1682
vn 0.9077 -0.0000 -0.4197
vn 0.8656 -0.1198 -0.4862
vn 0.8656 -0.2327 -0.4434
vn 0.8656 -0.3321 -0.3749
vn 0.8656 -0.4122 -0.2845
vn 0.8656 -0.4683 -0.1776
vn 0.8656 0.4971 -0.0604
vn 0.8656 0.4683 -0.1776
vn 0.8656 0.4122 -0.2845
vn 0.8656 0.3321 -0.3749
vn 0.8656 0.2327 -0.4434
vn 0.8656 0.1198 -0.4862
vn 0.8656 -0.0000 -0.5008
vn 0.9276 0.0894 0.3628
vn 0.9276 0.1736 0.3308
vn 0.9276 0.2477 0.2797
vn 0.9276 0.3075 0.2122
vn 0.9276 0.3493 0.1325
vn 0.9276 -0.3709 0.0450
vn 0.9276 -0.3493 0.1325
vn 0.9276 -0.3075 0.2122
vn 0.9276 -0.2477 0.2796
vn 0.9276 -0.1736 0.3308
vn 0.9276 -0.0894 0.3627
vn 0.9276 0.0000 0.3736
vn 1.0000 0.0000 -0.0000
vn 1.0000 0.0000 0.0000
# 578 vertex normals

vt 1.9671 -0.9583 0.0000
vt 1.9672 -0.9583 0.0000
vt 1.9666 -0.9561 0.0000
vt 1.9657 -0.9542 0.0000
vt 1.9660 -0.9583 0.0000
vt 1.9646 -0.9524 0.0000
vt 1.9645 -0.9583 0.0000
vt 1.9632 -0.9509 0.0000
vt 1.9624 -0.9583 0.0000
vt 1.9617 -0.9499 0.0000
vt 1.9607 -0.9583 0.0000
vt 1.9600 -0.9493 0.0000
vt 1.9657 -0.9624 0.0000
vt 1.9666 -0.9604 0.0000
vt 1.9646 -0.9641 0.0000
vt 1.9632 -0.9656 0.0000
vt 1.9617 -0.9666 0.0000
vt 1.9600 -0.9672 0.0000
vt 1.9844 -0.9646 0.0000
vt 1.9779 -0.9631 0.0000
vt 1.9763 -0.9676 0.0000
vt 1.9822 -0.9706 0.0000
vt 1.9736 -0.9716 0.0000
vt 1.9787 -0.9759 0.0000
vt 1.9701 -0.9749 0.0000
vt 1.9741 -0.9803 0.0000
vt 1.9660 -0.9773 0.0000
vt 1.9685 -0.9835 0.0000
vt 1.9615 -0.9785 0.0000
vt 1.9623 -0.9851 0.0000
vt 1.9623 -0.9314 0.0000
vt 1.9615 -0.9380 0.0000
vt 1.9661 -0.9392 0.0000
vt 1.9685 -0.9331 0.0000
vt 1.9701 -0.9416 0.0000
vt 1.9741 -0.9362 0.0000
vt 1.9736 -0.9449 0.0000
vt 1.9787 -0.9406 0.0000
vt 1.9763 -0.9489 0.0000
vt 1.9822 -0.9459 0.0000
vt 1.9779 -0.9535 0.0000
vt 1.9844 -0.9519 0.0000
vt 1.9785 -0.9583 0.0000
vt 1.9852 -0.9583 0.0000
vt 1.8347 -0.8559 0.0000
vt 1.8301 -0.8607 0.0000
vt 1.8345 -0.8655 0.0000
vt 1.8398 -0.8614 0.0000
vt 1.8381 -0.8710 0.0000
vt 1.8439 -0.8677 0.0000
vt 1.8409 -0.8769 0.0000
vt 1.8472 -0.8745 0.0000
vt 1.8429 -0.8832 0.0000
vt 1.8494 -0.8817 0.0000
vt 1.8439 -0.8898 0.0000
vt 1.8506 -0.8891 0.0000
vt 1.6885 -0.8970 0.0000
vt 1.6952 -0.8966 0.0000
vt 1.6952 -0.8900 0.0000
vt 1.6886 -0.8895 0.0000
vt 1.6962 -0.8836 0.0000
vt 1.6897 -0.8821 0.0000
vt 1.6982 -0.8774 0.0000
vt 1.6919 -0.8749 0.0000
vt 1.7010 -0.8715 0.0000
vt 1.6952 -0.8681 0.0000
vt 1.7047 -0.8661 0.0000
vt 1.6995 -0.8620 0.0000
vt 1.7092 -0.8612 0.0000
vt 1.7045 -0.8565 0.0000
vt 1.8290 -0.8511 0.0000
vt 1.8250 -0.8564 0.0000
vt 1.8378 -0.8526 0.0000
vt 1.8433 -0.8586 0.0000
vt 1.8478 -0.8654 0.0000
vt 1.8513 -0.8728 0.0000
vt 1.8538 -0.8806 0.0000
vt 1.8551 -0.8887 0.0000
vt 1.6841 -0.8974 0.0000
vt 1.6841 -0.8892 0.0000
vt 1.6853 -0.8811 0.0000
vt 1.6878 -0.8733 0.0000
vt 1.6913 -0.8659 0.0000
vt 1.6960 -0.8591 0.0000
vt 1.7016 -0.8532 0.0000
vt 1.8314 -0.8474 0.0000
vt 1.8406 -0.8496 0.0000
vt 1.8465 -0.8561 0.0000
vt 1.8514 -0.8634 0.0000
vt 1.8551 -0.8713 0.0000
vt 1.8577 -0.8797 0.0000
vt 1.8591 -0.8883 0.0000
vt 1.8552 -0.8969 0.0000
vt 1.8593 -0.8970 0.0000
vt 1.6800 -0.8977 0.0000
vt 1.6800 -0.8889 0.0000
vt 1.6814 -0.8802 0.0000
vt 1.6840 -0.8717 0.0000
vt 1.6878 -0.8638 0.0000
vt 1.6928 -0.8565 0.0000
vt 1.6990 -0.8501 0.0000
vt 1.8336 -0.8440 0.0000
vt 1.9930 -0.9667 0.0000
vt 1.9901 -0.9746 0.0000
vt 1.9854 -0.9817 0.0000
vt 1.9792 -0.9875 0.0000
vt 1.9717 -0.9916 0.0000
vt 1.9634 -0.9938 0.0000
vt 1.9634 -0.9227 0.0000
vt 1.9717 -0.9249 0.0000
vt 1.9792 -0.9291 0.0000
vt 1.9854 -0.9349 0.0000
vt 1.9901 -0.9419 0.0000
vt 1.9930 -0.9499 0.0000
vt 1.9940 -0.9583 0.0000
vt 1.9766 -0.9627 0.0000
vt 1.9750 -0.9669 0.0000
vt 1.9754 -0.9672 0.0000
vt 1.9771 -0.9628 0.0000
vt 1.9725 -0.9707 0.0000
vt 1.9729 -0.9710 0.0000
vt 1.9693 -0.9739 0.0000
vt 1.9696 -0.9742 0.0000
vt 1.9655 -0.9761 0.0000
vt 1.9657 -0.9765 0.0000
vt 1.9613 -0.9773 0.0000
vt 1.9614 -0.9777 0.0000
vt 1.9613 -0.9392 0.0000
vt 1.9655 -0.9404 0.0000
vt 1.9657 -0.9400 0.0000
vt 1.9614 -0.9388 0.0000
vt 1.9693 -0.9427 0.0000
vt 1.9696 -0.9423 0.0000
vt 1.9725 -0.9458 0.0000
vt 1.9729 -0.9455 0.0000
vt 1.9750 -0.9496 0.0000
vt 1.9754 -0.9494 0.0000
vt 1.9766 -0.9538 0.0000
vt 1.9771 -0.9537 0.0000
vt 1.9772 -0.9583 0.0000
vt 1.9776 -0.9583 0.0000
vt 1.9516 -0.9561 0.0000
vt 1.9510 -0.9583 0.0000
vt 1.9512 -0.9583 0.0000
vt 1.9526 -0.9542 0.0000
vt 1.9522 -0.9583 0.0000
vt 1.9537 -0.9524 0.0000
vt 1.9537 -0.9583 0.0000
vt 1.9551 -0.9509 0.0000
vt 1.9559 -0.9583 0.0000
vt 1.9566 -0.9499 0.0000
vt 1.9576 -0.9583 0.0000
vt 1.9583 -0.9493 0.0000
vt 1.9516 -0.9604 0.0000
vt 1.9526 -0.9624 0.0000
vt 1.9537 -0.9641 0.0000
vt 1.9551 -0.9656 0.0000
vt 1.9566 -0.9666 0.0000
vt 1.9583 -0.9672 0.0000
vt 1.9420 -0.9676 0.0000
vt 1.9403 -0.9631 0.0000
vt 1.9338 -0.9646 0.0000
vt 1.9360 -0.9706 0.0000
vt 1.9447 -0.9716 0.0000
vt 1.9396 -0.9759 0.0000
vt 1.9481 -0.9749 0.0000
vt 1.9442 -0.9803 0.0000
vt 1.9522 -0.9773 0.0000
vt 1.9498 -0.9835 0.0000
vt 1.9568 -0.9785 0.0000
vt 1.9559 -0.9851 0.0000
vt 1.9522 -0.9392 0.0000
vt 1.9568 -0.9380 0.0000
vt 1.9559 -0.9314 0.0000
vt 1.9498 -0.9331 0.0000
vt 1.9481 -0.9416 0.0000
vt 1.9442 -0.9362 0.0000
vt 1.9447 -0.9449 0.0000
vt 1.9396 -0.9406 0.0000
vt 1.9420 -0.9489 0.0000
vt 1.9360 -0.9459 0.0000
vt 1.9403 -0.9535 0.0000
vt 1.9338 -0.9519 0.0000
vt 1.9398 -0.9583 0.0000
vt 1.9331 -0.9583 0.0000
vt 1.8357 -0.9206 0.0000
vt 1.8314 -0.9256 0.0000
vt 1.8362 -0.9303 0.0000
vt 1.8411 -0.9247 0.0000
vt 1.8392 -0.9152 0.0000
vt 1.8451 -0.9183 0.0000
vt 1.8418 -0.9092 0.0000
vt 1.8482 -0.9114 0.0000
vt 1.8435 -0.9029 0.0000
vt 1.8501 -0.9042 0.0000
vt 1.8441 -0.8964 0.0000
vt 1.8508 -0.8967 0.0000
vt 1.6981 -0.9093 0.0000
vt 1.6962 -0.9030 0.0000
vt 1.6896 -0.9045 0.0000
vt 1.6918 -0.9117 0.0000
vt 1.7009 -0.9152 0.0000
vt 1.6951 -0.9185 0.0000
vt 1.7045 -0.9206 0.0000
vt 1.6993 -0.9247 0.0000
vt 1.7089 -0.9254 0.0000
vt 1.7043 -0.9302 0.0000
vt 1.7140 -0.9294 0.0000
vt 1.7102 -0.9349 0.0000
vt 1.7197 -0.9329 0.0000
vt 1.7166 -0.9387 0.0000
vt 1.8264 -0.9299 0.0000
vt 1.8305 -0.9351 0.0000
vt 1.8393 -0.9335 0.0000
vt 1.8447 -0.9274 0.0000
vt 1.8491 -0.9204 0.0000
vt 1.8524 -0.9129 0.0000
vt 1.8546 -0.9050 0.0000
vt 1.6853 -0.9055 0.0000
vt 1.6876 -0.9133 0.0000
vt 1.6912 -0.9207 0.0000
vt 1.6957 -0.9275 0.0000
vt 1.7013 -0.9335 0.0000
vt 1.7077 -0.9387 0.0000
vt 1.7148 -0.9427 0.0000
vt 1.8330 -0.9388 0.0000
vt 1.8421 -0.9365 0.0000
vt 1.8480 -0.9298 0.0000
vt 1.8527 -0.9223 0.0000
vt 1.8562 -0.9143 0.0000
vt 1.8586 -0.9057 0.0000
vt 1.6813 -0.9064 0.0000
vt 1.6838 -0.9148 0.0000
vt 1.6876 -0.9227 0.0000
vt 1.6925 -0.9300 0.0000
vt 1.6985 -0.9365 0.0000
vt 1.7054 -0.9421 0.0000
vt 1.7132 -0.9465 0.0000
vt 1.8353 -0.9421 0.0000
vt 1.9253 -0.9667 0.0000
vt 1.9282 -0.9746 0.0000
vt 1.9328 -0.9817 0.0000
vt 1.9391 -0.9875 0.0000
vt 1.9465 -0.9916 0.0000
vt 1.9548 -0.9938 0.0000
vt 1.9548 -0.9227 0.0000
vt 1.9465 -0.9249 0.0000
vt 1.9391 -0.9291 0.0000
vt 1.9328 -0.9349 0.0000
vt 1.9282 -0.9419 0.0000
vt 1.9253 -0.9499 0.0000
vt 1.9243 -0.9583 0.0000
vt 1.9428 -0.9672 0.0000
vt 1.9433 -0.9669 0.0000
vt 1.9417 -0.9627 0.0000
vt 1.9412 -0.9628 0.0000
vt 1.9454 -0.9710 0.0000
vt 1.9458 -0.9707 0.0000
vt 1.9487 -0.9742 0.0000
vt 1.9490 -0.9739 0.0000
vt 1.9525 -0.9765 0.0000
vt 1.9528 -0.9761 0.0000
vt 1.9569 -0.9777 0.0000
vt 1.9570 -0.9773 0.0000
vt 1.9569 -0.9388 0.0000
vt 1.9570 -0.9392 0.0000
vt 1.9525 -0.9400 0.0000
vt 1.9528 -0.9404 0.0000
vt 1.9487 -0.9423 0.0000
vt 1.9490 -0.9427 0.0000
vt 1.9454 -0.9455 0.0000
vt 1.9458 -0.9458 0.0000
vt 1.9428 -0.9494 0.0000
vt 1.9433 -0.9496 0.0000
vt 1.9412 -0.9537 0.0000
vt 1.9417 -0.9538 0.0000
vt 1.9406 -0.9583 0.0000
vt 1.9411 -0.9583 0.0000
vt 1.5128 -0.2722 0.0000
vt 1.5126 -0.2745 0.0000
vt 1.5242 -0.2743 0.0000
vt 1.5245 -0.2719 0.0000
vt 1.5344 -0.2741 0.0000
vt 1.5348 -0.2717 0.0000
vt 1.4379 -0.5267 0.0000
vt 1.4385 -0.5291 0.0000
vt 1.4480 -0.5290 0.0000
vt 1.4476 -0.5266 0.0000
vt 1.4593 -0.5289 0.0000
vt 1.4590 -0.5264 0.0000
vt 1.4716 -0.5287 0.0000
vt 1.4715 -0.5263 0.0000
vt 1.4844 -0.5286 0.0000
vt 1.4844 -0.5261 0.0000
vt 1.4967 -0.5284 0.0000
vt 1.4969 -0.5260 0.0000
vt 1.5080 -0.5283 0.0000
vt 1.5084 -0.5258 0.0000
vt 1.5175 -0.5282 0.0000
vt 1.5180 -0.5257 0.0000
vt 1.2789 -0.2813 0.0000
vt 1.2794 -0.2836 0.0000
vt 1.2896 -0.2836 0.0000
vt 1.2893 -0.2813 0.0000
vt 1.3012 -0.2836 0.0000
vt 1.3010 -0.2813 0.0000
vt 1.3135 -0.2836 0.0000
vt 1.3135 -0.2813 0.0000
vt 1.3258 -0.2836 0.0000
vt 1.3259 -0.2813 0.0000
vt 1.3374 -0.2836 0.0000
vt 1.3377 -0.2813 0.0000
vt 1.3476 -0.2836 0.0000
vt 1.3480 -0.2813 0.0000
vt 1.5290 -0.3658 0.0000
vt 1.5296 -0.3682 0.0000
vt 1.5391 -0.3680 0.0000
vt 1.5387 -0.3656 0.0000
vt 1.5504 -0.3679 0.0000
vt 1.5501 -0.3655 0.0000
vt 1.5627 -0.3677 0.0000
vt 1.5626 -0.3653 0.0000
vt 1.5755 -0.3676 0.0000
vt 1.5755 -0.3651 0.0000
vt 1.5878 -0.3674 0.0000
vt 1.5880 -0.3650 0.0000
vt 1.5991 -0.3672 0.0000
vt 1.5995 -0.3648 0.0000
vt 1.6086 -0.3671 0.0000
vt 1.6091 -0.3647 0.0000
vt 1.4657 -0.2732 0.0000
vt 1.4663 -0.2755 0.0000
vt 1.4765 -0.2753 0.0000
vt 1.4761 -0.2730 0.0000
vt 1.4880 -0.2751 0.0000
vt 1.4878 -0.2727 0.0000
vt 1.5003 -0.2748 0.0000
vt 1.5003 -0.2724 0.0000
vt 1.9787 -0.4683 0.0000
vt 1.9635 -0.4683 0.0000
vt 1.9603 -0.4975 0.0000
vt 1.9752 -0.5010 0.0000
vt 1.9501 -0.5250 0.0000
vt 1.9636 -0.5320 0.0000
vt 1.9335 -0.5493 0.0000
vt 1.9450 -0.5593 0.0000
vt 1.9117 -0.5690 0.0000
vt 1.9204 -0.5815 0.0000
vt 1.8857 -0.5829 0.0000
vt 1.8912 -0.5971 0.0000
vt 1.8571 -0.5900 0.0000
vt 1.8590 -0.6052 0.0000
vt 1.8258 -0.3313 0.0000
vt 1.8277 -0.3465 0.0000
vt 1.8571 -0.3465 0.0000
vt 1.8590 -0.3313 0.0000
vt 1.8857 -0.3536 0.0000
vt 1.8912 -0.3394 0.0000
vt 1.9117 -0.3675 0.0000
vt 1.9204 -0.3550 0.0000
vt 1.9335 -0.3872 0.0000
vt 1.9450 -0.3772 0.0000
vt 1.9501 -0.4116 0.0000
vt 1.9636 -0.4045 0.0000
vt 1.9603 -0.4390 0.0000
vt 1.9752 -0.4355 0.0000
vt 1.4645 -0.0437 0.0000
vt 1.4645 -0.0120 0.0000
vt 1.4262 -0.0120 0.0000
vt 1.4262 -0.0437 0.0000
vt 1.3880 -0.0120 0.0000
vt 1.3880 -0.0437 0.0000
vt 1.3499 -0.0120 0.0000
vt 1.3499 -0.0437 0.0000
vt 1.3120 -0.0120 0.0000
vt 1.3120 -0.0437 0.0000
vt 1.2742 -0.0120 0.0000
vt 1.2742 -0.0437 0.0000
vt 1.2364 -0.0120 0.0000
vt 1.2364 -0.0437 0.0000
vt 1.6925 -0.0437 0.0000
vt 1.7302 -0.0437 0.0000
vt 1.7302 -0.0120 0.0000
vt 1.6925 -0.0120 0.0000
vt 1.6548 -0.0120 0.0000
vt 1.6548 -0.0437 0.0000
vt 1.6169 -0.0120 0.0000
vt 1.6169 -0.0437 0.0000
vt 1.5790 -0.0120 0.0000
vt 1.5790 -0.0437 0.0000
vt 1.5409 -0.0120 0.0000
vt 1.5409 -0.0437 0.0000
vt 1.5027 -0.0120 0.0000
vt 1.5027 -0.0437 0.0000
vt 1.9286 -0.4897 0.0000
vt 1.9210 -0.5100 0.0000
vt 1.9347 -0.5172 0.0000
vt 1.9436 -0.4934 0.0000
vt 1.9089 -0.5278 0.0000
vt 1.9205 -0.5381 0.0000
vt 1.8929 -0.5422 0.0000
vt 1.9017 -0.5550 0.0000
vt 1.8740 -0.5524 0.0000
vt 1.8795 -0.5668 0.0000
vt 1.8531 -0.5576 0.0000
vt 1.8550 -0.5730 0.0000
vt 1.8531 -0.3789 0.0000
vt 1.8740 -0.3842 0.0000
vt 1.8795 -0.3697 0.0000
vt 1.8550 -0.3636 0.0000
vt 1.8929 -0.3943 0.0000
vt 1.9017 -0.3815 0.0000
vt 1.9089 -0.4087 0.0000
vt 1.9205 -0.3984 0.0000
vt 1.9210 -0.4265 0.0000
vt 1.9347 -0.4194 0.0000
vt 1.9286 -0.4468 0.0000
vt 1.9436 -0.4431 0.0000
vt 1.9311 -0.4683 0.0000
vt 1.9465 -0.4683 0.0000
vt 1.7245 -0.4975 0.0000
vt 1.7213 -0.4683 0.0000
vt 1.7061 -0.4683 0.0000
vt 1.7095 -0.5010 0.0000
vt 1.7347 -0.5250 0.0000
vt 1.7212 -0.5320 0.0000
vt 1.7513 -0.5493 0.0000
vt 1.7397 -0.5593 0.0000
vt 1.7731 -0.5690 0.0000
vt 1.7643 -0.5815 0.0000
vt 1.7991 -0.5829 0.0000
vt 1.7936 -0.5971 0.0000
vt 1.8277 -0.5900 0.0000
vt 1.8258 -0.6052 0.0000
vt 1.7991 -0.3536 0.0000
vt 1.7936 -0.3394 0.0000
vt 1.7731 -0.3675 0.0000
vt 1.7644 -0.3550 0.0000
vt 1.7513 -0.3872 0.0000
vt 1.7397 -0.3772 0.0000
vt 1.7347 -0.4116 0.0000
vt 1.7212 -0.4045 0.0000
vt 1.7245 -0.4390 0.0000
vt 1.7095 -0.4355 0.0000
vt 1.9965 -0.0120 0.0000
vt 1.9583 -0.0120 0.0000
vt 1.9583 -0.0437 0.0000
vt 1.9965 -0.0437 0.0000
vt 1.0471 -0.0120 0.0000
vt 1.0089 -0.0120 0.0000
vt 1.0089 -0.0437 0.0000
vt 1.0471 -0.0437 0.0000
vt 1.0852 -0.0120 0.0000
vt 1.0852 -0.0437 0.0000
vt 1.1232 -0.0120 0.0000
vt 1.1232 -0.0437 0.0000
vt 1.1610 -0.0120 0.0000
vt 1.1610 -0.0437 0.0000
vt 1.1987 -0.0120 0.0000
vt 1.1987 -0.0437 0.0000
vt 1.7680 -0.0120 0.0000
vt 1.7680 -0.0437 0.0000
vt 1.8058 -0.0120 0.0000
vt 1.8058 -0.0437 0.0000
vt 1.8437 -0.0120 0.0000
vt 1.8437 -0.0437 0.0000
vt 1.8818 -0.0120 0.0000
vt 1.8818 -0.0437 0.0000
vt 1.9200 -0.0120 0.0000
vt 1.9200 -0.0437 0.0000
vt 1.7501 -0.5172 0.0000
vt 1.7637 -0.5100 0.0000
vt 1.7562 -0.4897 0.0000
vt 1.7412 -0.4934 0.0000
vt 1.7643 -0.5381 0.0000
vt 1.7759 -0.5278 0.0000
vt 1.7831 -0.5550 0.0000
vt 1.7919 -0.5422 0.0000
vt 1.8053 -0.5668 0.0000
vt 1.8108 -0.5524 0.0000
vt 1.8298 -0.5730 0.0000
vt 1.8317 -0.5576 0.0000
vt 1.8053 -0.3697 0.0000
vt 1.8108 -0.3842 0.0000
vt 1.8317 -0.3789 0.0000
vt 1.8298 -0.3636 0.0000
vt 1.7831 -0.3815 0.0000
vt 1.7919 -0.3943 0.0000
vt 1.7643 -0.3984 0.0000
vt 1.7759 -0.4087 0.0000
vt 1.7501 -0.4194 0.0000
vt 1.7637 -0.4265 0.0000
vt 1.7412 -0.4431 0.0000
vt 1.7562 -0.4468 0.0000
vt 1.7383 -0.4683 0.0000
vt 1.7537 -0.4683 0.0000
vt 1.6404 -0.8874 0.0000
vt 1.6436 -0.8582 0.0000
vt 1.6587 -0.8582 0.0000
vt 1.6553 -0.8909 0.0000
vt 1.6301 -0.9149 0.0000
vt 1.6437 -0.9219 0.0000
vt 1.6136 -0.9392 0.0000
vt 1.6251 -0.9493 0.0000
vt 1.5917 -0.9589 0.0000
vt 1.6005 -0.9715 0.0000
vt 1.5658 -0.9728 0.0000
vt 1.5712 -0.9871 0.0000
vt 1.5372 -0.9800 0.0000
vt 1.5391 -0.9951 0.0000
vt 1.5372 -0.7364 0.0000
vt 1.5077 -0.7364 0.0000
vt 1.5059 -0.7213 0.0000
vt 1.5391 -0.7213 0.0000
vt 1.5658 -0.7436 0.0000
vt 1.5712 -0.7293 0.0000
vt 1.5917 -0.7575 0.0000
vt 1.6005 -0.7450 0.0000
vt 1.6136 -0.7772 0.0000
vt 1.6251 -0.7671 0.0000
vt 1.6301 -0.8015 0.0000
vt 1.6437 -0.7945 0.0000
vt 1.6404 -0.8290 0.0000
vt 1.6553 -0.8255 0.0000
vt 1.4262 -0.0754 0.0000
vt 1.4645 -0.0754 0.0000
vt 1.3880 -0.0754 0.0000
vt 1.3499 -0.0754 0.0000
vt 1.3120 -0.0754 0.0000
vt 1.2742 -0.0754 0.0000
vt 1.2364 -0.0754 0.0000
vt 1.6925 -0.0754 0.0000
vt 1.7302 -0.0754 0.0000
vt 1.6548 -0.0754 0.0000
vt 1.6169 -0.0754 0.0000
vt 1.5790 -0.0754 0.0000
vt 1.5409 -0.0754 0.0000
vt 1.5027 -0.0754 0.0000
vt 1.6148 -0.9071 0.0000
vt 1.6011 -0.8999 0.0000
vt 1.6086 -0.8797 0.0000
vt 1.6236 -0.8834 0.0000
vt 1.6006 -0.9280 0.0000
vt 1.5890 -0.9178 0.0000
vt 1.5818 -0.9449 0.0000
vt 1.5730 -0.9322 0.0000
vt 1.5595 -0.9568 0.0000
vt 1.5540 -0.9423 0.0000
vt 1.5351 -0.9629 0.0000
vt 1.5332 -0.9475 0.0000
vt 1.5595 -0.7596 0.0000
vt 1.5540 -0.7741 0.0000
vt 1.5332 -0.7689 0.0000
vt 1.5351 -0.7535 0.0000
vt 1.5818 -0.7715 0.0000
vt 1.5730 -0.7842 0.0000
vt 1.6006 -0.7884 0.0000
vt 1.5890 -0.7986 0.0000
vt 1.6148 -0.8093 0.0000
vt 1.6011 -0.8165 0.0000
vt 1.6236 -0.8330 0.0000
vt 1.6086 -0.8367 0.0000
vt 1.6266 -0.8582 0.0000
vt 1.6112 -0.8582 0.0000
vt 1.3862 -0.8582 0.0000
vt 1.4013 -0.8582 0.0000
vt 1.4045 -0.8874 0.0000
vt 1.3896 -0.8909 0.0000
vt 1.4148 -0.9149 0.0000
vt 1.4012 -0.9219 0.0000
vt 1.4313 -0.9392 0.0000
vt 1.4198 -0.9493 0.0000
vt 1.4532 -0.9589 0.0000
vt 1.4444 -0.9715 0.0000
vt 1.4791 -0.9728 0.0000
vt 1.4737 -0.9871 0.0000
vt 1.5077 -0.9800 0.0000
vt 1.5059 -0.9951 0.0000
vt 1.4791 -0.7436 0.0000
vt 1.4737 -0.7293 0.0000
vt 1.4532 -0.7575 0.0000
vt 1.4444 -0.7450 0.0000
vt 1.4313 -0.7772 0.0000
vt 1.4198 -0.7671 0.0000
vt 1.4148 -0.8015 0.0000
vt 1.4012 -0.7945 0.0000
vt 1.4045 -0.8290 0.0000
vt 1.3896 -0.8255 0.0000
vt 1.9583 -0.0754 0.0000
vt 1.9965 -0.0754 0.0000
vt 1.0089 -0.0754 0.0000
vt 1.0471 -0.0754 0.0000
vt 1.0852 -0.0754 0.0000
vt 1.1232 -0.0754 0.0000
vt 1.1610 -0.0754 0.0000
vt 1.1987 -0.0754 0.0000
vt 1.7680 -0.0754 0.0000
vt 1.8058 -0.0754 0.0000
vt 1.8437 -0.0754 0.0000
vt 1.8818 -0.0754 0.0000
vt 1.9200 -0.0754 0.0000
vt 1.4363 -0.8797 0.0000
vt 1.4438 -0.8999 0.0000
vt 1.4301 -0.9071 0.0000
vt 1.4213 -0.8834 0.0000
vt 1.4559 -0.9178 0.0000
vt 1.4443 -0.9280 0.0000
vt 1.4719 -0.9322 0.0000
vt 1.4631 -0.9449 0.0000
vt 1.4909 -0.9423 0.0000
vt 1.4854 -0.9568 0.0000
vt 1.5117 -0.9475 0.0000
vt 1.5099 -0.9629 0.0000
vt 1.5117 -0.7689 0.0000
vt 1.4909 -0.7741 0.0000
vt 1.4854 -0.7596 0.0000
vt 1.5099 -0.7535 0.0000
vt 1.4719 -0.7842 0.0000
vt 1.4631 -0.7715 0.0000
vt 1.4559 -0.7986 0.0000
vt 1.4443 -0.7884 0.0000
vt 1.4438 -0.8165 0.0000
vt 1.4301 -0.8093 0.0000
vt 1.4363 -0.8367 0.0000
vt 1.4213 -0.8330 0.0000
vt 1.4337 -0.8582 0.0000
vt 1.4183 -0.8582 0.0000
vt 1.5022 -0.8201 0.0000
vt 1.5007 -0.8160 0.0000
vt 1.4853 -0.8195 0.0000
vt 1.4880 -0.8269 0.0000
vt 1.5044 -0.8236 0.0000
vt 1.4922 -0.8335 0.0000
vt 1.5074 -0.8265 0.0000
vt 1.4979 -0.8390 0.0000
vt 1.5107 -0.8285 0.0000
vt 1.5048 -0.8429 0.0000
vt 1.5145 -0.8295 0.0000
vt 1.5124 -0.8450 0.0000
vt 1.5107 -0.7950 0.0000
vt 1.5145 -0.7940 0.0000
vt 1.5124 -0.7784 0.0000
vt 1.5048 -0.7805 0.0000
vt 1.5074 -0.7970 0.0000
vt 1.4979 -0.7844 0.0000
vt 1.5044 -0.7998 0.0000
vt 1.4922 -0.7899 0.0000
vt 1.5022 -0.8034 0.0000
vt 1.4880 -0.7965 0.0000
vt 1.5007 -0.8074 0.0000
vt 1.4853 -0.8039 0.0000
vt 1.5000 -0.8117 0.0000
vt 1.4844 -0.8117 0.0000
vt 1.4807 -0.8206 0.0000
vt 1.4838 -0.8290 0.0000
vt 1.4887 -0.8366 0.0000
vt 1.4952 -0.8428 0.0000
vt 1.5031 -0.8472 0.0000
vt 1.5119 -0.8496 0.0000
vt 1.5119 -0.7739 0.0000
vt 1.5031 -0.7762 0.0000
vt 1.4952 -0.7806 0.0000
vt 1.4887 -0.7869 0.0000
vt 1.4838 -0.7944 0.0000
vt 1.4807 -0.8028 0.0000
vt 1.4797 -0.8117 0.0000
vt 1.4766 -0.8216 0.0000
vt 1.4799 -0.8310 0.0000
vt 1.4854 -0.8393 0.0000
vt 1.4927 -0.8463 0.0000
vt 1.5015 -0.8512 0.0000
vt 1.5113 -0.8538 0.0000
vt 1.5215 -0.8538 0.0000
vt 1.5209 -0.8496 0.0000
vt 1.5113 -0.7696 0.0000
vt 1.5015 -0.7722 0.0000
vt 1.4927 -0.7772 0.0000
vt 1.4854 -0.7841 0.0000
vt 1.4799 -0.7925 0.0000
vt 1.4766 -0.8018 0.0000
vt 1.4754 -0.8117 0.0000
vt 1.5475 -0.8195 0.0000
vt 1.5321 -0.8160 0.0000
vt 1.5306 -0.8201 0.0000
vt 1.5448 -0.8269 0.0000
vt 1.5283 -0.8236 0.0000
vt 1.5405 -0.8335 0.0000
vt 1.5254 -0.8265 0.0000
vt 1.5349 -0.8390 0.0000
vt 1.5220 -0.8285 0.0000
vt 1.5280 -0.8429 0.0000
vt 1.5183 -0.8295 0.0000
vt 1.5204 -0.8450 0.0000
vt 1.5204 -0.7784 0.0000
vt 1.5183 -0.7940 0.0000
vt 1.5220 -0.7950 0.0000
vt 1.5280 -0.7805 0.0000
vt 1.5254 -0.7970 0.0000
vt 1.5349 -0.7844 0.0000
vt 1.5283 -0.7998 0.0000
vt 1.5405 -0.7899 0.0000
vt 1.5306 -0.8034 0.0000
vt 1.5448 -0.7965 0.0000
vt 1.5321 -0.8074 0.0000
vt 1.5475 -0.8039 0.0000
vt 1.5327 -0.8117 0.0000
vt 1.5484 -0.8117 0.0000
vt 1.5520 -0.8206 0.0000
vt 1.5490 -0.8290 0.0000
vt 1.5441 -0.8366 0.0000
vt 1.5376 -0.8428 0.0000
vt 1.5297 -0.8472 0.0000
vt 1.5209 -0.7739 0.0000
vt 1.5297 -0.7762 0.0000
vt 1.5376 -0.7806 0.0000
vt 1.5441 -0.7869 0.0000
vt 1.5490 -0.7944 0.0000
vt 1.5520 -0.8028 0.0000
vt 1.5530 -0.8117 0.0000
vt 1.5562 -0.8216 0.0000
vt 1.5528 -0.8310 0.0000
vt 1.5474 -0.8393 0.0000
vt 1.5401 -0.8463 0.0000
vt 1.5313 -0.8512 0.0000
vt 1.5215 -0.7696 0.0000
vt 1.5313 -0.7722 0.0000
vt 1.5401 -0.7772 0.0000
vt 1.5474 -0.7841 0.0000
vt 1.5528 -0.7925 0.0000
vt 1.5562 -0.8018 0.0000
vt 1.5573 -0.8117 0.0000
vt 1.1860 -0.2917 0.0000
vt 1.1735 -0.2917 0.0000
vt 1.1738 -0.2942 0.0000
vt 1.1861 -0.2942 0.0000
vt 1.1625 -0.2917 0.0000
vt 1.1630 -0.2942 0.0000
vt 1.2495 -0.2849 0.0000
vt 1.2392 -0.2849 0.0000
vt 1.2388 -0.2874 0.0000
vt 1.2489 -0.2874 0.0000
vt 1.2271 -0.2849 0.0000
vt 1.2268 -0.2874 0.0000
vt 1.2138 -0.2849 0.0000
vt 1.2137 -0.2874 0.0000
vt 1.2001 -0.2849 0.0000
vt 1.2002 -0.2874 0.0000
vt 1.1868 -0.2849 0.0000
vt 1.1871 -0.2874 0.0000
vt 1.1747 -0.2849 0.0000
vt 1.1751 -0.2874 0.0000
vt 1.1644 -0.2849 0.0000
vt 1.1650 -0.2874 0.0000
vt 1.6025 -0.3716 0.0000
vt 1.5915 -0.3717 0.0000
vt 1.5912 -0.3742 0.0000
vt 1.6020 -0.3741 0.0000
vt 1.5790 -0.3719 0.0000
vt 1.5789 -0.3744 0.0000
vt 1.5658 -0.3721 0.0000
vt 1.5658 -0.3746 0.0000
vt 1.5525 -0.3722 0.0000
vt 1.5527 -0.3747 0.0000
vt 1.5401 -0.3724 0.0000
vt 1.5404 -0.3749 0.0000
vt 1.5291 -0.3726 0.0000
vt 1.5296 -0.3750 0.0000
vt 1.3540 -0.2876 0.0000
vt 1.3438 -0.2876 0.0000
vt 1.3433 -0.2902 0.0000
vt 1.3535 -0.2902 0.0000
vt 1.3317 -0.2876 0.0000
vt 1.3314 -0.2902 0.0000
vt 1.3184 -0.2876 0.0000
vt 1.3183 -0.2902 0.0000
vt 1.3047 -0.2876 0.0000
vt 1.3047 -0.2902 0.0000
vt 1.2913 -0.2876 0.0000
vt 1.2916 -0.2902 0.0000
vt 1.2792 -0.2876 0.0000
vt 1.2797 -0.2902 0.0000
vt 1.2690 -0.2876 0.0000
vt 1.2695 -0.2902 0.0000
vt 1.2359 -0.2917 0.0000
vt 1.2249 -0.2917 0.0000
vt 1.2246 -0.2942 0.0000
vt 1.2354 -0.2942 0.0000
vt 1.2124 -0.2917 0.0000
vt 1.2123 -0.2942 0.0000
vt 1.1992 -0.2917 0.0000
vt 1.1992 -0.2942 0.0000
vt 1.5309 -0.8117 0.0000
vt 1.5287 -0.8117 0.0000
vt 1.5256 -0.8117 0.0000
vt 1.5221 -0.8117 0.0000
vt 1.5183 -0.8117 0.0000
vt 1.5145 -0.8117 0.0000
vt 1.5107 -0.8117 0.0000
vt 1.5072 -0.8117 0.0000
vt 1.5041 -0.8117 0.0000
vt 1.5019 -0.8117 0.0000
# 801 texture coords

o Wheel_B_L_2_0
g Wheel_B_L_2_0
usemtl material_1
s 1
f 1/1/1 2/2/2 3/3/3 
f 1/1/1 3/3/3 4/4/4 
f 5/5/1 1/1/1 4/4/4 
f 5/5/1 4/4/4 6/6/5 
f 7/7/1 5/5/1 6/6/5 
f 7/7/1 6/6/5 8/8/6 
f 9/9/1 7/7/1 8/8/6 
f 9/9/1 8/8/6 10/10/7 
f 11/11/1 9/9/1 10/10/7 
f 11/11/1 10/10/7 12/12/8 
f 1/1/1 13/13/9 14/14/10 
f 1/1/1 14/14/10 2/2/2 
f 5/5/1 15/15/11 13/13/9 
f 5/5/1 13/13/9 1/1/1 
f 7/7/1 16/16/12 15/15/11 
f 7/7/1 15/15/11 5/5/1 
f 9/9/1 17/17/13 16/16/12 
f 9/9/1 16/16/12 7/7/1 
f 11/11/1 18/18/14 17/17/13 
f 11/11/1 17/17/13 9/9/1 
f 19/19/15 20/20/16 21/21/17 
f 19/19/15 21/21/17 22/22/18 
f 22/22/18 21/21/17 23/23/19 
f 22/22/18 23/23/19 24/24/20 
f 24/24/20 23/23/19 25/25/21 
f 24/24/20 25/25/21 26/26/22 
f 26/26/22 25/25/21 27/27/23 
f 26/26/22 27/27/23 28/28/24 
f 28/28/24 27/27/23 29/29/25 
f 28/28/24 29/29/25 30/30/26 
f 31/31/27 32/32/28 33/33/29 
f 31/31/27 33/33/29 34/34/30 
f 34/34/30 33/33/29 35/35/31 
f 34/34/30 35/35/31 36/36/32 
f 36/36/32 35/35/31 37/37/33 
f 36/36/32 37/37/33 38/38/34 
f 38/38/34 37/37/33 39/39/35 
f 38/38/34 39/39/35 40/40/36 
f 40/40/36 39/39/35 41/41/37 
f 40/40/36 41/41/37 42/42/38 
f 42/42/38 41/41/37 43/43/39 
f 42/42/38 43/43/39 44/44/40 
f 44/44/40 43/43/39 20/20/16 
f 44/44/40 20/20/16 19/19/15 
f 45/45/41 46/46/42 47/47/43 
f 45/45/41 47/47/43 48/48/44 
f 48/48/44 47/47/43 49/49/45 
f 48/48/44 49/49/45 50/50/46 
f 50/50/46 49/49/45 51/51/47 
f 50/50/46 51/51/47 52/52/48 
f 52/52/48 51/51/47 53/53/49 
f 52/52/48 53/53/49 54/54/50 
f 54/54/50 53/53/49 55/55/51 
f 54/54/50 55/55/51 56/56/52 
f 57/57/53 58/58/54 59/59/55 
f 57/57/53 59/59/55 60/60/56 
f 60/60/56 59/59/55 61/61/57 
f 60/60/56 61/61/57 62/62/58 
f 62/62/58 61/61/57 63/63/59 
f 62/62/58 63/63/59 64/64/60 
f 64/64/60 63/63/59 65/65/61 
f 64/64/60 65/65/61 66/66/62 
f 66/66/62 65/65/61 67/67/63 
f 66/66/62 67/67/63 68/68/64 
f 68/68/64 67/67/63 69/69/65 
f 68/68/64 69/69/65 70/70/66 
f 70/71/66 69/72/65 46/46/42 
f 70/71/66 46/46/42 45/45/41 
f 71/73/67 45/45/41 48/48/44 
f 71/73/67 48/48/44 72/74/68 
f 72/74/68 48/48/44 50/50/46 
f 72/74/68 50/50/46 73/75/69 
f 73/75/69 50/50/46 52/52/48 
f 73/75/69 52/52/48 74/76/70 
f 74/76/70 52/52/48 54/54/50 
f 74/76/70 54/54/50 75/77/71 
f 75/77/71 54/54/50 56/56/52 
f 75/77/71 56/56/52 76/78/72 
f 77/79/73 57/57/53 60/60/56 
f 77/79/73 60/60/56 78/80/74 
f 78/80/74 60/60/56 62/62/58 
f 78/80/74 62/62/58 79/81/75 
f 79/81/75 62/62/58 64/64/60 
f 79/81/75 64/64/60 80/82/76 
f 80/82/76 64/64/60 66/66/62 
f 80/82/76 66/66/62 81/83/77 
f 81/83/77 66/66/62 68/68/64 
f 81/83/77 68/68/64 82/84/78 
f 82/84/78 68/68/64 70/70/66 
f 82/84/78 70/70/66 83/85/79 
f 83/86/79 70/71/66 45/45/41 
f 83/86/79 45/45/41 71/73/67 
f 84/87/80 71/73/67 72/74/68 
f 84/87/80 72/74/68 85/88/81 
f 85/88/81 72/74/68 73/75/69 
f 85/88/81 73/75/69 86/89/82 
f 86/89/82 73/75/69 74/76/70 
f 86/89/82 74/76/70 87/90/83 
f 87/90/83 74/76/70 75/77/71 
f 87/90/83 75/77/71 88/91/84 
f 88/91/84 75/77/71 76/78/72 
f 88/91/84 76/78/72 89/92/85 
f 76/78/72 90/93/86 91/94/87 
f 76/78/72 91/94/87 89/92/85 
f 92/95/88 77/79/73 78/80/74 
f 92/95/88 78/80/74 93/96/89 
f 93/96/89 78/80/74 79/81/75 
f 93/96/89 79/81/75 94/97/90 
f 94/97/90 79/81/75 80/82/76 
f 94/97/90 80/82/76 95/98/91 
f 95/98/91 80/82/76 81/83/77 
f 95/98/91 81/83/77 96/99/92 
f 96/99/92 81/83/77 82/84/78 
f 96/99/92 82/84/78 97/100/93 
f 97/100/93 82/84/78 83/85/79 
f 97/100/93 83/85/79 98/101/94 
f 98/102/94 83/86/79 71/73/67 
f 98/102/94 71/73/67 84/87/80 
f 46/103/42 19/19/15 22/22/18 
f 46/103/42 22/22/18 47/104/43 
f 47/104/43 22/22/18 24/24/20 
f 47/104/43 24/24/20 49/105/45 
f 49/105/45 24/24/20 26/26/22 
f 49/105/45 26/26/22 51/106/47 
f 51/106/47 26/26/22 28/28/24 
f 51/106/47 28/28/24 53/107/49 
f 53/107/49 28/28/24 30/30/26 
f 53/107/49 30/30/26 55/108/51 
f 58/109/54 31/31/27 34/34/30 
f 58/109/54 34/34/30 59/110/55 
f 59/110/55 34/34/30 36/36/32 
f 59/110/55 36/36/32 61/111/57 
f 61/111/57 36/36/32 38/38/34 
f 61/111/57 38/38/34 63/112/59 
f 63/112/59 38/38/34 40/40/36 
f 63/112/59 40/40/36 65/113/61 
f 65/113/61 40/40/36 42/42/38 
f 65/113/61 42/42/38 67/114/63 
f 67/114/63 42/42/38 44/44/40 
f 67/114/63 44/44/40 69/115/65 
f 69/115/65 44/44/40 19/19/15 
f 69/115/65 19/19/15 46/103/42 
f 99/116/95 100/117/96 101/118/97 
f 99/116/95 101/118/97 102/119/98 
f 100/117/96 103/120/99 104/121/100 
f 100/117/96 104/121/100 101/118/97 
f 103/120/99 105/122/101 106/123/102 
f 103/120/99 106/123/102 104/121/100 
f 105/122/101 107/124/103 108/125/104 
f 105/122/101 108/125/104 106/123/102 
f 107/124/103 109/126/105 110/127/106 
f 107/124/103 110/127/106 108/125/104 
f 111/128/107 112/129/108 113/130/109 
f 111/128/107 113/130/109 114/131/110 
f 112/129/108 115/132/111 116/133/112 
f 112/129/108 116/133/112 113/130/109 
f 115/132/111 117/134/113 118/135/114 
f 115/132/111 118/135/114 116/133/112 
f 117/134/113 119/136/115 120/137/116 
f 117/134/113 120/137/116 118/135/114 
f 119/136/115 121/138/117 122/139/118 
f 119/136/115 122/139/118 120/137/116 
f 121/138/117 123/140/119 124/141/120 
f 121/138/117 124/141/120 122/139/118 
f 123/140/119 99/116/95 102/119/98 
f 123/140/119 102/119/98 124/141/120 
f 125/142/121 126/143/122 127/144/123 
f 125/142/121 127/144/123 128/145/124 
f 128/145/124 127/144/123 129/146/1 
f 128/145/124 129/146/1 130/147/125 
f 130/147/125 129/146/1 131/148/1 
f 130/147/125 131/148/1 132/149/126 
f 132/149/126 131/148/1 133/150/127 
f 132/149/126 133/150/127 134/151/128 
f 134/151/128 133/150/127 135/152/129 
f 134/151/128 135/152/129 136/153/130 
f 137/154/131 138/155/132 127/144/123 
f 137/154/131 127/144/123 126/143/122 
f 138/155/132 139/156/133 129/146/1 
f 138/155/132 129/146/1 127/144/123 
f 139/156/133 140/157/134 131/148/1 
f 139/156/133 131/148/1 129/146/1 
f 140/157/134 141/158/135 133/150/127 
f 140/157/134 133/150/127 131/148/1 
f 141/158/135 142/159/136 135/152/129 
f 141/158/135 135/152/129 133/150/127 
f 142/159/136 18/18/14 11/11/1 
f 142/159/136 11/11/1 135/152/129 
f 136/153/130 135/152/129 11/11/1 
f 136/153/130 11/11/1 12/12/8 
f 143/160/137 144/161/138 145/162/139 
f 143/160/137 145/162/139 146/163/140 
f 147/164/141 143/160/137 146/163/140 
f 147/164/141 146/163/140 148/165/142 
f 149/166/143 147/164/141 148/165/142 
f 149/166/143 148/165/142 150/167/144 
f 151/168/145 149/166/143 150/167/144 
f 151/168/145 150/167/144 152/169/146 
f 153/170/147 151/168/145 152/169/146 
f 153/170/147 152/169/146 154/171/148 
f 30/30/26 29/29/25 153/170/147 
f 30/30/26 153/170/147 154/171/148 
f 155/172/149 156/173/150 157/174/151 
f 155/172/149 157/174/151 158/175/152 
f 159/176/153 155/172/149 158/175/152 
f 159/176/153 158/175/152 160/177/154 
f 161/178/155 159/176/153 160/177/154 
f 161/178/155 160/177/154 162/179/156 
f 163/180/157 161/178/155 162/179/156 
f 163/180/157 162/179/156 164/181/158 
f 165/182/159 163/180/157 164/181/158 
f 165/182/159 164/181/158 166/183/160 
f 167/184/161 165/182/159 166/183/160 
f 167/184/161 166/183/160 168/185/162 
f 144/161/138 167/184/161 168/185/162 
f 144/161/138 168/185/162 145/162/139 
f 156/173/150 32/32/28 31/31/27 
f 156/173/150 31/31/27 157/174/151 
f 169/186/163 170/187/164 171/188/165 
f 169/186/163 171/188/165 172/189/166 
f 173/190/167 169/186/163 172/189/166 
f 173/190/167 172/189/166 174/191/168 
f 175/192/169 173/190/167 174/191/168 
f 175/192/169 174/191/168 176/193/170 
f 177/194/171 175/192/169 176/193/170 
f 177/194/171 176/193/170 178/195/172 
f 179/196/173 177/194/171 178/195/172 
f 179/196/173 178/195/172 180/197/174 
f 56/56/52 55/55/51 179/196/173 
f 56/56/52 179/196/173 180/197/174 
f 181/198/175 182/199/176 183/200/177 
f 181/198/175 183/200/177 184/201/178 
f 185/202/179 181/198/175 184/201/178 
f 185/202/179 184/201/178 186/203/180 
f 187/204/181 185/202/179 186/203/180 
f 187/204/181 186/203/180 188/205/182 
f 189/206/183 187/204/181 188/205/182 
f 189/206/183 188/205/182 190/207/184 
f 191/208/185 189/206/183 190/207/184 
f 191/208/185 190/207/184 192/209/186 
f 193/210/187 191/208/185 192/209/186 
f 193/210/187 192/209/186 194/211/188 
f 170/187/164 193/212/187 194/213/188 
f 170/187/164 194/213/188 171/188/165 
f 182/199/176 58/58/54 57/57/53 
f 182/199/176 57/57/53 183/200/177 
f 172/189/166 171/188/165 195/214/189 
f 172/189/166 195/214/189 196/215/190 
f 174/191/168 172/189/166 196/215/190 
f 174/191/168 196/215/190 197/216/191 
f 176/193/170 174/191/168 197/216/191 
f 176/193/170 197/216/191 198/217/192 
f 178/195/172 176/193/170 198/217/192 
f 178/195/172 198/217/192 199/218/193 
f 180/197/174 178/195/172 199/218/193 
f 180/197/174 199/218/193 90/93/86 
f 76/78/72 56/56/52 180/197/174 
f 76/78/72 180/197/174 90/93/86 
f 184/201/178 183/200/177 200/219/194 
f 184/201/178 200/219/194 201/220/195 
f 186/203/180 184/201/178 201/220/195 
f 186/203/180 201/220/195 202/221/196 
f 188/205/182 186/203/180 202/221/196 
f 188/205/182 202/221/196 203/222/197 
f 190/207/184 188/205/182 203/222/197 
f 190/207/184 203/222/197 204/223/198 
f 192/209/186 190/207/184 204/223/198 
f 192/209/186 204/223/198 205/224/199 
f 194/211/188 192/209/186 205/224/199 
f 194/211/188 205/224/199 206/225/200 
f 171/188/165 194/213/188 206/226/200 
f 171/188/165 206/226/200 195/214/189 
f 183/200/177 57/57/53 77/79/73 
f 183/200/177 77/79/73 200/219/194 
f 207/227/201 208/228/202 196/215/190 
f 207/227/201 196/215/190 195/214/189 
f 208/228/202 209/229/203 197/216/191 
f 208/228/202 197/216/191 196/215/190 
f 209/229/203 210/230/204 198/217/192 
f 209/229/203 198/217/192 197/216/191 
f 210/230/204 211/231/205 199/218/193 
f 210/230/204 199/218/193 198/217/192 
f 211/231/205 91/94/87 90/93/86 
f 211/231/205 90/93/86 199/218/193 
f 92/95/88 212/232/206 200/219/194 
f 92/95/88 200/219/194 77/79/73 
f 212/232/206 213/233/207 201/220/195 
f 212/232/206 201/220/195 200/219/194 
f 213/233/207 214/234/208 202/221/196 
f 213/233/207 202/221/196 201/220/195 
f 214/234/208 215/235/209 203/222/197 
f 214/234/208 203/222/197 202/221/196 
f 215/235/209 216/236/210 204/223/198 
f 215/235/209 204/223/198 203/222/197 
f 216/236/210 217/237/211 205/224/199 
f 216/236/210 205/224/199 204/223/198 
f 217/237/211 218/238/212 206/225/200 
f 217/237/211 206/225/200 205/224/199 
f 218/239/212 207/227/201 195/214/189 
f 218/239/212 195/214/189 206/226/200 
f 170/240/164 169/241/163 146/163/140 
f 170/240/164 146/163/140 145/162/139 
f 169/241/163 173/242/167 148/165/142 
f 169/241/163 148/165/142 146/163/140 
f 173/242/167 175/243/169 150/167/144 
f 173/242/167 150/167/144 148/165/142 
f 175/243/169 177/244/171 152/169/146 
f 175/243/169 152/169/146 150/167/144 
f 177/244/171 179/245/173 154/171/148 
f 177/244/171 154/171/148 152/169/146 
f 179/245/173 55/108/51 30/30/26 
f 179/245/173 30/30/26 154/171/148 
f 58/109/54 182/246/176 157/174/151 
f 58/109/54 157/174/151 31/31/27 
f 182/246/176 181/247/175 158/175/152 
f 182/246/176 158/175/152 157/174/151 
f 181/247/175 185/248/179 160/177/154 
f 181/247/175 160/177/154 158/175/152 
f 185/248/179 187/249/181 162/179/156 
f 185/248/179 162/179/156 160/177/154 
f 187/249/181 189/250/183 164/181/158 
f 187/249/181 164/181/158 162/179/156 
f 189/250/183 191/251/185 166/183/160 
f 189/250/183 166/183/160 164/181/158 
f 191/251/185 193/252/187 168/185/162 
f 191/251/185 168/185/162 166/183/160 
f 193/252/187 170/240/164 145/162/139 
f 193/252/187 145/162/139 168/185/162 
f 219/253/213 220/254/214 221/255/215 
f 219/253/213 221/255/215 222/256/216 
f 223/257/217 224/258/218 220/254/214 
f 223/257/217 220/254/214 219/253/213 
f 225/259/219 226/260/220 224/258/218 
f 225/259/219 224/258/218 223/257/217 
f 227/261/221 228/262/222 226/260/220 
f 227/261/221 226/260/220 225/259/219 
f 229/263/223 230/264/224 228/262/222 
f 229/263/223 228/262/222 227/261/221 
f 110/127/106 109/126/105 230/264/224 
f 110/127/106 230/264/224 229/263/223 
f 114/131/110 231/265/225 232/266/226 
f 114/131/110 232/266/226 111/128/107 
f 233/267/227 234/268/228 232/266/226 
f 233/267/227 232/266/226 231/265/225 
f 235/269/229 236/270/230 234/268/228 
f 235/269/229 234/268/228 233/267/227 
f 237/271/231 238/272/232 236/270/230 
f 237/271/231 236/270/230 235/269/229 
f 239/273/233 240/274/234 238/272/232 
f 239/273/233 238/272/232 237/271/231 
f 241/275/235 242/276/236 240/274/234 
f 241/275/235 240/274/234 239/273/233 
f 243/277/237 244/278/238 242/276/236 
f 243/277/237 242/276/236 241/275/235 
f 222/256/216 221/255/215 244/278/238 
f 222/256/216 244/278/238 243/277/237 
f 245/279/239 84/280/80 85/281/81 
f 245/279/239 85/281/81 246/282/240 
f 246/282/240 85/281/81 86/283/82 
f 246/282/240 86/283/82 247/284/241 
f 247/285/241 86/286/82 87/287/83 
f 247/285/241 87/287/83 248/288/242 
f 248/288/242 87/287/83 88/289/84 
f 248/288/242 88/289/84 249/290/243 
f 249/290/243 88/289/84 89/291/85 
f 249/290/243 89/291/85 250/292/244 
f 250/292/244 89/291/85 91/293/87 
f 250/292/244 91/293/87 251/294/245 
f 251/294/245 91/293/87 211/295/205 
f 251/294/245 211/295/205 252/296/246 
f 252/296/246 211/295/205 210/297/204 
f 252/296/246 210/297/204 253/298/247 
f 253/298/247 210/297/204 209/299/203 
f 253/298/247 209/299/203 254/300/248 
f 254/301/248 209/302/203 208/303/202 
f 254/301/248 208/303/202 255/304/249 
f 255/304/249 208/303/202 207/305/201 
f 255/304/249 207/305/201 256/306/250 
f 256/306/250 207/305/201 218/307/212 
f 256/306/250 218/307/212 257/308/251 
f 257/308/251 218/307/212 217/309/211 
f 257/308/251 217/309/211 258/310/252 
f 258/310/252 217/309/211 216/311/210 
f 258/310/252 216/311/210 259/312/253 
f 259/312/253 216/311/210 215/313/209 
f 259/312/253 215/313/209 260/314/254 
f 260/315/254 215/316/209 214/317/208 
f 260/315/254 214/317/208 261/318/255 
f 261/318/255 214/317/208 213/319/207 
f 261/318/255 213/319/207 262/320/256 
f 262/320/256 213/319/207 212/321/206 
f 262/320/256 212/321/206 263/322/257 
f 263/322/257 212/321/206 92/323/88 
f 263/322/257 92/323/88 264/324/258 
f 264/324/258 92/323/88 93/325/89 
f 264/324/258 93/325/89 265/326/259 
f 265/326/259 93/325/89 94/327/90 
f 265/326/259 94/327/90 266/328/260 
f 266/328/260 94/327/90 95/329/91 
f 266/328/260 95/329/91 267/330/261 
f 267/331/261 95/332/91 96/333/92 
f 267/331/261 96/333/92 268/334/262 
f 268/334/262 96/333/92 97/335/93 
f 268/334/262 97/335/93 269/336/263 
f 269/336/263 97/335/93 98/337/94 
f 269/336/263 98/337/94 270/338/264 
f 270/338/264 98/337/94 84/280/80 
f 270/338/264 84/280/80 245/279/239 
f 99/116/95 14/14/10 13/13/9 
f 99/116/95 13/13/9 100/117/96 
f 100/117/96 13/13/9 15/15/11 
f 100/117/96 15/15/11 103/120/99 
f 103/120/99 15/15/11 16/16/12 
f 103/120/99 16/16/12 105/122/101 
f 105/122/101 16/16/12 17/17/13 
f 105/122/101 17/17/13 107/124/103 
f 107/124/103 17/17/13 18/18/14 
f 107/124/103 18/18/14 109/126/105 
f 111/128/107 12/12/8 10/10/7 
f 111/128/107 10/10/7 112/129/108 
f 112/129/108 10/10/7 8/8/6 
f 112/129/108 8/8/6 115/132/111 
f 115/132/111 8/8/6 6/6/5 
f 115/132/111 6/6/5 117/134/113 
f 117/134/113 6/6/5 4/4/4 
f 117/134/113 4/4/4 119/136/115 
f 119/136/115 4/4/4 3/3/3 
f 119/136/115 3/3/3 121/138/117 
f 121/138/117 3/3/3 2/2/2 
f 121/138/117 2/2/2 123/140/119 
f 123/140/119 2/2/2 14/14/10 
f 123/140/119 14/14/10 99/116/95 
f 220/254/214 138/155/132 137/154/131 
f 220/254/214 137/154/131 221/255/215 
f 224/258/218 139/156/133 138/155/132 
f 224/258/218 138/155/132 220/254/214 
f 226/260/220 140/157/134 139/156/133 
f 226/260/220 139/156/133 224/258/218 
f 228/262/222 141/158/135 140/157/134 
f 228/262/222 140/157/134 226/260/220 
f 230/264/224 142/159/136 141/158/135 
f 230/264/224 141/158/135 228/262/222 
f 230/264/224 109/126/105 18/18/14 
f 230/264/224 18/18/14 142/159/136 
f 232/266/226 136/153/130 12/12/8 
f 232/266/226 12/12/8 111/128/107 
f 234/268/228 134/151/128 136/153/130 
f 234/268/228 136/153/130 232/266/226 
f 236/270/230 132/149/126 134/151/128 
f 236/270/230 134/151/128 234/268/228 
f 238/272/232 130/147/125 132/149/126 
f 238/272/232 132/149/126 236/270/230 
f 240/274/234 128/145/124 130/147/125 
f 240/274/234 130/147/125 238/272/232 
f 242/276/236 125/142/121 128/145/124 
f 242/276/236 128/145/124 240/274/234 
f 244/278/238 126/143/122 125/142/121 
f 244/278/238 125/142/121 242/276/236 
f 221/255/215 137/154/131 126/143/122 
f 221/255/215 126/143/122 244/278/238 
f 20/20/16 102/119/98 101/118/97 
f 20/20/16 101/118/97 21/21/17 
f 21/21/17 101/118/97 104/121/100 
f 21/21/17 104/121/100 23/23/19 
f 23/23/19 104/121/100 106/123/102 
f 23/23/19 106/123/102 25/25/21 
f 25/25/21 106/123/102 108/125/104 
f 25/25/21 108/125/104 27/27/23 
f 27/27/23 108/125/104 110/127/106 
f 27/27/23 110/127/106 29/29/25 
f 32/32/28 114/131/110 113/130/109 
f 32/32/28 113/130/109 33/33/29 
f 33/33/29 113/130/109 116/133/112 
f 33/33/29 116/133/112 35/35/31 
f 35/35/31 116/133/112 118/135/114 
f 35/35/31 118/135/114 37/37/33 
f 37/37/33 118/135/114 120/137/116 
f 37/37/33 120/137/116 39/39/35 
f 39/39/35 120/137/116 122/139/118 
f 39/39/35 122/139/118 41/41/37 
f 41/41/37 122/139/118 124/141/120 
f 41/41/37 124/141/120 43/43/39 
f 43/43/39 124/141/120 102/119/98 
f 43/43/39 102/119/98 20/20/16 
f 143/160/137 219/253/213 222/256/216 
f 143/160/137 222/256/216 144/161/138 
f 147/164/141 223/257/217 219/253/213 
f 147/164/141 219/253/213 143/160/137 
f 149/166/143 225/259/219 223/257/217 
f 149/166/143 223/257/217 147/164/141 
f 151/168/145 227/261/221 225/259/219 
f 151/168/145 225/259/219 149/166/143 
f 153/170/147 229/263/223 227/261/221 
f 153/170/147 227/261/221 151/168/145 
f 153/170/147 29/29/25 110/127/106 
f 153/170/147 110/127/106 229/263/223 
f 155/172/149 233/267/227 231/265/225 
f 155/172/149 231/265/225 156/173/150 
f 159/176/153 235/269/229 233/267/227 
f 159/176/153 233/267/227 155/172/149 
f 161/178/155 237/271/231 235/269/229 
f 161/178/155 235/269/229 159/176/153 
f 163/180/157 239/273/233 237/271/231 
f 163/180/157 237/271/231 161/178/155 
f 165/182/159 241/275/235 239/273/233 
f 165/182/159 239/273/233 163/180/157 
f 167/184/161 243/277/237 241/275/235 
f 167/184/161 241/275/235 165/182/159 
f 144/161/138 222/256/216 243/277/237 
f 144/161/138 243/277/237 167/184/161 
f 156/173/150 231/265/225 114/131/110 
f 156/173/150 114/131/110 32/32/28 
f 271/339/265 272/340/266 273/341/267 
f 271/339/265 273/341/267 274/342/268 
f 274/342/268 273/341/267 275/343/269 
f 274/342/268 275/343/269 276/344/270 
f 276/344/270 275/343/269 277/345/271 
f 276/344/270 277/345/271 278/346/272 
f 278/346/272 277/345/271 279/347/273 
f 278/346/272 279/347/273 280/348/274 
f 280/348/274 279/347/273 281/349/275 
f 280/348/274 281/349/275 282/350/276 
f 282/350/276 281/349/275 283/351/277 
f 282/350/276 283/351/277 284/352/278 
f 285/353/279 286/354/280 287/355/281 
f 285/353/279 287/355/281 288/356/282 
f 288/356/282 287/355/281 289/357/283 
f 288/356/282 289/357/283 290/358/284 
f 290/358/284 289/357/283 291/359/285 
f 290/358/284 291/359/285 292/360/286 
f 292/360/286 291/359/285 293/361/287 
f 292/360/286 293/361/287 294/362/288 
f 294/362/288 293/361/287 295/363/289 
f 294/362/288 295/363/289 296/364/290 
f 296/364/290 295/363/289 297/365/291 
f 296/364/290 297/365/291 298/366/292 
f 298/366/292 297/365/291 272/340/266 
f 298/366/292 272/340/266 271/339/265 
f 299/367/293 271/368/265 274/369/268 
f 299/367/293 274/369/268 300/370/294 
f 300/370/294 274/369/268 276/371/270 
f 300/370/294 276/371/270 301/372/295 
f 301/372/295 276/371/270 278/373/272 
f 301/372/295 278/373/272 302/374/296 
f 302/374/296 278/373/272 280/375/274 
f 302/374/296 280/375/274 303/376/297 
f 303/376/297 280/375/274 282/377/276 
f 303/376/297 282/377/276 304/378/298 
f 304/378/298 282/377/276 284/379/278 
f 304/378/298 284/379/278 305/380/299 
f 306/381/300 307/382/301 285/383/279 
f 306/381/300 285/383/279 288/384/282 
f 306/381/300 288/384/282 290/385/284 
f 306/381/300 290/385/284 308/386/302 
f 308/386/302 290/385/284 292/387/286 
f 308/386/302 292/387/286 309/388/303 
f 309/388/303 292/387/286 294/389/288 
f 309/388/303 294/389/288 310/390/304 
f 310/390/304 294/389/288 296/391/290 
f 310/390/304 296/391/290 311/392/305 
f 311/392/305 296/391/290 298/393/292 
f 311/392/305 298/393/292 312/394/306 
f 312/394/306 298/393/292 271/368/265 
f 312/394/306 271/368/265 299/367/293 
f 245/395/127 246/396/127 313/397/307 
f 245/395/127 313/397/307 314/398/308 
f 246/396/127 247/399/123 315/400/309 
f 246/396/127 315/400/309 313/397/307 
f 247/399/123 248/401/1 316/402/310 
f 247/399/123 316/402/310 315/400/309 
f 248/401/1 249/403/1 317/404/311 
f 248/401/1 317/404/311 316/402/310 
f 249/403/1 250/405/129 318/406/312 
f 249/403/1 318/406/312 317/404/311 
f 319/407/127 265/408/1 320/409/313 
f 319/407/127 320/409/313 321/410/314 
f 265/408/1 266/411/1 322/412/315 
f 265/408/1 322/412/315 320/409/313 
f 266/411/1 267/413/1 323/414/316 
f 266/411/1 323/414/316 322/412/315 
f 267/413/1 268/415/1 324/416/317 
f 267/413/1 324/416/317 323/414/316 
f 268/415/1 269/417/1 325/418/318 
f 268/415/1 325/418/318 324/416/317 
f 269/417/1 270/419/1 326/420/319 
f 269/417/1 326/420/319 325/418/318 
f 270/419/1 245/395/127 314/398/308 
f 270/419/1 314/398/308 326/420/319 
f 272/340/266 326/420/319 314/398/308 
f 272/340/266 314/398/308 273/341/267 
f 273/341/267 314/398/308 313/397/307 
f 273/341/267 313/397/307 275/343/269 
f 275/343/269 313/397/307 315/400/309 
f 275/343/269 315/400/309 277/345/271 
f 277/345/271 315/400/309 316/402/310 
f 277/345/271 316/402/310 279/347/273 
f 279/347/273 316/402/310 317/404/311 
f 279/347/273 317/404/311 281/349/275 
f 281/349/275 317/404/311 318/406/312 
f 281/349/275 318/406/312 283/351/277 
f 287/355/281 321/410/314 320/409/313 
f 287/355/281 320/409/313 289/357/283 
f 289/357/283 320/409/313 322/412/315 
f 289/357/283 322/412/315 291/359/285 
f 291/359/285 322/412/315 323/414/316 
f 291/359/285 323/414/316 293/361/287 
f 293/361/287 323/414/316 324/416/317 
f 293/361/287 324/416/317 295/363/289 
f 295/363/289 324/416/317 325/418/318 
f 295/363/289 325/418/318 297/365/291 
f 297/365/291 325/418/318 326/420/319 
f 297/365/291 326/420/319 272/340/266 
f 327/421/320 328/422/321 329/423/322 
f 327/421/320 329/423/322 330/424/323 
f 331/425/324 327/421/320 330/424/323 
f 331/425/324 330/424/323 332/426/325 
f 333/427/326 331/425/324 332/426/325 
f 333/427/326 332/426/325 334/428/327 
f 335/429/328 333/427/326 334/428/327 
f 335/429/328 334/428/327 336/430/329 
f 337/431/330 335/429/328 336/430/329 
f 337/431/330 336/430/329 338/432/331 
f 339/433/332 337/431/330 338/432/331 
f 339/433/332 338/432/331 340/434/333 
f 341/435/334 286/354/280 285/353/279 
f 341/435/334 285/353/279 342/436/335 
f 343/437/336 341/435/334 342/436/335 
f 343/437/336 342/436/335 344/438/337 
f 345/439/338 343/437/336 344/438/337 
f 345/439/338 344/438/337 346/440/339 
f 347/441/340 345/439/338 346/440/339 
f 347/441/340 346/440/339 348/442/341 
f 349/443/342 347/441/340 348/442/341 
f 349/443/342 348/442/341 350/444/343 
f 328/422/321 349/443/342 350/444/343 
f 328/422/321 350/444/343 329/423/322 
f 330/445/323 329/446/322 351/447/344 
f 330/445/323 351/447/344 352/448/345 
f 332/449/325 330/450/323 352/451/345 
f 332/449/325 352/451/345 353/452/346 
f 334/453/327 332/449/325 353/452/346 
f 334/453/327 353/452/346 354/454/347 
f 336/455/329 334/453/327 354/454/347 
f 336/455/329 354/454/347 355/456/348 
f 338/457/331 336/455/329 355/456/348 
f 338/457/331 355/456/348 356/458/349 
f 340/459/333 338/457/331 356/458/349 
f 340/459/333 356/458/349 357/460/350 
f 342/461/335 285/383/279 307/382/301 
f 342/461/335 307/382/301 358/462/351 
f 344/463/337 342/461/335 358/462/351 
f 344/463/337 358/462/351 359/464/352 
f 346/465/339 344/463/337 359/464/352 
f 346/465/339 359/464/352 360/466/353 
f 348/467/341 346/465/339 360/466/353 
f 348/467/341 360/466/353 361/468/354 
f 350/469/343 348/467/341 361/468/354 
f 350/469/343 361/468/354 362/470/355 
f 329/446/322 350/469/343 362/470/355 
f 329/446/322 362/470/355 351/447/344 
f 363/471/356 255/472/123 364/473/123 
f 363/471/356 364/473/123 365/474/357 
f 366/475/358 254/476/127 255/472/123 
f 366/475/358 255/472/123 363/471/356 
f 367/477/359 253/478/1 254/476/127 
f 367/477/359 254/476/127 366/475/358 
f 368/479/360 252/480/1 253/478/1 
f 368/479/360 253/478/1 367/477/359 
f 369/481/361 251/482/127 252/480/1 
f 369/481/361 252/480/1 368/479/360 
f 318/406/312 250/405/129 251/482/127 
f 318/406/312 251/482/127 369/481/361 
f 370/483/362 262/484/1 263/485/129 
f 370/483/362 263/485/129 371/486/363 
f 372/487/364 261/488/1 262/484/1 
f 372/487/364 262/484/1 370/483/362 
f 373/489/365 260/490/1 261/488/1 
f 373/489/365 261/488/1 372/487/364 
f 374/491/366 259/492/1 260/490/1 
f 374/491/366 260/490/1 373/489/365 
f 375/493/367 258/494/1 259/492/1 
f 375/493/367 259/492/1 374/491/366 
f 376/495/368 257/496/1 258/494/1 
f 376/495/368 258/494/1 375/493/367 
f 365/474/357 364/473/123 257/496/1 
f 365/474/357 257/496/1 376/495/368 
f 369/481/361 339/433/332 283/351/277 
f 369/481/361 283/351/277 318/406/312 
f 284/379/278 340/459/333 357/460/350 
f 284/379/278 357/460/350 305/380/299 
f 321/410/314 371/486/363 263/485/129 
f 321/410/314 263/485/129 319/407/127 
f 365/474/357 376/495/368 328/422/321 
f 365/474/357 328/422/321 327/421/320 
f 363/471/356 365/474/357 327/421/320 
f 363/471/356 327/421/320 331/425/324 
f 366/475/358 363/471/356 331/425/324 
f 366/475/358 331/425/324 333/427/326 
f 367/477/359 366/475/358 333/427/326 
f 367/477/359 333/427/326 335/429/328 
f 368/479/360 367/477/359 335/429/328 
f 368/479/360 335/429/328 337/431/330 
f 369/481/361 368/479/360 337/431/330 
f 369/481/361 337/431/330 339/433/332 
f 286/354/280 371/486/363 321/410/314 
f 286/354/280 321/410/314 287/355/281 
f 370/483/362 371/486/363 286/354/280 
f 370/483/362 286/354/280 341/435/334 
f 372/487/364 370/483/362 341/435/334 
f 372/487/364 341/435/334 343/437/336 
f 373/489/365 372/487/364 343/437/336 
f 373/489/365 343/437/336 345/439/338 
f 374/491/366 373/489/365 345/439/338 
f 374/491/366 345/439/338 347/441/340 
f 375/493/367 374/491/366 347/441/340 
f 375/493/367 347/441/340 349/443/342 
f 376/495/368 375/493/367 349/443/342 
f 376/495/368 349/443/342 328/422/321 
f 339/433/332 340/434/333 284/352/278 
f 339/433/332 284/352/278 283/351/277 
f 377/497/369 378/498/370 379/499/371 
f 377/497/369 379/499/371 380/500/372 
f 381/501/373 377/497/369 380/500/372 
f 381/501/373 380/500/372 382/502/374 
f 383/503/375 381/501/373 382/502/374 
f 383/503/375 382/502/374 384/504/376 
f 385/505/377 383/503/375 384/504/376 
f 385/505/377 384/504/376 386/506/378 
f 387/507/379 385/505/377 386/506/378 
f 387/507/379 386/506/378 388/508/380 
f 389/509/381 387/507/379 388/508/380 
f 389/509/381 388/508/380 390/510/382 
f 391/511/383 392/512/384 393/513/385 
f 391/511/383 393/513/385 394/514/386 
f 395/515/387 391/511/383 394/514/386 
f 395/515/387 394/514/386 396/516/388 
f 397/517/389 395/515/387 396/516/388 
f 397/517/389 396/516/388 398/518/390 
f 399/519/391 397/517/389 398/518/390 
f 399/519/391 398/518/390 400/520/392 
f 401/521/393 399/519/391 400/520/392 
f 401/521/393 400/520/392 402/522/394 
f 403/523/395 401/521/393 402/522/394 
f 403/523/395 402/522/394 404/524/396 
f 378/498/370 403/523/395 404/524/396 
f 378/498/370 404/524/396 379/499/371 
f 380/525/372 379/526/371 299/367/293 
f 380/525/372 299/367/293 300/370/294 
f 382/527/374 380/525/372 300/370/294 
f 382/527/374 300/370/294 301/372/295 
f 384/528/376 382/527/374 301/372/295 
f 384/528/376 301/372/295 302/374/296 
f 386/529/378 384/528/376 302/374/296 
f 386/529/378 302/374/296 303/376/297 
f 388/530/380 386/529/378 303/376/297 
f 388/530/380 303/376/297 304/378/298 
f 390/531/382 388/530/380 304/378/298 
f 390/531/382 304/378/298 305/380/299 
f 306/381/300 394/532/386 393/533/385 
f 306/381/300 393/533/385 307/382/301 
f 396/534/388 394/532/386 306/381/300 
f 396/534/388 306/381/300 308/386/302 
f 398/535/390 396/534/388 308/386/302 
f 398/535/390 308/386/302 309/388/303 
f 400/536/392 398/535/390 309/388/303 
f 400/536/392 309/388/303 310/390/304 
f 402/537/394 400/536/392 310/390/304 
f 402/537/394 310/390/304 311/392/305 
f 404/538/396 402/537/394 311/392/305 
f 404/538/396 311/392/305 312/394/306 
f 379/526/371 404/538/396 312/394/306 
f 379/526/371 312/394/306 299/367/293 
f 405/539/397 406/540/398 407/541/399 
f 405/539/397 407/541/399 408/542/400 
f 409/543/401 410/544/402 406/540/398 
f 409/543/401 406/540/398 405/539/397 
f 411/545/403 412/546/404 410/544/402 
f 411/545/403 410/544/402 409/543/401 
f 413/547/405 414/548/406 412/546/404 
f 413/547/405 412/546/404 411/545/403 
f 415/549/407 416/550/408 414/548/406 
f 415/549/407 414/548/406 413/547/405 
f 417/551/409 418/552/410 419/553/411 
f 417/551/409 419/553/411 420/554/412 
f 421/555/413 422/556/414 418/552/410 
f 421/555/413 418/552/410 417/551/409 
f 423/557/415 424/558/416 422/556/414 
f 423/557/415 422/556/414 421/555/413 
f 425/559/417 426/560/418 424/558/416 
f 425/559/417 424/558/416 423/557/415 
f 427/561/419 428/562/420 426/560/418 
f 427/561/419 426/560/418 425/559/417 
f 429/563/421 430/564/422 428/562/420 
f 429/563/421 428/562/420 427/561/419 
f 408/542/400 407/541/399 430/564/422 
f 408/542/400 430/564/422 429/563/421 
f 408/542/400 429/563/421 378/498/370 
f 408/542/400 378/498/370 377/497/369 
f 405/539/397 408/542/400 377/497/369 
f 405/539/397 377/497/369 381/501/373 
f 409/543/401 405/539/397 381/501/373 
f 409/543/401 381/501/373 383/503/375 
f 411/545/403 409/543/401 383/503/375 
f 411/545/403 383/503/375 385/505/377 
f 413/547/405 411/545/403 385/505/377 
f 413/547/405 385/505/377 387/507/379 
f 415/549/407 413/547/405 387/507/379 
f 415/549/407 387/507/379 389/509/381 
f 417/551/409 420/554/412 391/511/383 
f 417/551/409 391/511/383 395/515/387 
f 421/555/413 417/551/409 395/515/387 
f 421/555/413 395/515/387 397/517/389 
f 423/557/415 421/555/413 397/517/389 
f 423/557/415 397/517/389 399/519/391 
f 425/559/417 423/557/415 399/519/391 
f 425/559/417 399/519/391 401/521/393 
f 427/561/419 425/559/417 401/521/393 
f 427/561/419 401/521/393 403/523/395 
f 429/563/421 427/561/419 403/523/395 
f 429/563/421 403/523/395 378/498/370 
f 431/565/423 432/566/424 433/567/425 
f 431/565/423 433/567/425 434/568/426 
f 434/568/426 433/567/425 435/569/427 
f 434/568/426 435/569/427 436/570/428 
f 436/570/428 435/569/427 437/571/429 
f 436/570/428 437/571/429 438/572/430 
f 438/572/430 437/571/429 439/573/431 
f 438/572/430 439/573/431 440/574/432 
f 440/574/432 439/573/431 441/575/433 
f 440/574/432 441/575/433 442/576/434 
f 442/576/434 441/575/433 443/577/435 
f 442/576/434 443/577/435 444/578/436 
f 393/513/385 392/512/384 445/579/437 
f 393/513/385 445/579/437 446/580/438 
f 446/580/438 445/579/437 447/581/439 
f 446/580/438 447/581/439 448/582/440 
f 448/582/440 447/581/439 449/583/441 
f 448/582/440 449/583/441 450/584/442 
f 450/584/442 449/583/441 451/585/443 
f 450/584/442 451/585/443 452/586/444 
f 452/586/444 451/585/443 453/587/445 
f 452/586/444 453/587/445 454/588/446 
f 454/588/446 453/587/445 432/566/424 
f 454/588/446 432/566/424 431/565/423 
f 351/447/344 431/589/423 434/590/426 
f 351/447/344 434/590/426 352/448/345 
f 352/451/345 434/591/426 436/592/428 
f 352/451/345 436/592/428 353/452/346 
f 353/452/346 436/592/428 438/593/430 
f 353/452/346 438/593/430 354/454/347 
f 354/454/347 438/593/430 440/594/432 
f 354/454/347 440/594/432 355/456/348 
f 355/456/348 440/594/432 442/595/434 
f 355/456/348 442/595/434 356/458/349 
f 356/458/349 442/595/434 444/596/436 
f 356/458/349 444/596/436 357/460/350 
f 307/382/301 393/533/385 446/597/438 
f 307/382/301 446/597/438 358/462/351 
f 358/462/351 446/597/438 448/598/440 
f 358/462/351 448/598/440 359/464/352 
f 359/464/352 448/598/440 450/599/442 
f 359/464/352 450/599/442 360/466/353 
f 360/466/353 450/599/442 452/600/444 
f 360/466/353 452/600/444 361/468/354 
f 361/468/354 452/600/444 454/601/446 
f 361/468/354 454/601/446 362/470/355 
f 362/470/355 454/601/446 431/589/423 
f 362/470/355 431/589/423 351/447/344 
f 455/602/447 456/603/448 457/604/449 
f 455/602/447 457/604/449 458/605/450 
f 456/603/448 459/606/451 460/607/452 
f 456/603/448 460/607/452 457/604/449 
f 459/606/451 461/608/453 462/609/454 
f 459/606/451 462/609/454 460/607/452 
f 461/608/453 463/610/455 464/611/456 
f 461/608/453 464/611/456 462/609/454 
f 463/610/455 465/612/457 466/613/458 
f 463/610/455 466/613/458 464/611/456 
f 465/612/457 416/550/408 415/549/407 
f 465/612/457 415/549/407 466/613/458 
f 467/614/459 468/615/460 469/616/461 
f 467/614/459 469/616/461 470/617/462 
f 468/615/460 471/618/463 472/619/464 
f 468/615/460 472/619/464 469/616/461 
f 471/618/463 473/620/465 474/621/466 
f 471/618/463 474/621/466 472/619/464 
f 473/620/465 475/622/467 476/623/468 
f 473/620/465 476/623/468 474/621/466 
f 475/622/467 477/624/469 478/625/470 
f 475/622/467 478/625/470 476/623/468 
f 477/624/469 479/626/471 480/627/472 
f 477/624/469 480/627/472 478/625/470 
f 479/626/471 455/602/447 458/605/450 
f 479/626/471 458/605/450 480/627/472 
f 389/509/381 443/577/435 466/613/458 
f 389/509/381 466/613/458 415/549/407 
f 390/531/382 305/380/299 357/460/350 
f 390/531/382 357/460/350 444/596/436 
f 420/554/412 419/553/411 467/614/459 
f 420/554/412 467/614/459 470/617/462 
f 432/566/424 480/627/472 458/605/450 
f 432/566/424 458/605/450 433/567/425 
f 433/567/425 458/605/450 457/604/449 
f 433/567/425 457/604/449 435/569/427 
f 435/569/427 457/604/449 460/607/452 
f 435/569/427 460/607/452 437/571/429 
f 437/571/429 460/607/452 462/609/454 
f 437/571/429 462/609/454 439/573/431 
f 439/573/431 462/609/454 464/611/456 
f 439/573/431 464/611/456 441/575/433 
f 441/575/433 464/611/456 466/613/458 
f 441/575/433 466/613/458 443/577/435 
f 392/512/384 391/511/383 420/554/412 
f 392/512/384 420/554/412 470/617/462 
f 392/512/384 470/617/462 469/616/461 
f 392/512/384 469/616/461 445/579/437 
f 445/579/437 469/616/461 472/619/464 
f 445/579/437 472/619/464 447/581/439 
f 447/581/439 472/619/464 474/621/466 
f 447/581/439 474/621/466 449/583/441 
f 449/583/441 474/621/466 476/623/468 
f 449/583/441 476/623/468 451/585/443 
f 451/585/443 476/623/468 478/625/470 
f 451/585/443 478/625/470 453/587/445 
f 453/587/445 478/625/470 480/627/472 
f 453/587/445 480/627/472 432/566/424 
f 443/577/435 389/509/381 390/510/382 
f 443/577/435 390/510/382 444/578/436 
f 481/628/473 482/629/474 483/630/475 
f 481/628/473 483/630/475 484/631/476 
f 485/632/477 481/628/473 484/631/476 
f 485/632/477 484/631/476 486/633/478 
f 487/634/479 485/632/477 486/633/478 
f 487/634/479 486/633/478 488/635/480 
f 489/636/481 487/634/479 488/635/480 
f 489/636/481 488/635/480 490/637/482 
f 491/638/483 489/636/481 490/637/482 
f 491/638/483 490/637/482 492/639/484 
f 493/640/485 494/641/486 495/642/487 
f 493/640/485 495/642/487 496/643/488 
f 497/644/489 493/640/485 496/643/488 
f 497/644/489 496/643/488 498/645/490 
f 499/646/491 497/644/489 498/645/490 
f 499/646/491 498/645/490 500/647/492 
f 501/648/493 499/646/491 500/647/492 
f 501/648/493 500/647/492 502/649/494 
f 503/650/495 501/648/493 502/649/494 
f 503/650/495 502/649/494 504/651/496 
f 505/652/497 503/650/495 504/651/496 
f 505/652/497 504/651/496 506/653/498 
f 482/629/474 505/652/497 506/653/498 
f 482/629/474 506/653/498 483/630/475 
f 484/631/476 483/630/475 507/654/499 
f 484/631/476 507/654/499 508/655/500 
f 486/633/478 484/631/476 508/655/500 
f 486/633/478 508/655/500 509/656/501 
f 488/635/480 486/633/478 509/656/501 
f 488/635/480 509/656/501 510/657/502 
f 490/637/482 488/635/480 510/657/502 
f 490/637/482 510/657/502 511/658/503 
f 492/639/484 490/637/482 511/658/503 
f 492/639/484 511/658/503 512/659/504 
f 496/643/488 495/642/487 513/660/505 
f 496/643/488 513/660/505 514/661/506 
f 498/645/490 496/643/488 514/661/506 
f 498/645/490 514/661/506 515/662/507 
f 500/647/492 498/645/490 515/662/507 
f 500/647/492 515/662/507 516/663/508 
f 502/649/494 500/647/492 516/663/508 
f 502/649/494 516/663/508 517/664/509 
f 504/651/496 502/649/494 517/664/509 
f 504/651/496 517/664/509 518/665/510 
f 506/653/498 504/651/496 518/665/510 
f 506/653/498 518/665/510 519/666/511 
f 483/630/475 506/653/498 519/666/511 
f 483/630/475 519/666/511 507/654/499 
f 520/667/512 521/668/513 508/655/500 
f 520/667/512 508/655/500 507/654/499 
f 521/668/513 522/669/514 509/656/501 
f 521/668/513 509/656/501 508/655/500 
f 522/669/514 523/670/515 510/657/502 
f 522/669/514 510/657/502 509/656/501 
f 523/670/515 524/671/516 511/658/503 
f 523/670/515 511/658/503 510/657/502 
f 524/671/516 525/672/517 512/659/504 
f 524/671/516 512/659/504 511/658/503 
f 526/673/518 527/674/519 512/659/504 
f 526/673/518 512/659/504 525/672/517 
f 528/675/520 529/676/521 514/661/506 
f 528/675/520 514/661/506 513/660/505 
f 529/676/521 530/677/522 515/662/507 
f 529/676/521 515/662/507 514/661/506 
f 530/677/522 531/678/523 516/663/508 
f 530/677/522 516/663/508 515/662/507 
f 531/678/523 532/679/524 517/664/509 
f 531/678/523 517/664/509 516/663/508 
f 532/679/524 533/680/525 518/665/510 
f 532/679/524 518/665/510 517/664/509 
f 533/680/525 534/681/526 519/666/511 
f 533/680/525 519/666/511 518/665/510 
f 534/681/526 520/667/512 507/654/499 
f 534/681/526 507/654/499 519/666/511 
f 535/682/527 536/683/528 537/684/529 
f 535/682/527 537/684/529 538/685/530 
f 538/685/530 537/684/529 539/686/531 
f 538/685/530 539/686/531 540/687/532 
f 540/687/532 539/686/531 541/688/533 
f 540/687/532 541/688/533 542/689/534 
f 542/689/534 541/688/533 543/690/535 
f 542/689/534 543/690/535 544/691/536 
f 544/691/536 543/690/535 545/692/537 
f 544/691/536 545/692/537 546/693/538 
f 545/692/537 491/638/483 492/639/484 
f 545/692/537 492/639/484 546/693/538 
f 547/694/539 548/695/540 549/696/541 
f 547/694/539 549/696/541 550/697/542 
f 550/697/542 549/696/541 551/698/543 
f 550/697/542 551/698/543 552/699/544 
f 552/699/544 551/698/543 553/700/545 
f 552/699/544 553/700/545 554/701/546 
f 554/701/546 553/700/545 555/702/547 
f 554/701/546 555/702/547 556/703/548 
f 556/703/548 555/702/547 557/704/549 
f 556/703/548 557/704/549 558/705/550 
f 558/705/550 557/704/549 559/706/551 
f 558/705/550 559/706/551 560/707/552 
f 560/707/552 559/706/551 536/683/528 
f 560/707/552 536/683/528 535/682/527 
f 495/642/487 494/641/486 548/695/540 
f 495/642/487 548/695/540 547/694/539 
f 561/708/553 535/682/527 538/685/530 
f 561/708/553 538/685/530 562/709/554 
f 562/709/554 538/685/530 540/687/532 
f 562/709/554 540/687/532 563/710/555 
f 563/710/555 540/687/532 542/689/534 
f 563/710/555 542/689/534 564/711/556 
f 564/711/556 542/689/534 544/691/536 
f 564/711/556 544/691/536 565/712/557 
f 565/712/557 544/691/536 546/693/538 
f 565/712/557 546/693/538 527/674/519 
f 546/693/538 492/639/484 512/659/504 
f 546/693/538 512/659/504 527/674/519 
f 566/713/558 547/694/539 550/697/542 
f 566/713/558 550/697/542 567/714/559 
f 567/714/559 550/697/542 552/699/544 
f 567/714/559 552/699/544 568/715/560 
f 568/715/560 552/699/544 554/701/546 
f 568/715/560 554/701/546 569/716/561 
f 569/716/561 554/701/546 556/703/548 
f 569/716/561 556/703/548 570/717/562 
f 570/717/562 556/703/548 558/705/550 
f 570/717/562 558/705/550 571/718/563 
f 571/718/563 558/705/550 560/707/552 
f 571/718/563 560/707/552 572/719/564 
f 572/719/564 560/707/552 535/682/527 
f 572/719/564 535/682/527 561/708/553 
f 513/660/505 495/642/487 547/694/539 
f 513/660/505 547/694/539 566/713/558 
f 573/720/565 561/708/553 562/709/554 
f 573/720/565 562/709/554 574/721/566 
f 574/721/566 562/709/554 563/710/555 
f 574/721/566 563/710/555 575/722/567 
f 575/722/567 563/710/555 564/711/556 
f 575/722/567 564/711/556 576/723/568 
f 576/723/568 564/711/556 565/712/557 
f 576/723/568 565/712/557 577/724/569 
f 577/724/569 565/712/557 527/674/519 
f 577/724/569 527/674/519 526/673/518 
f 528/675/520 513/660/505 566/713/558 
f 528/675/520 566/713/558 578/725/570 
f 578/725/570 566/713/558 567/714/559 
f 578/725/570 567/714/559 579/726/571 
f 579/726/571 567/714/559 568/715/560 
f 579/726/571 568/715/560 580/727/572 
f 580/727/572 568/715/560 569/716/561 
f 580/727/572 569/716/561 581/728/573 
f 581/728/573 569/716/561 570/717/562 
f 581/728/573 570/717/562 582/729/574 
f 582/729/574 570/717/562 571/718/563 
f 582/729/574 571/718/563 583/730/575 
f 583/730/575 571/718/563 572/719/564 
f 583/730/575 572/719/564 584/731/576 
f 584/731/576 572/719/564 561/708/553 
f 584/731/576 561/708/553 573/720/565 
f 407/732/399 406/733/398 521/734/513 
f 407/732/399 521/734/513 520/735/512 
f 406/733/398 410/736/402 522/737/514 
f 406/733/398 522/737/514 521/734/513 
f 410/738/402 412/739/404 523/740/515 
f 410/738/402 523/740/515 522/741/514 
f 412/739/404 414/742/406 524/743/516 
f 412/739/404 524/743/516 523/740/515 
f 414/742/406 416/744/408 525/745/517 
f 414/742/406 525/745/517 524/743/516 
f 416/744/408 465/746/457 526/747/518 
f 416/744/408 526/747/518 525/745/517 
f 465/746/457 463/748/455 577/749/569 
f 465/746/457 577/749/569 526/747/518 
f 463/748/455 461/750/453 576/751/568 
f 463/748/455 576/751/568 577/749/569 
f 461/750/453 459/752/451 575/753/567 
f 461/750/453 575/753/567 576/751/568 
f 459/754/451 456/755/448 574/756/566 
f 459/754/451 574/756/566 575/757/567 
f 456/755/448 455/758/447 573/759/565 
f 456/755/448 573/759/565 574/756/566 
f 455/758/447 479/760/471 584/761/576 
f 455/758/447 584/761/576 573/759/565 
f 479/760/471 477/762/469 583/763/575 
f 479/760/471 583/763/575 584/761/576 
f 477/762/469 475/764/467 582/765/574 
f 477/762/469 582/765/574 583/763/575 
f 475/764/467 473/766/465 581/767/573 
f 475/764/467 581/767/573 582/765/574 
f 473/768/465 471/769/463 580/770/572 
f 473/768/465 580/770/572 581/771/573 
f 471/769/463 468/772/460 579/773/571 
f 471/769/463 579/773/571 580/770/572 
f 468/772/460 467/774/459 578/775/570 
f 468/772/460 578/775/570 579/773/571 
f 467/774/459 419/776/411 528/777/520 
f 467/774/459 528/777/520 578/775/570 
f 419/776/411 418/778/410 529/779/521 
f 419/776/411 529/779/521 528/777/520 
f 418/778/410 422/780/414 530/781/522 
f 418/778/410 530/781/522 529/779/521 
f 422/780/414 424/782/416 531/783/523 
f 422/780/414 531/783/523 530/781/522 
f 424/784/416 426/785/418 532/786/524 
f 424/784/416 532/786/524 531/787/523 
f 426/785/418 428/788/420 533/789/525 
f 426/785/418 533/789/525 532/786/524 
f 428/788/420 430/790/422 534/791/526 
f 428/788/420 534/791/526 533/789/525 
f 430/790/422 407/732/399 520/735/512 
f 430/790/422 520/735/512 534/791/526 
f 585/792/577 559/706/551 557/704/549 
f 585/792/577 557/704/549 555/702/547 
f 586/793/578 585/792/577 555/702/547 
f 586/793/578 555/702/547 553/700/545 
f 587/794/578 586/793/578 553/700/545 
f 587/794/578 553/700/545 551/698/543 
f 588/795/577 587/794/578 551/698/543 
f 588/795/577 551/698/543 549/696/541 
f 589/796/577 588/795/577 549/696/541 
f 589/796/577 549/696/541 548/695/540 
f 590/797/577 589/796/577 548/695/540 
f 590/797/577 548/695/540 494/641/486 
f 493/640/485 591/798/577 590/797/577 
f 493/640/485 590/797/577 494/641/486 
f 497/644/489 592/799/577 591/798/577 
f 497/644/489 591/798/577 493/640/485 
f 499/646/491 593/800/577 592/799/577 
f 499/646/491 592/799/577 497/644/489 
f 501/648/493 594/801/578 593/800/577 
f 501/648/493 593/800/577 499/646/491 
f 503/650/495 505/652/497 594/801/578 
f 503/650/495 594/801/578 501/648/493 
f 585/792/577 537/684/529 536/683/528 
f 585/792/577 536/683/528 559/706/551 
f 586/793/578 539/686/531 537/684/529 
f 586/793/578 537/684/529 585/792/577 
f 587/794/578 541/688/533 539/686/531 
f 587/794/578 539/686/531 586/793/578 
f 588/795/577 543/690/535 541/688/533 
f 588/795/577 541/688/533 587/794/578 
f 589/796/577 545/692/537 543/690/535 
f 589/796/577 543/690/535 588/795/577 
f 590/797/577 491/638/483 545/692/537 
f 590/797/577 545/692/537 589/796/577 
f 590/797/577 591/798/577 489/636/481 
f 590/797/577 489/636/481 491/638/483 
f 591/798/577 592/799/577 487/634/479 
f 591/798/577 487/634/479 489/636/481 
f 592/799/577 593/800/577 485/632/477 
f 592/799/577 485/632/477 487/634/479 
f 593/800/577 594/801/578 481/628/473 
f 593/800/577 481/628/473 485/632/477 
f 594/801/578 505/652/497 482/629/474 
f 594/801/578 482/629/474 481/628/473 
# 0 polygons - 1180 triangles

