# 3ds Max Wavefront OBJ Exporter v0.99 - (c)2007 guruware
# File Created: 22.03.2025 12:55:11

mtllib llantaderTrasera.mtl

#
# object Wheel_B_R_2_0
#

v  2.4154 0.5684 -1.5580
v  2.4154 0.8686 -1.5945
v  2.4154 0.8686 -1.4973
v  2.4154 0.2856 -1.4508
v  2.4154 0.8688 -1.3170
v  2.4154 0.0366 -1.2789
v  2.4154 0.8686 -1.0912
v  2.4154 -0.1639 -1.0525
v  2.4154 0.8686 -0.7933
v  2.4154 -0.3045 -0.7847
v  2.4154 0.8688 -0.5537
v  2.4154 -0.3769 -0.4910
v  2.4154 1.1689 -1.5580
v  2.4154 1.4517 -1.4508
v  2.4154 1.7007 -1.2789
v  2.4154 1.9012 -1.0525
v  2.4154 2.0417 -0.7847
v  2.4154 2.1141 -0.4910
v  2.0261 2.1482 -2.7777
v  2.0261 1.5275 -3.0131
v  1.5368 1.6835 -3.6457
v  1.5368 2.4510 -3.3547
v  2.0261 2.6945 -2.4007
v  1.5368 3.1265 -2.8884
v  2.0261 3.1346 -1.9038
v  1.5368 3.6708 -2.2740
v  2.0261 3.4430 -1.3161
v  1.5368 4.0523 -1.5472
v  2.0261 3.6019 -0.6716
v  1.5368 4.2487 -0.7502
v  2.0261 -1.7058 -1.3161
v  2.0261 -1.8647 -0.6716
v  1.5368 -2.5115 -0.7502
v  1.5368 -2.3150 -1.5472
v  2.0261 -1.3973 -1.9038
v  1.5368 -1.9336 -2.2740
v  2.0261 -0.9572 -2.4007
v  1.5368 -1.3893 -2.8884
v  2.0261 -0.4109 -2.7777
v  1.5368 -0.7138 -3.3547
v  2.0261 0.2097 -3.0131
v  1.5368 0.0538 -3.6457
v  2.0261 0.8686 -3.0931
v  1.5368 0.8686 -3.7447
v  0.7080 2.6314 -3.6986
v  0.7080 1.7764 -4.0229
v  1.3117 1.8680 -4.3942
v  1.3117 2.8092 -4.0372
v  0.7080 3.3840 -3.1791
v  1.3117 3.6376 -3.4654
v  0.7080 3.9905 -2.4946
v  1.3117 4.3052 -2.7119
v  0.7080 4.4154 -1.6849
v  1.3117 4.7730 -1.8205
v  0.7080 4.6343 -0.7970
v  1.3117 5.0139 -0.8432
v  0.7080 -2.6781 -1.6849
v  0.7080 -2.8970 -0.7970
v  1.3117 -3.2767 -0.8432
v  1.3117 -3.0358 -1.8205
v  0.7080 -2.2532 -2.4946
v  1.3117 -2.5680 -2.7119
v  0.7080 -1.6468 -3.1791
v  1.3117 -1.9004 -3.4654
v  0.7080 -0.8942 -3.6986
v  1.3117 -1.0719 -4.0372
v  0.7080 -0.0392 -4.0229
v  1.3117 -0.1307 -4.3942
v  0.7080 0.8686 -4.1331
v  1.3117 0.8686 -4.5155
v  1.5938 1.9814 -4.8546
v  1.5938 3.0296 -4.4571
v  1.5938 3.9521 -3.8204
v  1.5938 4.6955 -2.9812
v  1.5938 5.2164 -1.9887
v  1.5938 5.4847 -0.9003
v  1.5938 -3.7474 -0.9003
v  1.5938 -3.4792 -1.9887
v  1.5938 -2.9583 -2.9812
v  1.5938 -2.2149 -3.8204
v  1.5938 -1.2923 -4.4571
v  1.5938 -0.2442 -4.8546
v  1.5938 0.8686 -4.9898
v  1.8418 2.0866 -5.2812
v  1.8418 3.2338 -4.8462
v  1.8418 4.2435 -4.1492
v  1.8418 5.0571 -3.2308
v  1.8418 5.6273 -2.1444
v  1.8418 5.9208 -0.9532
v  1.8418 5.9208 0.2736
v  1.5938 5.4847 0.2207
v  1.8418 -4.1836 -0.9532
v  1.8418 -3.8900 -2.1444
v  1.8418 -3.3198 -3.2308
v  1.8418 -2.5062 -4.1492
v  1.8418 -1.4965 -4.8462
v  1.8418 -0.3493 -5.2812
v  1.8418 0.8686 -5.4291
v  2.0400 2.0779 -2.6438
v  2.1075 2.0755 -2.6394
v  2.1075 1.4902 -2.8613
v  2.0400 1.4914 -2.8663
v  2.0400 2.5942 -2.2875
v  2.1075 2.5908 -2.2837
v  2.0400 3.0101 -1.8179
v  2.1075 3.0060 -1.8151
v  2.0400 3.3016 -1.2625
v  2.1075 3.2969 -1.2607
v  2.0400 3.4517 -0.6535
v  2.1075 3.4468 -0.6528
v  2.0400 -1.5644 -1.2625
v  2.1075 -1.5597 -1.2607
v  2.1075 -1.7095 -0.6528
v  2.0400 -1.7144 -0.6535
v  2.0400 -1.2729 -1.8179
v  2.1075 -1.2687 -1.8151
v  2.0400 -0.8569 -2.2875
v  2.1075 -0.8535 -2.2837
v  2.0400 -0.3406 -2.6438
v  2.1075 -0.3383 -2.6394
v  2.0400 0.2459 -2.8663
v  2.1075 0.2471 -2.8613
v  2.0400 0.8686 -2.9419
v  2.1075 0.8686 -2.9368
v  2.4154 0.8686 0.8178
v  2.4154 0.8686 0.9149
v  2.4154 0.5684 0.8784
v  2.4154 0.2856 0.7712
v  2.4154 0.8688 0.6374
v  2.4154 0.0366 0.5993
v  2.4154 0.8686 0.4116
v  2.4154 -0.1639 0.3729
v  2.4154 0.8686 0.1137
v  2.4154 -0.3045 0.1052
v  2.4154 0.8688 -0.1259
v  2.4154 -0.3769 -0.1885
v  2.4154 1.4517 0.7712
v  2.4154 1.1689 0.8784
v  2.4154 1.7007 0.5993
v  2.4154 1.9012 0.3729
v  2.4154 2.0417 0.1052
v  2.4154 2.1141 -0.1885
v  1.5368 1.6835 2.9662
v  2.0261 1.5275 2.3336
v  2.0261 2.1482 2.0982
v  1.5368 2.4510 2.6752
v  2.0261 2.6945 1.7212
v  1.5368 3.1265 2.2089
v  2.0261 3.1346 1.2243
v  1.5368 3.6708 1.5945
v  2.0261 3.4430 0.6365
v  1.5368 4.0523 0.8676
v  2.0261 3.6019 -0.0079
v  1.5368 4.2487 0.0706
v  1.5368 -2.5115 0.0706
v  2.0261 -1.8647 -0.0079
v  2.0261 -1.7058 0.6366
v  1.5368 -2.3150 0.8676
v  2.0261 -1.3973 1.2243
v  1.5368 -1.9336 1.5945
v  2.0261 -0.9572 1.7212
v  1.5368 -1.3893 2.2089
v  2.0261 -0.4109 2.0982
v  1.5368 -0.7138 2.6752
v  2.0261 0.2097 2.3336
v  1.5368 0.0538 2.9662
v  2.0261 0.8686 2.4136
v  1.5368 0.8686 3.0652
v  1.3117 1.8680 3.7146
v  0.7080 1.7764 3.3433
v  0.7080 2.6314 3.0190
v  1.3117 2.8092 3.3577
v  0.7080 3.3840 2.4995
v  1.3117 3.6376 2.7858
v  0.7080 3.9905 1.8151
v  1.3117 4.3052 2.0323
v  0.7080 4.4154 1.0054
v  1.3117 4.7730 1.1409
v  0.7080 4.6343 0.1175
v  1.3117 5.0139 0.1636
v  1.3117 -3.2767 0.1636
v  0.7080 -2.8970 0.1175
v  0.7080 -2.6781 1.0054
v  1.3117 -3.0358 1.1410
v  0.7080 -2.2532 1.8151
v  1.3117 -2.5680 2.0323
v  0.7080 -1.6468 2.4995
v  1.3117 -1.9004 2.7858
v  0.7080 -0.8942 3.0190
v  1.3117 -1.0719 3.3577
v  0.7080 -0.0392 3.3433
v  1.3117 -0.1307 3.7146
v  0.7080 0.8686 3.4535
v  1.3117 0.8686 3.8359
v  1.5938 1.9814 4.1750
v  1.5938 3.0296 3.7775
v  1.5938 3.9521 3.1408
v  1.5938 4.6955 2.3017
v  1.5938 5.2164 1.3091
v  1.5938 -3.7474 0.2207
v  1.5938 -3.4792 1.3091
v  1.5938 -2.9583 2.3017
v  1.5938 -2.2149 3.1408
v  1.5938 -1.2923 3.7775
v  1.5938 -0.2442 4.1751
v  1.5938 0.8686 4.3102
v  1.8418 2.0866 4.6017
v  1.8418 3.2338 4.1666
v  1.8418 4.2435 3.4696
v  1.8418 5.0571 2.5513
v  1.8418 5.6273 1.4649
v  1.8418 -4.1836 0.2736
v  1.8418 -3.8900 1.4649
v  1.8418 -3.3198 2.5513
v  1.8418 -2.5062 3.4696
v  1.8418 -1.4965 4.1666
v  1.8418 -0.3493 4.6017
v  1.8418 0.8686 4.7496
v  2.1075 1.4902 2.1818
v  2.1075 2.0755 1.9598
v  2.0400 2.0779 1.9642
v  2.0400 1.4914 2.1867
v  2.1075 2.5908 1.6041
v  2.0400 2.5942 1.6079
v  2.1075 3.0060 1.1355
v  2.0400 3.0101 1.1383
v  2.1075 3.2969 0.5811
v  2.0400 3.3016 0.5829
v  2.1075 3.4468 -0.0267
v  2.0400 3.4517 -0.0261
v  2.1075 -1.7095 -0.0267
v  2.0400 -1.7144 -0.0261
v  2.1075 -1.5597 0.5811
v  2.0400 -1.5644 0.5829
v  2.1075 -1.2687 1.1355
v  2.0400 -1.2729 1.1383
v  2.1075 -0.8535 1.6041
v  2.0400 -0.8569 1.6079
v  2.1075 -0.3383 1.9598
v  2.0400 -0.3406 1.9642
v  2.1075 0.2471 2.1818
v  2.0400 0.2459 2.1867
v  2.1075 0.8686 2.2572
v  2.0400 0.8686 2.2623
v  1.6729 2.1035 -5.3499
v  1.6729 3.2666 -4.9088
v  1.6729 4.2903 -4.2021
v  1.6729 5.1152 -3.2711
v  1.6729 5.6934 -2.1696
v  1.6729 5.9911 -0.9618
v  1.6729 5.9911 0.2822
v  1.6729 5.6934 1.4900
v  1.6729 5.1152 2.5915
v  1.6729 4.2903 3.5226
v  1.6729 3.2666 4.2292
v  1.6729 2.1035 4.6703
v  1.6729 0.8686 4.8203
v  1.6729 -0.3662 4.6704
v  1.6729 -1.5293 4.2292
v  1.6729 -2.5531 3.5226
v  1.6729 -3.3780 2.5915
v  1.6729 -3.9561 1.4900
v  1.6729 -4.2538 0.2822
v  1.6729 -4.2538 -0.9618
v  1.6729 -3.9561 -2.1696
v  1.6729 -3.3780 -3.2711
v  1.6729 -2.5531 -4.2022
v  1.6729 -1.5293 -4.9088
v  1.6729 -0.3662 -5.3499
v  1.6729 0.8686 -5.4998
v  1.4984 2.5454 -7.1425
v  1.4984 0.8686 -7.3461
v  1.1596 0.8686 -8.0887
v  1.1596 2.7231 -7.8636
v  1.4984 4.1246 -6.5436
v  1.1596 4.4697 -7.2012
v  1.4984 5.5147 -5.5841
v  1.1596 6.0071 -6.1399
v  1.4984 6.6347 -4.3198
v  1.1596 7.2459 -4.7417
v  1.4984 7.4196 -2.8243
v  1.1596 8.1141 -3.0876
v  1.4984 7.8239 -1.1843
v  1.1596 8.5611 -1.2738
v  1.4984 -6.0866 -1.1843
v  1.4984 -6.0866 0.5047
v  1.1596 -6.8239 0.5942
v  1.1596 -6.8239 -1.2738
v  1.4984 -5.6824 -2.8243
v  1.1596 -6.3768 -3.0876
v  1.4984 -4.8975 -4.3198
v  1.1596 -5.5086 -4.7417
v  1.4984 -3.7774 -5.5841
v  1.1596 -4.2699 -6.1400
v  1.4984 -2.3874 -6.5436
v  1.1596 -2.7324 -7.2012
v  1.4984 -0.8081 -7.1425
v  1.1596 -0.9858 -7.8636
v  -0.3835 0.8686 -8.0887
v  -0.3835 2.7231 -7.8636
v  -0.3835 4.4697 -7.2012
v  -0.3835 6.0071 -6.1399
v  -0.3835 7.2459 -4.7417
v  -0.3835 8.1141 -3.0876
v  -0.3835 8.5611 -1.2738
v  -0.3835 -6.8239 -1.2738
v  -0.3835 -6.8239 0.5942
v  -0.3835 -6.3768 -3.0876
v  -0.3835 -5.5086 -4.7417
v  -0.3835 -4.2699 -6.1400
v  -0.3835 -2.7324 -7.2012
v  -0.3835 -0.9858 -7.8636
v  1.6729 3.6790 -5.6943
v  1.6729 2.3158 -6.2113
v  1.6729 4.8787 -4.8663
v  1.6729 4.2903 -4.2022
v  1.6729 5.8454 -3.7750
v  1.6729 6.5229 -2.4842
v  1.6729 6.8718 -1.0687
v  1.6729 -4.7856 -2.4842
v  1.6729 -5.1345 -1.0687
v  1.6729 -4.1081 -3.7750
v  1.6729 -3.1415 -4.8663
v  1.6729 -1.9417 -5.6943
v  1.6729 -0.5786 -6.2113
v  1.6729 0.8686 -6.3871
v  1.6729 0.8686 -5.4999
v  1.1596 0.8686 7.4091
v  1.4984 0.8686 6.6665
v  1.4984 2.5454 6.4629
v  1.1596 2.7231 7.1840
v  1.4984 4.1246 5.8640
v  1.1596 4.4697 6.5216
v  1.4984 5.5147 4.9046
v  1.1596 6.0071 5.4604
v  1.4984 6.6347 3.6403
v  1.1596 7.2459 4.0621
v  1.4984 7.4196 2.1447
v  1.1596 8.1141 2.4080
v  1.4984 7.8239 0.5047
v  1.1596 8.5611 0.5942
v  1.4984 -5.6824 2.1447
v  1.1596 -6.3768 2.4080
v  1.4984 -4.8975 3.6403
v  1.1596 -5.5086 4.0622
v  1.4984 -3.7774 4.9046
v  1.1596 -4.2699 5.4604
v  1.4984 -2.3874 5.8640
v  1.1596 -2.7324 6.5216
v  1.4984 -0.8081 6.4629
v  1.1596 -0.9858 7.1840
v  -0.3835 0.8686 7.4091
v  -0.3835 2.7231 7.1840
v  -0.3835 4.4697 6.5216
v  -0.3835 6.0071 5.4604
v  -0.3835 7.2459 4.0621
v  -0.3835 8.1141 2.4080
v  -0.3835 8.5611 0.5942
v  -0.3835 -6.3768 2.4080
v  -0.3835 -5.5086 4.0622
v  -0.3835 -4.2699 5.4604
v  -0.3835 -2.7324 6.5216
v  -0.3835 -0.9858 7.1840
v  1.6729 3.6790 5.0148
v  1.6729 2.3158 5.5318
v  1.6729 4.8787 4.1867
v  1.6729 5.8454 3.0954
v  1.6729 6.5229 1.8046
v  1.6729 6.8718 0.3891
v  1.6729 -4.7856 1.8046
v  1.6729 -5.1345 0.3891
v  1.6729 -4.1081 3.0954
v  1.6729 -3.1415 4.1867
v  1.6729 -1.9417 5.0148
v  1.6729 -0.3662 4.6703
v  1.6729 -0.5786 5.5318
v  1.6729 0.8686 5.7075
v  -1.9267 0.8686 -8.0887
v  -2.2655 0.8686 -7.3461
v  -2.2655 2.5454 -7.1425
v  -1.9267 2.7231 -7.8636
v  -2.2655 4.1246 -6.5436
v  -1.9267 4.4697 -7.2012
v  -2.2655 5.5147 -5.5841
v  -1.9267 6.0071 -6.1399
v  -2.2655 6.6347 -4.3198
v  -1.9267 7.2459 -4.7417
v  -2.2655 7.4196 -2.8243
v  -1.9267 8.1141 -3.0876
v  -2.2655 7.8239 -1.1843
v  -1.9267 8.5611 -1.2738
v  -1.9267 -6.8239 0.5942
v  -2.2654 -6.0866 0.5047
v  -2.2655 -6.0866 -1.1843
v  -1.9267 -6.8239 -1.2738
v  -2.2655 -5.6824 -2.8243
v  -1.9267 -6.3768 -3.0876
v  -2.2655 -4.8975 -4.3198
v  -1.9267 -5.5086 -4.7417
v  -2.2655 -3.7774 -5.5841
v  -1.9267 -4.2699 -6.1400
v  -2.2655 -2.3874 -6.5436
v  -1.9267 -2.7324 -7.2012
v  -2.2655 -0.8081 -7.1425
v  -1.9267 -0.9858 -7.8636
v  -2.4400 2.1035 -5.3499
v  -2.4400 3.2666 -4.9088
v  -2.4400 3.6790 -5.6943
v  -2.4400 2.3158 -6.2113
v  -2.4400 4.2903 -4.2022
v  -2.4400 4.8787 -4.8663
v  -2.4400 5.1152 -3.2711
v  -2.4400 5.8454 -3.7750
v  -2.4400 5.6934 -2.1696
v  -2.4400 6.5229 -2.4842
v  -2.4400 5.9911 -0.9618
v  -2.4400 6.8718 -1.0687
v  -2.4400 -4.2538 -0.9618
v  -2.4400 -3.9561 -2.1696
v  -2.4400 -4.7856 -2.4842
v  -2.4400 -5.1345 -1.0687
v  -2.4400 -3.3780 -3.2711
v  -2.4400 -4.1081 -3.7750
v  -2.4400 -2.5531 -4.2022
v  -2.4400 -3.1415 -4.8663
v  -2.4400 -1.5293 -4.9088
v  -2.4400 -1.9417 -5.6943
v  -2.4400 -0.3662 -5.3499
v  -2.4400 -0.5786 -6.2113
v  -2.4400 0.8686 -5.4999
v  -2.4400 0.8686 -6.3871
v  -2.2654 2.5454 6.4629
v  -2.2654 0.8686 6.6665
v  -1.9267 0.8686 7.4091
v  -1.9267 2.7231 7.1840
v  -2.2654 4.1246 5.8640
v  -1.9267 4.4697 6.5216
v  -2.2654 5.5147 4.9046
v  -1.9267 6.0071 5.4604
v  -2.2654 6.6347 3.6403
v  -1.9267 7.2459 4.0621
v  -2.2654 7.4196 2.1447
v  -1.9267 8.1141 2.4080
v  -2.2654 7.8239 0.5047
v  -1.9267 8.5611 0.5942
v  -2.2654 -5.6824 2.1447
v  -1.9267 -6.3768 2.4080
v  -2.2654 -4.8975 3.6403
v  -1.9267 -5.5086 4.0622
v  -2.2654 -3.7774 4.9046
v  -1.9267 -4.2699 5.4604
v  -2.2654 -2.3874 5.8640
v  -1.9267 -2.7324 6.5216
v  -2.2654 -0.8081 6.4629
v  -1.9267 -0.9858 7.1840
v  -2.4400 3.6790 5.0148
v  -2.4400 3.2666 4.2292
v  -2.4400 2.1035 4.6703
v  -2.4400 2.3158 5.5318
v  -2.4400 4.8787 4.1867
v  -2.4400 4.2903 3.5226
v  -2.4400 5.8454 3.0954
v  -2.4400 5.1152 2.5915
v  -2.4400 6.5229 1.8046
v  -2.4400 5.6934 1.4900
v  -2.4400 6.8718 0.3891
v  -2.4400 5.9911 0.2822
v  -2.4400 -4.7856 1.8046
v  -2.4400 -3.9561 1.4900
v  -2.4400 -4.2538 0.2822
v  -2.4400 -5.1345 0.3891
v  -2.4400 -4.1081 3.0954
v  -2.4400 -3.3780 2.5915
v  -2.4400 -3.1415 4.1867
v  -2.4400 -2.5531 3.5226
v  -2.4400 -1.9417 5.0148
v  -2.4400 -1.5293 4.2292
v  -2.4400 -0.5786 5.5318
v  -2.4400 -0.3662 4.6703
v  -2.4400 0.8686 5.7075
v  -2.4400 0.8686 4.8203
v  -2.0788 1.8680 -4.3942
v  -1.4751 1.4234 -2.5906
v  -1.4751 1.9459 -2.3924
v  -2.0788 2.8092 -4.0372
v  -1.4751 2.4059 -2.0750
v  -2.0788 3.6376 -3.4654
v  -1.4751 2.7765 -1.6566
v  -2.0788 4.3052 -2.7119
v  -1.4751 3.0361 -1.1618
v  -2.0788 4.7730 -1.8205
v  -1.4751 3.1699 -0.6192
v  -2.0788 5.0139 -0.8432
v  -2.0788 -3.2767 -0.8432
v  -1.4751 -1.4327 -0.6192
v  -1.4751 -1.2989 -1.1618
v  -2.0788 -3.0358 -1.8205
v  -1.4751 -1.0392 -1.6566
v  -2.0788 -2.5680 -2.7119
v  -1.4751 -0.6686 -2.0750
v  -2.0788 -1.9004 -3.4654
v  -1.4751 -0.2087 -2.3925
v  -2.0788 -1.0719 -4.0372
v  -1.4751 0.3139 -2.5906
v  -2.0788 -0.1307 -4.3942
v  -1.4751 0.8686 -2.6580
v  -2.0788 0.8686 -4.5155
v  -2.3608 1.9814 -4.8546
v  -2.3608 3.0296 -4.4571
v  -2.3608 3.9521 -3.8204
v  -2.3608 4.6955 -2.9812
v  -2.3608 5.2164 -1.9887
v  -2.3608 5.4846 -0.9003
v  -2.3608 -3.7474 -0.9003
v  -2.3608 -3.4792 -1.9887
v  -2.3608 -2.9583 -2.9812
v  -2.3608 -2.2149 -3.8204
v  -2.3608 -1.2923 -4.4571
v  -2.3608 -0.2442 -4.8546
v  -2.3608 0.8686 -4.9898
v  -2.6089 2.0866 -5.2812
v  -2.6089 3.2338 -4.8462
v  -2.6089 4.2435 -4.1492
v  -2.6089 5.0571 -3.2308
v  -2.6089 5.6273 -2.1444
v  -2.6089 5.9208 -0.9532
v  -2.3608 5.4846 0.2207
v  -2.6089 5.9208 0.2736
v  -2.6089 -4.1836 -0.9532
v  -2.6089 -3.8900 -2.1444
v  -2.6089 -3.3198 -3.2308
v  -2.6089 -2.5062 -4.1492
v  -2.6089 -1.4965 -4.8462
v  -2.6089 -0.3493 -5.2812
v  -2.6089 0.8686 -5.4291
v  -1.4751 1.9459 1.7129
v  -1.4751 1.4234 1.9110
v  -2.0788 1.8680 3.7146
v  -2.0788 2.8092 3.3577
v  -1.4751 2.4059 1.3954
v  -2.0788 3.6376 2.7858
v  -1.4751 2.7765 0.9771
v  -2.0788 4.3052 2.0323
v  -1.4751 3.0361 0.4823
v  -2.0788 4.7730 1.1409
v  -1.4751 3.1699 -0.0603
v  -2.0788 5.0139 0.1636
v  -1.4751 -1.2989 0.4823
v  -1.4751 -1.4327 -0.0603
v  -2.0788 -3.2767 0.1636
v  -2.0788 -3.0358 1.1409
v  -1.4751 -1.0392 0.9771
v  -2.0788 -2.5680 2.0323
v  -1.4751 -0.6686 1.3954
v  -2.0788 -1.9004 2.7858
v  -1.4751 -0.2087 1.7129
v  -2.0788 -1.0719 3.3577
v  -1.4751 0.3139 1.9110
v  -2.0788 -0.1307 3.7146
v  -1.4751 0.8686 1.9784
v  -2.0788 0.8686 3.8359
v  -2.3608 1.9814 4.1750
v  -2.3608 3.0296 3.7775
v  -2.3608 3.9521 3.1408
v  -2.3608 4.6955 2.3017
v  -2.3608 5.2164 1.3091
v  -2.3608 -3.7474 0.2207
v  -2.3608 -3.4792 1.3091
v  -2.3608 -2.9583 2.3017
v  -2.3608 -2.2149 3.1408
v  -2.3608 -1.2923 3.7775
v  -2.3608 -0.2442 4.1750
v  -2.3608 0.8686 4.3102
v  -2.6089 2.0866 4.6017
v  -2.6089 3.2338 4.1666
v  -2.6089 4.2435 3.4696
v  -2.6089 5.0571 2.5512
v  -2.6089 5.6273 1.4649
v  -2.6089 -4.1836 0.2736
v  -2.6089 -3.8900 1.4649
v  -2.6089 -3.3198 2.5513
v  -2.6089 -2.5062 3.4696
v  -2.6089 -1.4965 4.1666
v  -2.6089 -0.3493 4.6017
v  -2.6089 0.8686 4.7496
v  -1.4751 0.8686 1.7129
v  -1.4751 0.8686 1.3954
v  -1.4751 0.8686 0.9771
v  -1.4751 0.8686 0.4823
v  -1.4751 0.8686 -0.0603
v  -1.4751 0.8686 -0.6192
v  -1.4751 0.8686 -1.1618
v  -1.4751 0.8686 -1.6566
v  -1.4751 0.8686 -2.0750
v  -1.4751 0.8686 -2.3925
# 595 vertices

vn 0.9927 -0.0290 -0.1175
vn 0.9927 -0.0000 -0.1210
vn 1.0000 -0.0000 0.0000
vn 0.9927 -0.0562 -0.1071
vn 1.0000 0.0000 -0.0000
vn 0.9927 -0.0802 -0.0906
vn 0.9927 -0.0996 -0.0687
vn 0.9927 -0.1131 -0.0429
vn 0.9927 -0.1201 -0.0146
vn 0.9927 0.0290 -0.1175
vn 0.9927 0.0562 -0.1071
vn 0.9927 0.0802 -0.0906
vn 0.9927 0.0996 -0.0687
vn 0.9927 0.1131 -0.0429
vn 0.9927 0.1201 -0.0146
vn 0.9260 0.1755 -0.3343
vn 0.9260 0.0904 -0.3666
vn 0.6218 0.1874 -0.7605
vn 0.6218 0.3640 -0.6935
vn 0.9260 0.2504 -0.2826
vn 0.6218 0.5194 -0.5862
vn 0.9260 0.3108 -0.2145
vn 0.6218 0.6446 -0.4449
vn 0.9260 0.3531 -0.1339
vn 0.6218 0.7323 -0.2777
vn 0.9260 0.3748 -0.0455
vn 0.6218 0.7775 -0.0944
vn 0.9260 -0.3531 -0.1339
vn 0.9260 -0.3748 -0.0455
vn 0.6218 -0.7775 -0.0944
vn 0.6218 -0.7323 -0.2777
vn 0.9260 -0.3108 -0.2145
vn 0.6218 -0.6446 -0.4449
vn 0.9260 -0.2504 -0.2826
vn 0.6218 -0.5194 -0.5862
vn 0.9260 -0.1755 -0.3343
vn 0.6218 -0.3640 -0.6935
vn 0.9260 -0.0904 -0.3666
vn 0.6218 -0.1874 -0.7605
vn 0.9260 0.0000 -0.3776
vn 0.6218 -0.0000 -0.7832
vn 1.0000 -0.0020 0.0038
vn 1.0000 -0.0010 0.0042
vn 0.7260 -0.1646 0.6677
vn 0.7260 -0.3196 0.6089
vn 1.0000 -0.0028 0.0032
vn 0.7260 -0.4560 0.5147
vn 1.0000 -0.0035 0.0024
vn 0.7260 -0.5659 0.3906
vn 1.0000 -0.0040 0.0015
vn 0.7260 -0.6430 0.2438
vn 1.0000 -0.0042 0.0005
vn 0.7260 -0.6826 0.0829
vn 1.0000 0.0040 0.0015
vn 1.0000 0.0042 0.0005
vn 0.7260 0.6826 0.0829
vn 0.7260 0.6430 0.2438
vn 1.0000 0.0035 0.0024
vn 0.7260 0.5659 0.3906
vn 1.0000 0.0028 0.0032
vn 0.7260 0.4560 0.5147
vn 1.0000 0.0020 0.0038
vn 0.7260 0.3196 0.6089
vn 1.0000 0.0010 0.0042
vn 0.7260 0.1646 0.6677
vn 1.0000 0.0000 0.0043
vn 0.7260 0.0000 0.6877
vn 0.8656 -0.1198 0.4862
vn 0.8656 -0.2327 0.4434
vn 0.8656 -0.3321 0.3749
vn 0.8656 -0.4122 0.2845
vn 0.8656 -0.4683 0.1776
vn 0.8656 -0.4971 0.0604
vn 0.8656 0.4971 0.0604
vn 0.8656 0.4683 0.1776
vn 0.8656 0.4122 0.2845
vn 0.8656 0.3321 0.3749
vn 0.8656 0.2327 0.4434
vn 0.8656 0.1198 0.4862
vn 0.8656 -0.0000 0.5008
vn 0.9276 0.0894 -0.3628
vn 0.9276 0.1736 -0.3308
vn 0.9276 0.2477 -0.2796
vn 0.9276 0.3075 -0.2122
vn 0.9276 0.3493 -0.1325
vn 0.9276 0.3709 -0.0450
vn 0.9276 0.3709 0.0450
vn 0.8656 -0.4971 -0.0604
vn 0.9276 -0.3709 -0.0450
vn 0.9276 -0.3493 -0.1325
vn 0.9276 -0.3075 -0.2122
vn 0.9276 -0.2477 -0.2796
vn 0.9276 -0.1736 -0.3308
vn 0.9276 -0.0894 -0.3627
vn 0.9276 0.0000 -0.3736
vn 0.7267 0.3193 -0.6083
vn 0.6300 0.3609 -0.6876
vn 0.6300 0.1858 -0.7540
vn 0.7267 0.1644 -0.6670
vn 0.7267 0.4556 -0.5142
vn 0.6300 0.5150 -0.5813
vn 0.7266 0.5654 -0.3903
vn 0.6300 0.6391 -0.4412
vn 0.7266 0.6424 -0.2436
vn 0.6300 0.7261 -0.2754
vn 0.7266 0.6820 -0.0828
vn 0.6300 0.7709 -0.0936
vn 0.7266 -0.6424 -0.2436
vn 0.6300 -0.7261 -0.2754
vn 0.6300 -0.7709 -0.0936
vn 0.7266 -0.6820 -0.0828
vn 0.7266 -0.5654 -0.3903
vn 0.6300 -0.6391 -0.4412
vn 0.7266 -0.4556 -0.5142
vn 0.6300 -0.5150 -0.5813
vn 0.7267 -0.3193 -0.6083
vn 0.6300 -0.3609 -0.6876
vn 0.7267 -0.1644 -0.6670
vn 0.6300 -0.1858 -0.7540
vn 0.7267 -0.0000 -0.6870
vn 0.6300 -0.0000 -0.7766
vn 1.0000 -0.0000 -0.0000
vn 0.9927 -0.0000 0.1210
vn 0.9927 -0.0290 0.1175
vn 0.9927 -0.0562 0.1071
vn 0.9927 -0.0802 0.0906
vn 0.9927 -0.0996 0.0687
vn 0.9927 -0.1131 0.0429
vn 0.9927 -0.1201 0.0146
vn 0.9927 0.0562 0.1071
vn 0.9927 0.0290 0.1175
vn 0.9927 0.0802 0.0906
vn 0.9927 0.0996 0.0687
vn 0.9927 0.1131 0.0429
vn 0.9927 0.1201 0.0146
vn 0.6218 0.1874 0.7605
vn 0.9260 0.0904 0.3666
vn 0.9260 0.1755 0.3343
vn 0.6218 0.3640 0.6935
vn 0.9260 0.2504 0.2826
vn 0.6218 0.5194 0.5862
vn 0.9260 0.3108 0.2145
vn 0.6218 0.6446 0.4449
vn 0.9260 0.3531 0.1339
vn 0.6218 0.7323 0.2777
vn 0.9260 0.3748 0.0455
vn 0.6218 0.7775 0.0944
vn 0.6218 -0.7775 0.0944
vn 0.9260 -0.3748 0.0455
vn 0.9260 -0.3531 0.1339
vn 0.6218 -0.7323 0.2777
vn 0.9260 -0.3108 0.2145
vn 0.6218 -0.6446 0.4449
vn 0.9260 -0.2504 0.2826
vn 0.6218 -0.5194 0.5862
vn 0.9260 -0.1755 0.3343
vn 0.6218 -0.3640 0.6935
vn 0.9260 -0.0904 0.3666
vn 0.6218 -0.1874 0.7605
vn 0.9260 -0.0000 0.3776
vn 0.6218 0.0000 0.7832
vn 0.7260 -0.1646 -0.6677
vn 1.0000 -0.0010 -0.0042
vn 1.0000 -0.0020 -0.0038
vn 0.7260 -0.3196 -0.6089
vn 1.0000 -0.0028 -0.0032
vn 0.7260 -0.4560 -0.5147
vn 1.0000 -0.0035 -0.0024
vn 0.7260 -0.5659 -0.3906
vn 1.0000 -0.0040 -0.0015
vn 0.7260 -0.6430 -0.2438
vn 1.0000 -0.0042 -0.0005
vn 0.7260 -0.6826 -0.0829
vn 0.7260 0.6826 -0.0829
vn 1.0000 0.0042 -0.0005
vn 1.0000 0.0040 -0.0015
vn 0.7260 0.6430 -0.2438
vn 1.0000 0.0035 -0.0024
vn 0.7260 0.5659 -0.3906
vn 1.0000 0.0028 -0.0032
vn 0.7260 0.4560 -0.5147
vn 1.0000 0.0020 -0.0038
vn 0.7260 0.3196 -0.6089
vn 1.0000 0.0010 -0.0042
vn 0.7260 0.1646 -0.6677
vn 1.0000 0.0000 -0.0043
vn 0.7260 -0.0000 -0.6877
vn 0.8656 -0.1198 -0.4862
vn 0.8656 -0.2327 -0.4434
vn 0.8656 -0.3321 -0.3749
vn 0.8656 -0.4122 -0.2845
vn 0.8656 -0.4683 -0.1776
vn 0.8656 0.4971 -0.0604
vn 0.8656 0.4683 -0.1776
vn 0.8656 0.4122 -0.2845
vn 0.8656 0.3321 -0.3749
vn 0.8656 0.2327 -0.4434
vn 0.8656 0.1198 -0.4862
vn 0.8656 -0.0000 -0.5008
vn 0.9276 0.0894 0.3628
vn 0.9276 0.1736 0.3308
vn 0.9276 0.2477 0.2797
vn 0.9276 0.3075 0.2122
vn 0.9276 0.3493 0.1325
vn 0.9276 -0.3709 0.0450
vn 0.9276 -0.3493 0.1325
vn 0.9276 -0.3075 0.2122
vn 0.9276 -0.2477 0.2796
vn 0.9276 -0.1736 0.3308
vn 0.9276 -0.0894 0.3627
vn 0.9276 0.0000 0.3736
vn 0.6300 0.1858 0.7540
vn 0.6300 0.3609 0.6876
vn 0.7267 0.3193 0.6083
vn 0.7266 0.1644 0.6671
vn 0.6300 0.5150 0.5813
vn 0.7267 0.4556 0.5142
vn 0.6300 0.6391 0.4412
vn 0.7266 0.5654 0.3903
vn 0.6300 0.7261 0.2754
vn 0.7266 0.6424 0.2436
vn 0.6300 0.7709 0.0936
vn 0.7266 0.6820 0.0828
vn 0.6300 -0.7709 0.0936
vn 0.7267 -0.6820 0.0828
vn 0.6300 -0.7261 0.2754
vn 0.7267 -0.6424 0.2436
vn 0.6300 -0.6391 0.4412
vn 0.7266 -0.5654 0.3903
vn 0.6300 -0.5150 0.5813
vn 0.7266 -0.4556 0.5142
vn 0.6300 -0.3609 0.6876
vn 0.7267 -0.3193 0.6083
vn 0.6300 -0.1858 0.7540
vn 0.7267 -0.1644 0.6670
vn 0.6300 0.0000 0.7766
vn 0.7267 0.0000 0.6870
vn 0.3863 0.2207 -0.8956
vn 0.3863 0.4286 -0.8167
vn 0.3863 0.6116 -0.6904
vn 0.3863 0.7591 -0.5240
vn 0.3863 0.8624 -0.3271
vn 0.3863 0.9157 -0.1112
vn 0.3863 0.9157 0.1112
vn 0.3863 0.8624 0.3271
vn 0.3863 0.7591 0.5240
vn 0.3863 0.6117 0.6904
vn 0.3863 0.4287 0.8167
vn 0.3863 0.2207 0.8956
vn 0.3863 0.0000 0.9224
vn 0.3863 -0.2207 0.8956
vn 0.3863 -0.4287 0.8167
vn 0.3863 -0.6116 0.6904
vn 0.3863 -0.7591 0.5240
vn 0.3863 -0.8624 0.3271
vn 0.3863 -0.9157 0.1112
vn 0.3863 -0.9157 -0.1112
vn 0.3863 -0.8624 -0.3271
vn 0.3863 -0.7591 -0.5240
vn 0.3863 -0.6116 -0.6904
vn 0.3863 -0.4286 -0.8167
vn 0.3863 -0.2207 -0.8956
vn 0.3863 0.0000 -0.9224
vn 0.9514 0.0737 -0.2990
vn 0.9514 0.0000 -0.3079
vn 0.5227 0.0000 -0.8525
vn 0.5227 0.2040 -0.8277
vn 0.9514 0.1431 -0.2727
vn 0.5227 0.3962 -0.7548
vn 0.9514 0.2042 -0.2305
vn 0.5227 0.5653 -0.6381
vn 0.9514 0.2534 -0.1749
vn 0.5227 0.7016 -0.4843
vn 0.9514 0.2879 -0.1092
vn 0.5227 0.7971 -0.3023
vn 0.9514 0.3057 -0.0371
vn 0.5227 0.8463 -0.1028
vn 0.9514 -0.3057 -0.0371
vn 0.9514 -0.3057 0.0371
vn 0.5227 -0.8463 0.1028
vn 0.5227 -0.8463 -0.1028
vn 0.9514 -0.2879 -0.1092
vn 0.5227 -0.7971 -0.3023
vn 0.9514 -0.2534 -0.1749
vn 0.5227 -0.7016 -0.4843
vn 0.9514 -0.2042 -0.2305
vn 0.5227 -0.5653 -0.6381
vn 0.9514 -0.1431 -0.2727
vn 0.5227 -0.3962 -0.7548
vn 0.9514 -0.0737 -0.2990
vn 0.5227 -0.2040 -0.8277
vn 0.0000 0.0000 -1.0000
vn 0.0000 0.2393 -0.9709
vn -0.0000 0.4647 -0.8855
vn -0.0000 0.6631 -0.7485
vn 0.0000 0.8230 -0.5681
vn -0.0000 0.9350 -0.3546
vn 0.0000 0.9927 -0.1205
vn 0.0000 -0.9927 -0.1205
vn 0.0000 -0.9927 0.1205
vn 0.0000 -0.9350 -0.3546
vn 0.0000 -0.8230 -0.5681
vn 0.0000 -0.6631 -0.7485
vn 0.0000 -0.4647 -0.8855
vn 0.0000 -0.2393 -0.9709
vn 0.9953 0.0450 -0.0857
vn 0.9953 0.0232 -0.0939
vn 0.9953 0.0642 -0.0724
vn 0.9953 0.0796 -0.0550
vn 0.9953 0.0905 -0.0343
vn 0.9953 0.0960 -0.0117
vn 0.9953 -0.0905 -0.0343
vn 0.9953 -0.0960 -0.0117
vn 0.9953 -0.0796 -0.0550
vn 0.9953 -0.0642 -0.0724
vn 0.9953 -0.0450 -0.0857
vn 0.9953 -0.0232 -0.0939
vn 0.9953 -0.0000 -0.0968
vn 0.5227 -0.0000 0.8525
vn 0.9514 0.0000 0.3079
vn 0.9514 0.0737 0.2990
vn 0.5227 0.2040 0.8277
vn 0.9514 0.1431 0.2727
vn 0.5227 0.3962 0.7548
vn 0.9514 0.2042 0.2305
vn 0.5227 0.5653 0.6381
vn 0.9514 0.2534 0.1749
vn 0.5228 0.7016 0.4843
vn 0.9514 0.2879 0.1092
vn 0.5228 0.7971 0.3023
vn 0.9514 0.3057 0.0371
vn 0.5227 0.8463 0.1028
vn 0.9514 -0.2879 0.1092
vn 0.5227 -0.7971 0.3023
vn 0.9514 -0.2534 0.1749
vn 0.5227 -0.7016 0.4843
vn 0.9514 -0.2042 0.2305
vn 0.5227 -0.5653 0.6381
vn 0.9514 -0.1431 0.2727
vn 0.5227 -0.3962 0.7548
vn 0.9514 -0.0737 0.2990
vn 0.5227 -0.2040 0.8277
vn 0.0000 -0.0000 1.0000
vn 0.0000 0.2393 0.9709
vn -0.0000 0.4647 0.8855
vn -0.0000 0.6631 0.7485
vn -0.0000 0.8230 0.5681
vn -0.0000 0.9350 0.3546
vn 0.0000 0.9927 0.1205
vn -0.0000 -0.9350 0.3546
vn 0.0000 -0.8230 0.5681
vn 0.0000 -0.6631 0.7485
vn -0.0000 -0.4647 0.8855
vn 0.0000 -0.2393 0.9709
vn 0.9953 0.0450 0.0857
vn 0.9953 0.0232 0.0939
vn 0.9953 0.0642 0.0724
vn 0.9953 0.0796 0.0550
vn 0.9953 0.0905 0.0343
vn 0.9953 0.0960 0.0117
vn 0.9953 -0.0905 0.0343
vn 0.9953 -0.0960 0.0117
vn 0.9953 -0.0796 0.0550
vn 0.9953 -0.0642 0.0724
vn 0.9953 -0.0450 0.0857
vn 0.9953 -0.0232 0.0939
vn 0.9953 0.0000 0.0968
vn -0.5227 0.0000 -0.8525
vn -0.9514 0.0000 -0.3079
vn -0.9514 0.0737 -0.2990
vn -0.5227 0.2040 -0.8277
vn -0.9514 0.1431 -0.2727
vn -0.5227 0.3962 -0.7548
vn -0.9514 0.2042 -0.2305
vn -0.5227 0.5653 -0.6381
vn -0.9514 0.2534 -0.1749
vn -0.5227 0.7016 -0.4843
vn -0.9514 0.2879 -0.1092
vn -0.5227 0.7971 -0.3023
vn -0.9514 0.3057 -0.0371
vn -0.5227 0.8463 -0.1028
vn -0.5227 -0.8463 0.1028
vn -0.9514 -0.3057 0.0371
vn -0.9514 -0.3057 -0.0371
vn -0.5227 -0.8463 -0.1028
vn -0.9514 -0.2879 -0.1092
vn -0.5227 -0.7971 -0.3023
vn -0.9514 -0.2534 -0.1749
vn -0.5227 -0.7016 -0.4843
vn -0.9514 -0.2042 -0.2305
vn -0.5227 -0.5653 -0.6381
vn -0.9514 -0.1431 -0.2727
vn -0.5227 -0.3962 -0.7548
vn -0.9514 -0.0737 -0.2990
vn -0.5227 -0.2040 -0.8277
vn -0.8523 0.1252 -0.5078
vn -0.8523 0.2431 -0.4631
vn -0.9953 0.0450 -0.0857
vn -0.9953 0.0232 -0.0939
vn -0.8523 0.3468 -0.3915
vn -0.9953 0.0642 -0.0724
vn -0.8523 0.4304 -0.2971
vn -0.9953 0.0796 -0.0550
vn -0.8523 0.4891 -0.1855
vn -0.9953 0.0905 -0.0343
vn -0.8523 0.5192 -0.0630
vn -0.9953 0.0960 -0.0117
vn -0.8523 -0.5192 -0.0630
vn -0.8523 -0.4891 -0.1855
vn -0.9953 -0.0905 -0.0343
vn -0.9953 -0.0960 -0.0117
vn -0.8523 -0.4304 -0.2971
vn -0.9953 -0.0796 -0.0550
vn -0.8523 -0.3468 -0.3915
vn -0.9953 -0.0642 -0.0724
vn -0.8523 -0.2431 -0.4631
vn -0.9953 -0.0450 -0.0857
vn -0.8523 -0.1252 -0.5078
vn -0.9953 -0.0232 -0.0939
vn -0.8523 0.0000 -0.5230
vn -0.9953 -0.0000 -0.0968
vn -0.9514 0.0737 0.2990
vn -0.9514 0.0000 0.3079
vn -0.5227 -0.0000 0.8525
vn -0.5227 0.2040 0.8277
vn -0.9514 0.1431 0.2727
vn -0.5227 0.3962 0.7548
vn -0.9514 0.2042 0.2305
vn -0.5227 0.5653 0.6381
vn -0.9514 0.2534 0.1749
vn -0.5227 0.7016 0.4843
vn -0.9514 0.2879 0.1092
vn -0.5227 0.7971 0.3023
vn -0.9514 0.3057 0.0371
vn -0.5227 0.8463 0.1028
vn -0.9514 -0.2879 0.1092
vn -0.5227 -0.7971 0.3023
vn -0.9514 -0.2534 0.1749
vn -0.5227 -0.7016 0.4843
vn -0.9514 -0.2042 0.2305
vn -0.5227 -0.5653 0.6381
vn -0.9514 -0.1431 0.2727
vn -0.5227 -0.3962 0.7548
vn -0.9514 -0.0737 0.2990
vn -0.5227 -0.2040 0.8277
vn -0.9953 0.0450 0.0857
vn -0.8523 0.2431 0.4631
vn -0.8523 0.1252 0.5078
vn -0.9953 0.0232 0.0939
vn -0.9953 0.0642 0.0724
vn -0.8523 0.3468 0.3915
vn -0.9953 0.0796 0.0550
vn -0.8523 0.4304 0.2971
vn -0.9953 0.0905 0.0343
vn -0.8523 0.4891 0.1855
vn -0.9953 0.0960 0.0117
vn -0.8523 0.5192 0.0630
vn -0.9953 -0.0905 0.0343
vn -0.8523 -0.4891 0.1855
vn -0.8523 -0.5192 0.0630
vn -0.9953 -0.0960 0.0117
vn -0.9953 -0.0796 0.0550
vn -0.8523 -0.4304 0.2971
vn -0.9953 -0.0642 0.0724
vn -0.8523 -0.3468 0.3915
vn -0.9953 -0.0450 0.0857
vn -0.8523 -0.2431 0.4631
vn -0.9953 -0.0232 0.0939
vn -0.8523 -0.1252 0.5078
vn -0.9953 0.0000 0.0968
vn -0.8523 0.0000 0.5230
vn -0.9077 -0.1004 0.4075
vn -0.9858 -0.0402 0.1633
vn -0.9858 -0.0782 0.1489
vn -0.9077 -0.1950 0.3716
vn -0.9858 -0.1115 0.1259
vn -0.9077 -0.2783 0.3141
vn -0.9858 -0.1384 0.0955
vn -0.9077 -0.3454 0.2384
vn -0.9858 -0.1572 0.0596
vn -0.9077 -0.3924 0.1488
vn -0.9858 -0.1669 0.0203
vn -0.9077 -0.4166 0.0506
vn -0.9077 0.4166 0.0506
vn -0.9858 0.1669 0.0203
vn -0.9858 0.1572 0.0596
vn -0.9077 0.3924 0.1488
vn -0.9858 0.1384 0.0955
vn -0.9077 0.3454 0.2384
vn -0.9858 0.1115 0.1259
vn -0.9077 0.2783 0.3141
vn -0.9858 0.0782 0.1489
vn -0.9077 0.1950 0.3716
vn -0.9858 0.0402 0.1633
vn -0.9077 0.1004 0.4075
vn -0.9858 0.0000 0.1682
vn -0.9077 -0.0000 0.4197
vn -0.8656 -0.1198 0.4862
vn -0.8656 -0.2327 0.4434
vn -0.8656 -0.3321 0.3749
vn -0.8656 -0.4122 0.2845
vn -0.8656 -0.4683 0.1776
vn -0.8656 -0.4971 0.0604
vn -0.8656 0.4972 0.0604
vn -0.8656 0.4683 0.1776
vn -0.8656 0.4122 0.2845
vn -0.8656 0.3321 0.3749
vn -0.8656 0.2327 0.4434
vn -0.8656 0.1198 0.4862
vn -0.8656 -0.0000 0.5008
vn -0.9276 0.0894 -0.3628
vn -0.9276 0.1736 -0.3308
vn -0.9276 0.2477 -0.2796
vn -0.9276 0.3075 -0.2122
vn -0.9276 0.3493 -0.1325
vn -0.9276 0.3709 -0.0450
vn -0.8656 -0.4972 -0.0604
vn -0.9276 0.3709 0.0450
vn -0.9276 -0.3709 -0.0450
vn -0.9276 -0.3493 -0.1325
vn -0.9276 -0.3075 -0.2122
vn -0.9276 -0.2477 -0.2796
vn -0.9276 -0.1736 -0.3308
vn -0.9276 -0.0894 -0.3627
vn -0.9276 0.0000 -0.3736
vn -0.9858 -0.0782 -0.1489
vn -0.9858 -0.0402 -0.1633
vn -0.9077 -0.1004 -0.4075
vn -0.9077 -0.1950 -0.3716
vn -0.9858 -0.1115 -0.1259
vn -0.9077 -0.2783 -0.3141
vn -0.9858 -0.1384 -0.0955
vn -0.9077 -0.3454 -0.2384
vn -0.9858 -0.1572 -0.0596
vn -0.9077 -0.3924 -0.1488
vn -0.9858 -0.1669 -0.0203
vn -0.9077 -0.4166 -0.0506
vn -0.9858 0.1572 -0.0596
vn -0.9858 0.1669 -0.0203
vn -0.9077 0.4166 -0.0506
vn -0.9077 0.3924 -0.1488
vn -0.9858 0.1384 -0.0955
vn -0.9077 0.3454 -0.2384
vn -0.9858 0.1115 -0.1259
vn -0.9077 0.2783 -0.3141
vn -0.9858 0.0782 -0.1489
vn -0.9077 0.1950 -0.3716
vn -0.9858 0.0402 -0.1633
vn -0.9077 0.1004 -0.4075
vn -0.9858 0.0000 -0.1682
vn -0.9077 -0.0000 -0.4197
vn -0.8656 -0.1198 -0.4862
vn -0.8656 -0.2327 -0.4434
vn -0.8656 -0.3321 -0.3749
vn -0.8656 -0.4122 -0.2845
vn -0.8656 -0.4683 -0.1776
vn -0.8656 0.4972 -0.0604
vn -0.8656 0.4683 -0.1776
vn -0.8656 0.4122 -0.2845
vn -0.8656 0.3321 -0.3749
vn -0.8656 0.2327 -0.4434
vn -0.8656 0.1198 -0.4862
vn -0.8656 -0.0000 -0.5008
vn -0.9276 0.0894 0.3628
vn -0.9276 0.1736 0.3308
vn -0.9276 0.2477 0.2797
vn -0.9276 0.3075 0.2122
vn -0.9276 0.3493 0.1325
vn -0.9276 -0.3709 0.0450
vn -0.9276 -0.3493 0.1325
vn -0.9276 -0.3075 0.2122
vn -0.9276 -0.2477 0.2796
vn -0.9276 -0.1736 0.3308
vn -0.9276 -0.0894 0.3627
vn -0.9276 0.0000 0.3736
vn -1.0000 0.0000 -0.0000
vn -1.0000 0.0000 0.0000
# 577 vertex normals

vt 1.9666 -0.9561 0.0000
vt 1.9672 -0.9583 0.0000
vt 1.9671 -0.9583 0.0000
vt 1.9657 -0.9542 0.0000
vt 1.9660 -0.9583 0.0000
vt 1.9646 -0.9524 0.0000
vt 1.9645 -0.9583 0.0000
vt 1.9632 -0.9509 0.0000
vt 1.9624 -0.9583 0.0000
vt 1.9617 -0.9499 0.0000
vt 1.9607 -0.9583 0.0000
vt 1.9600 -0.9493 0.0000
vt 1.9666 -0.9604 0.0000
vt 1.9657 -0.9624 0.0000
vt 1.9646 -0.9641 0.0000
vt 1.9632 -0.9656 0.0000
vt 1.9617 -0.9666 0.0000
vt 1.9600 -0.9672 0.0000
vt 1.9763 -0.9676 0.0000
vt 1.9779 -0.9631 0.0000
vt 1.9844 -0.9646 0.0000
vt 1.9822 -0.9706 0.0000
vt 1.9736 -0.9716 0.0000
vt 1.9787 -0.9759 0.0000
vt 1.9701 -0.9749 0.0000
vt 1.9741 -0.9803 0.0000
vt 1.9660 -0.9773 0.0000
vt 1.9685 -0.9835 0.0000
vt 1.9615 -0.9785 0.0000
vt 1.9623 -0.9851 0.0000
vt 1.9661 -0.9392 0.0000
vt 1.9615 -0.9380 0.0000
vt 1.9623 -0.9314 0.0000
vt 1.9685 -0.9331 0.0000
vt 1.9701 -0.9416 0.0000
vt 1.9741 -0.9362 0.0000
vt 1.9736 -0.9449 0.0000
vt 1.9787 -0.9406 0.0000
vt 1.9763 -0.9489 0.0000
vt 1.9822 -0.9459 0.0000
vt 1.9779 -0.9535 0.0000
vt 1.9844 -0.9519 0.0000
vt 1.9785 -0.9583 0.0000
vt 1.9852 -0.9583 0.0000
vt 1.8345 -0.8655 0.0000
vt 1.8301 -0.8607 0.0000
vt 1.8347 -0.8559 0.0000
vt 1.8398 -0.8614 0.0000
vt 1.8381 -0.8710 0.0000
vt 1.8439 -0.8677 0.0000
vt 1.8409 -0.8769 0.0000
vt 1.8472 -0.8745 0.0000
vt 1.8429 -0.8832 0.0000
vt 1.8494 -0.8817 0.0000
vt 1.8439 -0.8898 0.0000
vt 1.8506 -0.8891 0.0000
vt 1.6952 -0.8900 0.0000
vt 1.6952 -0.8966 0.0000
vt 1.6885 -0.8970 0.0000
vt 1.6886 -0.8895 0.0000
vt 1.6962 -0.8836 0.0000
vt 1.6897 -0.8821 0.0000
vt 1.6982 -0.8774 0.0000
vt 1.6919 -0.8749 0.0000
vt 1.7010 -0.8715 0.0000
vt 1.6952 -0.8681 0.0000
vt 1.7047 -0.8661 0.0000
vt 1.6995 -0.8620 0.0000
vt 1.7092 -0.8612 0.0000
vt 1.7045 -0.8565 0.0000
vt 1.8250 -0.8564 0.0000
vt 1.8290 -0.8511 0.0000
vt 1.8378 -0.8526 0.0000
vt 1.8433 -0.8586 0.0000
vt 1.8478 -0.8654 0.0000
vt 1.8513 -0.8728 0.0000
vt 1.8538 -0.8806 0.0000
vt 1.8551 -0.8887 0.0000
vt 1.6841 -0.8974 0.0000
vt 1.6841 -0.8892 0.0000
vt 1.6853 -0.8811 0.0000
vt 1.6878 -0.8733 0.0000
vt 1.6913 -0.8659 0.0000
vt 1.6960 -0.8591 0.0000
vt 1.7016 -0.8532 0.0000
vt 1.8314 -0.8474 0.0000
vt 1.8406 -0.8496 0.0000
vt 1.8465 -0.8561 0.0000
vt 1.8514 -0.8634 0.0000
vt 1.8551 -0.8713 0.0000
vt 1.8577 -0.8797 0.0000
vt 1.8591 -0.8883 0.0000
vt 1.8593 -0.8970 0.0000
vt 1.8552 -0.8969 0.0000
vt 1.6800 -0.8977 0.0000
vt 1.6800 -0.8889 0.0000
vt 1.6814 -0.8802 0.0000
vt 1.6840 -0.8717 0.0000
vt 1.6878 -0.8638 0.0000
vt 1.6928 -0.8565 0.0000
vt 1.6990 -0.8501 0.0000
vt 1.8336 -0.8440 0.0000
vt 1.9930 -0.9667 0.0000
vt 1.9901 -0.9746 0.0000
vt 1.9854 -0.9817 0.0000
vt 1.9792 -0.9875 0.0000
vt 1.9717 -0.9916 0.0000
vt 1.9634 -0.9938 0.0000
vt 1.9634 -0.9227 0.0000
vt 1.9717 -0.9249 0.0000
vt 1.9792 -0.9291 0.0000
vt 1.9854 -0.9349 0.0000
vt 1.9901 -0.9419 0.0000
vt 1.9930 -0.9499 0.0000
vt 1.9940 -0.9583 0.0000
vt 1.9754 -0.9672 0.0000
vt 1.9750 -0.9669 0.0000
vt 1.9766 -0.9627 0.0000
vt 1.9771 -0.9628 0.0000
vt 1.9729 -0.9710 0.0000
vt 1.9725 -0.9707 0.0000
vt 1.9696 -0.9742 0.0000
vt 1.9693 -0.9739 0.0000
vt 1.9657 -0.9765 0.0000
vt 1.9655 -0.9761 0.0000
vt 1.9614 -0.9777 0.0000
vt 1.9613 -0.9773 0.0000
vt 1.9657 -0.9400 0.0000
vt 1.9655 -0.9404 0.0000
vt 1.9613 -0.9392 0.0000
vt 1.9614 -0.9388 0.0000
vt 1.9696 -0.9423 0.0000
vt 1.9693 -0.9427 0.0000
vt 1.9729 -0.9455 0.0000
vt 1.9725 -0.9458 0.0000
vt 1.9754 -0.9494 0.0000
vt 1.9750 -0.9496 0.0000
vt 1.9771 -0.9537 0.0000
vt 1.9766 -0.9538 0.0000
vt 1.9776 -0.9583 0.0000
vt 1.9772 -0.9583 0.0000
vt 1.9512 -0.9583 0.0000
vt 1.9510 -0.9583 0.0000
vt 1.9516 -0.9561 0.0000
vt 1.9526 -0.9542 0.0000
vt 1.9522 -0.9583 0.0000
vt 1.9537 -0.9524 0.0000
vt 1.9537 -0.9583 0.0000
vt 1.9551 -0.9509 0.0000
vt 1.9559 -0.9583 0.0000
vt 1.9566 -0.9499 0.0000
vt 1.9576 -0.9583 0.0000
vt 1.9583 -0.9493 0.0000
vt 1.9526 -0.9624 0.0000
vt 1.9516 -0.9604 0.0000
vt 1.9537 -0.9641 0.0000
vt 1.9551 -0.9656 0.0000
vt 1.9566 -0.9666 0.0000
vt 1.9583 -0.9672 0.0000
vt 1.9338 -0.9646 0.0000
vt 1.9403 -0.9631 0.0000
vt 1.9420 -0.9676 0.0000
vt 1.9360 -0.9706 0.0000
vt 1.9447 -0.9716 0.0000
vt 1.9396 -0.9759 0.0000
vt 1.9481 -0.9749 0.0000
vt 1.9442 -0.9803 0.0000
vt 1.9522 -0.9773 0.0000
vt 1.9498 -0.9835 0.0000
vt 1.9568 -0.9785 0.0000
vt 1.9559 -0.9851 0.0000
vt 1.9559 -0.9314 0.0000
vt 1.9568 -0.9380 0.0000
vt 1.9522 -0.9392 0.0000
vt 1.9498 -0.9331 0.0000
vt 1.9481 -0.9416 0.0000
vt 1.9442 -0.9362 0.0000
vt 1.9447 -0.9449 0.0000
vt 1.9396 -0.9406 0.0000
vt 1.9420 -0.9489 0.0000
vt 1.9360 -0.9459 0.0000
vt 1.9403 -0.9535 0.0000
vt 1.9338 -0.9519 0.0000
vt 1.9398 -0.9583 0.0000
vt 1.9331 -0.9583 0.0000
vt 1.8362 -0.9303 0.0000
vt 1.8314 -0.9256 0.0000
vt 1.8357 -0.9206 0.0000
vt 1.8411 -0.9247 0.0000
vt 1.8392 -0.9152 0.0000
vt 1.8451 -0.9183 0.0000
vt 1.8418 -0.9092 0.0000
vt 1.8482 -0.9114 0.0000
vt 1.8435 -0.9029 0.0000
vt 1.8501 -0.9042 0.0000
vt 1.8441 -0.8964 0.0000
vt 1.8508 -0.8967 0.0000
vt 1.6896 -0.9045 0.0000
vt 1.6962 -0.9030 0.0000
vt 1.6981 -0.9093 0.0000
vt 1.6918 -0.9117 0.0000
vt 1.7009 -0.9152 0.0000
vt 1.6951 -0.9185 0.0000
vt 1.7045 -0.9206 0.0000
vt 1.6993 -0.9247 0.0000
vt 1.7089 -0.9254 0.0000
vt 1.7043 -0.9302 0.0000
vt 1.7140 -0.9294 0.0000
vt 1.7102 -0.9349 0.0000
vt 1.7197 -0.9329 0.0000
vt 1.7166 -0.9387 0.0000
vt 1.8305 -0.9351 0.0000
vt 1.8264 -0.9299 0.0000
vt 1.8393 -0.9335 0.0000
vt 1.8447 -0.9274 0.0000
vt 1.8491 -0.9204 0.0000
vt 1.8524 -0.9129 0.0000
vt 1.8546 -0.9050 0.0000
vt 1.6853 -0.9055 0.0000
vt 1.6876 -0.9133 0.0000
vt 1.6912 -0.9207 0.0000
vt 1.6957 -0.9275 0.0000
vt 1.7013 -0.9335 0.0000
vt 1.7077 -0.9387 0.0000
vt 1.7148 -0.9427 0.0000
vt 1.8330 -0.9388 0.0000
vt 1.8421 -0.9365 0.0000
vt 1.8480 -0.9298 0.0000
vt 1.8527 -0.9223 0.0000
vt 1.8562 -0.9143 0.0000
vt 1.8586 -0.9057 0.0000
vt 1.6813 -0.9064 0.0000
vt 1.6838 -0.9148 0.0000
vt 1.6876 -0.9227 0.0000
vt 1.6925 -0.9300 0.0000
vt 1.6985 -0.9365 0.0000
vt 1.7054 -0.9421 0.0000
vt 1.7132 -0.9465 0.0000
vt 1.8353 -0.9421 0.0000
vt 1.9253 -0.9667 0.0000
vt 1.9282 -0.9746 0.0000
vt 1.9328 -0.9817 0.0000
vt 1.9391 -0.9875 0.0000
vt 1.9465 -0.9916 0.0000
vt 1.9548 -0.9938 0.0000
vt 1.9548 -0.9227 0.0000
vt 1.9465 -0.9249 0.0000
vt 1.9391 -0.9291 0.0000
vt 1.9328 -0.9349 0.0000
vt 1.9282 -0.9419 0.0000
vt 1.9253 -0.9499 0.0000
vt 1.9243 -0.9583 0.0000
vt 1.9417 -0.9627 0.0000
vt 1.9433 -0.9669 0.0000
vt 1.9428 -0.9672 0.0000
vt 1.9412 -0.9628 0.0000
vt 1.9458 -0.9707 0.0000
vt 1.9454 -0.9710 0.0000
vt 1.9490 -0.9739 0.0000
vt 1.9487 -0.9742 0.0000
vt 1.9528 -0.9761 0.0000
vt 1.9525 -0.9765 0.0000
vt 1.9570 -0.9773 0.0000
vt 1.9569 -0.9777 0.0000
vt 1.9570 -0.9392 0.0000
vt 1.9569 -0.9388 0.0000
vt 1.9528 -0.9404 0.0000
vt 1.9525 -0.9400 0.0000
vt 1.9490 -0.9427 0.0000
vt 1.9487 -0.9423 0.0000
vt 1.9458 -0.9458 0.0000
vt 1.9454 -0.9455 0.0000
vt 1.9433 -0.9496 0.0000
vt 1.9428 -0.9494 0.0000
vt 1.9417 -0.9538 0.0000
vt 1.9412 -0.9537 0.0000
vt 1.9411 -0.9583 0.0000
vt 1.9406 -0.9583 0.0000
vt 1.5128 -0.2722 0.0000
vt 1.5245 -0.2719 0.0000
vt 1.5242 -0.2743 0.0000
vt 1.5126 -0.2745 0.0000
vt 1.5348 -0.2717 0.0000
vt 1.5344 -0.2741 0.0000
vt 1.4379 -0.5267 0.0000
vt 1.4476 -0.5266 0.0000
vt 1.4480 -0.5290 0.0000
vt 1.4385 -0.5291 0.0000
vt 1.4590 -0.5264 0.0000
vt 1.4593 -0.5289 0.0000
vt 1.4715 -0.5263 0.0000
vt 1.4716 -0.5287 0.0000
vt 1.4844 -0.5261 0.0000
vt 1.4844 -0.5286 0.0000
vt 1.4969 -0.5260 0.0000
vt 1.4967 -0.5284 0.0000
vt 1.5084 -0.5258 0.0000
vt 1.5080 -0.5283 0.0000
vt 1.5180 -0.5257 0.0000
vt 1.5175 -0.5282 0.0000
vt 1.2789 -0.2813 0.0000
vt 1.2893 -0.2813 0.0000
vt 1.2896 -0.2836 0.0000
vt 1.2794 -0.2836 0.0000
vt 1.3010 -0.2813 0.0000
vt 1.3012 -0.2836 0.0000
vt 1.3135 -0.2813 0.0000
vt 1.3135 -0.2836 0.0000
vt 1.3259 -0.2813 0.0000
vt 1.3258 -0.2836 0.0000
vt 1.3377 -0.2813 0.0000
vt 1.3374 -0.2836 0.0000
vt 1.3480 -0.2813 0.0000
vt 1.3476 -0.2836 0.0000
vt 1.5290 -0.3658 0.0000
vt 1.5387 -0.3656 0.0000
vt 1.5391 -0.3680 0.0000
vt 1.5296 -0.3682 0.0000
vt 1.5501 -0.3655 0.0000
vt 1.5504 -0.3679 0.0000
vt 1.5626 -0.3653 0.0000
vt 1.5627 -0.3677 0.0000
vt 1.5755 -0.3651 0.0000
vt 1.5755 -0.3676 0.0000
vt 1.5880 -0.3650 0.0000
vt 1.5878 -0.3674 0.0000
vt 1.5995 -0.3648 0.0000
vt 1.5991 -0.3672 0.0000
vt 1.6091 -0.3647 0.0000
vt 1.6086 -0.3671 0.0000
vt 1.4657 -0.2732 0.0000
vt 1.4761 -0.2730 0.0000
vt 1.4765 -0.2753 0.0000
vt 1.4663 -0.2755 0.0000
vt 1.4878 -0.2727 0.0000
vt 1.4880 -0.2751 0.0000
vt 1.5003 -0.2724 0.0000
vt 1.5003 -0.2748 0.0000
vt 1.9603 -0.4975 0.0000
vt 1.9635 -0.4683 0.0000
vt 1.9787 -0.4683 0.0000
vt 1.9752 -0.5010 0.0000
vt 1.9501 -0.5250 0.0000
vt 1.9636 -0.5320 0.0000
vt 1.9335 -0.5493 0.0000
vt 1.9450 -0.5593 0.0000
vt 1.9117 -0.5690 0.0000
vt 1.9204 -0.5815 0.0000
vt 1.8857 -0.5829 0.0000
vt 1.8912 -0.5971 0.0000
vt 1.8571 -0.5900 0.0000
vt 1.8590 -0.6052 0.0000
vt 1.8571 -0.3465 0.0000
vt 1.8277 -0.3465 0.0000
vt 1.8258 -0.3313 0.0000
vt 1.8590 -0.3313 0.0000
vt 1.8857 -0.3536 0.0000
vt 1.8912 -0.3394 0.0000
vt 1.9117 -0.3675 0.0000
vt 1.9204 -0.3550 0.0000
vt 1.9335 -0.3872 0.0000
vt 1.9450 -0.3772 0.0000
vt 1.9501 -0.4116 0.0000
vt 1.9636 -0.4045 0.0000
vt 1.9603 -0.4390 0.0000
vt 1.9752 -0.4355 0.0000
vt 1.4262 -0.0120 0.0000
vt 1.4645 -0.0120 0.0000
vt 1.4645 -0.0437 0.0000
vt 1.4262 -0.0437 0.0000
vt 1.3880 -0.0120 0.0000
vt 1.3880 -0.0437 0.0000
vt 1.3499 -0.0120 0.0000
vt 1.3499 -0.0437 0.0000
vt 1.3120 -0.0120 0.0000
vt 1.3120 -0.0437 0.0000
vt 1.2742 -0.0120 0.0000
vt 1.2742 -0.0437 0.0000
vt 1.2364 -0.0120 0.0000
vt 1.2364 -0.0437 0.0000
vt 1.6925 -0.0437 0.0000
vt 1.6925 -0.0120 0.0000
vt 1.7302 -0.0120 0.0000
vt 1.7302 -0.0437 0.0000
vt 1.6548 -0.0120 0.0000
vt 1.6548 -0.0437 0.0000
vt 1.6169 -0.0120 0.0000
vt 1.6169 -0.0437 0.0000
vt 1.5790 -0.0120 0.0000
vt 1.5790 -0.0437 0.0000
vt 1.5409 -0.0120 0.0000
vt 1.5409 -0.0437 0.0000
vt 1.5027 -0.0120 0.0000
vt 1.5027 -0.0437 0.0000
vt 1.9347 -0.5172 0.0000
vt 1.9210 -0.5100 0.0000
vt 1.9286 -0.4897 0.0000
vt 1.9436 -0.4934 0.0000
vt 1.9205 -0.5381 0.0000
vt 1.9089 -0.5278 0.0000
vt 1.9017 -0.5550 0.0000
vt 1.8929 -0.5422 0.0000
vt 1.8795 -0.5668 0.0000
vt 1.8740 -0.5524 0.0000
vt 1.8550 -0.5730 0.0000
vt 1.8531 -0.5576 0.0000
vt 1.8795 -0.3697 0.0000
vt 1.8740 -0.3842 0.0000
vt 1.8531 -0.3789 0.0000
vt 1.8550 -0.3636 0.0000
vt 1.9017 -0.3815 0.0000
vt 1.8929 -0.3943 0.0000
vt 1.9205 -0.3984 0.0000
vt 1.9089 -0.4087 0.0000
vt 1.9347 -0.4194 0.0000
vt 1.9210 -0.4265 0.0000
vt 1.9436 -0.4431 0.0000
vt 1.9286 -0.4468 0.0000
vt 1.9465 -0.4683 0.0000
vt 1.9311 -0.4683 0.0000
vt 1.7061 -0.4683 0.0000
vt 1.7213 -0.4683 0.0000
vt 1.7245 -0.4975 0.0000
vt 1.7095 -0.5010 0.0000
vt 1.7347 -0.5250 0.0000
vt 1.7212 -0.5320 0.0000
vt 1.7513 -0.5493 0.0000
vt 1.7397 -0.5593 0.0000
vt 1.7731 -0.5690 0.0000
vt 1.7643 -0.5815 0.0000
vt 1.7991 -0.5829 0.0000
vt 1.7936 -0.5971 0.0000
vt 1.8277 -0.5900 0.0000
vt 1.8258 -0.6052 0.0000
vt 1.7991 -0.3536 0.0000
vt 1.7936 -0.3394 0.0000
vt 1.7731 -0.3675 0.0000
vt 1.7644 -0.3550 0.0000
vt 1.7513 -0.3872 0.0000
vt 1.7397 -0.3772 0.0000
vt 1.7347 -0.4116 0.0000
vt 1.7212 -0.4045 0.0000
vt 1.7245 -0.4390 0.0000
vt 1.7095 -0.4355 0.0000
vt 1.9583 -0.0437 0.0000
vt 1.9583 -0.0120 0.0000
vt 1.9965 -0.0120 0.0000
vt 1.9965 -0.0437 0.0000
vt 1.0089 -0.0437 0.0000
vt 1.0089 -0.0120 0.0000
vt 1.0471 -0.0120 0.0000
vt 1.0471 -0.0437 0.0000
vt 1.0852 -0.0120 0.0000
vt 1.0852 -0.0437 0.0000
vt 1.1232 -0.0120 0.0000
vt 1.1232 -0.0437 0.0000
vt 1.1610 -0.0120 0.0000
vt 1.1610 -0.0437 0.0000
vt 1.1987 -0.0120 0.0000
vt 1.1987 -0.0437 0.0000
vt 1.7680 -0.0120 0.0000
vt 1.7680 -0.0437 0.0000
vt 1.8058 -0.0120 0.0000
vt 1.8058 -0.0437 0.0000
vt 1.8437 -0.0120 0.0000
vt 1.8437 -0.0437 0.0000
vt 1.8818 -0.0120 0.0000
vt 1.8818 -0.0437 0.0000
vt 1.9200 -0.0120 0.0000
vt 1.9200 -0.0437 0.0000
vt 1.7562 -0.4897 0.0000
vt 1.7637 -0.5100 0.0000
vt 1.7501 -0.5172 0.0000
vt 1.7412 -0.4934 0.0000
vt 1.7759 -0.5278 0.0000
vt 1.7643 -0.5381 0.0000
vt 1.7919 -0.5422 0.0000
vt 1.7831 -0.5550 0.0000
vt 1.8108 -0.5524 0.0000
vt 1.8053 -0.5668 0.0000
vt 1.8317 -0.5576 0.0000
vt 1.8298 -0.5730 0.0000
vt 1.8317 -0.3789 0.0000
vt 1.8108 -0.3842 0.0000
vt 1.8053 -0.3697 0.0000
vt 1.8298 -0.3636 0.0000
vt 1.7919 -0.3943 0.0000
vt 1.7831 -0.3815 0.0000
vt 1.7759 -0.4087 0.0000
vt 1.7643 -0.3984 0.0000
vt 1.7637 -0.4265 0.0000
vt 1.7501 -0.4194 0.0000
vt 1.7562 -0.4468 0.0000
vt 1.7412 -0.4431 0.0000
vt 1.7537 -0.4683 0.0000
vt 1.7383 -0.4683 0.0000
vt 1.6587 -0.8582 0.0000
vt 1.6436 -0.8582 0.0000
vt 1.6404 -0.8874 0.0000
vt 1.6553 -0.8909 0.0000
vt 1.6301 -0.9149 0.0000
vt 1.6437 -0.9219 0.0000
vt 1.6136 -0.9392 0.0000
vt 1.6251 -0.9493 0.0000
vt 1.5917 -0.9589 0.0000
vt 1.6005 -0.9715 0.0000
vt 1.5658 -0.9728 0.0000
vt 1.5712 -0.9871 0.0000
vt 1.5372 -0.9800 0.0000
vt 1.5391 -0.9951 0.0000
vt 1.5059 -0.7213 0.0000
vt 1.5077 -0.7364 0.0000
vt 1.5372 -0.7364 0.0000
vt 1.5391 -0.7213 0.0000
vt 1.5658 -0.7436 0.0000
vt 1.5712 -0.7293 0.0000
vt 1.5917 -0.7575 0.0000
vt 1.6005 -0.7450 0.0000
vt 1.6136 -0.7772 0.0000
vt 1.6251 -0.7671 0.0000
vt 1.6301 -0.8015 0.0000
vt 1.6437 -0.7945 0.0000
vt 1.6404 -0.8290 0.0000
vt 1.6553 -0.8255 0.0000
vt 1.4645 -0.0754 0.0000
vt 1.4262 -0.0754 0.0000
vt 1.3880 -0.0754 0.0000
vt 1.3499 -0.0754 0.0000
vt 1.3120 -0.0754 0.0000
vt 1.2742 -0.0754 0.0000
vt 1.2364 -0.0754 0.0000
vt 1.7302 -0.0754 0.0000
vt 1.6925 -0.0754 0.0000
vt 1.6548 -0.0754 0.0000
vt 1.6169 -0.0754 0.0000
vt 1.5790 -0.0754 0.0000
vt 1.5409 -0.0754 0.0000
vt 1.5027 -0.0754 0.0000
vt 1.6086 -0.8797 0.0000
vt 1.6011 -0.8999 0.0000
vt 1.6148 -0.9071 0.0000
vt 1.6236 -0.8834 0.0000
vt 1.5890 -0.9178 0.0000
vt 1.6006 -0.9280 0.0000
vt 1.5730 -0.9322 0.0000
vt 1.5818 -0.9449 0.0000
vt 1.5540 -0.9423 0.0000
vt 1.5595 -0.9568 0.0000
vt 1.5332 -0.9475 0.0000
vt 1.5351 -0.9629 0.0000
vt 1.5332 -0.7689 0.0000
vt 1.5540 -0.7741 0.0000
vt 1.5595 -0.7596 0.0000
vt 1.5351 -0.7535 0.0000
vt 1.5730 -0.7842 0.0000
vt 1.5818 -0.7715 0.0000
vt 1.5890 -0.7986 0.0000
vt 1.6006 -0.7884 0.0000
vt 1.6011 -0.8165 0.0000
vt 1.6148 -0.8093 0.0000
vt 1.6086 -0.8367 0.0000
vt 1.6236 -0.8330 0.0000
vt 1.6112 -0.8582 0.0000
vt 1.6266 -0.8582 0.0000
vt 1.4045 -0.8874 0.0000
vt 1.4013 -0.8582 0.0000
vt 1.3862 -0.8582 0.0000
vt 1.3896 -0.8909 0.0000
vt 1.4148 -0.9149 0.0000
vt 1.4012 -0.9219 0.0000
vt 1.4313 -0.9392 0.0000
vt 1.4198 -0.9493 0.0000
vt 1.4532 -0.9589 0.0000
vt 1.4444 -0.9715 0.0000
vt 1.4791 -0.9728 0.0000
vt 1.4737 -0.9871 0.0000
vt 1.5077 -0.9800 0.0000
vt 1.5059 -0.9951 0.0000
vt 1.4791 -0.7436 0.0000
vt 1.4737 -0.7293 0.0000
vt 1.4532 -0.7575 0.0000
vt 1.4444 -0.7450 0.0000
vt 1.4313 -0.7772 0.0000
vt 1.4198 -0.7671 0.0000
vt 1.4148 -0.8015 0.0000
vt 1.4012 -0.7945 0.0000
vt 1.4045 -0.8290 0.0000
vt 1.3896 -0.8255 0.0000
vt 1.9965 -0.0754 0.0000
vt 1.9583 -0.0754 0.0000
vt 1.0471 -0.0754 0.0000
vt 1.0089 -0.0754 0.0000
vt 1.0852 -0.0754 0.0000
vt 1.1232 -0.0754 0.0000
vt 1.1610 -0.0754 0.0000
vt 1.1987 -0.0754 0.0000
vt 1.7680 -0.0754 0.0000
vt 1.8058 -0.0754 0.0000
vt 1.8437 -0.0754 0.0000
vt 1.8818 -0.0754 0.0000
vt 1.9200 -0.0754 0.0000
vt 1.4301 -0.9071 0.0000
vt 1.4438 -0.8999 0.0000
vt 1.4363 -0.8797 0.0000
vt 1.4213 -0.8834 0.0000
vt 1.4443 -0.9280 0.0000
vt 1.4559 -0.9178 0.0000
vt 1.4631 -0.9449 0.0000
vt 1.4719 -0.9322 0.0000
vt 1.4854 -0.9568 0.0000
vt 1.4909 -0.9423 0.0000
vt 1.5099 -0.9629 0.0000
vt 1.5117 -0.9475 0.0000
vt 1.4854 -0.7596 0.0000
vt 1.4909 -0.7741 0.0000
vt 1.5117 -0.7689 0.0000
vt 1.5099 -0.7535 0.0000
vt 1.4631 -0.7715 0.0000
vt 1.4719 -0.7842 0.0000
vt 1.4443 -0.7884 0.0000
vt 1.4559 -0.7986 0.0000
vt 1.4301 -0.8093 0.0000
vt 1.4438 -0.8165 0.0000
vt 1.4213 -0.8330 0.0000
vt 1.4363 -0.8367 0.0000
vt 1.4183 -0.8582 0.0000
vt 1.4337 -0.8582 0.0000
vt 1.4853 -0.8195 0.0000
vt 1.5007 -0.8160 0.0000
vt 1.5022 -0.8201 0.0000
vt 1.4880 -0.8269 0.0000
vt 1.5044 -0.8236 0.0000
vt 1.4922 -0.8335 0.0000
vt 1.5074 -0.8265 0.0000
vt 1.4979 -0.8390 0.0000
vt 1.5107 -0.8285 0.0000
vt 1.5048 -0.8429 0.0000
vt 1.5145 -0.8295 0.0000
vt 1.5124 -0.8450 0.0000
vt 1.5124 -0.7784 0.0000
vt 1.5145 -0.7940 0.0000
vt 1.5107 -0.7950 0.0000
vt 1.5048 -0.7805 0.0000
vt 1.5074 -0.7970 0.0000
vt 1.4979 -0.7844 0.0000
vt 1.5044 -0.7998 0.0000
vt 1.4922 -0.7899 0.0000
vt 1.5022 -0.8034 0.0000
vt 1.4880 -0.7965 0.0000
vt 1.5007 -0.8074 0.0000
vt 1.4853 -0.8039 0.0000
vt 1.5000 -0.8117 0.0000
vt 1.4844 -0.8117 0.0000
vt 1.4807 -0.8206 0.0000
vt 1.4838 -0.8290 0.0000
vt 1.4887 -0.8366 0.0000
vt 1.4952 -0.8428 0.0000
vt 1.5031 -0.8472 0.0000
vt 1.5119 -0.8496 0.0000
vt 1.5119 -0.7739 0.0000
vt 1.5031 -0.7762 0.0000
vt 1.4952 -0.7806 0.0000
vt 1.4887 -0.7869 0.0000
vt 1.4838 -0.7944 0.0000
vt 1.4807 -0.8028 0.0000
vt 1.4797 -0.8117 0.0000
vt 1.4766 -0.8216 0.0000
vt 1.4799 -0.8310 0.0000
vt 1.4854 -0.8393 0.0000
vt 1.4927 -0.8463 0.0000
vt 1.5015 -0.8512 0.0000
vt 1.5113 -0.8538 0.0000
vt 1.5209 -0.8496 0.0000
vt 1.5215 -0.8538 0.0000
vt 1.5113 -0.7696 0.0000
vt 1.5015 -0.7722 0.0000
vt 1.4927 -0.7772 0.0000
vt 1.4854 -0.7841 0.0000
vt 1.4799 -0.7925 0.0000
vt 1.4766 -0.8018 0.0000
vt 1.4754 -0.8117 0.0000
vt 1.5306 -0.8201 0.0000
vt 1.5321 -0.8160 0.0000
vt 1.5475 -0.8195 0.0000
vt 1.5448 -0.8269 0.0000
vt 1.5283 -0.8236 0.0000
vt 1.5405 -0.8335 0.0000
vt 1.5254 -0.8265 0.0000
vt 1.5349 -0.8390 0.0000
vt 1.5220 -0.8285 0.0000
vt 1.5280 -0.8429 0.0000
vt 1.5183 -0.8295 0.0000
vt 1.5204 -0.8450 0.0000
vt 1.5220 -0.7950 0.0000
vt 1.5183 -0.7940 0.0000
vt 1.5204 -0.7784 0.0000
vt 1.5280 -0.7805 0.0000
vt 1.5254 -0.7970 0.0000
vt 1.5349 -0.7844 0.0000
vt 1.5283 -0.7998 0.0000
vt 1.5405 -0.7899 0.0000
vt 1.5306 -0.8034 0.0000
vt 1.5448 -0.7965 0.0000
vt 1.5321 -0.8074 0.0000
vt 1.5475 -0.8039 0.0000
vt 1.5327 -0.8117 0.0000
vt 1.5484 -0.8117 0.0000
vt 1.5520 -0.8206 0.0000
vt 1.5490 -0.8290 0.0000
vt 1.5441 -0.8366 0.0000
vt 1.5376 -0.8428 0.0000
vt 1.5297 -0.8472 0.0000
vt 1.5209 -0.7739 0.0000
vt 1.5297 -0.7762 0.0000
vt 1.5376 -0.7806 0.0000
vt 1.5441 -0.7869 0.0000
vt 1.5490 -0.7944 0.0000
vt 1.5520 -0.8028 0.0000
vt 1.5530 -0.8117 0.0000
vt 1.5562 -0.8216 0.0000
vt 1.5528 -0.8310 0.0000
vt 1.5474 -0.8393 0.0000
vt 1.5401 -0.8463 0.0000
vt 1.5313 -0.8512 0.0000
vt 1.5215 -0.7696 0.0000
vt 1.5313 -0.7722 0.0000
vt 1.5401 -0.7772 0.0000
vt 1.5474 -0.7841 0.0000
vt 1.5528 -0.7925 0.0000
vt 1.5562 -0.8018 0.0000
vt 1.5573 -0.8117 0.0000
vt 1.1860 -0.2917 0.0000
vt 1.1861 -0.2942 0.0000
vt 1.1738 -0.2942 0.0000
vt 1.1735 -0.2917 0.0000
vt 1.1630 -0.2942 0.0000
vt 1.1625 -0.2917 0.0000
vt 1.2495 -0.2849 0.0000
vt 1.2489 -0.2874 0.0000
vt 1.2388 -0.2874 0.0000
vt 1.2392 -0.2849 0.0000
vt 1.2268 -0.2874 0.0000
vt 1.2271 -0.2849 0.0000
vt 1.2137 -0.2874 0.0000
vt 1.2138 -0.2849 0.0000
vt 1.2002 -0.2874 0.0000
vt 1.2001 -0.2849 0.0000
vt 1.1871 -0.2874 0.0000
vt 1.1868 -0.2849 0.0000
vt 1.1751 -0.2874 0.0000
vt 1.1747 -0.2849 0.0000
vt 1.1650 -0.2874 0.0000
vt 1.1644 -0.2849 0.0000
vt 1.6025 -0.3716 0.0000
vt 1.6020 -0.3741 0.0000
vt 1.5912 -0.3742 0.0000
vt 1.5915 -0.3717 0.0000
vt 1.5789 -0.3744 0.0000
vt 1.5790 -0.3719 0.0000
vt 1.5658 -0.3746 0.0000
vt 1.5658 -0.3721 0.0000
vt 1.5527 -0.3747 0.0000
vt 1.5525 -0.3722 0.0000
vt 1.5404 -0.3749 0.0000
vt 1.5401 -0.3724 0.0000
vt 1.5296 -0.3750 0.0000
vt 1.5291 -0.3726 0.0000
vt 1.3540 -0.2876 0.0000
vt 1.3535 -0.2902 0.0000
vt 1.3433 -0.2902 0.0000
vt 1.3438 -0.2876 0.0000
vt 1.3314 -0.2902 0.0000
vt 1.3317 -0.2876 0.0000
vt 1.3183 -0.2902 0.0000
vt 1.3184 -0.2876 0.0000
vt 1.3047 -0.2902 0.0000
vt 1.3047 -0.2876 0.0000
vt 1.2916 -0.2902 0.0000
vt 1.2913 -0.2876 0.0000
vt 1.2797 -0.2902 0.0000
vt 1.2792 -0.2876 0.0000
vt 1.2695 -0.2902 0.0000
vt 1.2690 -0.2876 0.0000
vt 1.2359 -0.2917 0.0000
vt 1.2354 -0.2942 0.0000
vt 1.2246 -0.2942 0.0000
vt 1.2249 -0.2917 0.0000
vt 1.2123 -0.2942 0.0000
vt 1.2124 -0.2917 0.0000
vt 1.1992 -0.2942 0.0000
vt 1.1992 -0.2917 0.0000
vt 1.5309 -0.8117 0.0000
vt 1.5287 -0.8117 0.0000
vt 1.5256 -0.8117 0.0000
vt 1.5221 -0.8117 0.0000
vt 1.5183 -0.8117 0.0000
vt 1.5145 -0.8117 0.0000
vt 1.5107 -0.8117 0.0000
vt 1.5072 -0.8117 0.0000
vt 1.5041 -0.8117 0.0000
vt 1.5019 -0.8117 0.0000
# 801 texture coords

o Wheel_B_R_2_0
g Wheel_B_R_2_0
usemtl material_1
s 1
f 1/1/1 2/2/2 3/3/3 
f 1/1/1 3/3/3 4/4/4 
f 4/4/4 3/3/3 5/5/5 
f 4/4/4 5/5/5 6/6/6 
f 6/6/6 5/5/5 7/7/5 
f 6/6/6 7/7/5 8/8/7 
f 8/8/7 7/7/5 9/9/5 
f 8/8/7 9/9/5 10/10/8 
f 10/10/8 9/9/5 11/11/5 
f 10/10/8 11/11/5 12/12/9 
f 13/13/10 14/14/11 3/3/3 
f 13/13/10 3/3/3 2/2/2 
f 14/14/11 15/15/12 5/5/5 
f 14/14/11 5/5/5 3/3/3 
f 15/15/12 16/16/13 7/7/5 
f 15/15/12 7/7/5 5/5/5 
f 16/16/13 17/17/14 9/9/5 
f 16/16/13 9/9/5 7/7/5 
f 17/17/14 18/18/15 11/11/5 
f 17/17/14 11/11/5 9/9/5 
f 19/19/16 20/20/17 21/21/18 
f 19/19/16 21/21/18 22/22/19 
f 23/23/20 19/19/16 22/22/19 
f 23/23/20 22/22/19 24/24/21 
f 25/25/22 23/23/20 24/24/21 
f 25/25/22 24/24/21 26/26/23 
f 27/27/24 25/25/22 26/26/23 
f 27/27/24 26/26/23 28/28/25 
f 29/29/26 27/27/24 28/28/25 
f 29/29/26 28/28/25 30/30/27 
f 31/31/28 32/32/29 33/33/30 
f 31/31/28 33/33/30 34/34/31 
f 35/35/32 31/31/28 34/34/31 
f 35/35/32 34/34/31 36/36/33 
f 37/37/34 35/35/32 36/36/33 
f 37/37/34 36/36/33 38/38/35 
f 39/39/36 37/37/34 38/38/35 
f 39/39/36 38/38/35 40/40/37 
f 41/41/38 39/39/36 40/40/37 
f 41/41/38 40/40/37 42/42/39 
f 43/43/40 41/41/38 42/42/39 
f 43/43/40 42/42/39 44/44/41 
f 20/20/17 43/43/40 44/44/41 
f 20/20/17 44/44/41 21/21/18 
f 45/45/42 46/46/43 47/47/44 
f 45/45/42 47/47/44 48/48/45 
f 49/49/46 45/45/42 48/48/45 
f 49/49/46 48/48/45 50/50/47 
f 51/51/48 49/49/46 50/50/47 
f 51/51/48 50/50/47 52/52/49 
f 53/53/50 51/51/48 52/52/49 
f 53/53/50 52/52/49 54/54/51 
f 55/55/52 53/53/50 54/54/51 
f 55/55/52 54/54/51 56/56/53 
f 57/57/54 58/58/55 59/59/56 
f 57/57/54 59/59/56 60/60/57 
f 61/61/58 57/57/54 60/60/57 
f 61/61/58 60/60/57 62/62/59 
f 63/63/60 61/61/58 62/62/59 
f 63/63/60 62/62/59 64/64/61 
f 65/65/62 63/63/60 64/64/61 
f 65/65/62 64/64/61 66/66/63 
f 67/67/64 65/65/62 66/66/63 
f 67/67/64 66/66/63 68/68/65 
f 69/69/66 67/67/64 68/68/65 
f 69/69/66 68/68/65 70/70/67 
f 46/46/43 69/71/66 70/72/67 
f 46/46/43 70/72/67 47/47/44 
f 48/48/45 47/47/44 71/73/68 
f 48/48/45 71/73/68 72/74/69 
f 50/50/47 48/48/45 72/74/69 
f 50/50/47 72/74/69 73/75/70 
f 52/52/49 50/50/47 73/75/70 
f 52/52/49 73/75/70 74/76/71 
f 54/54/51 52/52/49 74/76/71 
f 54/54/51 74/76/71 75/77/72 
f 56/56/53 54/54/51 75/77/72 
f 56/56/53 75/77/72 76/78/73 
f 60/60/57 59/59/56 77/79/74 
f 60/60/57 77/79/74 78/80/75 
f 62/62/59 60/60/57 78/80/75 
f 62/62/59 78/80/75 79/81/76 
f 64/64/61 62/62/59 79/81/76 
f 64/64/61 79/81/76 80/82/77 
f 66/66/63 64/64/61 80/82/77 
f 66/66/63 80/82/77 81/83/78 
f 68/68/65 66/66/63 81/83/78 
f 68/68/65 81/83/78 82/84/79 
f 70/70/67 68/68/65 82/84/79 
f 70/70/67 82/84/79 83/85/80 
f 47/47/44 70/72/67 83/86/80 
f 47/47/44 83/86/80 71/73/68 
f 84/87/81 85/88/82 72/74/69 
f 84/87/81 72/74/69 71/73/68 
f 85/88/82 86/89/83 73/75/70 
f 85/88/82 73/75/70 72/74/69 
f 86/89/83 87/90/84 74/76/71 
f 86/89/83 74/76/71 73/75/70 
f 87/90/84 88/91/85 75/77/72 
f 87/90/84 75/77/72 74/76/71 
f 88/91/85 89/92/86 76/78/73 
f 88/91/85 76/78/73 75/77/72 
f 90/93/87 91/94/88 76/78/73 
f 90/93/87 76/78/73 89/92/86 
f 92/95/89 93/96/90 78/80/75 
f 92/95/89 78/80/75 77/79/74 
f 93/96/90 94/97/91 79/81/76 
f 93/96/90 79/81/76 78/80/75 
f 94/97/91 95/98/92 80/82/77 
f 94/97/91 80/82/77 79/81/76 
f 95/98/92 96/99/93 81/83/78 
f 95/98/92 81/83/78 80/82/77 
f 96/99/93 97/100/94 82/84/79 
f 96/99/93 82/84/79 81/83/78 
f 97/100/94 98/101/95 83/85/80 
f 97/100/94 83/85/80 82/84/79 
f 98/102/95 84/87/81 71/73/68 
f 98/102/95 71/73/68 83/86/80 
f 46/103/43 45/104/42 22/22/19 
f 46/103/43 22/22/19 21/21/18 
f 45/104/42 49/105/46 24/24/21 
f 45/104/42 24/24/21 22/22/19 
f 49/105/46 51/106/48 26/26/23 
f 49/105/46 26/26/23 24/24/21 
f 51/106/48 53/107/50 28/28/25 
f 51/106/48 28/28/25 26/26/23 
f 53/107/50 55/108/52 30/30/27 
f 53/107/50 30/30/27 28/28/25 
f 58/109/55 57/110/54 34/34/31 
f 58/109/55 34/34/31 33/33/30 
f 57/110/54 61/111/58 36/36/33 
f 57/110/54 36/36/33 34/34/31 
f 61/111/58 63/112/60 38/38/35 
f 61/111/58 38/38/35 36/36/33 
f 63/112/60 65/113/62 40/40/37 
f 63/112/60 40/40/37 38/38/35 
f 65/113/62 67/114/64 42/42/39 
f 65/113/62 42/42/39 40/40/37 
f 67/114/64 69/115/66 44/44/41 
f 67/114/64 44/44/41 42/42/39 
f 69/115/66 46/103/43 21/21/18 
f 69/115/66 21/21/18 44/44/41 
f 99/116/96 100/117/97 101/118/98 
f 99/116/96 101/118/98 102/119/99 
f 103/120/100 104/121/101 100/117/97 
f 103/120/100 100/117/97 99/116/96 
f 105/122/102 106/123/103 104/121/101 
f 105/122/102 104/121/101 103/120/100 
f 107/124/104 108/125/105 106/123/103 
f 107/124/104 106/123/103 105/122/102 
f 109/126/106 110/127/107 108/125/105 
f 109/126/106 108/125/105 107/124/104 
f 111/128/108 112/129/109 113/130/110 
f 111/128/108 113/130/110 114/131/111 
f 115/132/112 116/133/113 112/129/109 
f 115/132/112 112/129/109 111/128/108 
f 117/134/114 118/135/115 116/133/113 
f 117/134/114 116/133/113 115/132/112 
f 119/136/116 120/137/117 118/135/115 
f 119/136/116 118/135/115 117/134/114 
f 121/138/118 122/139/119 120/137/117 
f 121/138/118 120/137/117 119/136/116 
f 123/140/120 124/141/121 122/139/119 
f 123/140/120 122/139/119 121/138/118 
f 102/119/99 101/118/98 124/141/121 
f 102/119/99 124/141/121 123/140/120 
f 125/142/122 126/143/123 127/144/124 
f 125/142/122 127/144/124 128/145/125 
f 129/146/5 125/142/122 128/145/125 
f 129/146/5 128/145/125 130/147/126 
f 131/148/5 129/146/5 130/147/126 
f 131/148/5 130/147/126 132/149/127 
f 133/150/5 131/148/5 132/149/127 
f 133/150/5 132/149/127 134/151/128 
f 135/152/122 133/150/5 134/151/128 
f 135/152/122 134/151/128 136/153/129 
f 125/142/122 137/154/130 138/155/131 
f 125/142/122 138/155/131 126/143/123 
f 129/146/5 139/156/132 137/154/130 
f 129/146/5 137/154/130 125/142/122 
f 131/148/5 140/157/133 139/156/132 
f 131/148/5 139/156/132 129/146/5 
f 133/150/5 141/158/134 140/157/133 
f 133/150/5 140/157/133 131/148/5 
f 135/152/122 142/159/135 141/158/134 
f 135/152/122 141/158/134 133/150/5 
f 11/11/5 18/18/15 142/159/135 
f 11/11/5 142/159/135 135/152/122 
f 11/11/5 135/152/122 136/153/129 
f 11/11/5 136/153/129 12/12/9 
f 143/160/136 144/161/137 145/162/138 
f 143/160/136 145/162/138 146/163/139 
f 146/163/139 145/162/138 147/164/140 
f 146/163/139 147/164/140 148/165/141 
f 148/165/141 147/164/140 149/166/142 
f 148/165/141 149/166/142 150/167/143 
f 150/167/143 149/166/142 151/168/144 
f 150/167/143 151/168/144 152/169/145 
f 152/169/145 151/168/144 153/170/146 
f 152/169/145 153/170/146 154/171/147 
f 153/170/146 29/29/26 30/30/27 
f 153/170/146 30/30/27 154/171/147 
f 155/172/148 156/173/149 157/174/150 
f 155/172/148 157/174/150 158/175/151 
f 158/175/151 157/174/150 159/176/152 
f 158/175/151 159/176/152 160/177/153 
f 160/177/153 159/176/152 161/178/154 
f 160/177/153 161/178/154 162/179/155 
f 162/179/155 161/178/154 163/180/156 
f 162/179/155 163/180/156 164/181/157 
f 164/181/157 163/180/156 165/182/158 
f 164/181/157 165/182/158 166/183/159 
f 166/183/159 165/182/158 167/184/160 
f 166/183/159 167/184/160 168/185/161 
f 168/185/161 167/184/160 144/161/137 
f 168/185/161 144/161/137 143/160/136 
f 33/33/30 32/32/29 156/173/149 
f 33/33/30 156/173/149 155/172/148 
f 169/186/162 170/187/163 171/188/164 
f 169/186/162 171/188/164 172/189/165 
f 172/189/165 171/188/164 173/190/166 
f 172/189/165 173/190/166 174/191/167 
f 174/191/167 173/190/166 175/192/168 
f 174/191/167 175/192/168 176/193/169 
f 176/193/169 175/192/168 177/194/170 
f 176/193/169 177/194/170 178/195/171 
f 178/195/171 177/194/170 179/196/172 
f 178/195/171 179/196/172 180/197/173 
f 179/196/172 55/55/52 56/56/53 
f 179/196/172 56/56/53 180/197/173 
f 181/198/174 182/199/175 183/200/176 
f 181/198/174 183/200/176 184/201/177 
f 184/201/177 183/200/176 185/202/178 
f 184/201/177 185/202/178 186/203/179 
f 186/203/179 185/202/178 187/204/180 
f 186/203/179 187/204/180 188/205/181 
f 188/205/181 187/204/180 189/206/182 
f 188/205/181 189/206/182 190/207/183 
f 190/207/183 189/206/182 191/208/184 
f 190/207/183 191/208/184 192/209/185 
f 192/209/185 191/208/184 193/210/186 
f 192/209/185 193/210/186 194/211/187 
f 194/212/187 193/213/186 170/187/163 
f 194/212/187 170/187/163 169/186/162 
f 59/59/56 58/58/55 182/199/175 
f 59/59/56 182/199/175 181/198/174 
f 195/214/188 169/186/162 172/189/165 
f 195/214/188 172/189/165 196/215/189 
f 196/215/189 172/189/165 174/191/167 
f 196/215/189 174/191/167 197/216/190 
f 197/216/190 174/191/167 176/193/169 
f 197/216/190 176/193/169 198/217/191 
f 198/217/191 176/193/169 178/195/171 
f 198/217/191 178/195/171 199/218/192 
f 199/218/192 178/195/171 180/197/173 
f 199/218/192 180/197/173 91/94/88 
f 180/197/173 56/56/53 76/78/73 
f 180/197/173 76/78/73 91/94/88 
f 200/219/193 181/198/174 184/201/177 
f 200/219/193 184/201/177 201/220/194 
f 201/220/194 184/201/177 186/203/179 
f 201/220/194 186/203/179 202/221/195 
f 202/221/195 186/203/179 188/205/181 
f 202/221/195 188/205/181 203/222/196 
f 203/222/196 188/205/181 190/207/183 
f 203/222/196 190/207/183 204/223/197 
f 204/223/197 190/207/183 192/209/185 
f 204/223/197 192/209/185 205/224/198 
f 205/224/198 192/209/185 194/211/187 
f 205/224/198 194/211/187 206/225/199 
f 206/226/199 194/212/187 169/186/162 
f 206/226/199 169/186/162 195/214/188 
f 77/79/74 59/59/56 181/198/174 
f 77/79/74 181/198/174 200/219/193 
f 207/227/200 195/214/188 196/215/189 
f 207/227/200 196/215/189 208/228/201 
f 208/228/201 196/215/189 197/216/190 
f 208/228/201 197/216/190 209/229/202 
f 209/229/202 197/216/190 198/217/191 
f 209/229/202 198/217/191 210/230/203 
f 210/230/203 198/217/191 199/218/192 
f 210/230/203 199/218/192 211/231/204 
f 211/231/204 199/218/192 91/94/88 
f 211/231/204 91/94/88 90/93/87 
f 92/95/89 77/79/74 200/219/193 
f 92/95/89 200/219/193 212/232/205 
f 212/232/205 200/219/193 201/220/194 
f 212/232/205 201/220/194 213/233/206 
f 213/233/206 201/220/194 202/221/195 
f 213/233/206 202/221/195 214/234/207 
f 214/234/207 202/221/195 203/222/196 
f 214/234/207 203/222/196 215/235/208 
f 215/235/208 203/222/196 204/223/197 
f 215/235/208 204/223/197 216/236/209 
f 216/236/209 204/223/197 205/224/198 
f 216/236/209 205/224/198 217/237/210 
f 217/237/210 205/224/198 206/225/199 
f 217/237/210 206/225/199 218/238/211 
f 218/239/211 206/226/199 195/214/188 
f 218/239/211 195/214/188 207/227/200 
f 170/240/163 143/160/136 146/163/139 
f 170/240/163 146/163/139 171/241/164 
f 171/241/164 146/163/139 148/165/141 
f 171/241/164 148/165/141 173/242/166 
f 173/242/166 148/165/141 150/167/143 
f 173/242/166 150/167/143 175/243/168 
f 175/243/168 150/167/143 152/169/145 
f 175/243/168 152/169/145 177/244/170 
f 177/244/170 152/169/145 154/171/147 
f 177/244/170 154/171/147 179/245/172 
f 179/245/172 154/171/147 30/30/27 
f 179/245/172 30/30/27 55/108/52 
f 58/109/55 33/33/30 155/172/148 
f 58/109/55 155/172/148 182/246/175 
f 182/246/175 155/172/148 158/175/151 
f 182/246/175 158/175/151 183/247/176 
f 183/247/176 158/175/151 160/177/153 
f 183/247/176 160/177/153 185/248/178 
f 185/248/178 160/177/153 162/179/155 
f 185/248/178 162/179/155 187/249/180 
f 187/249/180 162/179/155 164/181/157 
f 187/249/180 164/181/157 189/250/182 
f 189/250/182 164/181/157 166/183/159 
f 189/250/182 166/183/159 191/251/184 
f 191/251/184 166/183/159 168/185/161 
f 191/251/184 168/185/161 193/252/186 
f 193/252/186 168/185/161 143/160/136 
f 193/252/186 143/160/136 170/240/163 
f 219/253/212 220/254/213 221/255/214 
f 219/253/212 221/255/214 222/256/215 
f 220/254/213 223/257/216 224/258/217 
f 220/254/213 224/258/217 221/255/214 
f 223/257/216 225/259/218 226/260/219 
f 223/257/216 226/260/219 224/258/217 
f 225/259/218 227/261/220 228/262/221 
f 225/259/218 228/262/221 226/260/219 
f 227/261/220 229/263/222 230/264/223 
f 227/261/220 230/264/223 228/262/221 
f 229/263/222 110/127/107 109/126/106 
f 229/263/222 109/126/106 230/264/223 
f 114/131/111 113/130/110 231/265/224 
f 114/131/111 231/265/224 232/266/225 
f 231/265/224 233/267/226 234/268/227 
f 231/265/224 234/268/227 232/266/225 
f 233/267/226 235/269/228 236/270/229 
f 233/267/226 236/270/229 234/268/227 
f 235/269/228 237/271/230 238/272/231 
f 235/269/228 238/272/231 236/270/229 
f 237/271/230 239/273/232 240/274/233 
f 237/271/230 240/274/233 238/272/231 
f 239/273/232 241/275/234 242/276/235 
f 239/273/232 242/276/235 240/274/233 
f 241/275/234 243/277/236 244/278/237 
f 241/275/234 244/278/237 242/276/235 
f 243/277/236 219/253/212 222/256/215 
f 243/277/236 222/256/215 244/278/237 
f 245/279/238 246/280/239 85/281/82 
f 245/279/238 85/281/82 84/282/81 
f 246/280/239 247/283/240 86/284/83 
f 246/280/239 86/284/83 85/281/82 
f 247/285/240 248/286/241 87/287/84 
f 247/285/240 87/287/84 86/288/83 
f 248/286/241 249/289/242 88/290/85 
f 248/286/241 88/290/85 87/287/84 
f 249/289/242 250/291/243 89/292/86 
f 249/289/242 89/292/86 88/290/85 
f 250/291/243 251/293/244 90/294/87 
f 250/291/243 90/294/87 89/292/86 
f 251/293/244 252/295/245 211/296/204 
f 251/293/244 211/296/204 90/294/87 
f 252/295/245 253/297/246 210/298/203 
f 252/295/245 210/298/203 211/296/204 
f 253/297/246 254/299/247 209/300/202 
f 253/297/246 209/300/202 210/298/203 
f 254/301/247 255/302/248 208/303/201 
f 254/301/247 208/303/201 209/304/202 
f 255/302/248 256/305/249 207/306/200 
f 255/302/248 207/306/200 208/303/201 
f 256/305/249 257/307/250 218/308/211 
f 256/305/249 218/308/211 207/306/200 
f 257/307/250 258/309/251 217/310/210 
f 257/307/250 217/310/210 218/308/211 
f 258/309/251 259/311/252 216/312/209 
f 258/309/251 216/312/209 217/310/210 
f 259/311/252 260/313/253 215/314/208 
f 259/311/252 215/314/208 216/312/209 
f 260/315/253 261/316/254 214/317/207 
f 260/315/253 214/317/207 215/318/208 
f 261/316/254 262/319/255 213/320/206 
f 261/316/254 213/320/206 214/317/207 
f 262/319/255 263/321/256 212/322/205 
f 262/319/255 212/322/205 213/320/206 
f 263/321/256 264/323/257 92/324/89 
f 263/321/256 92/324/89 212/322/205 
f 264/323/257 265/325/258 93/326/90 
f 264/323/257 93/326/90 92/324/89 
f 265/325/258 266/327/259 94/328/91 
f 265/325/258 94/328/91 93/326/90 
f 266/327/259 267/329/260 95/330/92 
f 266/327/259 95/330/92 94/328/91 
f 267/331/260 268/332/261 96/333/93 
f 267/331/260 96/333/93 95/334/92 
f 268/332/261 269/335/262 97/336/94 
f 268/332/261 97/336/94 96/333/93 
f 269/335/262 270/337/263 98/338/95 
f 269/335/262 98/338/95 97/336/94 
f 270/337/263 245/279/238 84/282/81 
f 270/337/263 84/282/81 98/338/95 
f 14/14/11 13/13/10 101/118/98 
f 14/14/11 101/118/98 100/117/97 
f 15/15/12 14/14/11 100/117/97 
f 15/15/12 100/117/97 104/121/101 
f 16/16/13 15/15/12 104/121/101 
f 16/16/13 104/121/101 106/123/103 
f 17/17/14 16/16/13 106/123/103 
f 17/17/14 106/123/103 108/125/105 
f 18/18/15 17/17/14 108/125/105 
f 18/18/15 108/125/105 110/127/107 
f 10/10/8 12/12/9 113/130/110 
f 10/10/8 113/130/110 112/129/109 
f 8/8/7 10/10/8 112/129/109 
f 8/8/7 112/129/109 116/133/113 
f 6/6/6 8/8/7 116/133/113 
f 6/6/6 116/133/113 118/135/115 
f 4/4/4 6/6/6 118/135/115 
f 4/4/4 118/135/115 120/137/117 
f 1/1/1 4/4/4 120/137/117 
f 1/1/1 120/137/117 122/139/119 
f 2/2/2 1/1/1 122/139/119 
f 2/2/2 122/139/119 124/141/121 
f 13/13/10 2/2/2 124/141/121 
f 13/13/10 124/141/121 101/118/98 
f 138/155/131 137/154/130 220/254/213 
f 138/155/131 220/254/213 219/253/212 
f 137/154/130 139/156/132 223/257/216 
f 137/154/130 223/257/216 220/254/213 
f 139/156/132 140/157/133 225/259/218 
f 139/156/132 225/259/218 223/257/216 
f 140/157/133 141/158/134 227/261/220 
f 140/157/133 227/261/220 225/259/218 
f 141/158/134 142/159/135 229/263/222 
f 141/158/134 229/263/222 227/261/220 
f 229/263/222 142/159/135 18/18/15 
f 229/263/222 18/18/15 110/127/107 
f 12/12/9 136/153/129 231/265/224 
f 12/12/9 231/265/224 113/130/110 
f 136/153/129 134/151/128 233/267/226 
f 136/153/129 233/267/226 231/265/224 
f 134/151/128 132/149/127 235/269/228 
f 134/151/128 235/269/228 233/267/226 
f 132/149/127 130/147/126 237/271/230 
f 132/149/127 237/271/230 235/269/228 
f 130/147/126 128/145/125 239/273/232 
f 130/147/126 239/273/232 237/271/230 
f 128/145/125 127/144/124 241/275/234 
f 128/145/125 241/275/234 239/273/232 
f 127/144/124 126/143/123 243/277/236 
f 127/144/124 243/277/236 241/275/234 
f 126/143/123 138/155/131 219/253/212 
f 126/143/123 219/253/212 243/277/236 
f 99/116/96 102/119/99 20/20/17 
f 99/116/96 20/20/17 19/19/16 
f 103/120/100 99/116/96 19/19/16 
f 103/120/100 19/19/16 23/23/20 
f 105/122/102 103/120/100 23/23/20 
f 105/122/102 23/23/20 25/25/22 
f 107/124/104 105/122/102 25/25/22 
f 107/124/104 25/25/22 27/27/24 
f 109/126/106 107/124/104 27/27/24 
f 109/126/106 27/27/24 29/29/26 
f 111/128/108 114/131/111 32/32/29 
f 111/128/108 32/32/29 31/31/28 
f 115/132/112 111/128/108 31/31/28 
f 115/132/112 31/31/28 35/35/32 
f 117/134/114 115/132/112 35/35/32 
f 117/134/114 35/35/32 37/37/34 
f 119/136/116 117/134/114 37/37/34 
f 119/136/116 37/37/34 39/39/36 
f 121/138/118 119/136/116 39/39/36 
f 121/138/118 39/39/36 41/41/38 
f 123/140/120 121/138/118 41/41/38 
f 123/140/120 41/41/38 43/43/40 
f 102/119/99 123/140/120 43/43/40 
f 102/119/99 43/43/40 20/20/17 
f 222/256/215 221/255/214 145/162/138 
f 222/256/215 145/162/138 144/161/137 
f 221/255/214 224/258/217 147/164/140 
f 221/255/214 147/164/140 145/162/138 
f 224/258/217 226/260/219 149/166/142 
f 224/258/217 149/166/142 147/164/140 
f 226/260/219 228/262/221 151/168/144 
f 226/260/219 151/168/144 149/166/142 
f 228/262/221 230/264/223 153/170/146 
f 228/262/221 153/170/146 151/168/144 
f 153/170/146 230/264/223 109/126/106 
f 153/170/146 109/126/106 29/29/26 
f 232/266/225 234/268/227 157/174/150 
f 232/266/225 157/174/150 156/173/149 
f 234/268/227 236/270/229 159/176/152 
f 234/268/227 159/176/152 157/174/150 
f 236/270/229 238/272/231 161/178/154 
f 236/270/229 161/178/154 159/176/152 
f 238/272/231 240/274/233 163/180/156 
f 238/272/231 163/180/156 161/178/154 
f 240/274/233 242/276/235 165/182/158 
f 240/274/233 165/182/158 163/180/156 
f 242/276/235 244/278/237 167/184/160 
f 242/276/235 167/184/160 165/182/158 
f 244/278/237 222/256/215 144/161/137 
f 244/278/237 144/161/137 167/184/160 
f 114/131/111 232/266/225 156/173/149 
f 114/131/111 156/173/149 32/32/29 
f 271/339/264 272/340/265 273/341/266 
f 271/339/264 273/341/266 274/342/267 
f 275/343/268 271/339/264 274/342/267 
f 275/343/268 274/342/267 276/344/269 
f 277/345/270 275/343/268 276/344/269 
f 277/345/270 276/344/269 278/346/271 
f 279/347/272 277/345/270 278/346/271 
f 279/347/272 278/346/271 280/348/273 
f 281/349/274 279/347/272 280/348/273 
f 281/349/274 280/348/273 282/350/275 
f 283/351/276 281/349/274 282/350/275 
f 283/351/276 282/350/275 284/352/277 
f 285/353/278 286/354/279 287/355/280 
f 285/353/278 287/355/280 288/356/281 
f 289/357/282 285/353/278 288/356/281 
f 289/357/282 288/356/281 290/358/283 
f 291/359/284 289/357/282 290/358/283 
f 291/359/284 290/358/283 292/360/285 
f 293/361/286 291/359/284 292/360/285 
f 293/361/286 292/360/285 294/362/287 
f 295/363/288 293/361/286 294/362/287 
f 295/363/288 294/362/287 296/364/289 
f 297/365/290 295/363/288 296/364/289 
f 297/365/290 296/364/289 298/366/291 
f 272/340/265 297/365/290 298/366/291 
f 272/340/265 298/366/291 273/341/266 
f 274/367/267 273/368/266 299/369/292 
f 274/367/267 299/369/292 300/370/293 
f 276/371/269 274/367/267 300/370/293 
f 276/371/269 300/370/293 301/372/294 
f 278/373/271 276/371/269 301/372/294 
f 278/373/271 301/372/294 302/374/295 
f 280/375/273 278/373/271 302/374/295 
f 280/375/273 302/374/295 303/376/296 
f 282/377/275 280/375/273 303/376/296 
f 282/377/275 303/376/296 304/378/297 
f 284/379/277 282/377/275 304/378/297 
f 284/379/277 304/378/297 305/380/298 
f 306/381/299 288/382/281 287/383/280 
f 306/381/299 287/383/280 307/384/300 
f 290/385/283 288/382/281 306/381/299 
f 290/385/283 306/381/299 308/386/301 
f 292/387/285 290/385/283 308/386/301 
f 292/387/285 308/386/301 309/388/302 
f 294/389/287 292/387/285 309/388/302 
f 294/389/287 309/388/302 310/390/303 
f 296/391/289 294/389/287 310/390/303 
f 296/391/289 310/390/303 311/392/304 
f 298/393/291 296/391/289 311/392/304 
f 298/393/291 311/392/304 312/394/305 
f 273/368/266 298/393/291 312/394/305 
f 273/368/266 312/394/305 299/369/292 
f 313/395/306 246/396/5 245/397/5 
f 313/395/306 245/397/5 314/398/307 
f 315/399/308 316/400/5 246/396/5 
f 315/399/308 246/396/5 313/395/306 
f 317/401/309 248/402/5 316/400/5 
f 317/401/309 316/400/5 315/399/308 
f 318/403/310 249/404/5 248/402/5 
f 318/403/310 248/402/5 317/401/309 
f 319/405/311 250/406/122 249/404/5 
f 319/405/311 249/404/5 318/403/310 
f 320/407/312 265/408/5 264/409/5 
f 320/407/312 264/409/5 321/410/313 
f 322/411/314 266/412/5 265/408/5 
f 322/411/314 265/408/5 320/407/312 
f 323/413/315 267/414/5 266/412/5 
f 323/413/315 266/412/5 322/411/314 
f 324/415/316 268/416/5 267/414/5 
f 324/415/316 267/414/5 323/413/315 
f 325/417/317 269/418/5 268/416/5 
f 325/417/317 268/416/5 324/415/316 
f 326/419/318 327/420/5 269/418/5 
f 326/419/318 269/418/5 325/417/317 
f 314/398/307 245/397/5 327/420/5 
f 314/398/307 327/420/5 326/419/318 
f 314/398/307 326/419/318 272/340/265 
f 314/398/307 272/340/265 271/339/264 
f 313/395/306 314/398/307 271/339/264 
f 313/395/306 271/339/264 275/343/268 
f 315/399/308 313/395/306 275/343/268 
f 315/399/308 275/343/268 277/345/270 
f 317/401/309 315/399/308 277/345/270 
f 317/401/309 277/345/270 279/347/272 
f 318/403/310 317/401/309 279/347/272 
f 318/403/310 279/347/272 281/349/274 
f 319/405/311 318/403/310 281/349/274 
f 319/405/311 281/349/274 283/351/276 
f 320/407/312 321/410/313 285/353/278 
f 320/407/312 285/353/278 289/357/282 
f 322/411/314 320/407/312 289/357/282 
f 322/411/314 289/357/282 291/359/284 
f 323/413/315 322/411/314 291/359/284 
f 323/413/315 291/359/284 293/361/286 
f 324/415/316 323/413/315 293/361/286 
f 324/415/316 293/361/286 295/363/288 
f 325/417/317 324/415/316 295/363/288 
f 325/417/317 295/363/288 297/365/290 
f 326/419/318 325/417/317 297/365/290 
f 326/419/318 297/365/290 272/340/265 
f 328/421/319 329/422/320 330/423/321 
f 328/421/319 330/423/321 331/424/322 
f 331/424/322 330/423/321 332/425/323 
f 331/424/322 332/425/323 333/426/324 
f 333/426/324 332/425/323 334/427/325 
f 333/426/324 334/427/325 335/428/326 
f 335/428/326 334/427/325 336/429/327 
f 335/428/326 336/429/327 337/430/328 
f 337/430/328 336/429/327 338/431/329 
f 337/430/328 338/431/329 339/432/330 
f 339/432/330 338/431/329 340/433/331 
f 339/432/330 340/433/331 341/434/332 
f 287/355/280 286/354/279 342/435/333 
f 287/355/280 342/435/333 343/436/334 
f 343/436/334 342/435/333 344/437/335 
f 343/436/334 344/437/335 345/438/336 
f 345/438/336 344/437/335 346/439/337 
f 345/438/336 346/439/337 347/440/338 
f 347/440/338 346/439/337 348/441/339 
f 347/440/338 348/441/339 349/442/340 
f 349/442/340 348/441/339 350/443/341 
f 349/442/340 350/443/341 351/444/342 
f 351/444/342 350/443/341 329/422/320 
f 351/444/342 329/422/320 328/421/319 
f 352/445/343 328/446/319 331/447/322 
f 352/445/343 331/447/322 353/448/344 
f 353/449/344 331/450/322 333/451/324 
f 353/449/344 333/451/324 354/452/345 
f 354/452/345 333/451/324 335/453/326 
f 354/452/345 335/453/326 355/454/346 
f 355/454/346 335/453/326 337/455/328 
f 355/454/346 337/455/328 356/456/347 
f 356/456/347 337/455/328 339/457/330 
f 356/456/347 339/457/330 357/458/348 
f 357/458/348 339/457/330 341/459/332 
f 357/458/348 341/459/332 358/460/349 
f 307/384/300 287/383/280 343/461/334 
f 307/384/300 343/461/334 359/462/350 
f 359/462/350 343/461/334 345/463/336 
f 359/462/350 345/463/336 360/464/351 
f 360/464/351 345/463/336 347/465/338 
f 360/464/351 347/465/338 361/466/352 
f 361/466/352 347/465/338 349/467/340 
f 361/466/352 349/467/340 362/468/353 
f 362/468/353 349/467/340 351/469/342 
f 362/468/353 351/469/342 363/470/354 
f 363/470/354 351/469/342 328/446/319 
f 363/470/354 328/446/319 352/445/343 
f 256/471/5 255/472/5 364/473/355 
f 256/471/5 364/473/355 365/474/356 
f 255/472/5 254/475/5 366/476/357 
f 255/472/5 366/476/357 364/473/355 
f 254/475/5 253/477/5 367/478/358 
f 254/475/5 367/478/358 366/476/357 
f 253/477/5 252/479/5 368/480/359 
f 253/477/5 368/480/359 367/478/358 
f 252/479/5 251/481/5 369/482/360 
f 252/479/5 369/482/360 368/480/359 
f 251/481/5 250/406/122 319/405/311 
f 251/481/5 319/405/311 369/482/360 
f 263/483/122 262/484/5 370/485/361 
f 263/483/122 370/485/361 371/486/362 
f 262/484/5 261/487/5 372/488/363 
f 262/484/5 372/488/363 370/485/361 
f 261/487/5 260/489/5 373/490/364 
f 261/487/5 373/490/364 372/488/363 
f 260/489/5 259/491/5 374/492/365 
f 260/489/5 374/492/365 373/490/364 
f 259/491/5 375/493/5 376/494/366 
f 259/491/5 376/494/366 374/492/365 
f 375/493/5 257/495/5 377/496/367 
f 375/493/5 377/496/367 376/494/366 
f 257/495/5 256/471/5 365/474/356 
f 257/495/5 365/474/356 377/496/367 
f 283/351/276 340/433/331 369/482/360 
f 283/351/276 369/482/360 319/405/311 
f 284/379/277 305/380/298 358/460/349 
f 284/379/277 358/460/349 341/459/332 
f 321/410/313 264/409/5 263/483/122 
f 321/410/313 263/483/122 371/486/362 
f 329/422/320 377/496/367 365/474/356 
f 329/422/320 365/474/356 330/423/321 
f 330/423/321 365/474/356 364/473/355 
f 330/423/321 364/473/355 332/425/323 
f 332/425/323 364/473/355 366/476/357 
f 332/425/323 366/476/357 334/427/325 
f 334/427/325 366/476/357 367/478/358 
f 334/427/325 367/478/358 336/429/327 
f 336/429/327 367/478/358 368/480/359 
f 336/429/327 368/480/359 338/431/329 
f 338/431/329 368/480/359 369/482/360 
f 338/431/329 369/482/360 340/433/331 
f 286/354/279 285/353/278 321/410/313 
f 286/354/279 321/410/313 371/486/362 
f 286/354/279 371/486/362 370/485/361 
f 286/354/279 370/485/361 342/435/333 
f 342/435/333 370/485/361 372/488/363 
f 342/435/333 372/488/363 344/437/335 
f 344/437/335 372/488/363 373/490/364 
f 344/437/335 373/490/364 346/439/337 
f 346/439/337 373/490/364 374/492/365 
f 346/439/337 374/492/365 348/441/339 
f 348/441/339 374/492/365 376/494/366 
f 348/441/339 376/494/366 350/443/341 
f 350/443/341 376/494/366 377/496/367 
f 350/443/341 377/496/367 329/422/320 
f 340/433/331 283/351/276 284/352/277 
f 340/433/331 284/352/277 341/434/332 
f 378/497/368 379/498/369 380/499/370 
f 378/497/368 380/499/370 381/500/371 
f 381/500/371 380/499/370 382/501/372 
f 381/500/371 382/501/372 383/502/373 
f 383/502/373 382/501/372 384/503/374 
f 383/502/373 384/503/374 385/504/375 
f 385/504/375 384/503/374 386/505/376 
f 385/504/375 386/505/376 387/506/377 
f 387/506/377 386/505/376 388/507/378 
f 387/506/377 388/507/378 389/508/379 
f 389/508/379 388/507/378 390/509/380 
f 389/508/379 390/509/380 391/510/381 
f 392/511/382 393/512/383 394/513/384 
f 392/511/382 394/513/384 395/514/385 
f 395/514/385 394/513/384 396/515/386 
f 395/514/385 396/515/386 397/516/387 
f 397/516/387 396/515/386 398/517/388 
f 397/516/387 398/517/388 399/518/389 
f 399/518/389 398/517/388 400/519/390 
f 399/518/389 400/519/390 401/520/391 
f 401/520/391 400/519/390 402/521/392 
f 401/520/391 402/521/392 403/522/393 
f 403/522/393 402/521/392 404/523/394 
f 403/522/393 404/523/394 405/524/395 
f 405/524/395 404/523/394 379/498/369 
f 405/524/395 379/498/369 378/497/368 
f 299/369/292 378/525/368 381/526/371 
f 299/369/292 381/526/371 300/370/293 
f 300/370/293 381/526/371 383/527/373 
f 300/370/293 383/527/373 301/372/294 
f 301/372/294 383/527/373 385/528/375 
f 301/372/294 385/528/375 302/374/295 
f 302/374/295 385/528/375 387/529/377 
f 302/374/295 387/529/377 303/376/296 
f 303/376/296 387/529/377 389/530/379 
f 303/376/296 389/530/379 304/378/297 
f 304/378/297 389/530/379 391/531/381 
f 304/378/297 391/531/381 305/380/298 
f 306/381/299 307/384/300 392/532/382 
f 306/381/299 392/532/382 395/533/385 
f 306/381/299 395/533/385 397/534/387 
f 306/381/299 397/534/387 308/386/301 
f 308/386/301 397/534/387 399/535/389 
f 308/386/301 399/535/389 309/388/302 
f 309/388/302 399/535/389 401/536/391 
f 309/388/302 401/536/391 310/390/303 
f 310/390/303 401/536/391 403/537/393 
f 310/390/303 403/537/393 311/392/304 
f 311/392/304 403/537/393 405/538/395 
f 311/392/304 405/538/395 312/394/305 
f 312/394/305 405/538/395 378/525/368 
f 312/394/305 378/525/368 299/369/292 
f 406/539/396 407/540/397 408/541/398 
f 406/539/396 408/541/398 409/542/399 
f 407/540/397 410/543/400 411/544/401 
f 407/540/397 411/544/401 408/541/398 
f 410/543/400 412/545/402 413/546/403 
f 410/543/400 413/546/403 411/544/401 
f 412/545/402 414/547/404 415/548/405 
f 412/545/402 415/548/405 413/546/403 
f 414/547/404 416/549/406 417/550/407 
f 414/547/404 417/550/407 415/548/405 
f 418/551/408 419/552/409 420/553/410 
f 418/551/408 420/553/410 421/554/411 
f 419/552/409 422/555/412 423/556/413 
f 419/552/409 423/556/413 420/553/410 
f 422/555/412 424/557/414 425/558/415 
f 422/555/412 425/558/415 423/556/413 
f 424/557/414 426/559/416 427/560/417 
f 424/557/414 427/560/417 425/558/415 
f 426/559/416 428/561/418 429/562/419 
f 426/559/416 429/562/419 427/560/417 
f 428/561/418 430/563/420 431/564/421 
f 428/561/418 431/564/421 429/562/419 
f 430/563/420 406/539/396 409/542/399 
f 430/563/420 409/542/399 431/564/421 
f 379/498/369 431/564/421 409/542/399 
f 379/498/369 409/542/399 380/499/370 
f 380/499/370 409/542/399 408/541/398 
f 380/499/370 408/541/398 382/501/372 
f 382/501/372 408/541/398 411/544/401 
f 382/501/372 411/544/401 384/503/374 
f 384/503/374 411/544/401 413/546/403 
f 384/503/374 413/546/403 386/505/376 
f 386/505/376 413/546/403 415/548/405 
f 386/505/376 415/548/405 388/507/378 
f 388/507/378 415/548/405 417/550/407 
f 388/507/378 417/550/407 390/509/380 
f 394/513/384 421/554/411 420/553/410 
f 394/513/384 420/553/410 396/515/386 
f 396/515/386 420/553/410 423/556/413 
f 396/515/386 423/556/413 398/517/388 
f 398/517/388 423/556/413 425/558/415 
f 398/517/388 425/558/415 400/519/390 
f 400/519/390 425/558/415 427/560/417 
f 400/519/390 427/560/417 402/521/392 
f 402/521/392 427/560/417 429/562/419 
f 402/521/392 429/562/419 404/523/394 
f 404/523/394 429/562/419 431/564/421 
f 404/523/394 431/564/421 379/498/369 
f 432/565/422 433/566/423 434/567/424 
f 432/565/422 434/567/424 435/568/425 
f 436/569/426 432/565/422 435/568/425 
f 436/569/426 435/568/425 437/570/427 
f 438/571/428 436/569/426 437/570/427 
f 438/571/428 437/570/427 439/572/429 
f 440/573/430 438/571/428 439/572/429 
f 440/573/430 439/572/429 441/574/431 
f 442/575/432 440/573/430 441/574/431 
f 442/575/432 441/574/431 443/576/433 
f 444/577/434 442/575/432 443/576/433 
f 444/577/434 443/576/433 445/578/435 
f 446/579/436 393/512/383 392/511/382 
f 446/579/436 392/511/382 447/580/437 
f 448/581/438 446/579/436 447/580/437 
f 448/581/438 447/580/437 449/582/439 
f 450/583/440 448/581/438 449/582/439 
f 450/583/440 449/582/439 451/584/441 
f 452/585/442 450/583/440 451/584/441 
f 452/585/442 451/584/441 453/586/443 
f 454/587/444 452/585/442 453/586/443 
f 454/587/444 453/586/443 455/588/445 
f 433/566/423 454/587/444 455/588/445 
f 433/566/423 455/588/445 434/567/424 
f 435/589/425 434/590/424 352/445/343 
f 435/589/425 352/445/343 353/448/344 
f 437/591/427 435/592/425 353/449/344 
f 437/591/427 353/449/344 354/452/345 
f 439/593/429 437/591/427 354/452/345 
f 439/593/429 354/452/345 355/454/346 
f 441/594/431 439/593/429 355/454/346 
f 441/594/431 355/454/346 356/456/347 
f 443/595/433 441/594/431 356/456/347 
f 443/595/433 356/456/347 357/458/348 
f 445/596/435 443/595/433 357/458/348 
f 445/596/435 357/458/348 358/460/349 
f 447/597/437 392/532/382 307/384/300 
f 447/597/437 307/384/300 359/462/350 
f 449/598/439 447/597/437 359/462/350 
f 449/598/439 359/462/350 360/464/351 
f 451/599/441 449/598/439 360/464/351 
f 451/599/441 360/464/351 361/466/352 
f 453/600/443 451/599/441 361/466/352 
f 453/600/443 361/466/352 362/468/353 
f 455/601/445 453/600/443 362/468/353 
f 455/601/445 362/468/353 363/470/354 
f 434/590/424 455/601/445 363/470/354 
f 434/590/424 363/470/354 352/445/343 
f 456/602/446 457/603/447 458/604/448 
f 456/602/446 458/604/448 459/605/449 
f 460/606/450 461/607/451 457/603/447 
f 460/606/450 457/603/447 456/602/446 
f 462/608/452 463/609/453 461/607/451 
f 462/608/452 461/607/451 460/606/450 
f 464/610/454 465/611/455 463/609/453 
f 464/610/454 463/609/453 462/608/452 
f 466/612/456 467/613/457 465/611/455 
f 466/612/456 465/611/455 464/610/454 
f 417/550/407 416/549/406 467/613/457 
f 417/550/407 467/613/457 466/612/456 
f 468/614/458 469/615/459 470/616/460 
f 468/614/458 470/616/460 471/617/461 
f 472/618/462 473/619/463 469/615/459 
f 472/618/462 469/615/459 468/614/458 
f 474/620/464 475/621/465 473/619/463 
f 474/620/464 473/619/463 472/618/462 
f 476/622/466 477/623/467 475/621/465 
f 476/622/466 475/621/465 474/620/464 
f 478/624/468 479/625/469 477/623/467 
f 478/624/468 477/623/467 476/622/466 
f 480/626/470 481/627/471 479/625/469 
f 480/626/470 479/625/469 478/624/468 
f 459/605/449 458/604/448 481/627/471 
f 459/605/449 481/627/471 480/626/470 
f 466/612/456 444/577/434 390/509/380 
f 466/612/456 390/509/380 417/550/407 
f 391/531/381 445/596/435 358/460/349 
f 391/531/381 358/460/349 305/380/298 
f 421/554/411 471/617/461 470/616/460 
f 421/554/411 470/616/460 418/551/408 
f 459/605/449 480/626/470 433/566/423 
f 459/605/449 433/566/423 432/565/422 
f 456/602/446 459/605/449 432/565/422 
f 456/602/446 432/565/422 436/569/426 
f 460/606/450 456/602/446 436/569/426 
f 460/606/450 436/569/426 438/571/428 
f 462/608/452 460/606/450 438/571/428 
f 462/608/452 438/571/428 440/573/430 
f 464/610/454 462/608/452 440/573/430 
f 464/610/454 440/573/430 442/575/432 
f 466/612/456 464/610/454 442/575/432 
f 466/612/456 442/575/432 444/577/434 
f 393/512/383 471/617/461 421/554/411 
f 393/512/383 421/554/411 394/513/384 
f 468/614/458 471/617/461 393/512/383 
f 468/614/458 393/512/383 446/579/436 
f 472/618/462 468/614/458 446/579/436 
f 472/618/462 446/579/436 448/581/438 
f 474/620/464 472/618/462 448/581/438 
f 474/620/464 448/581/438 450/583/440 
f 476/622/466 474/620/464 450/583/440 
f 476/622/466 450/583/440 452/585/442 
f 478/624/468 476/622/466 452/585/442 
f 478/624/468 452/585/442 454/587/444 
f 480/626/470 478/624/468 454/587/444 
f 480/626/470 454/587/444 433/566/423 
f 444/577/434 445/578/435 391/510/381 
f 444/577/434 391/510/381 390/509/380 
f 482/628/472 483/629/473 484/630/474 
f 482/628/472 484/630/474 485/631/475 
f 485/631/475 484/630/474 486/632/476 
f 485/631/475 486/632/476 487/633/477 
f 487/633/477 486/632/476 488/634/478 
f 487/633/477 488/634/478 489/635/479 
f 489/635/479 488/634/478 490/636/480 
f 489/635/479 490/636/480 491/637/481 
f 491/637/481 490/636/480 492/638/482 
f 491/637/481 492/638/482 493/639/483 
f 494/640/484 495/641/485 496/642/486 
f 494/640/484 496/642/486 497/643/487 
f 497/643/487 496/642/486 498/644/488 
f 497/643/487 498/644/488 499/645/489 
f 499/645/489 498/644/488 500/646/490 
f 499/645/489 500/646/490 501/647/491 
f 501/647/491 500/646/490 502/648/492 
f 501/647/491 502/648/492 503/649/493 
f 503/649/493 502/648/492 504/650/494 
f 503/649/493 504/650/494 505/651/495 
f 505/651/495 504/650/494 506/652/496 
f 505/651/495 506/652/496 507/653/497 
f 507/653/497 506/652/496 483/629/473 
f 507/653/497 483/629/473 482/628/472 
f 508/654/498 482/628/472 485/631/475 
f 508/654/498 485/631/475 509/655/499 
f 509/655/499 485/631/475 487/633/477 
f 509/655/499 487/633/477 510/656/500 
f 510/656/500 487/633/477 489/635/479 
f 510/656/500 489/635/479 511/657/501 
f 511/657/501 489/635/479 491/637/481 
f 511/657/501 491/637/481 512/658/502 
f 512/658/502 491/637/481 493/639/483 
f 512/658/502 493/639/483 513/659/503 
f 514/660/504 494/640/484 497/643/487 
f 514/660/504 497/643/487 515/661/505 
f 515/661/505 497/643/487 499/645/489 
f 515/661/505 499/645/489 516/662/506 
f 516/662/506 499/645/489 501/647/491 
f 516/662/506 501/647/491 517/663/507 
f 517/663/507 501/647/491 503/649/493 
f 517/663/507 503/649/493 518/664/508 
f 518/664/508 503/649/493 505/651/495 
f 518/664/508 505/651/495 519/665/509 
f 519/665/509 505/651/495 507/653/497 
f 519/665/509 507/653/497 520/666/510 
f 520/666/510 507/653/497 482/628/472 
f 520/666/510 482/628/472 508/654/498 
f 521/667/511 508/654/498 509/655/499 
f 521/667/511 509/655/499 522/668/512 
f 522/668/512 509/655/499 510/656/500 
f 522/668/512 510/656/500 523/669/513 
f 523/669/513 510/656/500 511/657/501 
f 523/669/513 511/657/501 524/670/514 
f 524/670/514 511/657/501 512/658/502 
f 524/670/514 512/658/502 525/671/515 
f 525/671/515 512/658/502 513/659/503 
f 525/671/515 513/659/503 526/672/516 
f 513/659/503 527/673/517 528/674/518 
f 513/659/503 528/674/518 526/672/516 
f 529/675/519 514/660/504 515/661/505 
f 529/675/519 515/661/505 530/676/520 
f 530/676/520 515/661/505 516/662/506 
f 530/676/520 516/662/506 531/677/521 
f 531/677/521 516/662/506 517/663/507 
f 531/677/521 517/663/507 532/678/522 
f 532/678/522 517/663/507 518/664/508 
f 532/678/522 518/664/508 533/679/523 
f 533/679/523 518/664/508 519/665/509 
f 533/679/523 519/665/509 534/680/524 
f 534/680/524 519/665/509 520/666/510 
f 534/680/524 520/666/510 535/681/525 
f 535/681/525 520/666/510 508/654/498 
f 535/681/525 508/654/498 521/667/511 
f 536/682/526 537/683/527 538/684/528 
f 536/682/526 538/684/528 539/685/529 
f 540/686/530 536/682/526 539/685/529 
f 540/686/530 539/685/529 541/687/531 
f 542/688/532 540/686/530 541/687/531 
f 542/688/532 541/687/531 543/689/533 
f 544/690/534 542/688/532 543/689/533 
f 544/690/534 543/689/533 545/691/535 
f 546/692/536 544/690/534 545/691/535 
f 546/692/536 545/691/535 547/693/537 
f 493/639/483 492/638/482 546/692/536 
f 493/639/483 546/692/536 547/693/537 
f 548/694/538 549/695/539 550/696/540 
f 548/694/538 550/696/540 551/697/541 
f 552/698/542 548/694/538 551/697/541 
f 552/698/542 551/697/541 553/699/543 
f 554/700/544 552/698/542 553/699/543 
f 554/700/544 553/699/543 555/701/545 
f 556/702/546 554/700/544 555/701/545 
f 556/702/546 555/701/545 557/703/547 
f 558/704/548 556/702/546 557/703/547 
f 558/704/548 557/703/547 559/705/549 
f 560/706/550 558/704/548 559/705/549 
f 560/706/550 559/705/549 561/707/551 
f 537/683/527 560/706/550 561/707/551 
f 537/683/527 561/707/551 538/684/528 
f 549/695/539 495/641/485 494/640/484 
f 549/695/539 494/640/484 550/696/540 
f 539/685/529 538/684/528 562/708/552 
f 539/685/529 562/708/552 563/709/553 
f 541/687/531 539/685/529 563/709/553 
f 541/687/531 563/709/553 564/710/554 
f 543/689/533 541/687/531 564/710/554 
f 543/689/533 564/710/554 565/711/555 
f 545/691/535 543/689/533 565/711/555 
f 545/691/535 565/711/555 566/712/556 
f 547/693/537 545/691/535 566/712/556 
f 547/693/537 566/712/556 527/673/517 
f 513/659/503 493/639/483 547/693/537 
f 513/659/503 547/693/537 527/673/517 
f 551/697/541 550/696/540 567/713/557 
f 551/697/541 567/713/557 568/714/558 
f 553/699/543 551/697/541 568/714/558 
f 553/699/543 568/714/558 569/715/559 
f 555/701/545 553/699/543 569/715/559 
f 555/701/545 569/715/559 570/716/560 
f 557/703/547 555/701/545 570/716/560 
f 557/703/547 570/716/560 571/717/561 
f 559/705/549 557/703/547 571/717/561 
f 559/705/549 571/717/561 572/718/562 
f 561/707/551 559/705/549 572/718/562 
f 561/707/551 572/718/562 573/719/563 
f 538/684/528 561/707/551 573/719/563 
f 538/684/528 573/719/563 562/708/552 
f 550/696/540 494/640/484 514/660/504 
f 550/696/540 514/660/504 567/713/557 
f 574/720/564 575/721/565 563/709/553 
f 574/720/564 563/709/553 562/708/552 
f 575/721/565 576/722/566 564/710/554 
f 575/721/565 564/710/554 563/709/553 
f 576/722/566 577/723/567 565/711/555 
f 576/722/566 565/711/555 564/710/554 
f 577/723/567 578/724/568 566/712/556 
f 577/723/567 566/712/556 565/711/555 
f 578/724/568 528/674/518 527/673/517 
f 578/724/568 527/673/517 566/712/556 
f 529/675/519 579/725/569 567/713/557 
f 529/675/519 567/713/557 514/660/504 
f 579/725/569 580/726/570 568/714/558 
f 579/725/569 568/714/558 567/713/557 
f 580/726/570 581/727/571 569/715/559 
f 580/726/570 569/715/559 568/714/558 
f 581/727/571 582/728/572 570/716/560 
f 581/727/571 570/716/560 569/715/559 
f 582/728/572 583/729/573 571/717/561 
f 582/728/572 571/717/561 570/716/560 
f 583/729/573 584/730/574 572/718/562 
f 583/729/573 572/718/562 571/717/561 
f 584/730/574 585/731/575 573/719/563 
f 584/730/574 573/719/563 572/718/562 
f 585/731/575 574/720/564 562/708/552 
f 585/731/575 562/708/552 573/719/563 
f 406/732/396 521/733/511 522/734/512 
f 406/732/396 522/734/512 407/735/397 
f 407/735/397 522/734/512 523/736/513 
f 407/735/397 523/736/513 410/737/400 
f 410/738/400 523/739/513 524/740/514 
f 410/738/400 524/740/514 412/741/402 
f 412/741/402 524/740/514 525/742/515 
f 412/741/402 525/742/515 414/743/404 
f 414/743/404 525/742/515 526/744/516 
f 414/743/404 526/744/516 416/745/406 
f 416/745/406 526/744/516 528/746/518 
f 416/745/406 528/746/518 467/747/457 
f 467/747/457 528/746/518 578/748/568 
f 467/747/457 578/748/568 465/749/455 
f 465/749/455 578/748/568 577/750/567 
f 465/749/455 577/750/567 463/751/453 
f 463/751/453 577/750/567 576/752/566 
f 463/751/453 576/752/566 461/753/451 
f 461/754/451 576/755/566 575/756/565 
f 461/754/451 575/756/565 457/757/447 
f 457/757/447 575/756/565 574/758/564 
f 457/757/447 574/758/564 458/759/448 
f 458/759/448 574/758/564 585/760/575 
f 458/759/448 585/760/575 481/761/471 
f 481/761/471 585/760/575 584/762/574 
f 481/761/471 584/762/574 479/763/469 
f 479/763/469 584/762/574 583/764/573 
f 479/763/469 583/764/573 477/765/467 
f 477/765/467 583/764/573 582/766/572 
f 477/765/467 582/766/572 475/767/465 
f 475/768/465 582/769/572 581/770/571 
f 475/768/465 581/770/571 473/771/463 
f 473/771/463 581/770/571 580/772/570 
f 473/771/463 580/772/570 469/773/459 
f 469/773/459 580/772/570 579/774/569 
f 469/773/459 579/774/569 470/775/460 
f 470/775/460 579/774/569 529/776/519 
f 470/775/460 529/776/519 418/777/408 
f 418/777/408 529/776/519 530/778/520 
f 418/777/408 530/778/520 419/779/409 
f 419/779/409 530/778/520 531/780/521 
f 419/779/409 531/780/521 422/781/412 
f 422/781/412 531/780/521 532/782/522 
f 422/781/412 532/782/522 424/783/414 
f 424/784/414 532/785/522 533/786/523 
f 424/784/414 533/786/523 426/787/416 
f 426/787/416 533/786/523 534/788/524 
f 426/787/416 534/788/524 428/789/418 
f 428/789/418 534/788/524 535/790/525 
f 428/789/418 535/790/525 430/791/420 
f 430/791/420 535/790/525 521/733/511 
f 430/791/420 521/733/511 406/732/396 
f 558/704/548 560/706/550 586/792/576 
f 558/704/548 586/792/576 556/702/546 
f 556/702/546 586/792/576 587/793/576 
f 556/702/546 587/793/576 554/700/544 
f 554/700/544 587/793/576 588/794/576 
f 554/700/544 588/794/576 552/698/542 
f 552/698/542 588/794/576 589/795/577 
f 552/698/542 589/795/577 548/694/538 
f 548/694/538 589/795/577 590/796/577 
f 548/694/538 590/796/577 549/695/539 
f 549/695/539 590/796/577 591/797/576 
f 549/695/539 591/797/576 495/641/485 
f 496/642/486 495/641/485 591/797/576 
f 496/642/486 591/797/576 592/798/576 
f 498/644/488 496/642/486 592/798/576 
f 498/644/488 592/798/576 593/799/576 
f 500/646/490 498/644/488 593/799/576 
f 500/646/490 593/799/576 594/800/576 
f 502/648/492 500/646/490 594/800/576 
f 502/648/492 594/800/576 595/801/576 
f 504/650/494 502/648/492 595/801/576 
f 504/650/494 595/801/576 506/652/496 
f 537/683/527 536/682/526 586/792/576 
f 537/683/527 586/792/576 560/706/550 
f 536/682/526 540/686/530 587/793/576 
f 536/682/526 587/793/576 586/792/576 
f 540/686/530 542/688/532 588/794/576 
f 540/686/530 588/794/576 587/793/576 
f 542/688/532 544/690/534 589/795/577 
f 542/688/532 589/795/577 588/794/576 
f 544/690/534 546/692/536 590/796/577 
f 544/690/534 590/796/577 589/795/577 
f 546/692/536 492/638/482 591/797/576 
f 546/692/536 591/797/576 590/796/577 
f 591/797/576 492/638/482 490/636/480 
f 591/797/576 490/636/480 592/798/576 
f 592/798/576 490/636/480 488/634/478 
f 592/798/576 488/634/478 593/799/576 
f 593/799/576 488/634/478 486/632/476 
f 593/799/576 486/632/476 594/800/576 
f 594/800/576 486/632/476 484/630/474 
f 594/800/576 484/630/474 595/801/576 
f 595/801/576 484/630/474 483/629/473 
f 595/801/576 483/629/473 506/652/496 
# 0 polygons - 1180 triangles

