# 3ds Max Wavefront OBJ Exporter v0.99 - (c)2007 guruware
# File Created: 22.03.2025 13:00:24

mtllib llantaderDelantera.mtl

#
# object Wheel_F_R_2_0
#

v  2.7185 1.1576 1.2044
v  2.7200 1.1576 1.3015
v  2.7194 0.8573 1.2651
v  2.7176 0.5746 1.1579
v  2.7154 1.1578 1.0240
v  2.7148 0.3256 0.9860
v  2.7117 1.1576 0.7983
v  2.7110 0.1250 0.7597
v  2.7066 1.1576 0.5004
v  2.7065 -0.0156 0.4918
v  2.7026 1.1578 0.2609
v  2.7016 -0.0880 0.1982
v  2.7176 1.7407 1.1579
v  2.7194 1.4578 1.2651
v  2.7148 1.9896 0.9860
v  2.7110 2.1902 0.7597
v  2.7065 2.3307 0.4918
v  2.7016 2.4031 0.1982
v  1.8759 1.9725 3.3673
v  2.3546 1.8165 2.7265
v  2.3507 2.4371 2.4911
v  1.8710 2.7400 3.0762
v  2.3443 2.9834 2.1142
v  1.8632 3.4155 2.6100
v  2.3360 3.4236 1.6174
v  1.8529 3.9598 1.9957
v  2.3262 3.7320 1.0298
v  1.8409 4.3413 1.2689
v  2.3154 3.8909 0.3854
v  1.8275 4.5377 0.4720
v  1.8275 -2.2225 0.4720
v  2.3154 -1.5757 0.3854
v  2.3262 -1.4168 1.0298
v  1.8409 -2.0260 1.2689
v  2.3360 -1.1083 1.6174
v  1.8529 -1.6446 1.9957
v  2.3443 -0.6682 2.1142
v  1.8632 -1.1003 2.6100
v  2.3506 -0.1219 2.4911
v  1.8710 -0.4248 3.0762
v  2.3546 0.4987 2.7265
v  1.8759 0.3428 3.3673
v  2.3559 1.1576 2.8065
v  1.8775 1.1576 3.4661
v  1.6634 2.1570 4.1193
v  1.0535 2.0654 3.7581
v  1.0481 2.9204 3.4338
v  1.6574 3.0981 3.7624
v  1.0394 3.6730 2.9145
v  1.6478 3.9266 3.1906
v  1.0280 4.2795 2.2301
v  1.6352 4.5942 2.4373
v  1.0145 4.7044 1.4204
v  1.6204 5.0620 1.5460
v  0.9996 4.9233 0.5327
v  1.6040 5.3029 0.5687
v  1.6040 -2.9877 0.5687
v  0.9997 -2.6080 0.5328
v  1.0145 -2.3892 1.4204
v  1.6204 -2.7468 1.5460
v  1.0280 -1.9642 2.2301
v  1.6352 -2.2790 2.4373
v  1.0394 -1.3578 2.9145
v  1.6478 -1.6115 3.1906
v  1.0481 -0.6053 3.4338
v  1.6574 -0.7830 3.7624
v  1.0535 0.2498 3.7581
v  1.6634 0.1583 4.1193
v  1.0554 1.1576 3.8683
v  1.6654 1.1576 4.2406
v  1.9530 2.2704 4.5750
v  1.9464 3.3186 4.1775
v  1.9357 4.2411 3.5408
v  1.9217 4.9844 2.7019
v  1.9051 5.5054 1.7095
v  1.8869 5.7736 0.6212
v  1.8869 -3.4585 0.6212
v  1.9051 -3.1902 1.7095
v  1.9217 -2.6693 2.7019
v  1.9357 -1.9259 3.5408
v  1.9464 -1.0033 4.1775
v  1.9530 0.0448 4.5750
v  1.9552 1.1576 4.7101
v  2.2082 2.3756 4.9973
v  2.2009 3.5227 4.5624
v  2.1892 4.5324 3.8655
v  2.1740 5.3461 2.9472
v  2.1558 5.9162 1.8611
v  2.1359 6.2098 0.6700
v  1.8682 5.7736 -0.4997
v  2.1154 6.2098 -0.5567
v  2.1359 -3.8946 0.6700
v  2.1558 -3.6010 1.8611
v  2.1740 -3.0308 2.9472
v  2.1892 -2.2172 3.8655
v  2.2009 -1.2075 4.5624
v  2.2082 -0.0603 4.9973
v  2.2107 1.1576 5.1452
v  2.4334 1.7792 2.5733
v  2.4297 2.3645 2.3514
v  2.3623 2.3668 2.3570
v  2.3660 1.7803 2.5794
v  2.4238 2.8798 1.9958
v  2.3564 2.8831 2.0007
v  2.4159 3.2950 1.5272
v  2.3485 3.2991 1.5312
v  2.4066 3.5859 0.9730
v  2.3392 3.5906 0.9759
v  2.3965 3.7358 0.3652
v  2.3291 3.7407 0.3669
v  2.3965 -1.4205 0.3652
v  2.4066 -1.2707 0.9730
v  2.3392 -1.2754 0.9759
v  2.3291 -1.4254 0.3669
v  2.4159 -0.9797 1.5272
v  2.3485 -0.9839 1.5312
v  2.4238 -0.5645 1.9958
v  2.3564 -0.5679 2.0007
v  2.4297 -0.0493 2.3514
v  2.3623 -0.0516 2.3570
v  2.4334 0.5361 2.5733
v  2.3660 0.5349 2.5794
v  2.4347 1.1576 2.6489
v  2.3672 1.1576 2.6550
v  2.6788 0.8573 -1.1711
v  2.6781 1.1576 -1.2075
v  2.6798 1.1576 -1.1104
v  2.6805 0.5746 -1.0638
v  2.6828 1.1578 -0.9300
v  2.6834 0.3256 -0.8920
v  2.6866 1.1576 -0.7042
v  2.6872 0.1250 -0.6656
v  2.6915 1.1576 -0.4064
v  2.6917 -0.0156 -0.3979
v  2.6955 1.1578 -0.1668
v  2.6966 -0.0880 -0.1042
v  2.6788 1.4578 -1.1711
v  2.6805 1.7407 -1.0638
v  2.6834 1.9896 -0.8920
v  2.6872 2.1902 -0.6656
v  2.6917 2.3307 -0.3979
v  2.6966 2.4031 -0.1042
v  2.2692 2.4371 -2.3841
v  2.2653 1.8165 -2.6194
v  1.7654 1.9725 -3.2438
v  1.7703 2.7400 -2.9528
v  2.2755 2.9834 -2.0071
v  1.7781 3.4155 -2.4866
v  2.2838 3.4236 -1.5103
v  1.7883 3.9598 -1.8723
v  2.2936 3.7320 -0.9227
v  1.8005 4.3413 -1.1456
v  2.3043 3.8909 -0.2783
v  1.8138 4.5377 -0.3487
v  2.2936 -1.4168 -0.9227
v  2.3043 -1.5757 -0.2783
v  1.8138 -2.2225 -0.3487
v  1.8005 -2.0260 -1.1456
v  2.2838 -1.1083 -1.5103
v  1.7883 -1.6446 -1.8723
v  2.2755 -0.6682 -2.0071
v  1.7781 -1.1003 -2.4866
v  2.2692 -0.1220 -2.3841
v  1.7703 -0.4248 -2.9528
v  2.2653 0.4987 -2.6194
v  1.7655 0.3428 -3.2439
v  2.2639 1.1576 -2.6994
v  1.7638 1.1576 -3.3428
v  0.9359 2.9204 -3.2828
v  0.9305 2.0654 -3.6070
v  1.5279 2.1570 -3.9884
v  1.5339 3.0981 -3.6315
v  0.9446 3.6730 -2.7634
v  1.5434 3.9266 -3.0597
v  0.9560 4.2795 -2.0790
v  1.5560 4.5942 -2.3063
v  0.9695 4.7044 -1.2694
v  1.5709 5.0620 -1.4151
v  0.9844 4.9233 -0.3817
v  1.5872 5.3029 -0.4378
v  0.9695 -2.3892 -1.2694
v  0.9844 -2.6080 -0.3817
v  1.5872 -2.9877 -0.4378
v  1.5709 -2.7468 -1.4151
v  0.9560 -1.9642 -2.0790
v  1.5560 -2.2790 -2.3063
v  0.9446 -1.3578 -2.7634
v  1.5434 -1.6115 -3.0597
v  0.9359 -0.6053 -3.2828
v  1.5339 -0.7830 -3.6315
v  0.9305 0.2498 -3.6070
v  1.5279 0.1583 -3.9884
v  0.9286 1.1576 -3.7173
v  1.5259 1.1576 -4.1097
v  1.8021 2.2704 -4.4535
v  1.8088 3.3186 -4.0560
v  1.8194 4.2411 -3.4193
v  1.8335 4.9844 -2.5804
v  1.8500 5.5054 -1.5880
v  1.8682 -3.4585 -0.4997
v  1.8500 -3.1902 -1.5880
v  1.8335 -2.6693 -2.5804
v  1.8194 -1.9259 -3.4193
v  1.8088 -1.0033 -4.0560
v  1.8021 0.0448 -4.4535
v  1.7999 1.1576 -4.5886
v  2.0431 2.3756 -4.8841
v  2.0504 3.5227 -4.4491
v  2.0620 4.5324 -3.7523
v  2.0774 5.3461 -2.8341
v  2.0955 5.9162 -1.7478
v  2.1154 -3.8946 -0.5567
v  2.0955 -3.6010 -1.7478
v  2.0774 -3.0308 -2.8341
v  2.0620 -2.2172 -3.7523
v  2.0504 -1.2075 -4.4491
v  2.0431 -0.0603 -4.8841
v  2.0406 1.1576 -5.0320
v  2.2853 2.3668 -2.2504
v  2.3528 2.3645 -2.2471
v  2.3491 1.7791 -2.4690
v  2.2816 1.7803 -2.4728
v  2.2913 2.8831 -1.8941
v  2.3588 2.8798 -1.8914
v  2.2991 3.2991 -1.4246
v  2.3666 3.2950 -1.4229
v  2.3084 3.5906 -0.8693
v  2.3759 3.5859 -0.8687
v  2.3185 3.7407 -0.2603
v  2.3860 3.7358 -0.2609
v  2.3185 -1.4254 -0.2603
v  2.3860 -1.4205 -0.2609
v  2.3084 -1.2754 -0.8693
v  2.3759 -1.2707 -0.8687
v  2.2991 -0.9839 -1.4246
v  2.3666 -0.9797 -1.4229
v  2.2913 -0.5679 -1.8941
v  2.3588 -0.5645 -1.8914
v  2.2853 -0.0517 -2.2504
v  2.3528 -0.0493 -2.2471
v  2.2816 0.5349 -2.4728
v  2.3491 0.5361 -2.4690
v  2.2804 1.1576 -2.5484
v  2.3479 1.1576 -2.5445
v  2.0405 2.3925 5.0689
v  2.0331 3.5556 4.6278
v  2.0212 4.5793 3.9212
v  2.0057 5.4042 2.9903
v  1.9873 5.9823 1.8890
v  1.9671 6.2800 0.6813
v  1.9464 6.2800 -0.5625
v  1.9262 5.9823 -1.7701
v  1.9078 5.4042 -2.8714
v  1.8923 4.5793 -3.8024
v  1.8804 3.5556 -4.5089
v  1.8731 2.3925 -4.9500
v  1.8706 1.1576 -5.0999
v  1.8731 -0.0772 -4.9500
v  1.8804 -1.2404 -4.5089
v  1.8923 -2.2642 -3.8024
v  1.9078 -3.0890 -2.8714
v  1.9262 -3.6671 -1.7701
v  1.9464 -3.9648 -0.5625
v  1.9672 -3.9648 0.6814
v  1.9873 -3.6671 1.8890
v  2.0057 -3.0890 2.9903
v  2.0212 -2.2642 3.9212
v  2.0331 -1.2404 4.6278
v  2.0405 -0.0772 5.0689
v  2.0429 1.1576 5.2187
v  1.5730 1.1576 7.8159
v  1.8993 1.1576 7.0677
v  1.8959 2.8343 6.8641
v  1.5692 3.0121 7.5907
v  1.8858 4.4136 6.2653
v  1.5581 4.7587 6.9284
v  1.8698 5.8036 5.3059
v  1.5405 6.2961 5.8674
v  1.8488 6.9237 4.0418
v  1.5171 7.5348 4.4693
v  1.8237 7.7086 2.5464
v  1.4894 8.4030 2.8154
v  1.7963 8.1129 0.9068
v  1.4592 8.8500 1.0019
v  1.4279 -6.5349 -0.8659
v  1.7682 -5.7976 -0.7820
v  1.7964 -5.7976 0.9068
v  1.4592 -6.5349 1.0019
v  1.8237 -5.3934 2.5464
v  1.4894 -6.0878 2.8155
v  1.8488 -4.6085 4.0418
v  1.5171 -5.2197 4.4693
v  1.8698 -3.4885 5.3059
v  1.5405 -3.9809 5.8674
v  1.8858 -2.0984 6.2653
v  1.5581 -2.4435 6.9284
v  1.8959 -0.5191 6.8642
v  1.5692 -0.6968 7.5907
v  0.0300 1.1576 7.8416
v  0.0262 3.0121 7.6165
v  0.0152 4.7587 6.9541
v  -0.0025 6.2961 5.8932
v  -0.0259 7.5348 4.4951
v  -0.0535 8.4030 2.8412
v  -0.0838 8.8500 1.0277
v  -0.0838 -6.5349 1.0277
v  -0.1150 -6.5349 -0.8402
v  -0.0535 -6.0878 2.8412
v  -0.0259 -5.2197 4.4951
v  -0.0025 -3.9809 5.8932
v  0.0152 -2.4435 6.9541
v  0.0262 -0.6968 7.6165
v  2.0463 3.9679 5.4132
v  2.0548 2.6048 5.9301
v  2.0213 4.5793 3.9212
v  2.0324 5.1677 4.5852
v  2.0142 6.1344 3.4942
v  1.9926 6.8119 2.2035
v  1.9689 7.1608 0.7882
v  1.9671 -3.9648 0.6813
v  1.9926 -4.4967 2.2035
v  1.9689 -4.8456 0.7882
v  2.0142 -3.8192 3.4942
v  2.0213 -2.2642 3.9212
v  2.0324 -2.8525 4.5852
v  2.0463 -1.6527 5.4132
v  2.0548 -0.2896 5.9301
v  2.0578 1.1576 6.1058
v  1.6686 2.8343 -6.7394
v  1.6652 1.1576 -6.9430
v  1.3141 1.1576 -7.6799
v  1.3178 3.0121 -7.4547
v  1.6786 4.4136 -6.1406
v  1.3289 4.7587 -6.7924
v  1.6946 5.8036 -5.1812
v  1.3467 6.2961 -5.7314
v  1.7157 6.9237 -3.9172
v  1.3700 7.5348 -4.3333
v  1.7407 7.7086 -2.4218
v  1.3976 8.4030 -2.6794
v  1.7682 8.1129 -0.7820
v  1.4279 8.8500 -0.8659
v  1.7407 -5.3934 -2.4218
v  1.3976 -6.0878 -2.6794
v  1.7158 -4.6085 -3.9172
v  1.3700 -5.2197 -4.3333
v  1.6946 -3.4885 -5.1812
v  1.3467 -3.9809 -5.7314
v  1.6786 -2.0984 -6.1406
v  1.3289 -2.4435 -6.7924
v  1.6686 -0.5191 -6.7394
v  1.3178 -0.6968 -7.4547
v  -0.2289 1.1576 -7.6541
v  -0.2251 3.0121 -7.4290
v  -0.2140 4.7587 -6.7667
v  -0.1963 6.2961 -5.7056
v  -0.1730 7.5348 -4.3076
v  -0.1453 8.4030 -2.6536
v  -0.1150 8.8500 -0.8402
v  -0.1453 -6.0878 -2.6536
v  -0.1730 -5.2197 -4.3076
v  -0.1963 -3.9809 -5.7056
v  -0.2140 -2.4435 -6.7667
v  -0.2251 -0.6968 -7.4290
v  1.8673 3.9679 -5.2945
v  1.8805 3.5556 -4.5090
v  1.8587 2.6048 -5.8113
v  1.8812 5.1677 -4.4664
v  1.8994 6.1344 -3.3753
v  1.9210 6.8119 -2.0847
v  1.9446 7.1608 -0.6694
v  1.9210 -4.4967 -2.0847
v  1.9446 -4.8456 -0.6694
v  1.8994 -3.8192 -3.3753
v  1.8811 -2.8525 -4.4664
v  1.8673 -1.6527 -5.2945
v  1.8805 -1.2404 -4.5090
v  1.8587 -0.2896 -5.8113
v  1.8558 1.1576 -5.9870
v  -1.8674 2.8343 6.9270
v  -1.8640 1.1576 7.1306
v  -1.5129 1.1576 7.8674
v  -1.5167 3.0121 7.6423
v  -1.8774 4.4136 6.3282
v  -1.5278 4.7587 6.9799
v  -1.8935 5.8036 5.3688
v  -1.5455 6.2961 5.9189
v  -1.9146 6.9237 4.1047
v  -1.5688 7.5348 4.5208
v  -1.9396 7.7086 2.6093
v  -1.5965 8.4030 2.8670
v  -1.9669 8.1129 0.9696
v  -1.6268 8.8500 1.0534
v  -1.9669 -5.7976 0.9696
v  -1.9952 -5.7976 -0.7192
v  -1.6580 -6.5349 -0.8144
v  -1.6268 -6.5349 1.0535
v  -1.9396 -5.3934 2.6093
v  -1.5965 -6.0878 2.8670
v  -1.9146 -4.6085 4.1047
v  -1.5688 -5.2197 4.5208
v  -1.8935 -3.4885 5.3688
v  -1.5455 -3.9809 5.9189
v  -1.8774 -2.0984 6.3282
v  -1.5278 -2.4435 6.9799
v  -1.8674 -0.5191 6.9270
v  -1.5167 -0.6968 7.6423
v  -2.0661 3.9679 5.4820
v  -2.0792 3.5556 4.6965
v  -2.0719 2.3925 5.1375
v  -2.0575 2.6048 5.9988
v  -2.0800 5.1677 4.6539
v  -2.0910 4.5793 3.9899
v  -2.0982 6.1344 3.5629
v  -2.1066 5.4042 3.0590
v  -2.1197 6.8119 2.2722
v  -2.1251 5.9823 1.9577
v  -2.1434 7.1608 0.8570
v  -2.1452 6.2800 0.7500
v  -2.1197 -4.4967 2.2722
v  -2.1251 -3.6671 1.9577
v  -2.1452 -3.9648 0.7500
v  -2.1434 -4.8456 0.8570
v  -2.0982 -3.8192 3.5629
v  -2.1066 -3.0890 3.0590
v  -2.0800 -2.8525 4.6540
v  -2.0910 -2.2642 3.9899
v  -2.0661 -1.6527 5.4820
v  -2.0792 -1.2404 4.6965
v  -2.0575 -0.2896 5.9988
v  -2.0719 -0.0772 5.1375
v  -2.0546 1.1576 6.1746
v  -2.0694 1.1576 5.2875
v  -1.7718 1.1576 -7.6283
v  -2.0980 1.1576 -6.8801
v  -2.0947 2.8343 -6.6766
v  -1.7680 3.0121 -7.4032
v  -2.0847 4.4136 -6.0777
v  -1.7570 4.7587 -6.7409
v  -2.0687 5.8036 -5.1184
v  -1.7392 6.2961 -5.6798
v  -2.0475 6.9237 -3.8543
v  -1.7159 7.5348 -4.2818
v  -2.0226 7.7086 -2.3589
v  -1.6883 8.4030 -2.6278
v  -1.9952 8.1129 -0.7192
v  -1.6580 8.8500 -0.8144
v  -2.0225 -5.3934 -2.3590
v  -1.6883 -6.0878 -2.6279
v  -2.0475 -4.6085 -3.8543
v  -1.7159 -5.2197 -4.2818
v  -2.0687 -3.4885 -5.1184
v  -1.7392 -3.9809 -5.6798
v  -2.0847 -2.0984 -6.0777
v  -1.7570 -2.4435 -6.7409
v  -2.0947 -0.5191 -6.6766
v  -1.7680 -0.6968 -7.4032
v  -2.2393 2.3925 -4.8813
v  -2.2319 3.5556 -4.4403
v  -2.2450 3.9679 -5.2257
v  -2.2537 2.6048 -5.7426
v  -2.2201 4.5793 -3.7337
v  -2.2312 5.1677 -4.3977
v  -2.2046 5.4042 -2.8027
v  -2.2130 6.1344 -3.3067
v  -2.1862 5.9823 -1.7014
v  -2.1914 6.8119 -2.0160
v  -2.1660 6.2800 -0.4937
v  -2.1678 7.1608 -0.6007
v  -2.1660 -3.9648 -0.4938
v  -2.1862 -3.6671 -1.7014
v  -2.1914 -4.4967 -2.0160
v  -2.1678 -4.8456 -0.6007
v  -2.2046 -3.0890 -2.8027
v  -2.2130 -3.8192 -3.3067
v  -2.2201 -2.2642 -3.7337
v  -2.2312 -2.8525 -4.3977
v  -2.2319 -1.2404 -4.4403
v  -2.2450 -1.6527 -5.2257
v  -2.2393 -0.0772 -4.8813
v  -2.2537 -0.2896 -5.7426
v  -2.2418 1.1576 -5.0312
v  -2.2566 1.1576 -5.9184
v  -1.1565 2.2349 2.1643
v  -1.1533 1.7124 2.3625
v  -1.7267 2.1570 4.1759
v  -1.7327 3.0981 3.8190
v  -1.1618 2.6949 1.8469
v  -1.7423 3.9266 3.2472
v  -1.1688 3.0654 1.4287
v  -1.7548 4.5942 2.4939
v  -1.1771 3.3251 0.9340
v  -1.7697 5.0620 1.6026
v  -1.1862 3.4588 0.3914
v  -1.7860 5.3029 0.6253
v  -1.1771 -1.0099 0.9340
v  -1.1862 -1.1437 0.3914
v  -1.7860 -2.9877 0.6253
v  -1.7697 -2.7468 1.6026
v  -1.1688 -0.7502 1.4287
v  -1.7548 -2.2790 2.4939
v  -1.1618 -0.3796 1.8469
v  -1.7423 -1.6115 3.2472
v  -1.1565 0.0803 2.1643
v  -1.7327 -0.7830 3.8190
v  -1.1533 0.6029 2.3625
v  -1.7267 0.1583 4.1759
v  -1.1521 1.1576 2.4299
v  -1.7247 1.1576 4.2972
v  -2.0010 2.2704 4.6410
v  -2.0076 3.3186 4.2435
v  -2.0183 4.2411 3.6069
v  -2.0323 4.9844 2.7679
v  -2.0489 5.5054 1.7755
v  -2.0671 5.7736 0.6872
v  -2.0671 -3.4585 0.6872
v  -2.0489 -3.1902 1.7755
v  -2.0323 -2.6693 2.7679
v  -2.0183 -1.9259 3.6069
v  -2.0077 -1.0033 4.2435
v  -2.0010 0.0448 4.6410
v  -1.9988 1.1576 4.7761
v  -2.2419 2.3756 5.0717
v  -2.2492 3.5227 4.6367
v  -2.2609 4.5324 3.9399
v  -2.2761 5.3461 3.0216
v  -2.2943 5.9162 1.9354
v  -2.3143 6.2098 0.7443
v  -2.3347 6.2098 -0.4824
v  -2.0858 5.7736 -0.4336
v  -2.3143 -3.8946 0.7443
v  -2.2943 -3.6010 1.9354
v  -2.2761 -3.0308 3.0216
v  -2.2609 -2.2172 3.9399
v  -2.2492 -1.2075 4.6367
v  -2.2419 -0.0603 5.0717
v  -2.2395 1.1576 5.2195
v  -1.8622 2.1570 -3.9318
v  -1.2284 1.7124 -2.1385
v  -1.2251 2.2349 -1.9403
v  -1.8562 3.0981 -3.5749
v  -1.2198 2.6949 -1.6229
v  -1.8467 3.9266 -3.0030
v  -1.2128 3.0654 -1.2047
v  -1.8341 4.5942 -2.2497
v  -1.2045 3.3251 -0.7099
v  -1.8192 5.0620 -1.3585
v  -1.1955 3.4588 -0.1674
v  -1.8029 5.3029 -0.3812
v  -1.8029 -2.9877 -0.3812
v  -1.1955 -1.1437 -0.1674
v  -1.2045 -1.0099 -0.7099
v  -1.8192 -2.7468 -1.3585
v  -1.2128 -0.7502 -1.2047
v  -1.8341 -2.2790 -2.2497
v  -1.2198 -0.3796 -1.6229
v  -1.8467 -1.6115 -3.0031
v  -1.2251 0.0803 -1.9403
v  -1.8562 -0.7830 -3.5749
v  -1.2284 0.6029 -2.1385
v  -1.8622 0.1583 -3.9318
v  -1.2296 1.1576 -2.2059
v  -1.8642 1.1576 -4.0531
v  -2.1519 2.2704 -4.3874
v  -2.1452 3.3186 -3.9899
v  -2.1346 4.2411 -3.3533
v  -2.1205 4.9844 -2.5143
v  -2.1040 5.5054 -1.5219
v  -2.0858 -3.4585 -0.4336
v  -2.1040 -3.1902 -1.5219
v  -2.1205 -2.6693 -2.5143
v  -2.1346 -1.9259 -3.3533
v  -2.1452 -1.0033 -3.9899
v  -2.1519 0.0448 -4.3874
v  -2.1541 1.1576 -4.5226
v  -2.4071 2.3756 -4.8098
v  -2.3998 3.5227 -4.3748
v  -2.3881 4.5324 -3.6779
v  -2.3727 5.3461 -2.7597
v  -2.3546 5.9162 -1.6735
v  -2.3347 -3.8946 -0.4824
v  -2.3546 -3.6010 -1.6735
v  -2.3727 -3.0308 -2.7597
v  -2.3881 -2.2172 -3.6779
v  -2.3998 -1.2075 -4.3748
v  -2.4071 -0.0603 -4.8098
v  -2.4095 1.1576 -4.9577
v  -1.2251 1.1576 -1.9403
v  -1.2198 1.1576 -1.6229
v  -1.2128 1.1576 -1.2047
v  -1.2045 1.1576 -0.7099
v  -1.1955 1.1576 -0.1674
v  -1.1862 1.1576 0.3914
v  -1.1771 1.1576 0.9340
v  -1.1688 1.1576 1.4287
v  -1.1618 1.1576 1.8469
v  -1.1565 1.1576 2.1643
# 597 vertices

vn 0.9872 0.0000 0.1597
vn 0.9606 -0.0000 0.2780
vn 0.9612 -0.0290 0.2745
vn 0.9628 -0.0562 0.2643
vn 0.9655 -0.0802 0.2479
vn 0.9689 -0.0996 0.2264
vn 0.9731 -0.1131 0.2009
vn 0.9776 -0.1201 0.1729
vn 0.9628 0.0562 0.2643
vn 0.9612 0.0290 0.2745
vn 0.9654 0.0802 0.2479
vn 0.9689 0.0996 0.2264
vn 0.9731 0.1131 0.2009
vn 0.9776 0.1201 0.1729
vn 0.4923 0.1874 0.8500
vn 0.8555 0.0904 0.5098
vn 0.8607 0.1755 0.4779
vn 0.5030 0.3640 0.7839
vn 0.8690 0.2504 0.4269
vn 0.5202 0.5194 0.6780
vn 0.8798 0.3108 0.3596
vn 0.5427 0.6446 0.5385
vn 0.8927 0.3531 0.2800
vn 0.5694 0.7323 0.3735
vn 0.9068 0.3748 0.1928
vn 0.5987 0.7775 0.1925
vn 0.5987 -0.7775 0.1925
vn 0.9068 -0.3748 0.1928
vn 0.8927 -0.3531 0.2800
vn 0.5694 -0.7323 0.3735
vn 0.8798 -0.3108 0.3596
vn 0.5427 -0.6446 0.5385
vn 0.8690 -0.2504 0.4269
vn 0.5202 -0.5194 0.6780
vn 0.8607 -0.1755 0.4779
vn 0.5030 -0.3640 0.7839
vn 0.8555 -0.0904 0.5098
vn 0.4923 -0.1874 0.8500
vn 0.8538 0.0000 0.5206
vn 0.4887 -0.0000 0.8724
vn 0.8233 -0.1646 -0.5432
vn 0.9878 -0.0010 0.1556
vn 0.9878 -0.0020 0.1559
vn 0.8140 -0.3196 -0.4851
vn 0.9877 -0.0028 0.1565
vn 0.7989 -0.4560 -0.3922
vn 0.9875 -0.0035 0.1573
vn 0.7791 -0.5659 -0.2697
vn 0.9874 -0.0040 0.1582
vn 0.7557 -0.6430 -0.1248
vn 0.9872 -0.0042 0.1592
vn 0.7300 -0.6826 0.0341
vn 0.7300 0.6826 0.0341
vn 0.9872 0.0042 0.1592
vn 0.9874 0.0040 0.1582
vn 0.7557 0.6430 -0.1248
vn 0.9875 0.0035 0.1573
vn 0.7791 0.5659 -0.2697
vn 0.9877 0.0028 0.1565
vn 0.7989 0.4560 -0.3922
vn 0.9878 0.0020 0.1559
vn 0.8140 0.3196 -0.4851
vn 0.9878 0.0010 0.1556
vn 0.8233 0.1646 -0.5432
vn 0.9878 0.0000 0.1555
vn 0.8265 0.0000 -0.5629
vn 0.9321 -0.1199 -0.3418
vn 0.9253 -0.2327 -0.2995
vn 0.9143 -0.3321 -0.2318
vn 0.8999 -0.4121 -0.1426
vn 0.8828 -0.4683 -0.0371
vn 0.8641 -0.4971 0.0786
vn 0.8641 0.4971 0.0786
vn 0.8828 0.4683 -0.0371
vn 0.8999 0.4122 -0.1426
vn 0.9143 0.3321 -0.2318
vn 0.9253 0.2327 -0.2995
vn 0.9321 0.1198 -0.3418
vn 0.9344 -0.0000 -0.3562
vn 0.8578 0.0894 0.5062
vn 0.8629 0.1736 0.4747
vn 0.8710 0.2478 0.4242
vn 0.8818 0.3075 0.3576
vn 0.8945 0.3493 0.2789
vn 0.9085 0.3709 0.1926
vn 0.8448 -0.4971 0.1978
vn 0.9229 0.3709 0.1037
vn 0.9085 -0.3709 0.1926
vn 0.8945 -0.3493 0.2789
vn 0.8818 -0.3075 0.3576
vn 0.8710 -0.2478 0.4242
vn 0.8628 -0.1736 0.4747
vn 0.8578 -0.0894 0.5062
vn 0.8560 -0.0000 0.5169
vn 0.5015 0.1858 0.8450
vn 0.5122 0.3609 0.7794
vn 0.6202 0.3193 0.7165
vn 0.6108 0.1644 0.7745
vn 0.5291 0.5150 0.6744
vn 0.6352 0.4556 0.6237
vn 0.5515 0.6391 0.5361
vn 0.6550 0.5654 0.5013
vn 0.5779 0.7261 0.3725
vn 0.6784 0.6424 0.3565
vn 0.6070 0.7709 0.1930
vn 0.7041 0.6820 0.1978
vn 0.6070 -0.7709 0.1930
vn 0.5780 -0.7261 0.3725
vn 0.6784 -0.6424 0.3565
vn 0.7041 -0.6820 0.1978
vn 0.5514 -0.6391 0.5361
vn 0.6550 -0.5654 0.5013
vn 0.5291 -0.5150 0.6744
vn 0.6352 -0.4556 0.6237
vn 0.5121 -0.3609 0.7794
vn 0.6202 -0.3193 0.7166
vn 0.5015 -0.1858 0.8450
vn 0.6108 -0.1644 0.7745
vn 0.4979 0.0000 0.8672
vn 0.6076 0.0000 0.7942
vn 0.9987 -0.0290 0.0425
vn 0.9992 -0.0000 0.0391
vn 0.9970 -0.0562 0.0527
vn 0.9872 -0.0000 0.1597
vn 0.9944 -0.0802 0.0691
vn 0.9909 -0.0996 0.0907
vn 0.9868 -0.1131 0.1162
vn 0.9822 -0.1201 0.1441
vn 0.9987 0.0290 0.0425
vn 0.9970 0.0562 0.0527
vn 0.9944 0.0802 0.0691
vn 0.9909 0.0996 0.0907
vn 0.9868 0.1131 0.1162
vn 0.9822 0.1201 0.1441
vn 0.9675 0.1755 -0.1822
vn 0.9726 0.0904 -0.2141
vn 0.7352 0.1874 -0.6514
vn 0.7245 0.3640 -0.5853
vn 0.9592 0.2504 -0.1311
vn 0.7074 0.5194 -0.4794
vn 0.9483 0.3108 -0.0639
vn 0.6848 0.6446 -0.3399
vn 0.9355 0.3531 0.0157
vn 0.6581 0.7323 -0.1749
vn 0.9214 0.3748 0.1029
vn 0.6288 0.7775 0.0061
vn 0.9355 -0.3531 0.0157
vn 0.9214 -0.3748 0.1029
vn 0.6288 -0.7775 0.0061
vn 0.6581 -0.7323 -0.1749
vn 0.9483 -0.3107 -0.0639
vn 0.6848 -0.6446 -0.3399
vn 0.9592 -0.2504 -0.1311
vn 0.7074 -0.5194 -0.4794
vn 0.9675 -0.1755 -0.1822
vn 0.7245 -0.3640 -0.5853
vn 0.9726 -0.0904 -0.2140
vn 0.7352 -0.1874 -0.6514
vn 0.9744 0.0000 -0.2249
vn 0.7388 0.0000 -0.6739
vn 0.9866 -0.0020 0.1634
vn 0.9865 -0.0010 0.1638
vn 0.6101 -0.1646 0.7750
vn 0.6195 -0.3196 0.7170
vn 0.9866 -0.0028 0.1628
vn 0.6345 -0.4560 0.6240
vn 0.9868 -0.0035 0.1621
vn 0.6543 -0.5659 0.5016
vn 0.9869 -0.0040 0.1612
vn 0.6778 -0.6430 0.3567
vn 0.9871 -0.0042 0.1602
vn 0.7035 -0.6826 0.1978
vn 0.9869 0.0040 0.1612
vn 0.9871 0.0042 0.1602
vn 0.7035 0.6826 0.1978
vn 0.6778 0.6430 0.3567
vn 0.9868 0.0035 0.1621
vn 0.6543 0.5659 0.5016
vn 0.9866 0.0028 0.1628
vn 0.6345 0.4560 0.6241
vn 0.9866 0.0020 0.1634
vn 0.6195 0.3196 0.7170
vn 0.9865 0.0010 0.1638
vn 0.6101 0.1646 0.7750
vn 0.9865 0.0000 0.1639
vn 0.6069 0.0000 0.7948
vn 0.7768 -0.1199 0.6182
vn 0.7836 -0.2327 0.5760
vn 0.7946 -0.3321 0.5083
vn 0.8090 -0.4121 0.4191
vn 0.8261 -0.4683 0.3135
vn 0.8448 0.4971 0.1978
vn 0.8261 0.4683 0.3135
vn 0.8090 0.4122 0.4191
vn 0.7946 0.3321 0.5083
vn 0.7836 0.2327 0.5760
vn 0.7768 0.1199 0.6182
vn 0.7745 -0.0000 0.6326
vn 0.9736 0.0894 -0.2100
vn 0.9685 0.1736 -0.1784
vn 0.9603 0.2477 -0.1279
vn 0.9496 0.3075 -0.0614
vn 0.9368 0.3493 0.0173
vn 0.9229 -0.3709 0.1037
vn 0.9368 -0.3493 0.0173
vn 0.9496 -0.3075 -0.0614
vn 0.9603 -0.2478 -0.1279
vn 0.9685 -0.1736 -0.1784
vn 0.9736 -0.0894 -0.2100
vn 0.9753 -0.0000 -0.2207
vn 0.8145 0.3193 -0.4845
vn 0.7317 0.3609 -0.5782
vn 0.7423 0.1858 -0.6437
vn 0.8239 0.1644 -0.5424
vn 0.7995 0.4556 -0.3916
vn 0.7148 0.5150 -0.4732
vn 0.7796 0.5654 -0.2692
vn 0.6924 0.6391 -0.3349
vn 0.7562 0.6424 -0.1245
vn 0.6659 0.7261 -0.1713
vn 0.7305 0.6820 0.0343
vn 0.6369 0.7709 0.0082
vn 0.7305 -0.6820 0.0343
vn 0.6369 -0.7709 0.0082
vn 0.7562 -0.6424 -0.1245
vn 0.6659 -0.7261 -0.1712
vn 0.7796 -0.5654 -0.2692
vn 0.6924 -0.6391 -0.3349
vn 0.7994 -0.4556 -0.3916
vn 0.7148 -0.5150 -0.4732
vn 0.8145 -0.3192 -0.4844
vn 0.7318 -0.3609 -0.5782
vn 0.8239 -0.1644 -0.5424
vn 0.7424 -0.1858 -0.6437
vn 0.8270 -0.0000 -0.5621
vn 0.7459 -0.0000 -0.6660
vn 0.2383 0.2207 0.9458
vn 0.2509 0.4287 0.8679
vn 0.2711 0.6117 0.7432
vn 0.2976 0.7591 0.5789
vn 0.3291 0.8624 0.3846
vn 0.3636 0.9157 0.1714
vn 0.3991 0.9157 -0.0481
vn 0.4336 0.8624 -0.2612
vn 0.4650 0.7591 -0.4556
vn 0.4916 0.6116 -0.6199
vn 0.5117 0.4287 -0.7446
vn 0.5243 0.2207 -0.8224
vn 0.5286 -0.0000 -0.8489
vn 0.5244 -0.2207 -0.8224
vn 0.5118 -0.4286 -0.7446
vn 0.4916 -0.6117 -0.6199
vn 0.4650 -0.7591 -0.4556
vn 0.4335 -0.8624 -0.2612
vn 0.3991 -0.9157 -0.0481
vn 0.3636 -0.9157 0.1714
vn 0.3291 -0.8624 0.3846
vn 0.2977 -0.7591 0.5789
vn 0.2711 -0.6117 0.7432
vn 0.2509 -0.4287 0.8679
vn 0.2383 -0.2207 0.9458
vn 0.2340 0.0000 0.9722
vn 0.3799 0.0000 0.9250
vn 0.8900 0.0000 0.4559
vn 0.8915 0.0737 0.4471
vn 0.3839 0.2040 0.9006
vn 0.8957 0.1431 0.4211
vn 0.3955 0.3962 0.8286
vn 0.9024 0.2042 0.3795
vn 0.4141 0.5653 0.7134
vn 0.9113 0.2534 0.3246
vn 0.4387 0.7016 0.5615
vn 0.9218 0.2879 0.2597
vn 0.4678 0.7971 0.3819
vn 0.9333 0.3057 0.1886
vn 0.4996 0.8463 0.1849
vn 0.5325 -0.8463 -0.0179
vn 0.9451 -0.3057 0.1153
vn 0.9333 -0.3057 0.1886
vn 0.4997 -0.8463 0.1849
vn 0.9218 -0.2879 0.2597
vn 0.4678 -0.7971 0.3819
vn 0.9113 -0.2534 0.3246
vn 0.4387 -0.7016 0.5615
vn 0.9024 -0.2042 0.3795
vn 0.4141 -0.5653 0.7134
vn 0.8957 -0.1431 0.4211
vn 0.3955 -0.3962 0.8286
vn 0.8915 -0.0737 0.4471
vn 0.3839 -0.2040 0.9006
vn -0.1597 0.0000 0.9872
vn -0.1550 0.2393 0.9585
vn -0.1414 0.4647 0.8741
vn -0.1195 0.6631 0.7389
vn -0.0907 0.8230 0.5608
vn -0.0566 0.9350 0.3501
vn -0.0192 0.9927 0.1190
vn -0.0192 -0.9927 0.1190
vn 0.0192 -0.9927 -0.1190
vn -0.0566 -0.9350 0.3501
vn -0.0907 -0.8230 0.5608
vn -0.1195 -0.6631 0.7389
vn -0.1414 -0.4647 0.8741
vn -0.1550 -0.2393 0.9585
vn 0.9689 0.0450 0.2435
vn 0.9675 0.0232 0.2517
vn 0.9710 0.0642 0.2304
vn 0.9738 0.0796 0.2132
vn 0.9771 0.0905 0.1928
vn 0.9807 0.0960 0.1705
vn 0.9771 -0.0905 0.1928
vn 0.9807 -0.0960 0.1705
vn 0.9738 -0.0796 0.2132
vn 0.9710 -0.0642 0.2304
vn 0.9689 -0.0450 0.2435
vn 0.9675 -0.0232 0.2517
vn 0.9671 0.0000 0.2544
vn 0.9869 0.0737 -0.1432
vn 0.9884 -0.0000 -0.1521
vn 0.6521 0.0000 -0.7581
vn 0.6482 0.2040 -0.7336
vn 0.9827 0.1431 -0.1172
vn 0.6366 0.3962 -0.6617
vn 0.9760 0.2042 -0.0756
vn 0.6179 0.5653 -0.5464
vn 0.9671 0.2534 -0.0208
vn 0.5934 0.7016 -0.3946
vn 0.9566 0.2879 0.0441
vn 0.5643 0.7971 -0.2149
vn 0.9451 0.3057 0.1153
vn 0.5324 0.8463 -0.0180
vn 0.9566 -0.2879 0.0441
vn 0.5643 -0.7971 -0.2150
vn 0.9671 -0.2534 -0.0208
vn 0.5934 -0.7016 -0.3946
vn 0.9760 -0.2042 -0.0756
vn 0.6180 -0.5653 -0.5464
vn 0.9827 -0.1431 -0.1172
vn 0.6366 -0.3962 -0.6617
vn 0.9869 -0.0737 -0.1432
vn 0.6482 -0.2040 -0.7336
vn 0.1597 0.0000 -0.9872
vn 0.1550 0.2393 -0.9585
vn 0.1414 0.4647 -0.8741
vn 0.1195 0.6631 -0.7389
vn 0.0907 0.8230 -0.5608
vn 0.0566 0.9350 -0.3501
vn 0.0192 0.9927 -0.1190
vn 0.0566 -0.9350 -0.3501
vn 0.0907 -0.8230 -0.5608
vn 0.1195 -0.6631 -0.7389
vn 0.1414 -0.4647 -0.8741
vn 0.1550 -0.2393 -0.9585
vn 0.9962 0.0450 0.0744
vn 0.9975 0.0232 0.0662
vn 0.9941 0.0642 0.0874
vn 0.9913 0.0796 0.1047
vn 0.9880 0.0905 0.1251
vn 0.9844 0.0960 0.1474
vn 0.9880 -0.0905 0.1251
vn 0.9844 -0.0960 0.1474
vn 0.9913 -0.0796 0.1047
vn 0.9941 -0.0642 0.0874
vn 0.9962 -0.0450 0.0744
vn 0.9975 -0.0232 0.0662
vn 0.9980 0.0000 0.0634
vn -0.9869 0.0737 0.1432
vn -0.9884 0.0000 0.1521
vn -0.6522 0.0000 0.7581
vn -0.6482 0.2040 0.7336
vn -0.9827 0.1431 0.1172
vn -0.6366 0.3962 0.6617
vn -0.9760 0.2042 0.0756
vn -0.6179 0.5653 0.5464
vn -0.9671 0.2534 0.0208
vn -0.5934 0.7016 0.3946
vn -0.9566 0.2879 -0.0441
vn -0.5643 0.7971 0.2149
vn -0.9451 0.3057 -0.1153
vn -0.5324 0.8463 0.0180
vn -0.9451 -0.3057 -0.1153
vn -0.9333 -0.3057 -0.1886
vn -0.4996 -0.8463 -0.1849
vn -0.5325 -0.8463 0.0179
vn -0.9566 -0.2879 -0.0441
vn -0.5643 -0.7971 0.2149
vn -0.9671 -0.2534 0.0208
vn -0.5934 -0.7016 0.3946
vn -0.9760 -0.2042 0.0756
vn -0.6179 -0.5653 0.5464
vn -0.9827 -0.1431 0.1172
vn -0.6366 -0.3962 0.6617
vn -0.9869 -0.0737 0.1432
vn -0.6482 -0.2040 0.7336
vn -0.9962 0.0450 -0.0744
vn -0.9153 0.2431 0.3211
vn -0.9225 0.1252 0.3652
vn -0.9975 0.0232 -0.0662
vn -0.9941 0.0642 -0.0874
vn -0.9039 0.3468 0.2504
vn -0.9913 0.0796 -0.1047
vn -0.8888 0.4305 0.1572
vn -0.9880 0.0905 -0.1251
vn -0.8710 0.4891 0.0470
vn -0.9844 0.0960 -0.1474
vn -0.8514 0.5192 -0.0739
vn -0.9880 -0.0905 -0.1251
vn -0.8710 -0.4891 0.0470
vn -0.8514 -0.5192 -0.0739
vn -0.9844 -0.0960 -0.1474
vn -0.9913 -0.0796 -0.1047
vn -0.8888 -0.4305 0.1572
vn -0.9941 -0.0642 -0.0874
vn -0.9039 -0.3468 0.2504
vn -0.9962 -0.0450 -0.0744
vn -0.9153 -0.2431 0.3211
vn -0.9975 -0.0232 -0.0662
vn -0.9225 -0.1252 0.3652
vn -0.9980 -0.0000 -0.0634
vn -0.9249 0.0000 0.3802
vn -0.3799 0.0000 -0.9250
vn -0.8900 0.0000 -0.4559
vn -0.8915 0.0737 -0.4471
vn -0.3839 0.2040 -0.9006
vn -0.8957 0.1431 -0.4211
vn -0.3955 0.3962 -0.8286
vn -0.9024 0.2042 -0.3795
vn -0.4141 0.5653 -0.7134
vn -0.9113 0.2534 -0.3246
vn -0.4387 0.7016 -0.5615
vn -0.9218 0.2879 -0.2597
vn -0.4678 0.7971 -0.3819
vn -0.9333 0.3057 -0.1886
vn -0.4996 0.8463 -0.1849
vn -0.9218 -0.2879 -0.2597
vn -0.4677 -0.7971 -0.3819
vn -0.9113 -0.2534 -0.3246
vn -0.4387 -0.7016 -0.5615
vn -0.9024 -0.2042 -0.3795
vn -0.4141 -0.5653 -0.7134
vn -0.8957 -0.1431 -0.4211
vn -0.3955 -0.3962 -0.8286
vn -0.8915 -0.0737 -0.4471
vn -0.3839 -0.2040 -0.9006
vn -0.7603 0.1252 -0.6374
vn -0.7674 0.2431 -0.5933
vn -0.9689 0.0450 -0.2435
vn -0.9675 0.0232 -0.2517
vn -0.7789 0.3468 -0.5226
vn -0.9710 0.0642 -0.2304
vn -0.7939 0.4304 -0.4294
vn -0.9738 0.0796 -0.2132
vn -0.8117 0.4891 -0.3192
vn -0.9771 0.0905 -0.1928
vn -0.8313 0.5192 -0.1983
vn -0.9807 0.0960 -0.1705
vn -0.8313 -0.5192 -0.1983
vn -0.8118 -0.4891 -0.3192
vn -0.9771 -0.0905 -0.1928
vn -0.9807 -0.0960 -0.1705
vn -0.7939 -0.4304 -0.4294
vn -0.9738 -0.0796 -0.2132
vn -0.7789 -0.3468 -0.5226
vn -0.9710 -0.0642 -0.2304
vn -0.7674 -0.2431 -0.5933
vn -0.9689 -0.0450 -0.2435
vn -0.7603 -0.1252 -0.6374
vn -0.9675 -0.0232 -0.2517
vn -0.7578 0.0000 -0.6524
vn -0.9671 -0.0000 -0.2544
vn -0.9493 -0.0782 -0.3044
vn -0.9470 -0.0402 -0.3186
vn -0.8310 -0.1004 -0.5472
vn -0.8367 -0.1950 -0.5118
vn -0.9530 -0.1115 -0.2817
vn -0.8459 -0.2783 -0.4550
vn -0.9579 -0.1384 -0.2517
vn -0.8580 -0.3454 -0.3803
vn -0.9636 -0.1572 -0.2163
vn -0.8723 -0.3924 -0.2919
vn -0.9699 -0.1669 -0.1774
vn -0.8879 -0.4166 -0.1949
vn -0.9636 0.1572 -0.2163
vn -0.9699 0.1669 -0.1774
vn -0.8879 0.4166 -0.1949
vn -0.8723 0.3924 -0.2919
vn -0.9579 0.1384 -0.2517
vn -0.8580 0.3454 -0.3803
vn -0.9530 0.1115 -0.2817
vn -0.8459 0.2783 -0.4550
vn -0.9493 0.0782 -0.3044
vn -0.8367 0.1950 -0.5118
vn -0.9470 0.0402 -0.3186
vn -0.8310 0.1004 -0.5472
vn -0.9463 0.0000 -0.3234
vn -0.8290 0.0000 -0.5592
vn -0.7768 -0.1199 -0.6182
vn -0.7836 -0.2327 -0.5760
vn -0.7946 -0.3321 -0.5083
vn -0.8090 -0.4122 -0.4191
vn -0.8261 -0.4683 -0.3135
vn -0.8448 -0.4971 -0.1978
vn -0.8448 0.4972 -0.1978
vn -0.8261 0.4683 -0.3135
vn -0.8090 0.4121 -0.4191
vn -0.7946 0.3321 -0.5083
vn -0.7836 0.2327 -0.5760
vn -0.7768 0.1199 -0.6182
vn -0.7745 0.0000 -0.6326
vn -0.9736 0.0894 0.2100
vn -0.9685 0.1736 0.1784
vn -0.9603 0.2477 0.1279
vn -0.9496 0.3075 0.0614
vn -0.9368 0.3493 -0.0173
vn -0.9229 0.3709 -0.1037
vn -0.9085 0.3709 -0.1926
vn -0.8641 -0.4972 -0.0786
vn -0.9229 -0.3709 -0.1037
vn -0.9368 -0.3493 -0.0173
vn -0.9496 -0.3075 0.0614
vn -0.9603 -0.2477 0.1279
vn -0.9685 -0.1736 0.1784
vn -0.9736 -0.0894 0.2100
vn -0.9753 0.0000 0.2207
vn -0.9611 -0.1004 0.2573
vn -0.9992 -0.0402 0.0038
vn -0.9969 -0.0782 -0.0104
vn -0.9554 -0.1950 0.2219
vn -0.9932 -0.1115 -0.0332
vn -0.9462 -0.2783 0.1652
vn -0.9884 -0.1384 -0.0631
vn -0.9341 -0.3454 0.0904
vn -0.9826 -0.1572 -0.0985
vn -0.9198 -0.3924 0.0020
vn -0.9763 -0.1669 -0.1374
vn -0.9041 -0.4166 -0.0950
vn -0.9041 0.4166 -0.0950
vn -0.9763 0.1669 -0.1374
vn -0.9826 0.1572 -0.0985
vn -0.9198 0.3924 0.0020
vn -0.9884 0.1384 -0.0631
vn -0.9341 0.3454 0.0904
vn -0.9932 0.1115 -0.0332
vn -0.9462 0.2783 0.1652
vn -0.9969 0.0782 -0.0104
vn -0.9554 0.1950 0.2219
vn -0.9992 0.0402 0.0038
vn -0.9611 0.1004 0.2573
vn -1.0000 -0.0000 0.0086
vn -0.9630 -0.0000 0.2694
vn -0.9321 -0.1198 0.3418
vn -0.9253 -0.2327 0.2995
vn -0.9143 -0.3321 0.2318
vn -0.8999 -0.4122 0.1426
vn -0.8828 -0.4683 0.0371
vn -0.8641 0.4972 -0.0786
vn -0.8828 0.4683 0.0371
vn -0.8999 0.4122 0.1426
vn -0.9143 0.3321 0.2318
vn -0.9253 0.2327 0.2995
vn -0.9321 0.1198 0.3418
vn -0.9344 -0.0000 0.3562
vn -0.8578 0.0894 -0.5062
vn -0.8629 0.1736 -0.4747
vn -0.8710 0.2477 -0.4242
vn -0.8818 0.3075 -0.3576
vn -0.8945 0.3493 -0.2789
vn -0.9085 -0.3709 -0.1926
vn -0.8945 -0.3493 -0.2789
vn -0.8818 -0.3075 -0.3576
vn -0.8710 -0.2478 -0.4242
vn -0.8629 -0.1736 -0.4747
vn -0.8578 -0.0894 -0.5062
vn -0.8560 0.0000 -0.5169
vn -0.9872 -0.0000 -0.1597
vn -0.9872 0.0000 -0.1597
# 576 vertex normals

vt 1.9671 -0.9583 0.0000
vt 1.9672 -0.9583 0.0000
vt 1.9666 -0.9561 0.0000
vt 1.9657 -0.9542 0.0000
vt 1.9660 -0.9583 0.0000
vt 1.9646 -0.9524 0.0000
vt 1.9645 -0.9583 0.0000
vt 1.9632 -0.9509 0.0000
vt 1.9624 -0.9583 0.0000
vt 1.9617 -0.9499 0.0000
vt 1.9607 -0.9583 0.0000
vt 1.9600 -0.9493 0.0000
vt 1.9657 -0.9624 0.0000
vt 1.9666 -0.9604 0.0000
vt 1.9646 -0.9641 0.0000
vt 1.9632 -0.9656 0.0000
vt 1.9617 -0.9666 0.0000
vt 1.9600 -0.9672 0.0000
vt 1.9844 -0.9646 0.0000
vt 1.9779 -0.9631 0.0000
vt 1.9763 -0.9676 0.0000
vt 1.9822 -0.9706 0.0000
vt 1.9736 -0.9716 0.0000
vt 1.9787 -0.9759 0.0000
vt 1.9701 -0.9749 0.0000
vt 1.9741 -0.9803 0.0000
vt 1.9660 -0.9773 0.0000
vt 1.9685 -0.9835 0.0000
vt 1.9615 -0.9785 0.0000
vt 1.9623 -0.9851 0.0000
vt 1.9623 -0.9314 0.0000
vt 1.9615 -0.9380 0.0000
vt 1.9661 -0.9392 0.0000
vt 1.9685 -0.9331 0.0000
vt 1.9701 -0.9416 0.0000
vt 1.9741 -0.9362 0.0000
vt 1.9736 -0.9449 0.0000
vt 1.9787 -0.9406 0.0000
vt 1.9763 -0.9489 0.0000
vt 1.9822 -0.9459 0.0000
vt 1.9779 -0.9535 0.0000
vt 1.9844 -0.9519 0.0000
vt 1.9785 -0.9583 0.0000
vt 1.9852 -0.9583 0.0000
vt 1.8347 -0.8559 0.0000
vt 1.8301 -0.8607 0.0000
vt 1.8345 -0.8655 0.0000
vt 1.8398 -0.8614 0.0000
vt 1.8381 -0.8710 0.0000
vt 1.8439 -0.8677 0.0000
vt 1.8409 -0.8769 0.0000
vt 1.8472 -0.8745 0.0000
vt 1.8429 -0.8832 0.0000
vt 1.8494 -0.8817 0.0000
vt 1.8439 -0.8898 0.0000
vt 1.8506 -0.8891 0.0000
vt 1.6885 -0.8970 0.0000
vt 1.6952 -0.8966 0.0000
vt 1.6952 -0.8900 0.0000
vt 1.6886 -0.8895 0.0000
vt 1.6962 -0.8836 0.0000
vt 1.6897 -0.8821 0.0000
vt 1.6982 -0.8774 0.0000
vt 1.6919 -0.8749 0.0000
vt 1.7010 -0.8715 0.0000
vt 1.6952 -0.8681 0.0000
vt 1.7047 -0.8661 0.0000
vt 1.6995 -0.8620 0.0000
vt 1.7092 -0.8612 0.0000
vt 1.7045 -0.8565 0.0000
vt 1.8290 -0.8511 0.0000
vt 1.8250 -0.8564 0.0000
vt 1.8378 -0.8526 0.0000
vt 1.8433 -0.8586 0.0000
vt 1.8478 -0.8654 0.0000
vt 1.8513 -0.8728 0.0000
vt 1.8538 -0.8806 0.0000
vt 1.8551 -0.8887 0.0000
vt 1.6841 -0.8974 0.0000
vt 1.6841 -0.8892 0.0000
vt 1.6853 -0.8811 0.0000
vt 1.6878 -0.8733 0.0000
vt 1.6913 -0.8659 0.0000
vt 1.6960 -0.8591 0.0000
vt 1.7016 -0.8532 0.0000
vt 1.8314 -0.8474 0.0000
vt 1.8406 -0.8496 0.0000
vt 1.8465 -0.8561 0.0000
vt 1.8514 -0.8634 0.0000
vt 1.8551 -0.8713 0.0000
vt 1.8577 -0.8797 0.0000
vt 1.8591 -0.8883 0.0000
vt 1.8552 -0.8969 0.0000
vt 1.8593 -0.8970 0.0000
vt 1.6800 -0.8977 0.0000
vt 1.6800 -0.8889 0.0000
vt 1.6814 -0.8802 0.0000
vt 1.6840 -0.8717 0.0000
vt 1.6878 -0.8638 0.0000
vt 1.6928 -0.8565 0.0000
vt 1.6990 -0.8501 0.0000
vt 1.8336 -0.8440 0.0000
vt 1.9930 -0.9667 0.0000
vt 1.9901 -0.9746 0.0000
vt 1.9854 -0.9817 0.0000
vt 1.9792 -0.9875 0.0000
vt 1.9717 -0.9916 0.0000
vt 1.9634 -0.9938 0.0000
vt 1.9634 -0.9227 0.0000
vt 1.9717 -0.9249 0.0000
vt 1.9792 -0.9291 0.0000
vt 1.9854 -0.9349 0.0000
vt 1.9901 -0.9419 0.0000
vt 1.9930 -0.9499 0.0000
vt 1.9940 -0.9583 0.0000
vt 1.9766 -0.9627 0.0000
vt 1.9750 -0.9669 0.0000
vt 1.9754 -0.9672 0.0000
vt 1.9771 -0.9628 0.0000
vt 1.9725 -0.9707 0.0000
vt 1.9729 -0.9710 0.0000
vt 1.9693 -0.9739 0.0000
vt 1.9696 -0.9742 0.0000
vt 1.9655 -0.9761 0.0000
vt 1.9657 -0.9765 0.0000
vt 1.9613 -0.9773 0.0000
vt 1.9614 -0.9777 0.0000
vt 1.9613 -0.9392 0.0000
vt 1.9655 -0.9404 0.0000
vt 1.9657 -0.9400 0.0000
vt 1.9614 -0.9388 0.0000
vt 1.9693 -0.9427 0.0000
vt 1.9696 -0.9423 0.0000
vt 1.9725 -0.9458 0.0000
vt 1.9729 -0.9455 0.0000
vt 1.9750 -0.9496 0.0000
vt 1.9754 -0.9494 0.0000
vt 1.9766 -0.9538 0.0000
vt 1.9771 -0.9537 0.0000
vt 1.9772 -0.9583 0.0000
vt 1.9776 -0.9583 0.0000
vt 1.9516 -0.9561 0.0000
vt 1.9510 -0.9583 0.0000
vt 1.9512 -0.9583 0.0000
vt 1.9526 -0.9542 0.0000
vt 1.9522 -0.9583 0.0000
vt 1.9537 -0.9524 0.0000
vt 1.9537 -0.9583 0.0000
vt 1.9551 -0.9509 0.0000
vt 1.9559 -0.9583 0.0000
vt 1.9566 -0.9499 0.0000
vt 1.9576 -0.9583 0.0000
vt 1.9583 -0.9493 0.0000
vt 1.9516 -0.9604 0.0000
vt 1.9526 -0.9624 0.0000
vt 1.9537 -0.9641 0.0000
vt 1.9551 -0.9656 0.0000
vt 1.9566 -0.9666 0.0000
vt 1.9583 -0.9672 0.0000
vt 1.9420 -0.9676 0.0000
vt 1.9403 -0.9631 0.0000
vt 1.9338 -0.9646 0.0000
vt 1.9360 -0.9706 0.0000
vt 1.9447 -0.9716 0.0000
vt 1.9396 -0.9759 0.0000
vt 1.9481 -0.9749 0.0000
vt 1.9442 -0.9803 0.0000
vt 1.9522 -0.9773 0.0000
vt 1.9498 -0.9835 0.0000
vt 1.9568 -0.9785 0.0000
vt 1.9559 -0.9851 0.0000
vt 1.9522 -0.9392 0.0000
vt 1.9568 -0.9380 0.0000
vt 1.9559 -0.9314 0.0000
vt 1.9498 -0.9331 0.0000
vt 1.9481 -0.9416 0.0000
vt 1.9442 -0.9362 0.0000
vt 1.9447 -0.9449 0.0000
vt 1.9396 -0.9406 0.0000
vt 1.9420 -0.9489 0.0000
vt 1.9360 -0.9459 0.0000
vt 1.9403 -0.9535 0.0000
vt 1.9338 -0.9519 0.0000
vt 1.9398 -0.9583 0.0000
vt 1.9331 -0.9583 0.0000
vt 1.8357 -0.9206 0.0000
vt 1.8314 -0.9256 0.0000
vt 1.8362 -0.9303 0.0000
vt 1.8411 -0.9247 0.0000
vt 1.8392 -0.9152 0.0000
vt 1.8451 -0.9183 0.0000
vt 1.8418 -0.9092 0.0000
vt 1.8482 -0.9114 0.0000
vt 1.8435 -0.9029 0.0000
vt 1.8501 -0.9042 0.0000
vt 1.8441 -0.8964 0.0000
vt 1.8508 -0.8967 0.0000
vt 1.6981 -0.9093 0.0000
vt 1.6962 -0.9030 0.0000
vt 1.6896 -0.9045 0.0000
vt 1.6918 -0.9117 0.0000
vt 1.7009 -0.9152 0.0000
vt 1.6951 -0.9185 0.0000
vt 1.7045 -0.9206 0.0000
vt 1.6993 -0.9247 0.0000
vt 1.7089 -0.9254 0.0000
vt 1.7043 -0.9302 0.0000
vt 1.7140 -0.9294 0.0000
vt 1.7102 -0.9349 0.0000
vt 1.7197 -0.9329 0.0000
vt 1.7166 -0.9387 0.0000
vt 1.8264 -0.9299 0.0000
vt 1.8305 -0.9351 0.0000
vt 1.8393 -0.9335 0.0000
vt 1.8447 -0.9274 0.0000
vt 1.8491 -0.9204 0.0000
vt 1.8524 -0.9129 0.0000
vt 1.8546 -0.9050 0.0000
vt 1.6853 -0.9055 0.0000
vt 1.6876 -0.9133 0.0000
vt 1.6912 -0.9207 0.0000
vt 1.6957 -0.9275 0.0000
vt 1.7013 -0.9335 0.0000
vt 1.7077 -0.9387 0.0000
vt 1.7148 -0.9427 0.0000
vt 1.8330 -0.9388 0.0000
vt 1.8421 -0.9365 0.0000
vt 1.8480 -0.9298 0.0000
vt 1.8527 -0.9223 0.0000
vt 1.8562 -0.9143 0.0000
vt 1.8586 -0.9057 0.0000
vt 1.6813 -0.9064 0.0000
vt 1.6838 -0.9148 0.0000
vt 1.6876 -0.9227 0.0000
vt 1.6925 -0.9300 0.0000
vt 1.6985 -0.9365 0.0000
vt 1.7054 -0.9421 0.0000
vt 1.7132 -0.9465 0.0000
vt 1.8353 -0.9421 0.0000
vt 1.9253 -0.9667 0.0000
vt 1.9282 -0.9746 0.0000
vt 1.9328 -0.9817 0.0000
vt 1.9391 -0.9875 0.0000
vt 1.9465 -0.9916 0.0000
vt 1.9548 -0.9938 0.0000
vt 1.9548 -0.9227 0.0000
vt 1.9465 -0.9249 0.0000
vt 1.9391 -0.9291 0.0000
vt 1.9328 -0.9349 0.0000
vt 1.9282 -0.9419 0.0000
vt 1.9253 -0.9499 0.0000
vt 1.9243 -0.9583 0.0000
vt 1.9428 -0.9672 0.0000
vt 1.9433 -0.9669 0.0000
vt 1.9417 -0.9627 0.0000
vt 1.9412 -0.9628 0.0000
vt 1.9454 -0.9710 0.0000
vt 1.9458 -0.9707 0.0000
vt 1.9487 -0.9742 0.0000
vt 1.9490 -0.9739 0.0000
vt 1.9525 -0.9765 0.0000
vt 1.9528 -0.9761 0.0000
vt 1.9569 -0.9777 0.0000
vt 1.9570 -0.9773 0.0000
vt 1.9569 -0.9388 0.0000
vt 1.9570 -0.9392 0.0000
vt 1.9525 -0.9400 0.0000
vt 1.9528 -0.9404 0.0000
vt 1.9487 -0.9423 0.0000
vt 1.9490 -0.9427 0.0000
vt 1.9454 -0.9455 0.0000
vt 1.9458 -0.9458 0.0000
vt 1.9428 -0.9494 0.0000
vt 1.9433 -0.9496 0.0000
vt 1.9412 -0.9537 0.0000
vt 1.9417 -0.9538 0.0000
vt 1.9406 -0.9583 0.0000
vt 1.9411 -0.9583 0.0000
vt 1.5128 -0.2722 0.0000
vt 1.5126 -0.2745 0.0000
vt 1.5242 -0.2743 0.0000
vt 1.5245 -0.2719 0.0000
vt 1.5344 -0.2741 0.0000
vt 1.5348 -0.2717 0.0000
vt 1.4379 -0.5267 0.0000
vt 1.4385 -0.5291 0.0000
vt 1.4480 -0.5290 0.0000
vt 1.4476 -0.5266 0.0000
vt 1.4593 -0.5289 0.0000
vt 1.4590 -0.5264 0.0000
vt 1.4716 -0.5287 0.0000
vt 1.4715 -0.5263 0.0000
vt 1.4844 -0.5286 0.0000
vt 1.4844 -0.5261 0.0000
vt 1.4967 -0.5284 0.0000
vt 1.4969 -0.5260 0.0000
vt 1.5080 -0.5283 0.0000
vt 1.5084 -0.5258 0.0000
vt 1.5175 -0.5282 0.0000
vt 1.5180 -0.5257 0.0000
vt 1.2789 -0.2813 0.0000
vt 1.2794 -0.2836 0.0000
vt 1.2896 -0.2836 0.0000
vt 1.2893 -0.2813 0.0000
vt 1.3012 -0.2836 0.0000
vt 1.3010 -0.2813 0.0000
vt 1.3135 -0.2836 0.0000
vt 1.3135 -0.2813 0.0000
vt 1.3258 -0.2836 0.0000
vt 1.3259 -0.2813 0.0000
vt 1.3374 -0.2836 0.0000
vt 1.3377 -0.2813 0.0000
vt 1.3476 -0.2836 0.0000
vt 1.3480 -0.2813 0.0000
vt 1.5290 -0.3658 0.0000
vt 1.5296 -0.3682 0.0000
vt 1.5391 -0.3680 0.0000
vt 1.5387 -0.3656 0.0000
vt 1.5504 -0.3679 0.0000
vt 1.5501 -0.3655 0.0000
vt 1.5627 -0.3677 0.0000
vt 1.5626 -0.3653 0.0000
vt 1.5755 -0.3676 0.0000
vt 1.5755 -0.3651 0.0000
vt 1.5878 -0.3674 0.0000
vt 1.5880 -0.3650 0.0000
vt 1.5991 -0.3672 0.0000
vt 1.5995 -0.3648 0.0000
vt 1.6086 -0.3671 0.0000
vt 1.6091 -0.3647 0.0000
vt 1.4657 -0.2732 0.0000
vt 1.4663 -0.2755 0.0000
vt 1.4765 -0.2753 0.0000
vt 1.4761 -0.2730 0.0000
vt 1.4880 -0.2751 0.0000
vt 1.4878 -0.2727 0.0000
vt 1.5003 -0.2748 0.0000
vt 1.5003 -0.2724 0.0000
vt 1.9787 -0.4683 0.0000
vt 1.9635 -0.4683 0.0000
vt 1.9603 -0.4975 0.0000
vt 1.9752 -0.5010 0.0000
vt 1.9501 -0.5250 0.0000
vt 1.9636 -0.5320 0.0000
vt 1.9335 -0.5493 0.0000
vt 1.9450 -0.5593 0.0000
vt 1.9117 -0.5690 0.0000
vt 1.9204 -0.5815 0.0000
vt 1.8857 -0.5829 0.0000
vt 1.8912 -0.5971 0.0000
vt 1.8571 -0.5900 0.0000
vt 1.8590 -0.6052 0.0000
vt 1.8258 -0.3313 0.0000
vt 1.8277 -0.3465 0.0000
vt 1.8571 -0.3465 0.0000
vt 1.8590 -0.3313 0.0000
vt 1.8857 -0.3536 0.0000
vt 1.8912 -0.3394 0.0000
vt 1.9117 -0.3675 0.0000
vt 1.9204 -0.3550 0.0000
vt 1.9335 -0.3872 0.0000
vt 1.9450 -0.3772 0.0000
vt 1.9501 -0.4116 0.0000
vt 1.9636 -0.4045 0.0000
vt 1.9603 -0.4390 0.0000
vt 1.9752 -0.4355 0.0000
vt 1.4645 -0.0437 0.0000
vt 1.4645 -0.0120 0.0000
vt 1.4262 -0.0120 0.0000
vt 1.4262 -0.0437 0.0000
vt 1.3880 -0.0120 0.0000
vt 1.3880 -0.0437 0.0000
vt 1.3499 -0.0120 0.0000
vt 1.3499 -0.0437 0.0000
vt 1.3120 -0.0120 0.0000
vt 1.3120 -0.0437 0.0000
vt 1.2742 -0.0120 0.0000
vt 1.2742 -0.0437 0.0000
vt 1.2364 -0.0120 0.0000
vt 1.2364 -0.0437 0.0000
vt 1.6925 -0.0437 0.0000
vt 1.7302 -0.0437 0.0000
vt 1.7302 -0.0120 0.0000
vt 1.6925 -0.0120 0.0000
vt 1.6548 -0.0120 0.0000
vt 1.6548 -0.0437 0.0000
vt 1.6169 -0.0120 0.0000
vt 1.6169 -0.0437 0.0000
vt 1.5790 -0.0120 0.0000
vt 1.5790 -0.0437 0.0000
vt 1.5409 -0.0120 0.0000
vt 1.5409 -0.0437 0.0000
vt 1.5027 -0.0120 0.0000
vt 1.5027 -0.0437 0.0000
vt 1.9286 -0.4897 0.0000
vt 1.9210 -0.5100 0.0000
vt 1.9347 -0.5172 0.0000
vt 1.9436 -0.4934 0.0000
vt 1.9089 -0.5278 0.0000
vt 1.9205 -0.5381 0.0000
vt 1.8929 -0.5422 0.0000
vt 1.9017 -0.5550 0.0000
vt 1.8740 -0.5524 0.0000
vt 1.8795 -0.5668 0.0000
vt 1.8531 -0.5576 0.0000
vt 1.8550 -0.5730 0.0000
vt 1.8531 -0.3789 0.0000
vt 1.8740 -0.3842 0.0000
vt 1.8795 -0.3697 0.0000
vt 1.8550 -0.3636 0.0000
vt 1.8929 -0.3943 0.0000
vt 1.9017 -0.3815 0.0000
vt 1.9089 -0.4087 0.0000
vt 1.9205 -0.3984 0.0000
vt 1.9210 -0.4265 0.0000
vt 1.9347 -0.4194 0.0000
vt 1.9286 -0.4468 0.0000
vt 1.9436 -0.4431 0.0000
vt 1.9311 -0.4683 0.0000
vt 1.9465 -0.4683 0.0000
vt 1.7245 -0.4975 0.0000
vt 1.7213 -0.4683 0.0000
vt 1.7061 -0.4683 0.0000
vt 1.7095 -0.5010 0.0000
vt 1.7347 -0.5250 0.0000
vt 1.7212 -0.5320 0.0000
vt 1.7513 -0.5493 0.0000
vt 1.7397 -0.5593 0.0000
vt 1.7731 -0.5690 0.0000
vt 1.7643 -0.5815 0.0000
vt 1.7991 -0.5829 0.0000
vt 1.7936 -0.5971 0.0000
vt 1.8277 -0.5900 0.0000
vt 1.8258 -0.6052 0.0000
vt 1.7991 -0.3536 0.0000
vt 1.7936 -0.3394 0.0000
vt 1.7731 -0.3675 0.0000
vt 1.7644 -0.3550 0.0000
vt 1.7513 -0.3872 0.0000
vt 1.7397 -0.3772 0.0000
vt 1.7347 -0.4116 0.0000
vt 1.7212 -0.4045 0.0000
vt 1.7245 -0.4390 0.0000
vt 1.7095 -0.4355 0.0000
vt 1.9965 -0.0120 0.0000
vt 1.9583 -0.0120 0.0000
vt 1.9583 -0.0437 0.0000
vt 1.9965 -0.0437 0.0000
vt 1.0471 -0.0120 0.0000
vt 1.0089 -0.0120 0.0000
vt 1.0089 -0.0437 0.0000
vt 1.0471 -0.0437 0.0000
vt 1.0852 -0.0120 0.0000
vt 1.0852 -0.0437 0.0000
vt 1.1232 -0.0120 0.0000
vt 1.1232 -0.0437 0.0000
vt 1.1610 -0.0120 0.0000
vt 1.1610 -0.0437 0.0000
vt 1.1987 -0.0120 0.0000
vt 1.1987 -0.0437 0.0000
vt 1.7680 -0.0120 0.0000
vt 1.7680 -0.0437 0.0000
vt 1.8058 -0.0120 0.0000
vt 1.8058 -0.0437 0.0000
vt 1.8437 -0.0120 0.0000
vt 1.8437 -0.0437 0.0000
vt 1.8818 -0.0120 0.0000
vt 1.8818 -0.0437 0.0000
vt 1.9200 -0.0120 0.0000
vt 1.9200 -0.0437 0.0000
vt 1.7501 -0.5172 0.0000
vt 1.7637 -0.5100 0.0000
vt 1.7562 -0.4897 0.0000
vt 1.7412 -0.4934 0.0000
vt 1.7643 -0.5381 0.0000
vt 1.7759 -0.5278 0.0000
vt 1.7831 -0.5550 0.0000
vt 1.7919 -0.5422 0.0000
vt 1.8053 -0.5668 0.0000
vt 1.8108 -0.5524 0.0000
vt 1.8298 -0.5730 0.0000
vt 1.8317 -0.5576 0.0000
vt 1.8053 -0.3697 0.0000
vt 1.8108 -0.3842 0.0000
vt 1.8317 -0.3789 0.0000
vt 1.8298 -0.3636 0.0000
vt 1.7831 -0.3815 0.0000
vt 1.7919 -0.3943 0.0000
vt 1.7643 -0.3984 0.0000
vt 1.7759 -0.4087 0.0000
vt 1.7501 -0.4194 0.0000
vt 1.7637 -0.4265 0.0000
vt 1.7412 -0.4431 0.0000
vt 1.7562 -0.4468 0.0000
vt 1.7383 -0.4683 0.0000
vt 1.7537 -0.4683 0.0000
vt 1.6404 -0.8874 0.0000
vt 1.6436 -0.8582 0.0000
vt 1.6587 -0.8582 0.0000
vt 1.6553 -0.8909 0.0000
vt 1.6301 -0.9149 0.0000
vt 1.6437 -0.9219 0.0000
vt 1.6136 -0.9392 0.0000
vt 1.6251 -0.9493 0.0000
vt 1.5917 -0.9589 0.0000
vt 1.6005 -0.9715 0.0000
vt 1.5658 -0.9728 0.0000
vt 1.5712 -0.9871 0.0000
vt 1.5372 -0.9800 0.0000
vt 1.5391 -0.9951 0.0000
vt 1.5372 -0.7364 0.0000
vt 1.5077 -0.7364 0.0000
vt 1.5059 -0.7213 0.0000
vt 1.5391 -0.7213 0.0000
vt 1.5658 -0.7436 0.0000
vt 1.5712 -0.7293 0.0000
vt 1.5917 -0.7575 0.0000
vt 1.6005 -0.7450 0.0000
vt 1.6136 -0.7772 0.0000
vt 1.6251 -0.7671 0.0000
vt 1.6301 -0.8015 0.0000
vt 1.6437 -0.7945 0.0000
vt 1.6404 -0.8290 0.0000
vt 1.6553 -0.8255 0.0000
vt 1.4262 -0.0754 0.0000
vt 1.4645 -0.0754 0.0000
vt 1.3880 -0.0754 0.0000
vt 1.3499 -0.0754 0.0000
vt 1.3120 -0.0754 0.0000
vt 1.2742 -0.0754 0.0000
vt 1.2364 -0.0754 0.0000
vt 1.6925 -0.0754 0.0000
vt 1.7302 -0.0754 0.0000
vt 1.6548 -0.0754 0.0000
vt 1.6169 -0.0754 0.0000
vt 1.5790 -0.0754 0.0000
vt 1.5409 -0.0754 0.0000
vt 1.5027 -0.0754 0.0000
vt 1.6148 -0.9071 0.0000
vt 1.6011 -0.8999 0.0000
vt 1.6086 -0.8797 0.0000
vt 1.6236 -0.8834 0.0000
vt 1.6006 -0.9280 0.0000
vt 1.5890 -0.9178 0.0000
vt 1.5818 -0.9449 0.0000
vt 1.5730 -0.9322 0.0000
vt 1.5595 -0.9568 0.0000
vt 1.5540 -0.9423 0.0000
vt 1.5351 -0.9629 0.0000
vt 1.5332 -0.9475 0.0000
vt 1.5595 -0.7596 0.0000
vt 1.5540 -0.7741 0.0000
vt 1.5332 -0.7689 0.0000
vt 1.5351 -0.7535 0.0000
vt 1.5818 -0.7715 0.0000
vt 1.5730 -0.7842 0.0000
vt 1.6006 -0.7884 0.0000
vt 1.5890 -0.7986 0.0000
vt 1.6148 -0.8093 0.0000
vt 1.6011 -0.8165 0.0000
vt 1.6236 -0.8330 0.0000
vt 1.6086 -0.8367 0.0000
vt 1.6266 -0.8582 0.0000
vt 1.6112 -0.8582 0.0000
vt 1.3862 -0.8582 0.0000
vt 1.4013 -0.8582 0.0000
vt 1.4045 -0.8874 0.0000
vt 1.3896 -0.8909 0.0000
vt 1.4148 -0.9149 0.0000
vt 1.4012 -0.9219 0.0000
vt 1.4313 -0.9392 0.0000
vt 1.4198 -0.9493 0.0000
vt 1.4532 -0.9589 0.0000
vt 1.4444 -0.9715 0.0000
vt 1.4791 -0.9728 0.0000
vt 1.4737 -0.9871 0.0000
vt 1.5077 -0.9800 0.0000
vt 1.5059 -0.9951 0.0000
vt 1.4791 -0.7436 0.0000
vt 1.4737 -0.7293 0.0000
vt 1.4532 -0.7575 0.0000
vt 1.4444 -0.7450 0.0000
vt 1.4313 -0.7772 0.0000
vt 1.4198 -0.7671 0.0000
vt 1.4148 -0.8015 0.0000
vt 1.4012 -0.7945 0.0000
vt 1.4045 -0.8290 0.0000
vt 1.3896 -0.8255 0.0000
vt 1.9583 -0.0754 0.0000
vt 1.9965 -0.0754 0.0000
vt 1.0089 -0.0754 0.0000
vt 1.0471 -0.0754 0.0000
vt 1.0852 -0.0754 0.0000
vt 1.1232 -0.0754 0.0000
vt 1.1610 -0.0754 0.0000
vt 1.1987 -0.0754 0.0000
vt 1.7680 -0.0754 0.0000
vt 1.8058 -0.0754 0.0000
vt 1.8437 -0.0754 0.0000
vt 1.8818 -0.0754 0.0000
vt 1.9200 -0.0754 0.0000
vt 1.4363 -0.8797 0.0000
vt 1.4438 -0.8999 0.0000
vt 1.4301 -0.9071 0.0000
vt 1.4213 -0.8834 0.0000
vt 1.4559 -0.9178 0.0000
vt 1.4443 -0.9280 0.0000
vt 1.4719 -0.9322 0.0000
vt 1.4631 -0.9449 0.0000
vt 1.4909 -0.9423 0.0000
vt 1.4854 -0.9568 0.0000
vt 1.5117 -0.9475 0.0000
vt 1.5099 -0.9629 0.0000
vt 1.5117 -0.7689 0.0000
vt 1.4909 -0.7741 0.0000
vt 1.4854 -0.7596 0.0000
vt 1.5099 -0.7535 0.0000
vt 1.4719 -0.7842 0.0000
vt 1.4631 -0.7715 0.0000
vt 1.4559 -0.7986 0.0000
vt 1.4443 -0.7884 0.0000
vt 1.4438 -0.8165 0.0000
vt 1.4301 -0.8093 0.0000
vt 1.4363 -0.8367 0.0000
vt 1.4213 -0.8330 0.0000
vt 1.4337 -0.8582 0.0000
vt 1.4183 -0.8582 0.0000
vt 1.5022 -0.8201 0.0000
vt 1.5007 -0.8160 0.0000
vt 1.4853 -0.8195 0.0000
vt 1.4880 -0.8269 0.0000
vt 1.5044 -0.8236 0.0000
vt 1.4922 -0.8335 0.0000
vt 1.5074 -0.8265 0.0000
vt 1.4979 -0.8390 0.0000
vt 1.5107 -0.8285 0.0000
vt 1.5048 -0.8429 0.0000
vt 1.5145 -0.8295 0.0000
vt 1.5124 -0.8450 0.0000
vt 1.5107 -0.7950 0.0000
vt 1.5145 -0.7940 0.0000
vt 1.5124 -0.7784 0.0000
vt 1.5048 -0.7805 0.0000
vt 1.5074 -0.7970 0.0000
vt 1.4979 -0.7844 0.0000
vt 1.5044 -0.7998 0.0000
vt 1.4922 -0.7899 0.0000
vt 1.5022 -0.8034 0.0000
vt 1.4880 -0.7965 0.0000
vt 1.5007 -0.8074 0.0000
vt 1.4853 -0.8039 0.0000
vt 1.5000 -0.8117 0.0000
vt 1.4844 -0.8117 0.0000
vt 1.4807 -0.8206 0.0000
vt 1.4838 -0.8290 0.0000
vt 1.4887 -0.8366 0.0000
vt 1.4952 -0.8428 0.0000
vt 1.5031 -0.8472 0.0000
vt 1.5119 -0.8496 0.0000
vt 1.5119 -0.7739 0.0000
vt 1.5031 -0.7762 0.0000
vt 1.4952 -0.7806 0.0000
vt 1.4887 -0.7869 0.0000
vt 1.4838 -0.7944 0.0000
vt 1.4807 -0.8028 0.0000
vt 1.4797 -0.8117 0.0000
vt 1.4766 -0.8216 0.0000
vt 1.4799 -0.8310 0.0000
vt 1.4854 -0.8393 0.0000
vt 1.4927 -0.8463 0.0000
vt 1.5015 -0.8512 0.0000
vt 1.5113 -0.8538 0.0000
vt 1.5215 -0.8538 0.0000
vt 1.5209 -0.8496 0.0000
vt 1.5113 -0.7696 0.0000
vt 1.5015 -0.7722 0.0000
vt 1.4927 -0.7772 0.0000
vt 1.4854 -0.7841 0.0000
vt 1.4799 -0.7925 0.0000
vt 1.4766 -0.8018 0.0000
vt 1.4754 -0.8117 0.0000
vt 1.5475 -0.8195 0.0000
vt 1.5321 -0.8160 0.0000
vt 1.5306 -0.8201 0.0000
vt 1.5448 -0.8269 0.0000
vt 1.5283 -0.8236 0.0000
vt 1.5405 -0.8335 0.0000
vt 1.5254 -0.8265 0.0000
vt 1.5349 -0.8390 0.0000
vt 1.5220 -0.8285 0.0000
vt 1.5280 -0.8429 0.0000
vt 1.5183 -0.8295 0.0000
vt 1.5204 -0.8450 0.0000
vt 1.5204 -0.7784 0.0000
vt 1.5183 -0.7940 0.0000
vt 1.5220 -0.7950 0.0000
vt 1.5280 -0.7805 0.0000
vt 1.5254 -0.7970 0.0000
vt 1.5349 -0.7844 0.0000
vt 1.5283 -0.7998 0.0000
vt 1.5405 -0.7899 0.0000
vt 1.5306 -0.8034 0.0000
vt 1.5448 -0.7965 0.0000
vt 1.5321 -0.8074 0.0000
vt 1.5475 -0.8039 0.0000
vt 1.5327 -0.8117 0.0000
vt 1.5484 -0.8117 0.0000
vt 1.5520 -0.8206 0.0000
vt 1.5490 -0.8290 0.0000
vt 1.5441 -0.8366 0.0000
vt 1.5376 -0.8428 0.0000
vt 1.5297 -0.8472 0.0000
vt 1.5209 -0.7739 0.0000
vt 1.5297 -0.7762 0.0000
vt 1.5376 -0.7806 0.0000
vt 1.5441 -0.7869 0.0000
vt 1.5490 -0.7944 0.0000
vt 1.5520 -0.8028 0.0000
vt 1.5530 -0.8117 0.0000
vt 1.5562 -0.8216 0.0000
vt 1.5528 -0.8310 0.0000
vt 1.5474 -0.8393 0.0000
vt 1.5401 -0.8463 0.0000
vt 1.5313 -0.8512 0.0000
vt 1.5215 -0.7696 0.0000
vt 1.5313 -0.7722 0.0000
vt 1.5401 -0.7772 0.0000
vt 1.5474 -0.7841 0.0000
vt 1.5528 -0.7925 0.0000
vt 1.5562 -0.8018 0.0000
vt 1.5573 -0.8117 0.0000
vt 1.1860 -0.2917 0.0000
vt 1.1735 -0.2917 0.0000
vt 1.1738 -0.2942 0.0000
vt 1.1861 -0.2942 0.0000
vt 1.1625 -0.2917 0.0000
vt 1.1630 -0.2942 0.0000
vt 1.2495 -0.2849 0.0000
vt 1.2392 -0.2849 0.0000
vt 1.2388 -0.2874 0.0000
vt 1.2489 -0.2874 0.0000
vt 1.2271 -0.2849 0.0000
vt 1.2268 -0.2874 0.0000
vt 1.2138 -0.2849 0.0000
vt 1.2137 -0.2874 0.0000
vt 1.2001 -0.2849 0.0000
vt 1.2002 -0.2874 0.0000
vt 1.1868 -0.2849 0.0000
vt 1.1871 -0.2874 0.0000
vt 1.1747 -0.2849 0.0000
vt 1.1751 -0.2874 0.0000
vt 1.1644 -0.2849 0.0000
vt 1.1650 -0.2874 0.0000
vt 1.6025 -0.3716 0.0000
vt 1.5915 -0.3717 0.0000
vt 1.5912 -0.3742 0.0000
vt 1.6020 -0.3741 0.0000
vt 1.5790 -0.3719 0.0000
vt 1.5789 -0.3744 0.0000
vt 1.5658 -0.3721 0.0000
vt 1.5658 -0.3746 0.0000
vt 1.5525 -0.3722 0.0000
vt 1.5527 -0.3747 0.0000
vt 1.5401 -0.3724 0.0000
vt 1.5404 -0.3749 0.0000
vt 1.5291 -0.3726 0.0000
vt 1.5296 -0.3750 0.0000
vt 1.3540 -0.2876 0.0000
vt 1.3438 -0.2876 0.0000
vt 1.3433 -0.2902 0.0000
vt 1.3535 -0.2902 0.0000
vt 1.3317 -0.2876 0.0000
vt 1.3314 -0.2902 0.0000
vt 1.3184 -0.2876 0.0000
vt 1.3183 -0.2902 0.0000
vt 1.3047 -0.2876 0.0000
vt 1.3047 -0.2902 0.0000
vt 1.2913 -0.2876 0.0000
vt 1.2916 -0.2902 0.0000
vt 1.2792 -0.2876 0.0000
vt 1.2797 -0.2902 0.0000
vt 1.2690 -0.2876 0.0000
vt 1.2695 -0.2902 0.0000
vt 1.2359 -0.2917 0.0000
vt 1.2249 -0.2917 0.0000
vt 1.2246 -0.2942 0.0000
vt 1.2354 -0.2942 0.0000
vt 1.2124 -0.2917 0.0000
vt 1.2123 -0.2942 0.0000
vt 1.1992 -0.2917 0.0000
vt 1.1992 -0.2942 0.0000
vt 1.5309 -0.8117 0.0000
vt 1.5287 -0.8117 0.0000
vt 1.5256 -0.8117 0.0000
vt 1.5221 -0.8117 0.0000
vt 1.5183 -0.8117 0.0000
vt 1.5145 -0.8117 0.0000
vt 1.5107 -0.8117 0.0000
vt 1.5072 -0.8117 0.0000
vt 1.5041 -0.8117 0.0000
vt 1.5019 -0.8117 0.0000
# 801 texture coords

o Wheel_F_R_2_0
g Wheel_F_R_2_0
usemtl material_1
s 1
f 1/1/1 2/2/2 3/3/3 
f 1/1/1 3/3/3 4/4/4 
f 5/5/1 1/1/1 4/4/4 
f 5/5/1 4/4/4 6/6/5 
f 7/7/1 5/5/1 6/6/5 
f 7/7/1 6/6/5 8/8/6 
f 9/9/1 7/7/1 8/8/6 
f 9/9/1 8/8/6 10/10/7 
f 11/11/1 9/9/1 10/10/7 
f 11/11/1 10/10/7 12/12/8 
f 1/1/1 13/13/9 14/14/10 
f 1/1/1 14/14/10 2/2/2 
f 5/5/1 15/15/11 13/13/9 
f 5/5/1 13/13/9 1/1/1 
f 7/7/1 16/16/12 15/15/11 
f 7/7/1 15/15/11 5/5/1 
f 9/9/1 17/17/13 16/16/12 
f 9/9/1 16/16/12 7/7/1 
f 11/11/1 18/18/14 17/17/13 
f 11/11/1 17/17/13 9/9/1 
f 19/19/15 20/20/16 21/21/17 
f 19/19/15 21/21/17 22/22/18 
f 22/22/18 21/21/17 23/23/19 
f 22/22/18 23/23/19 24/24/20 
f 24/24/20 23/23/19 25/25/21 
f 24/24/20 25/25/21 26/26/22 
f 26/26/22 25/25/21 27/27/23 
f 26/26/22 27/27/23 28/28/24 
f 28/28/24 27/27/23 29/29/25 
f 28/28/24 29/29/25 30/30/26 
f 31/31/27 32/32/28 33/33/29 
f 31/31/27 33/33/29 34/34/30 
f 34/34/30 33/33/29 35/35/31 
f 34/34/30 35/35/31 36/36/32 
f 36/36/32 35/35/31 37/37/33 
f 36/36/32 37/37/33 38/38/34 
f 38/38/34 37/37/33 39/39/35 
f 38/38/34 39/39/35 40/40/36 
f 40/40/36 39/39/35 41/41/37 
f 40/40/36 41/41/37 42/42/38 
f 42/42/38 41/41/37 43/43/39 
f 42/42/38 43/43/39 44/44/40 
f 44/44/40 43/43/39 20/20/16 
f 44/44/40 20/20/16 19/19/15 
f 45/45/41 46/46/42 47/47/43 
f 45/45/41 47/47/43 48/48/44 
f 48/48/44 47/47/43 49/49/45 
f 48/48/44 49/49/45 50/50/46 
f 50/50/46 49/49/45 51/51/47 
f 50/50/46 51/51/47 52/52/48 
f 52/52/48 51/51/47 53/53/49 
f 52/52/48 53/53/49 54/54/50 
f 54/54/50 53/53/49 55/55/51 
f 54/54/50 55/55/51 56/56/52 
f 57/57/53 58/58/54 59/59/55 
f 57/57/53 59/59/55 60/60/56 
f 60/60/56 59/59/55 61/61/57 
f 60/60/56 61/61/57 62/62/58 
f 62/62/58 61/61/57 63/63/59 
f 62/62/58 63/63/59 64/64/60 
f 64/64/60 63/63/59 65/65/61 
f 64/64/60 65/65/61 66/66/62 
f 66/66/62 65/65/61 67/67/63 
f 66/66/62 67/67/63 68/68/64 
f 68/68/64 67/67/63 69/69/65 
f 68/68/64 69/69/65 70/70/66 
f 70/71/66 69/72/65 46/46/42 
f 70/71/66 46/46/42 45/45/41 
f 71/73/67 45/45/41 48/48/44 
f 71/73/67 48/48/44 72/74/68 
f 72/74/68 48/48/44 50/50/46 
f 72/74/68 50/50/46 73/75/69 
f 73/75/69 50/50/46 52/52/48 
f 73/75/69 52/52/48 74/76/70 
f 74/76/70 52/52/48 54/54/50 
f 74/76/70 54/54/50 75/77/71 
f 75/77/71 54/54/50 56/56/52 
f 75/77/71 56/56/52 76/78/72 
f 77/79/73 57/57/53 60/60/56 
f 77/79/73 60/60/56 78/80/74 
f 78/80/74 60/60/56 62/62/58 
f 78/80/74 62/62/58 79/81/75 
f 79/81/75 62/62/58 64/64/60 
f 79/81/75 64/64/60 80/82/76 
f 80/82/76 64/64/60 66/66/62 
f 80/82/76 66/66/62 81/83/77 
f 81/83/77 66/66/62 68/68/64 
f 81/83/77 68/68/64 82/84/78 
f 82/84/78 68/68/64 70/70/66 
f 82/84/78 70/70/66 83/85/79 
f 83/86/79 70/71/66 45/45/41 
f 83/86/79 45/45/41 71/73/67 
f 84/87/80 71/73/67 72/74/68 
f 84/87/80 72/74/68 85/88/81 
f 85/88/81 72/74/68 73/75/69 
f 85/88/81 73/75/69 86/89/82 
f 86/89/82 73/75/69 74/76/70 
f 86/89/82 74/76/70 87/90/83 
f 87/90/83 74/76/70 75/77/71 
f 87/90/83 75/77/71 88/91/84 
f 88/91/84 75/77/71 76/78/72 
f 88/91/84 76/78/72 89/92/85 
f 76/78/72 90/93/86 91/94/87 
f 76/78/72 91/94/87 89/92/85 
f 92/95/88 77/79/73 78/80/74 
f 92/95/88 78/80/74 93/96/89 
f 93/96/89 78/80/74 79/81/75 
f 93/96/89 79/81/75 94/97/90 
f 94/97/90 79/81/75 80/82/76 
f 94/97/90 80/82/76 95/98/91 
f 95/98/91 80/82/76 81/83/77 
f 95/98/91 81/83/77 96/99/92 
f 96/99/92 81/83/77 82/84/78 
f 96/99/92 82/84/78 97/100/93 
f 97/100/93 82/84/78 83/85/79 
f 97/100/93 83/85/79 98/101/94 
f 98/102/94 83/86/79 71/73/67 
f 98/102/94 71/73/67 84/87/80 
f 46/103/42 19/19/15 22/22/18 
f 46/103/42 22/22/18 47/104/43 
f 47/104/43 22/22/18 24/24/20 
f 47/104/43 24/24/20 49/105/45 
f 49/105/45 24/24/20 26/26/22 
f 49/105/45 26/26/22 51/106/47 
f 51/106/47 26/26/22 28/28/24 
f 51/106/47 28/28/24 53/107/49 
f 53/107/49 28/28/24 30/30/26 
f 53/107/49 30/30/26 55/108/51 
f 58/109/54 31/31/27 34/34/30 
f 58/109/54 34/34/30 59/110/55 
f 59/110/55 34/34/30 36/36/32 
f 59/110/55 36/36/32 61/111/57 
f 61/111/57 36/36/32 38/38/34 
f 61/111/57 38/38/34 63/112/59 
f 63/112/59 38/38/34 40/40/36 
f 63/112/59 40/40/36 65/113/61 
f 65/113/61 40/40/36 42/42/38 
f 65/113/61 42/42/38 67/114/63 
f 67/114/63 42/42/38 44/44/40 
f 67/114/63 44/44/40 69/115/65 
f 69/115/65 44/44/40 19/19/15 
f 69/115/65 19/19/15 46/103/42 
f 99/116/95 100/117/96 101/118/97 
f 99/116/95 101/118/97 102/119/98 
f 100/117/96 103/120/99 104/121/100 
f 100/117/96 104/121/100 101/118/97 
f 103/120/99 105/122/101 106/123/102 
f 103/120/99 106/123/102 104/121/100 
f 105/122/101 107/124/103 108/125/104 
f 105/122/101 108/125/104 106/123/102 
f 107/124/103 109/126/105 110/127/106 
f 107/124/103 110/127/106 108/125/104 
f 111/128/107 112/129/108 113/130/109 
f 111/128/107 113/130/109 114/131/110 
f 112/129/108 115/132/111 116/133/112 
f 112/129/108 116/133/112 113/130/109 
f 115/132/111 117/134/113 118/135/114 
f 115/132/111 118/135/114 116/133/112 
f 117/134/113 119/136/115 120/137/116 
f 117/134/113 120/137/116 118/135/114 
f 119/136/115 121/138/117 122/139/118 
f 119/136/115 122/139/118 120/137/116 
f 121/138/117 123/140/119 124/141/120 
f 121/138/117 124/141/120 122/139/118 
f 123/140/119 99/116/95 102/119/98 
f 123/140/119 102/119/98 124/141/120 
f 125/142/121 126/143/122 127/144/1 
f 125/142/121 127/144/1 128/145/123 
f 128/145/123 127/144/1 129/146/124 
f 128/145/123 129/146/124 130/147/125 
f 130/147/125 129/146/124 131/148/124 
f 130/147/125 131/148/124 132/149/126 
f 132/149/126 131/148/124 133/150/1 
f 132/149/126 133/150/1 134/151/127 
f 134/151/127 133/150/1 135/152/1 
f 134/151/127 135/152/1 136/153/128 
f 137/154/129 138/155/130 127/144/1 
f 137/154/129 127/144/1 126/143/122 
f 138/155/130 139/156/131 129/146/124 
f 138/155/130 129/146/124 127/144/1 
f 139/156/131 140/157/132 131/148/124 
f 139/156/131 131/148/124 129/146/124 
f 140/157/132 141/158/133 133/150/1 
f 140/157/132 133/150/1 131/148/124 
f 141/158/133 142/159/134 135/152/1 
f 141/158/133 135/152/1 133/150/1 
f 142/159/134 18/18/14 11/11/1 
f 142/159/134 11/11/1 135/152/1 
f 136/153/128 135/152/1 11/11/1 
f 136/153/128 11/11/1 12/12/8 
f 143/160/135 144/161/136 145/162/137 
f 143/160/135 145/162/137 146/163/138 
f 147/164/139 143/160/135 146/163/138 
f 147/164/139 146/163/138 148/165/140 
f 149/166/141 147/164/139 148/165/140 
f 149/166/141 148/165/140 150/167/142 
f 151/168/143 149/166/141 150/167/142 
f 151/168/143 150/167/142 152/169/144 
f 153/170/145 151/168/143 152/169/144 
f 153/170/145 152/169/144 154/171/146 
f 30/30/26 29/29/25 153/170/145 
f 30/30/26 153/170/145 154/171/146 
f 155/172/147 156/173/148 157/174/149 
f 155/172/147 157/174/149 158/175/150 
f 159/176/151 155/172/147 158/175/150 
f 159/176/151 158/175/150 160/177/152 
f 161/178/153 159/176/151 160/177/152 
f 161/178/153 160/177/152 162/179/154 
f 163/180/155 161/178/153 162/179/154 
f 163/180/155 162/179/154 164/181/156 
f 165/182/157 163/180/155 164/181/156 
f 165/182/157 164/181/156 166/183/158 
f 167/184/159 165/182/157 166/183/158 
f 167/184/159 166/183/158 168/185/160 
f 144/161/136 167/184/159 168/185/160 
f 144/161/136 168/185/160 145/162/137 
f 156/173/148 32/32/28 31/31/27 
f 156/173/148 31/31/27 157/174/149 
f 169/186/161 170/187/162 171/188/163 
f 169/186/161 171/188/163 172/189/164 
f 173/190/165 169/186/161 172/189/164 
f 173/190/165 172/189/164 174/191/166 
f 175/192/167 173/190/165 174/191/166 
f 175/192/167 174/191/166 176/193/168 
f 177/194/169 175/192/167 176/193/168 
f 177/194/169 176/193/168 178/195/170 
f 179/196/171 177/194/169 178/195/170 
f 179/196/171 178/195/170 180/197/172 
f 56/56/52 55/55/51 179/196/171 
f 56/56/52 179/196/171 180/197/172 
f 181/198/173 182/199/174 183/200/175 
f 181/198/173 183/200/175 184/201/176 
f 185/202/177 181/198/173 184/201/176 
f 185/202/177 184/201/176 186/203/178 
f 187/204/179 185/202/177 186/203/178 
f 187/204/179 186/203/178 188/205/180 
f 189/206/181 187/204/179 188/205/180 
f 189/206/181 188/205/180 190/207/182 
f 191/208/183 189/206/181 190/207/182 
f 191/208/183 190/207/182 192/209/184 
f 193/210/185 191/208/183 192/209/184 
f 193/210/185 192/209/184 194/211/186 
f 170/187/162 193/212/185 194/213/186 
f 170/187/162 194/213/186 171/188/163 
f 182/199/174 58/58/54 57/57/53 
f 182/199/174 57/57/53 183/200/175 
f 172/189/164 171/188/163 195/214/187 
f 172/189/164 195/214/187 196/215/188 
f 174/191/166 172/189/164 196/215/188 
f 174/191/166 196/215/188 197/216/189 
f 176/193/168 174/191/166 197/216/189 
f 176/193/168 197/216/189 198/217/190 
f 178/195/170 176/193/168 198/217/190 
f 178/195/170 198/217/190 199/218/191 
f 180/197/172 178/195/170 199/218/191 
f 180/197/172 199/218/191 90/93/86 
f 76/78/72 56/56/52 180/197/172 
f 76/78/72 180/197/172 90/93/86 
f 184/201/176 183/200/175 200/219/192 
f 184/201/176 200/219/192 201/220/193 
f 186/203/178 184/201/176 201/220/193 
f 186/203/178 201/220/193 202/221/194 
f 188/205/180 186/203/178 202/221/194 
f 188/205/180 202/221/194 203/222/195 
f 190/207/182 188/205/180 203/222/195 
f 190/207/182 203/222/195 204/223/196 
f 192/209/184 190/207/182 204/223/196 
f 192/209/184 204/223/196 205/224/197 
f 194/211/186 192/209/184 205/224/197 
f 194/211/186 205/224/197 206/225/198 
f 171/188/163 194/213/186 206/226/198 
f 171/188/163 206/226/198 195/214/187 
f 183/200/175 57/57/53 77/79/73 
f 183/200/175 77/79/73 200/219/192 
f 207/227/199 208/228/200 196/215/188 
f 207/227/199 196/215/188 195/214/187 
f 208/228/200 209/229/201 197/216/189 
f 208/228/200 197/216/189 196/215/188 
f 209/229/201 210/230/202 198/217/190 
f 209/229/201 198/217/190 197/216/189 
f 210/230/202 211/231/203 199/218/191 
f 210/230/202 199/218/191 198/217/190 
f 211/231/203 91/94/87 90/93/86 
f 211/231/203 90/93/86 199/218/191 
f 92/95/88 212/232/204 200/219/192 
f 92/95/88 200/219/192 77/79/73 
f 212/232/204 213/233/205 201/220/193 
f 212/232/204 201/220/193 200/219/192 
f 213/233/205 214/234/206 202/221/194 
f 213/233/205 202/221/194 201/220/193 
f 214/234/206 215/235/207 203/222/195 
f 214/234/206 203/222/195 202/221/194 
f 215/235/207 216/236/208 204/223/196 
f 215/235/207 204/223/196 203/222/195 
f 216/236/208 217/237/209 205/224/197 
f 216/236/208 205/224/197 204/223/196 
f 217/237/209 218/238/210 206/225/198 
f 217/237/209 206/225/198 205/224/197 
f 218/239/210 207/227/199 195/214/187 
f 218/239/210 195/214/187 206/226/198 
f 170/240/162 169/241/161 146/163/138 
f 170/240/162 146/163/138 145/162/137 
f 169/241/161 173/242/165 148/165/140 
f 169/241/161 148/165/140 146/163/138 
f 173/242/165 175/243/167 150/167/142 
f 173/242/165 150/167/142 148/165/140 
f 175/243/167 177/244/169 152/169/144 
f 175/243/167 152/169/144 150/167/142 
f 177/244/169 179/245/171 154/171/146 
f 177/244/169 154/171/146 152/169/144 
f 179/245/171 55/108/51 30/30/26 
f 179/245/171 30/30/26 154/171/146 
f 58/109/54 182/246/174 157/174/149 
f 58/109/54 157/174/149 31/31/27 
f 182/246/174 181/247/173 158/175/150 
f 182/246/174 158/175/150 157/174/149 
f 181/247/173 185/248/177 160/177/152 
f 181/247/173 160/177/152 158/175/150 
f 185/248/177 187/249/179 162/179/154 
f 185/248/177 162/179/154 160/177/152 
f 187/249/179 189/250/181 164/181/156 
f 187/249/179 164/181/156 162/179/154 
f 189/250/181 191/251/183 166/183/158 
f 189/250/181 166/183/158 164/181/156 
f 191/251/183 193/252/185 168/185/160 
f 191/251/183 168/185/160 166/183/158 
f 193/252/185 170/240/162 145/162/137 
f 193/252/185 145/162/137 168/185/160 
f 219/253/211 220/254/212 221/255/213 
f 219/253/211 221/255/213 222/256/214 
f 223/257/215 224/258/216 220/254/212 
f 223/257/215 220/254/212 219/253/211 
f 225/259/217 226/260/218 224/258/216 
f 225/259/217 224/258/216 223/257/215 
f 227/261/219 228/262/220 226/260/218 
f 227/261/219 226/260/218 225/259/217 
f 229/263/221 230/264/222 228/262/220 
f 229/263/221 228/262/220 227/261/219 
f 110/127/106 109/126/105 230/264/222 
f 110/127/106 230/264/222 229/263/221 
f 114/131/110 231/265/223 232/266/224 
f 114/131/110 232/266/224 111/128/107 
f 233/267/225 234/268/226 232/266/224 
f 233/267/225 232/266/224 231/265/223 
f 235/269/227 236/270/228 234/268/226 
f 235/269/227 234/268/226 233/267/225 
f 237/271/229 238/272/230 236/270/228 
f 237/271/229 236/270/228 235/269/227 
f 239/273/231 240/274/232 238/272/230 
f 239/273/231 238/272/230 237/271/229 
f 241/275/233 242/276/234 240/274/232 
f 241/275/233 240/274/232 239/273/231 
f 243/277/235 244/278/236 242/276/234 
f 243/277/235 242/276/234 241/275/233 
f 222/256/214 221/255/213 244/278/236 
f 222/256/214 244/278/236 243/277/235 
f 245/279/237 84/280/80 85/281/81 
f 245/279/237 85/281/81 246/282/238 
f 246/282/238 85/281/81 86/283/82 
f 246/282/238 86/283/82 247/284/239 
f 247/285/239 86/286/82 87/287/83 
f 247/285/239 87/287/83 248/288/240 
f 248/288/240 87/287/83 88/289/84 
f 248/288/240 88/289/84 249/290/241 
f 249/290/241 88/289/84 89/291/85 
f 249/290/241 89/291/85 250/292/242 
f 250/292/242 89/291/85 91/293/87 
f 250/292/242 91/293/87 251/294/243 
f 251/294/243 91/293/87 211/295/203 
f 251/294/243 211/295/203 252/296/244 
f 252/296/244 211/295/203 210/297/202 
f 252/296/244 210/297/202 253/298/245 
f 253/298/245 210/297/202 209/299/201 
f 253/298/245 209/299/201 254/300/246 
f 254/301/246 209/302/201 208/303/200 
f 254/301/246 208/303/200 255/304/247 
f 255/304/247 208/303/200 207/305/199 
f 255/304/247 207/305/199 256/306/248 
f 256/306/248 207/305/199 218/307/210 
f 256/306/248 218/307/210 257/308/249 
f 257/308/249 218/307/210 217/309/209 
f 257/308/249 217/309/209 258/310/250 
f 258/310/250 217/309/209 216/311/208 
f 258/310/250 216/311/208 259/312/251 
f 259/312/251 216/311/208 215/313/207 
f 259/312/251 215/313/207 260/314/252 
f 260/315/252 215/316/207 214/317/206 
f 260/315/252 214/317/206 261/318/253 
f 261/318/253 214/317/206 213/319/205 
f 261/318/253 213/319/205 262/320/254 
f 262/320/254 213/319/205 212/321/204 
f 262/320/254 212/321/204 263/322/255 
f 263/322/255 212/321/204 92/323/88 
f 263/322/255 92/323/88 264/324/256 
f 264/324/256 92/323/88 93/325/89 
f 264/324/256 93/325/89 265/326/257 
f 265/326/257 93/325/89 94/327/90 
f 265/326/257 94/327/90 266/328/258 
f 266/328/258 94/327/90 95/329/91 
f 266/328/258 95/329/91 267/330/259 
f 267/331/259 95/332/91 96/333/92 
f 267/331/259 96/333/92 268/334/260 
f 268/334/260 96/333/92 97/335/93 
f 268/334/260 97/335/93 269/336/261 
f 269/336/261 97/335/93 98/337/94 
f 269/336/261 98/337/94 270/338/262 
f 270/338/262 98/337/94 84/280/80 
f 270/338/262 84/280/80 245/279/237 
f 99/116/95 14/14/10 13/13/9 
f 99/116/95 13/13/9 100/117/96 
f 100/117/96 13/13/9 15/15/11 
f 100/117/96 15/15/11 103/120/99 
f 103/120/99 15/15/11 16/16/12 
f 103/120/99 16/16/12 105/122/101 
f 105/122/101 16/16/12 17/17/13 
f 105/122/101 17/17/13 107/124/103 
f 107/124/103 17/17/13 18/18/14 
f 107/124/103 18/18/14 109/126/105 
f 111/128/107 12/12/8 10/10/7 
f 111/128/107 10/10/7 112/129/108 
f 112/129/108 10/10/7 8/8/6 
f 112/129/108 8/8/6 115/132/111 
f 115/132/111 8/8/6 6/6/5 
f 115/132/111 6/6/5 117/134/113 
f 117/134/113 6/6/5 4/4/4 
f 117/134/113 4/4/4 119/136/115 
f 119/136/115 4/4/4 3/3/3 
f 119/136/115 3/3/3 121/138/117 
f 121/138/117 3/3/3 2/2/2 
f 121/138/117 2/2/2 123/140/119 
f 123/140/119 2/2/2 14/14/10 
f 123/140/119 14/14/10 99/116/95 
f 220/254/212 138/155/130 137/154/129 
f 220/254/212 137/154/129 221/255/213 
f 224/258/216 139/156/131 138/155/130 
f 224/258/216 138/155/130 220/254/212 
f 226/260/218 140/157/132 139/156/131 
f 226/260/218 139/156/131 224/258/216 
f 228/262/220 141/158/133 140/157/132 
f 228/262/220 140/157/132 226/260/218 
f 230/264/222 142/159/134 141/158/133 
f 230/264/222 141/158/133 228/262/220 
f 230/264/222 109/126/105 18/18/14 
f 230/264/222 18/18/14 142/159/134 
f 232/266/224 136/153/128 12/12/8 
f 232/266/224 12/12/8 111/128/107 
f 234/268/226 134/151/127 136/153/128 
f 234/268/226 136/153/128 232/266/224 
f 236/270/228 132/149/126 134/151/127 
f 236/270/228 134/151/127 234/268/226 
f 238/272/230 130/147/125 132/149/126 
f 238/272/230 132/149/126 236/270/228 
f 240/274/232 128/145/123 130/147/125 
f 240/274/232 130/147/125 238/272/230 
f 242/276/234 125/142/121 128/145/123 
f 242/276/234 128/145/123 240/274/232 
f 244/278/236 126/143/122 125/142/121 
f 244/278/236 125/142/121 242/276/234 
f 221/255/213 137/154/129 126/143/122 
f 221/255/213 126/143/122 244/278/236 
f 20/20/16 102/119/98 101/118/97 
f 20/20/16 101/118/97 21/21/17 
f 21/21/17 101/118/97 104/121/100 
f 21/21/17 104/121/100 23/23/19 
f 23/23/19 104/121/100 106/123/102 
f 23/23/19 106/123/102 25/25/21 
f 25/25/21 106/123/102 108/125/104 
f 25/25/21 108/125/104 27/27/23 
f 27/27/23 108/125/104 110/127/106 
f 27/27/23 110/127/106 29/29/25 
f 32/32/28 114/131/110 113/130/109 
f 32/32/28 113/130/109 33/33/29 
f 33/33/29 113/130/109 116/133/112 
f 33/33/29 116/133/112 35/35/31 
f 35/35/31 116/133/112 118/135/114 
f 35/35/31 118/135/114 37/37/33 
f 37/37/33 118/135/114 120/137/116 
f 37/37/33 120/137/116 39/39/35 
f 39/39/35 120/137/116 122/139/118 
f 39/39/35 122/139/118 41/41/37 
f 41/41/37 122/139/118 124/141/120 
f 41/41/37 124/141/120 43/43/39 
f 43/43/39 124/141/120 102/119/98 
f 43/43/39 102/119/98 20/20/16 
f 143/160/135 219/253/211 222/256/214 
f 143/160/135 222/256/214 144/161/136 
f 147/164/139 223/257/215 219/253/211 
f 147/164/139 219/253/211 143/160/135 
f 149/166/141 225/259/217 223/257/215 
f 149/166/141 223/257/215 147/164/139 
f 151/168/143 227/261/219 225/259/217 
f 151/168/143 225/259/217 149/166/141 
f 153/170/145 229/263/221 227/261/219 
f 153/170/145 227/261/219 151/168/143 
f 153/170/145 29/29/25 110/127/106 
f 153/170/145 110/127/106 229/263/221 
f 155/172/147 233/267/225 231/265/223 
f 155/172/147 231/265/223 156/173/148 
f 159/176/151 235/269/227 233/267/225 
f 159/176/151 233/267/225 155/172/147 
f 161/178/153 237/271/229 235/269/227 
f 161/178/153 235/269/227 159/176/151 
f 163/180/155 239/273/231 237/271/229 
f 163/180/155 237/271/229 161/178/153 
f 165/182/157 241/275/233 239/273/231 
f 165/182/157 239/273/231 163/180/155 
f 167/184/159 243/277/235 241/275/233 
f 167/184/159 241/275/233 165/182/157 
f 144/161/136 222/256/214 243/277/235 
f 144/161/136 243/277/235 167/184/159 
f 156/173/148 231/265/223 114/131/110 
f 156/173/148 114/131/110 32/32/28 
f 271/339/263 272/340/264 273/341/265 
f 271/339/263 273/341/265 274/342/266 
f 274/342/266 273/341/265 275/343/267 
f 274/342/266 275/343/267 276/344/268 
f 276/344/268 275/343/267 277/345/269 
f 276/344/268 277/345/269 278/346/270 
f 278/346/270 277/345/269 279/347/271 
f 278/346/270 279/347/271 280/348/272 
f 280/348/272 279/347/271 281/349/273 
f 280/348/272 281/349/273 282/350/274 
f 282/350/274 281/349/273 283/351/275 
f 282/350/274 283/351/275 284/352/276 
f 285/353/277 286/354/278 287/355/279 
f 285/353/277 287/355/279 288/356/280 
f 288/356/280 287/355/279 289/357/281 
f 288/356/280 289/357/281 290/358/282 
f 290/358/282 289/357/281 291/359/283 
f 290/358/282 291/359/283 292/360/284 
f 292/360/284 291/359/283 293/361/285 
f 292/360/284 293/361/285 294/362/286 
f 294/362/286 293/361/285 295/363/287 
f 294/362/286 295/363/287 296/364/288 
f 296/364/288 295/363/287 297/365/289 
f 296/364/288 297/365/289 298/366/290 
f 298/366/290 297/365/289 272/340/264 
f 298/366/290 272/340/264 271/339/263 
f 299/367/291 271/368/263 274/369/266 
f 299/367/291 274/369/266 300/370/292 
f 300/370/292 274/369/266 276/371/268 
f 300/370/292 276/371/268 301/372/293 
f 301/372/293 276/371/268 278/373/270 
f 301/372/293 278/373/270 302/374/294 
f 302/374/294 278/373/270 280/375/272 
f 302/374/294 280/375/272 303/376/295 
f 303/376/295 280/375/272 282/377/274 
f 303/376/295 282/377/274 304/378/296 
f 304/378/296 282/377/274 284/379/276 
f 304/378/296 284/379/276 305/380/297 
f 306/381/298 307/382/299 285/383/277 
f 306/381/298 285/383/277 288/384/280 
f 306/381/298 288/384/280 290/385/282 
f 306/381/298 290/385/282 308/386/300 
f 308/386/300 290/385/282 292/387/284 
f 308/386/300 292/387/284 309/388/301 
f 309/388/301 292/387/284 294/389/286 
f 309/388/301 294/389/286 310/390/302 
f 310/390/302 294/389/286 296/391/288 
f 310/390/302 296/391/288 311/392/303 
f 311/392/303 296/391/288 298/393/290 
f 311/392/303 298/393/290 312/394/304 
f 312/394/304 298/393/290 271/368/263 
f 312/394/304 271/368/263 299/367/291 
f 245/395/124 246/396/124 313/397/305 
f 245/395/124 313/397/305 314/398/306 
f 246/396/124 315/399/124 316/400/307 
f 246/396/124 316/400/307 313/397/305 
f 315/399/124 248/401/124 317/402/308 
f 315/399/124 317/402/308 316/400/307 
f 248/401/124 249/403/1 318/404/309 
f 248/401/124 318/404/309 317/402/308 
f 249/403/1 250/405/1 319/406/310 
f 249/403/1 319/406/310 318/404/309 
f 320/407/1 265/408/1 321/409/311 
f 320/407/1 321/409/311 322/410/312 
f 265/408/1 266/411/1 323/412/313 
f 265/408/1 323/412/313 321/409/311 
f 266/411/1 324/413/124 325/414/314 
f 266/411/1 325/414/314 323/412/313 
f 324/413/124 268/415/1 326/416/315 
f 324/413/124 326/416/315 325/414/314 
f 268/415/1 269/417/124 327/418/316 
f 268/415/1 327/418/316 326/416/315 
f 269/417/124 270/419/124 328/420/317 
f 269/417/124 328/420/317 327/418/316 
f 270/419/124 245/395/124 314/398/306 
f 270/419/124 314/398/306 328/420/317 
f 272/340/264 328/420/317 314/398/306 
f 272/340/264 314/398/306 273/341/265 
f 273/341/265 314/398/306 313/397/305 
f 273/341/265 313/397/305 275/343/267 
f 275/343/267 313/397/305 316/400/307 
f 275/343/267 316/400/307 277/345/269 
f 277/345/269 316/400/307 317/402/308 
f 277/345/269 317/402/308 279/347/271 
f 279/347/271 317/402/308 318/404/309 
f 279/347/271 318/404/309 281/349/273 
f 281/349/273 318/404/309 319/406/310 
f 281/349/273 319/406/310 283/351/275 
f 287/355/279 322/410/312 321/409/311 
f 287/355/279 321/409/311 289/357/281 
f 289/357/281 321/409/311 323/412/313 
f 289/357/281 323/412/313 291/359/283 
f 291/359/283 323/412/313 325/414/314 
f 291/359/283 325/414/314 293/361/285 
f 293/361/285 325/414/314 326/416/315 
f 293/361/285 326/416/315 295/363/287 
f 295/363/287 326/416/315 327/418/316 
f 295/363/287 327/418/316 297/365/289 
f 297/365/289 327/418/316 328/420/317 
f 297/365/289 328/420/317 272/340/264 
f 329/421/318 330/422/319 331/423/320 
f 329/421/318 331/423/320 332/424/321 
f 333/425/322 329/421/318 332/424/321 
f 333/425/322 332/424/321 334/426/323 
f 335/427/324 333/425/322 334/426/323 
f 335/427/324 334/426/323 336/428/325 
f 337/429/326 335/427/324 336/428/325 
f 337/429/326 336/428/325 338/430/327 
f 339/431/328 337/429/326 338/430/327 
f 339/431/328 338/430/327 340/432/329 
f 341/433/330 339/431/328 340/432/329 
f 341/433/330 340/432/329 342/434/331 
f 343/435/332 286/354/278 285/353/277 
f 343/435/332 285/353/277 344/436/333 
f 345/437/334 343/435/332 344/436/333 
f 345/437/334 344/436/333 346/438/335 
f 347/439/336 345/437/334 346/438/335 
f 347/439/336 346/438/335 348/440/337 
f 349/441/338 347/439/336 348/440/337 
f 349/441/338 348/440/337 350/442/339 
f 351/443/340 349/441/338 350/442/339 
f 351/443/340 350/442/339 352/444/341 
f 330/422/319 351/443/340 352/444/341 
f 330/422/319 352/444/341 331/423/320 
f 332/445/321 331/446/320 353/447/342 
f 332/445/321 353/447/342 354/448/343 
f 334/449/323 332/450/321 354/451/343 
f 334/449/323 354/451/343 355/452/344 
f 336/453/325 334/449/323 355/452/344 
f 336/453/325 355/452/344 356/454/345 
f 338/455/327 336/453/325 356/454/345 
f 338/455/327 356/454/345 357/456/346 
f 340/457/329 338/455/327 357/456/346 
f 340/457/329 357/456/346 358/458/347 
f 342/459/331 340/457/329 358/458/347 
f 342/459/331 358/458/347 359/460/348 
f 344/461/333 285/383/277 307/382/299 
f 344/461/333 307/382/299 360/462/349 
f 346/463/335 344/461/333 360/462/349 
f 346/463/335 360/462/349 361/464/350 
f 348/465/337 346/463/335 361/464/350 
f 348/465/337 361/464/350 362/466/351 
f 350/467/339 348/465/337 362/466/351 
f 350/467/339 362/466/351 363/468/352 
f 352/469/341 350/467/339 363/468/352 
f 352/469/341 363/468/352 364/470/353 
f 331/446/320 352/469/341 364/470/353 
f 331/446/320 364/470/353 353/447/342 
f 365/471/354 366/472/1 256/473/124 
f 365/471/354 256/473/124 367/474/355 
f 368/475/356 254/476/124 366/472/1 
f 368/475/356 366/472/1 365/471/354 
f 369/477/357 253/478/1 254/476/124 
f 369/477/357 254/476/124 368/475/356 
f 370/479/358 252/480/1 253/478/1 
f 370/479/358 253/478/1 369/477/357 
f 371/481/359 251/482/124 252/480/1 
f 371/481/359 252/480/1 370/479/358 
f 319/406/310 250/405/1 251/482/124 
f 319/406/310 251/482/124 371/481/359 
f 372/483/360 262/484/124 263/485/1 
f 372/483/360 263/485/1 373/486/361 
f 374/487/362 261/488/124 262/484/124 
f 374/487/362 262/484/124 372/483/360 
f 375/489/363 260/490/124 261/488/124 
f 375/489/363 261/488/124 374/487/362 
f 376/491/364 377/492/1 260/490/124 
f 376/491/364 260/490/124 375/489/363 
f 378/493/365 258/494/1 377/492/1 
f 378/493/365 377/492/1 376/491/364 
f 379/495/366 257/496/124 258/494/1 
f 379/495/366 258/494/1 378/493/365 
f 367/474/355 256/473/124 257/496/124 
f 367/474/355 257/496/124 379/495/366 
f 371/481/359 341/433/330 283/351/275 
f 371/481/359 283/351/275 319/406/310 
f 284/379/276 342/459/331 359/460/348 
f 284/379/276 359/460/348 305/380/297 
f 322/410/312 373/486/361 263/485/1 
f 322/410/312 263/485/1 320/407/1 
f 367/474/355 379/495/366 330/422/319 
f 367/474/355 330/422/319 329/421/318 
f 365/471/354 367/474/355 329/421/318 
f 365/471/354 329/421/318 333/425/322 
f 368/475/356 365/471/354 333/425/322 
f 368/475/356 333/425/322 335/427/324 
f 369/477/357 368/475/356 335/427/324 
f 369/477/357 335/427/324 337/429/326 
f 370/479/358 369/477/357 337/429/326 
f 370/479/358 337/429/326 339/431/328 
f 371/481/359 370/479/358 339/431/328 
f 371/481/359 339/431/328 341/433/330 
f 286/354/278 373/486/361 322/410/312 
f 286/354/278 322/410/312 287/355/279 
f 372/483/360 373/486/361 286/354/278 
f 372/483/360 286/354/278 343/435/332 
f 374/487/362 372/483/360 343/435/332 
f 374/487/362 343/435/332 345/437/334 
f 375/489/363 374/487/362 345/437/334 
f 375/489/363 345/437/334 347/439/336 
f 376/491/364 375/489/363 347/439/336 
f 376/491/364 347/439/336 349/441/338 
f 378/493/365 376/491/364 349/441/338 
f 378/493/365 349/441/338 351/443/340 
f 379/495/366 378/493/365 351/443/340 
f 379/495/366 351/443/340 330/422/319 
f 341/433/330 342/434/331 284/352/276 
f 341/433/330 284/352/276 283/351/275 
f 380/497/367 381/498/368 382/499/369 
f 380/497/367 382/499/369 383/500/370 
f 384/501/371 380/497/367 383/500/370 
f 384/501/371 383/500/370 385/502/372 
f 386/503/373 384/501/371 385/502/372 
f 386/503/373 385/502/372 387/504/374 
f 388/505/375 386/503/373 387/504/374 
f 388/505/375 387/504/374 389/506/376 
f 390/507/377 388/505/375 389/506/376 
f 390/507/377 389/506/376 391/508/378 
f 392/509/379 390/507/377 391/508/378 
f 392/509/379 391/508/378 393/510/380 
f 394/511/381 395/512/382 396/513/383 
f 394/511/381 396/513/383 397/514/384 
f 398/515/385 394/511/381 397/514/384 
f 398/515/385 397/514/384 399/516/386 
f 400/517/387 398/515/385 399/516/386 
f 400/517/387 399/516/386 401/518/388 
f 402/519/389 400/517/387 401/518/388 
f 402/519/389 401/518/388 403/520/390 
f 404/521/391 402/519/389 403/520/390 
f 404/521/391 403/520/390 405/522/392 
f 406/523/393 404/521/391 405/522/392 
f 406/523/393 405/522/392 407/524/394 
f 381/498/368 406/523/393 407/524/394 
f 381/498/368 407/524/394 382/499/369 
f 383/525/370 382/526/369 299/367/291 
f 383/525/370 299/367/291 300/370/292 
f 385/527/372 383/525/370 300/370/292 
f 385/527/372 300/370/292 301/372/293 
f 387/528/374 385/527/372 301/372/293 
f 387/528/374 301/372/293 302/374/294 
f 389/529/376 387/528/374 302/374/294 
f 389/529/376 302/374/294 303/376/295 
f 391/530/378 389/529/376 303/376/295 
f 391/530/378 303/376/295 304/378/296 
f 393/531/380 391/530/378 304/378/296 
f 393/531/380 304/378/296 305/380/297 
f 306/381/298 397/532/384 396/533/383 
f 306/381/298 396/533/383 307/382/299 
f 399/534/386 397/532/384 306/381/298 
f 399/534/386 306/381/298 308/386/300 
f 401/535/388 399/534/386 308/386/300 
f 401/535/388 308/386/300 309/388/301 
f 403/536/390 401/535/388 309/388/301 
f 403/536/390 309/388/301 310/390/302 
f 405/537/392 403/536/390 310/390/302 
f 405/537/392 310/390/302 311/392/303 
f 407/538/394 405/537/392 311/392/303 
f 407/538/394 311/392/303 312/394/304 
f 382/526/369 407/538/394 312/394/304 
f 382/526/369 312/394/304 299/367/291 
f 408/539/395 409/540/396 410/541/397 
f 408/539/395 410/541/397 411/542/398 
f 412/543/399 413/544/400 409/540/396 
f 412/543/399 409/540/396 408/539/395 
f 414/545/401 415/546/402 413/544/400 
f 414/545/401 413/544/400 412/543/399 
f 416/547/403 417/548/404 415/546/402 
f 416/547/403 415/546/402 414/545/401 
f 418/549/405 419/550/406 417/548/404 
f 418/549/405 417/548/404 416/547/403 
f 420/551/407 421/552/408 422/553/409 
f 420/551/407 422/553/409 423/554/410 
f 424/555/411 425/556/412 421/552/408 
f 424/555/411 421/552/408 420/551/407 
f 426/557/413 427/558/414 425/556/412 
f 426/557/413 425/556/412 424/555/411 
f 428/559/415 429/560/416 427/558/414 
f 428/559/415 427/558/414 426/557/413 
f 430/561/417 431/562/418 429/560/416 
f 430/561/417 429/560/416 428/559/415 
f 432/563/419 433/564/420 431/562/418 
f 432/563/419 431/562/418 430/561/417 
f 411/542/398 410/541/397 433/564/420 
f 411/542/398 433/564/420 432/563/419 
f 411/542/398 432/563/419 381/498/368 
f 411/542/398 381/498/368 380/497/367 
f 408/539/395 411/542/398 380/497/367 
f 408/539/395 380/497/367 384/501/371 
f 412/543/399 408/539/395 384/501/371 
f 412/543/399 384/501/371 386/503/373 
f 414/545/401 412/543/399 386/503/373 
f 414/545/401 386/503/373 388/505/375 
f 416/547/403 414/545/401 388/505/375 
f 416/547/403 388/505/375 390/507/377 
f 418/549/405 416/547/403 390/507/377 
f 418/549/405 390/507/377 392/509/379 
f 420/551/407 423/554/410 394/511/381 
f 420/551/407 394/511/381 398/515/385 
f 424/555/411 420/551/407 398/515/385 
f 424/555/411 398/515/385 400/517/387 
f 426/557/413 424/555/411 400/517/387 
f 426/557/413 400/517/387 402/519/389 
f 428/559/415 426/557/413 402/519/389 
f 428/559/415 402/519/389 404/521/391 
f 430/561/417 428/559/415 404/521/391 
f 430/561/417 404/521/391 406/523/393 
f 432/563/419 430/561/417 406/523/393 
f 432/563/419 406/523/393 381/498/368 
f 434/565/421 435/566/422 436/567/423 
f 434/565/421 436/567/423 437/568/424 
f 437/568/424 436/567/423 438/569/425 
f 437/568/424 438/569/425 439/570/426 
f 439/570/426 438/569/425 440/571/427 
f 439/570/426 440/571/427 441/572/428 
f 441/572/428 440/571/427 442/573/429 
f 441/572/428 442/573/429 443/574/430 
f 443/574/430 442/573/429 444/575/431 
f 443/574/430 444/575/431 445/576/432 
f 445/576/432 444/575/431 446/577/433 
f 445/576/432 446/577/433 447/578/434 
f 396/513/383 395/512/382 448/579/435 
f 396/513/383 448/579/435 449/580/436 
f 449/580/436 448/579/435 450/581/437 
f 449/580/436 450/581/437 451/582/438 
f 451/582/438 450/581/437 452/583/439 
f 451/582/438 452/583/439 453/584/440 
f 453/584/440 452/583/439 454/585/441 
f 453/584/440 454/585/441 455/586/442 
f 455/586/442 454/585/441 456/587/443 
f 455/586/442 456/587/443 457/588/444 
f 457/588/444 456/587/443 435/566/422 
f 457/588/444 435/566/422 434/565/421 
f 353/447/342 434/589/421 437/590/424 
f 353/447/342 437/590/424 354/448/343 
f 354/451/343 437/591/424 439/592/426 
f 354/451/343 439/592/426 355/452/344 
f 355/452/344 439/592/426 441/593/428 
f 355/452/344 441/593/428 356/454/345 
f 356/454/345 441/593/428 443/594/430 
f 356/454/345 443/594/430 357/456/346 
f 357/456/346 443/594/430 445/595/432 
f 357/456/346 445/595/432 358/458/347 
f 358/458/347 445/595/432 447/596/434 
f 358/458/347 447/596/434 359/460/348 
f 307/382/299 396/533/383 449/597/436 
f 307/382/299 449/597/436 360/462/349 
f 360/462/349 449/597/436 451/598/438 
f 360/462/349 451/598/438 361/464/350 
f 361/464/350 451/598/438 453/599/440 
f 361/464/350 453/599/440 362/466/351 
f 362/466/351 453/599/440 455/600/442 
f 362/466/351 455/600/442 363/468/352 
f 363/468/352 455/600/442 457/601/444 
f 363/468/352 457/601/444 364/470/353 
f 364/470/353 457/601/444 434/589/421 
f 364/470/353 434/589/421 353/447/342 
f 458/602/445 459/603/446 460/604/447 
f 458/602/445 460/604/447 461/605/448 
f 459/603/446 462/606/449 463/607/450 
f 459/603/446 463/607/450 460/604/447 
f 462/606/449 464/608/451 465/609/452 
f 462/606/449 465/609/452 463/607/450 
f 464/608/451 466/610/453 467/611/454 
f 464/608/451 467/611/454 465/609/452 
f 466/610/453 468/612/455 469/613/456 
f 466/610/453 469/613/456 467/611/454 
f 468/612/455 419/550/406 418/549/405 
f 468/612/455 418/549/405 469/613/456 
f 470/614/457 471/615/458 472/616/459 
f 470/614/457 472/616/459 473/617/460 
f 471/615/458 474/618/461 475/619/462 
f 471/615/458 475/619/462 472/616/459 
f 474/618/461 476/620/463 477/621/464 
f 474/618/461 477/621/464 475/619/462 
f 476/620/463 478/622/465 479/623/466 
f 476/620/463 479/623/466 477/621/464 
f 478/622/465 480/624/467 481/625/468 
f 478/622/465 481/625/468 479/623/466 
f 480/624/467 482/626/469 483/627/470 
f 480/624/467 483/627/470 481/625/468 
f 482/626/469 458/602/445 461/605/448 
f 482/626/469 461/605/448 483/627/470 
f 392/509/379 446/577/433 469/613/456 
f 392/509/379 469/613/456 418/549/405 
f 393/531/380 305/380/297 359/460/348 
f 393/531/380 359/460/348 447/596/434 
f 423/554/410 422/553/409 470/614/457 
f 423/554/410 470/614/457 473/617/460 
f 435/566/422 483/627/470 461/605/448 
f 435/566/422 461/605/448 436/567/423 
f 436/567/423 461/605/448 460/604/447 
f 436/567/423 460/604/447 438/569/425 
f 438/569/425 460/604/447 463/607/450 
f 438/569/425 463/607/450 440/571/427 
f 440/571/427 463/607/450 465/609/452 
f 440/571/427 465/609/452 442/573/429 
f 442/573/429 465/609/452 467/611/454 
f 442/573/429 467/611/454 444/575/431 
f 444/575/431 467/611/454 469/613/456 
f 444/575/431 469/613/456 446/577/433 
f 395/512/382 394/511/381 423/554/410 
f 395/512/382 423/554/410 473/617/460 
f 395/512/382 473/617/460 472/616/459 
f 395/512/382 472/616/459 448/579/435 
f 448/579/435 472/616/459 475/619/462 
f 448/579/435 475/619/462 450/581/437 
f 450/581/437 475/619/462 477/621/464 
f 450/581/437 477/621/464 452/583/439 
f 452/583/439 477/621/464 479/623/466 
f 452/583/439 479/623/466 454/585/441 
f 454/585/441 479/623/466 481/625/468 
f 454/585/441 481/625/468 456/587/443 
f 456/587/443 481/625/468 483/627/470 
f 456/587/443 483/627/470 435/566/422 
f 446/577/433 392/509/379 393/510/380 
f 446/577/433 393/510/380 447/578/434 
f 484/628/471 485/629/472 486/630/473 
f 484/628/471 486/630/473 487/631/474 
f 488/632/475 484/628/471 487/631/474 
f 488/632/475 487/631/474 489/633/476 
f 490/634/477 488/632/475 489/633/476 
f 490/634/477 489/633/476 491/635/478 
f 492/636/479 490/634/477 491/635/478 
f 492/636/479 491/635/478 493/637/480 
f 494/638/481 492/636/479 493/637/480 
f 494/638/481 493/637/480 495/639/482 
f 496/640/483 497/641/484 498/642/485 
f 496/640/483 498/642/485 499/643/486 
f 500/644/487 496/640/483 499/643/486 
f 500/644/487 499/643/486 501/645/488 
f 502/646/489 500/644/487 501/645/488 
f 502/646/489 501/645/488 503/647/490 
f 504/648/491 502/646/489 503/647/490 
f 504/648/491 503/647/490 505/649/492 
f 506/650/493 504/648/491 505/649/492 
f 506/650/493 505/649/492 507/651/494 
f 508/652/495 506/650/493 507/651/494 
f 508/652/495 507/651/494 509/653/496 
f 485/629/472 508/652/495 509/653/496 
f 485/629/472 509/653/496 486/630/473 
f 487/631/474 486/630/473 510/654/497 
f 487/631/474 510/654/497 511/655/498 
f 489/633/476 487/631/474 511/655/498 
f 489/633/476 511/655/498 512/656/499 
f 491/635/478 489/633/476 512/656/499 
f 491/635/478 512/656/499 513/657/500 
f 493/637/480 491/635/478 513/657/500 
f 493/637/480 513/657/500 514/658/501 
f 495/639/482 493/637/480 514/658/501 
f 495/639/482 514/658/501 515/659/502 
f 499/643/486 498/642/485 516/660/503 
f 499/643/486 516/660/503 517/661/504 
f 501/645/488 499/643/486 517/661/504 
f 501/645/488 517/661/504 518/662/505 
f 503/647/490 501/645/488 518/662/505 
f 503/647/490 518/662/505 519/663/506 
f 505/649/492 503/647/490 519/663/506 
f 505/649/492 519/663/506 520/664/507 
f 507/651/494 505/649/492 520/664/507 
f 507/651/494 520/664/507 521/665/508 
f 509/653/496 507/651/494 521/665/508 
f 509/653/496 521/665/508 522/666/509 
f 486/630/473 509/653/496 522/666/509 
f 486/630/473 522/666/509 510/654/497 
f 523/667/510 524/668/511 511/655/498 
f 523/667/510 511/655/498 510/654/497 
f 524/668/511 525/669/512 512/656/499 
f 524/668/511 512/656/499 511/655/498 
f 525/669/512 526/670/513 513/657/500 
f 525/669/512 513/657/500 512/656/499 
f 526/670/513 527/671/514 514/658/501 
f 526/670/513 514/658/501 513/657/500 
f 527/671/514 528/672/515 515/659/502 
f 527/671/514 515/659/502 514/658/501 
f 529/673/516 530/674/517 515/659/502 
f 529/673/516 515/659/502 528/672/515 
f 531/675/518 532/676/519 517/661/504 
f 531/675/518 517/661/504 516/660/503 
f 532/676/519 533/677/520 518/662/505 
f 532/676/519 518/662/505 517/661/504 
f 533/677/520 534/678/521 519/663/506 
f 533/677/520 519/663/506 518/662/505 
f 534/678/521 535/679/522 520/664/507 
f 534/678/521 520/664/507 519/663/506 
f 535/679/522 536/680/523 521/665/508 
f 535/679/522 521/665/508 520/664/507 
f 536/680/523 537/681/524 522/666/509 
f 536/680/523 522/666/509 521/665/508 
f 537/681/524 523/667/510 510/654/497 
f 537/681/524 510/654/497 522/666/509 
f 538/682/525 539/683/526 540/684/527 
f 538/682/525 540/684/527 541/685/528 
f 541/685/528 540/684/527 542/686/529 
f 541/685/528 542/686/529 543/687/530 
f 543/687/530 542/686/529 544/688/531 
f 543/687/530 544/688/531 545/689/532 
f 545/689/532 544/688/531 546/690/533 
f 545/689/532 546/690/533 547/691/534 
f 547/691/534 546/690/533 548/692/535 
f 547/691/534 548/692/535 549/693/536 
f 548/692/535 494/638/481 495/639/482 
f 548/692/535 495/639/482 549/693/536 
f 550/694/537 551/695/538 552/696/539 
f 550/694/537 552/696/539 553/697/540 
f 553/697/540 552/696/539 554/698/541 
f 553/697/540 554/698/541 555/699/542 
f 555/699/542 554/698/541 556/700/543 
f 555/699/542 556/700/543 557/701/544 
f 557/701/544 556/700/543 558/702/545 
f 557/701/544 558/702/545 559/703/546 
f 559/703/546 558/702/545 560/704/547 
f 559/703/546 560/704/547 561/705/548 
f 561/705/548 560/704/547 562/706/549 
f 561/705/548 562/706/549 563/707/550 
f 563/707/550 562/706/549 539/683/526 
f 563/707/550 539/683/526 538/682/525 
f 498/642/485 497/641/484 551/695/538 
f 498/642/485 551/695/538 550/694/537 
f 564/708/551 538/682/525 541/685/528 
f 564/708/551 541/685/528 565/709/552 
f 565/709/552 541/685/528 543/687/530 
f 565/709/552 543/687/530 566/710/553 
f 566/710/553 543/687/530 545/689/532 
f 566/710/553 545/689/532 567/711/554 
f 567/711/554 545/689/532 547/691/534 
f 567/711/554 547/691/534 568/712/555 
f 568/712/555 547/691/534 549/693/536 
f 568/712/555 549/693/536 530/674/517 
f 549/693/536 495/639/482 515/659/502 
f 549/693/536 515/659/502 530/674/517 
f 569/713/556 550/694/537 553/697/540 
f 569/713/556 553/697/540 570/714/557 
f 570/714/557 553/697/540 555/699/542 
f 570/714/557 555/699/542 571/715/558 
f 571/715/558 555/699/542 557/701/544 
f 571/715/558 557/701/544 572/716/559 
f 572/716/559 557/701/544 559/703/546 
f 572/716/559 559/703/546 573/717/560 
f 573/717/560 559/703/546 561/705/548 
f 573/717/560 561/705/548 574/718/561 
f 574/718/561 561/705/548 563/707/550 
f 574/718/561 563/707/550 575/719/562 
f 575/719/562 563/707/550 538/682/525 
f 575/719/562 538/682/525 564/708/551 
f 516/660/503 498/642/485 550/694/537 
f 516/660/503 550/694/537 569/713/556 
f 576/720/563 564/708/551 565/709/552 
f 576/720/563 565/709/552 577/721/564 
f 577/721/564 565/709/552 566/710/553 
f 577/721/564 566/710/553 578/722/565 
f 578/722/565 566/710/553 567/711/554 
f 578/722/565 567/711/554 579/723/566 
f 579/723/566 567/711/554 568/712/555 
f 579/723/566 568/712/555 580/724/567 
f 580/724/567 568/712/555 530/674/517 
f 580/724/567 530/674/517 529/673/516 
f 531/675/518 516/660/503 569/713/556 
f 531/675/518 569/713/556 581/725/568 
f 581/725/568 569/713/556 570/714/557 
f 581/725/568 570/714/557 582/726/569 
f 582/726/569 570/714/557 571/715/558 
f 582/726/569 571/715/558 583/727/570 
f 583/727/570 571/715/558 572/716/559 
f 583/727/570 572/716/559 584/728/571 
f 584/728/571 572/716/559 573/717/560 
f 584/728/571 573/717/560 585/729/572 
f 585/729/572 573/717/560 574/718/561 
f 585/729/572 574/718/561 586/730/573 
f 586/730/573 574/718/561 575/719/562 
f 586/730/573 575/719/562 587/731/574 
f 587/731/574 575/719/562 564/708/551 
f 587/731/574 564/708/551 576/720/563 
f 410/732/397 409/733/396 524/734/511 
f 410/732/397 524/734/511 523/735/510 
f 409/733/396 413/736/400 525/737/512 
f 409/733/396 525/737/512 524/734/511 
f 413/738/400 415/739/402 526/740/513 
f 413/738/400 526/740/513 525/741/512 
f 415/739/402 417/742/404 527/743/514 
f 415/739/402 527/743/514 526/740/513 
f 417/742/404 419/744/406 528/745/515 
f 417/742/404 528/745/515 527/743/514 
f 419/744/406 468/746/455 529/747/516 
f 419/744/406 529/747/516 528/745/515 
f 468/746/455 466/748/453 580/749/567 
f 468/746/455 580/749/567 529/747/516 
f 466/748/453 464/750/451 579/751/566 
f 466/748/453 579/751/566 580/749/567 
f 464/750/451 462/752/449 578/753/565 
f 464/750/451 578/753/565 579/751/566 
f 462/754/449 459/755/446 577/756/564 
f 462/754/449 577/756/564 578/757/565 
f 459/755/446 458/758/445 576/759/563 
f 459/755/446 576/759/563 577/756/564 
f 458/758/445 482/760/469 587/761/574 
f 458/758/445 587/761/574 576/759/563 
f 482/760/469 480/762/467 586/763/573 
f 482/760/469 586/763/573 587/761/574 
f 480/762/467 478/764/465 585/765/572 
f 480/762/467 585/765/572 586/763/573 
f 478/764/465 476/766/463 584/767/571 
f 478/764/465 584/767/571 585/765/572 
f 476/768/463 474/769/461 583/770/570 
f 476/768/463 583/770/570 584/771/571 
f 474/769/461 471/772/458 582/773/569 
f 474/769/461 582/773/569 583/770/570 
f 471/772/458 470/774/457 581/775/568 
f 471/772/458 581/775/568 582/773/569 
f 470/774/457 422/776/409 531/777/518 
f 470/774/457 531/777/518 581/775/568 
f 422/776/409 421/778/408 532/779/519 
f 422/776/409 532/779/519 531/777/518 
f 421/778/408 425/780/412 533/781/520 
f 421/778/408 533/781/520 532/779/519 
f 425/780/412 427/782/414 534/783/521 
f 425/780/412 534/783/521 533/781/520 
f 427/784/414 429/785/416 535/786/522 
f 427/784/414 535/786/522 534/787/521 
f 429/785/416 431/788/418 536/789/523 
f 429/785/416 536/789/523 535/786/522 
f 431/788/418 433/790/420 537/791/524 
f 431/788/418 537/791/524 536/789/523 
f 433/790/420 410/732/397 523/735/510 
f 433/790/420 523/735/510 537/791/524 
f 588/792/575 562/706/549 560/704/547 
f 588/792/575 560/704/547 558/702/545 
f 589/793/575 588/792/575 558/702/545 
f 589/793/575 558/702/545 556/700/543 
f 590/794/575 589/793/575 556/700/543 
f 590/794/575 556/700/543 554/698/541 
f 591/795/575 590/794/575 554/698/541 
f 591/795/575 554/698/541 552/696/539 
f 592/796/576 591/795/575 552/696/539 
f 592/796/576 552/696/539 551/695/538 
f 593/797/575 592/796/576 551/695/538 
f 593/797/575 551/695/538 497/641/484 
f 496/640/483 594/798/575 593/797/575 
f 496/640/483 593/797/575 497/641/484 
f 500/644/487 595/799/576 594/798/575 
f 500/644/487 594/798/575 496/640/483 
f 502/646/489 596/800/575 595/799/576 
f 502/646/489 595/799/576 500/644/487 
f 504/648/491 597/801/575 596/800/575 
f 504/648/491 596/800/575 502/646/489 
f 506/650/493 508/652/495 597/801/575 
f 506/650/493 597/801/575 504/648/491 
f 588/792/575 540/684/527 539/683/526 
f 588/792/575 539/683/526 562/706/549 
f 589/793/575 542/686/529 540/684/527 
f 589/793/575 540/684/527 588/792/575 
f 590/794/575 544/688/531 542/686/529 
f 590/794/575 542/686/529 589/793/575 
f 591/795/575 546/690/533 544/688/531 
f 591/795/575 544/688/531 590/794/575 
f 592/796/576 548/692/535 546/690/533 
f 592/796/576 546/690/533 591/795/575 
f 593/797/575 494/638/481 548/692/535 
f 593/797/575 548/692/535 592/796/576 
f 593/797/575 594/798/575 492/636/479 
f 593/797/575 492/636/479 494/638/481 
f 594/798/575 595/799/576 490/634/477 
f 594/798/575 490/634/477 492/636/479 
f 595/799/576 596/800/575 488/632/475 
f 595/799/576 488/632/475 490/634/477 
f 596/800/575 597/801/575 484/628/471 
f 596/800/575 484/628/471 488/632/475 
f 597/801/575 508/652/495 485/629/472 
f 597/801/575 485/629/472 484/628/471 
# 0 polygons - 1180 triangles

