# 3ds Max Wavefront OBJ Exporter v0.99 - (c)2007 guruware
# File Created: 22.03.2025 12:48:33

mtllib llantaizqDelantera.mtl

#
# object Wheel_F_L_2_0
#

v  -2.4193 0.2100 0.5357
v  -2.4246 0.5103 0.5718
v  -2.4103 0.5103 0.4757
v  -2.4034 -0.0728 0.4297
v  -2.3836 0.5104 0.2973
v  -2.3781 -0.3217 0.2597
v  -2.3504 0.5103 0.0739
v  -2.3447 -0.5223 0.0358
v  -2.3065 0.5103 -0.2207
v  -2.3052 -0.6629 -0.2292
v  -2.2712 0.5104 -0.4576
v  -2.2620 -0.7353 -0.5196
v  -2.4193 0.8105 0.5357
v  -2.4034 1.0933 0.4297
v  -2.3781 1.3423 0.2597
v  -2.3447 1.5429 0.0358
v  -2.3052 1.6834 -0.2292
v  -2.2620 1.7558 -0.5196
v  -2.2140 1.7898 1.7995
v  -2.2487 1.1692 2.0323
v  -1.8580 1.3251 2.7302
v  -1.8151 2.0926 2.4423
v  -2.1584 2.3361 1.4266
v  -1.7464 2.7682 1.9811
v  -2.0852 2.7762 0.9352
v  -1.6558 3.3125 1.3734
v  -1.9986 3.0846 0.3538
v  -1.5486 3.6939 0.6545
v  -1.9036 3.2435 -0.2836
v  -1.4311 3.8903 -0.1338
v  -1.9986 -2.0642 0.3538
v  -1.9036 -2.2230 -0.2836
v  -1.4311 -2.8699 -0.1338
v  -1.5486 -2.6734 0.6545
v  -2.0852 -1.7557 0.9352
v  -1.6558 -2.2920 1.3734
v  -2.1584 -1.3155 1.4266
v  -1.7464 -1.7476 1.9811
v  -2.2140 -0.7693 1.7995
v  -1.8151 -1.0721 2.4423
v  -2.2487 -0.1486 2.0323
v  -1.8580 -0.3046 2.7302
v  -2.2605 0.5103 2.1114
v  -1.8725 0.5103 2.8281
v  -1.0461 2.2731 2.9046
v  -1.0938 1.4180 3.2253
v  -1.7457 1.5096 3.5036
v  -1.6931 2.4508 3.1506
v  -0.9695 3.0256 2.3908
v  -1.6088 3.2793 2.5849
v  -0.8686 3.6321 1.7138
v  -1.4978 3.9468 1.8396
v  -0.7492 4.0571 0.9129
v  -1.3664 4.4147 0.9580
v  -0.6184 4.2759 0.0347
v  -1.2223 4.6556 -0.0087
v  -0.7492 -3.0365 0.9129
v  -0.6184 -3.2554 0.0347
v  -1.2223 -3.6351 -0.0087
v  -1.3664 -3.3941 0.9580
v  -0.8686 -2.6116 1.7138
v  -1.4978 -2.9263 1.8396
v  -0.9695 -2.0052 2.3908
v  -1.6088 -2.2588 2.5849
v  -1.0461 -1.2526 2.9046
v  -1.6931 -1.4303 3.1506
v  -1.0938 -0.3976 3.2253
v  -1.7457 -0.4891 3.5036
v  -1.1101 0.5103 3.3343
v  -1.7635 0.5103 3.6236
v  -2.0925 1.6231 3.9175
v  -2.0338 2.6712 3.5243
v  -1.9400 3.5937 2.8944
v  -1.8163 4.3371 2.0645
v  -1.6700 4.8581 1.0828
v  -1.5097 5.1263 0.0063
v  -1.5097 -4.1058 0.0063
v  -1.6700 -3.8375 1.0828
v  -1.8163 -3.3166 2.0645
v  -1.9400 -2.5733 2.8944
v  -2.0338 -1.6507 3.5243
v  -2.0925 -0.6026 3.9175
v  -2.1123 0.5103 4.0511
v  -2.4007 1.7282 4.3028
v  -2.3366 2.8753 3.8725
v  -2.2338 3.8851 3.1832
v  -2.0985 4.6987 2.2748
v  -1.9384 5.2689 1.2003
v  -1.7629 5.5625 0.0221
v  -1.5820 5.5625 -1.1915
v  -1.3444 5.1263 -1.1025
v  -1.7629 -4.5419 0.0221
v  -1.9384 -4.2483 1.2003
v  -2.0985 -3.6782 2.2748
v  -2.2338 -2.8646 3.1832
v  -2.3366 -1.8549 3.8725
v  -2.4007 -0.7077 4.3028
v  -2.4225 0.5103 4.4491
v  -2.2080 1.7195 1.6649
v  -2.2740 1.7171 1.6506
v  -2.3068 1.1318 1.8702
v  -2.2408 1.1330 1.8850
v  -2.1555 2.2357 1.3125
v  -2.2217 2.2324 1.2989
v  -2.0863 2.6517 0.8481
v  -2.1526 2.6476 0.8354
v  -2.0044 2.9432 0.2988
v  -2.0709 2.9385 0.2871
v  -1.9147 3.0933 -0.3036
v  -1.9813 3.0883 -0.3142
v  -2.0044 -1.9227 0.2988
v  -2.0709 -1.9180 0.2871
v  -1.9813 -2.0679 -0.3142
v  -1.9147 -2.0729 -0.3036
v  -2.0863 -1.6312 0.8481
v  -2.1526 -1.6271 0.8354
v  -2.1555 -1.2152 1.3125
v  -2.2217 -1.2119 1.2989
v  -2.2080 -0.6990 1.6649
v  -2.2740 -0.6967 1.6506
v  -2.2408 -0.1124 1.8850
v  -2.3068 -0.1113 1.8702
v  -2.2519 0.5103 1.9598
v  -2.3180 0.5103 1.9449
v  -2.0690 0.5103 -1.8141
v  -2.0548 0.5103 -1.9102
v  -2.0601 0.2100 -1.8741
v  -2.0759 -0.0728 -1.7680
v  -2.0957 0.5104 -1.6357
v  -2.1013 -0.3217 -1.5981
v  -2.1289 0.5103 -1.4123
v  -2.1346 -0.5223 -1.3742
v  -2.1728 0.5103 -1.1177
v  -2.1741 -0.6629 -1.1093
v  -2.2081 0.5104 -0.8808
v  -2.2174 -0.7353 -0.8188
v  -2.0759 1.0933 -1.7680
v  -2.0601 0.8105 -1.8741
v  -2.1013 1.3423 -1.5981
v  -2.1346 1.5429 -1.3742
v  -2.1741 1.6834 -1.1093
v  -2.2174 1.7558 -0.8188
v  -0.8834 1.3251 -3.8096
v  -1.4606 1.1692 -3.2560
v  -1.4953 1.7898 -3.0231
v  -0.9263 2.0926 -3.5217
v  -1.5510 2.3361 -2.6502
v  -0.9950 2.7682 -3.0605
v  -1.6242 2.7762 -2.1588
v  -1.0856 3.3125 -2.4528
v  -1.7107 3.0846 -1.5775
v  -1.1928 3.6939 -1.7339
v  -1.8058 3.2435 -0.9401
v  -1.3102 3.8903 -0.9456
v  -1.3102 -2.8699 -0.9456
v  -1.8058 -2.2230 -0.9401
v  -1.7107 -2.0642 -1.5775
v  -1.1928 -2.6734 -1.7339
v  -1.6242 -1.7557 -2.1588
v  -1.0856 -2.2920 -2.4528
v  -1.5510 -1.3155 -2.6502
v  -0.9950 -1.7476 -3.0605
v  -1.4953 -0.7693 -3.0231
v  -0.9263 -1.0721 -3.5217
v  -1.4606 -0.1486 -3.2560
v  -0.8834 -0.3046 -3.8096
v  -1.4489 0.5103 -3.3351
v  -0.8689 0.5103 -3.9075
v  -0.5505 1.5096 -4.5167
v  -0.0082 1.4180 -4.0604
v  -0.0560 2.2731 -3.7397
v  -0.6032 2.4508 -4.1636
v  -0.1325 3.0256 -3.2259
v  -0.6875 3.2793 -3.5980
v  -0.2334 3.6321 -2.5489
v  -0.7985 3.9468 -2.8527
v  -0.3527 4.0571 -1.7480
v  -0.9299 4.4147 -1.9711
v  -0.4836 4.2759 -0.8698
v  -1.0739 4.6556 -1.0044
v  -1.0739 -3.6351 -1.0044
v  -0.4836 -3.2554 -0.8698
v  -0.3527 -3.0365 -1.7480
v  -0.9299 -3.3941 -1.9711
v  -0.2334 -2.6116 -2.5489
v  -0.7985 -2.9263 -2.8527
v  -0.1325 -2.0052 -3.2259
v  -0.6875 -2.2588 -3.5980
v  -0.0560 -1.2526 -3.7397
v  -0.6032 -1.4303 -4.1636
v  -0.0082 -0.3976 -4.0604
v  -0.5505 -0.4891 -4.5167
v  0.0081 0.5103 -4.1694
v  -0.5327 0.5103 -4.6367
v  -0.7616 1.6231 -5.0137
v  -0.8202 2.6712 -4.6204
v  -0.9140 3.5937 -3.9906
v  -1.0377 4.3371 -3.1607
v  -1.1840 4.8581 -2.1790
v  -1.3444 -4.1058 -1.1025
v  -1.1840 -3.8375 -2.1790
v  -1.0377 -3.3166 -3.1607
v  -0.9140 -2.5733 -3.9906
v  -0.8202 -1.6507 -4.6205
v  -0.7616 -0.6026 -5.0137
v  -0.7417 0.5103 -5.1473
v  -0.9441 1.7282 -5.4721
v  -1.0083 2.8753 -5.0418
v  -1.1110 3.8851 -4.3525
v  -1.2463 4.6987 -3.4442
v  -1.4064 5.2689 -2.3697
v  -1.5820 -4.5419 -1.1915
v  -1.4064 -4.2483 -2.3697
v  -1.2463 -3.6782 -3.4442
v  -1.1110 -2.8646 -4.3525
v  -1.0083 -1.8549 -5.0418
v  -0.9441 -0.7077 -5.4721
v  -0.9223 0.5103 -5.6184
v  -1.5635 1.1317 -3.1179
v  -1.5962 1.7171 -2.8983
v  -1.5288 1.7195 -2.8927
v  -1.4961 1.1330 -3.1128
v  -1.6487 2.2324 -2.5465
v  -1.5814 2.2357 -2.5403
v  -1.7177 2.6476 -2.0830
v  -1.6506 2.6517 -2.0759
v  -1.7994 2.9385 -1.5346
v  -1.7324 2.9432 -1.5265
v  -1.8890 3.0883 -0.9335
v  -1.8222 3.0933 -0.9241
v  -1.8890 -2.0679 -0.9335
v  -1.8222 -2.0729 -0.9241
v  -1.7994 -1.9180 -1.5347
v  -1.7324 -1.9227 -1.5265
v  -1.7177 -1.6271 -2.0830
v  -1.6506 -1.6312 -2.0759
v  -1.6487 -1.2119 -2.5465
v  -1.5814 -1.2152 -2.5403
v  -1.5962 -0.6967 -2.8983
v  -1.5288 -0.6990 -2.8927
v  -1.5635 -0.1113 -3.1179
v  -1.4961 -0.1124 -3.1128
v  -1.5524 0.5103 -3.1925
v  -1.4849 0.5103 -3.1875
v  -2.2438 1.7451 4.3956
v  -2.1788 2.9083 3.9594
v  -2.0746 3.9320 3.2604
v  -1.9374 4.7569 2.3394
v  -1.7750 5.3350 1.2500
v  -1.5970 5.6327 0.0554
v  -1.4136 5.6327 -1.1749
v  -1.2357 5.3350 -2.3696
v  -1.0733 4.7569 -3.4590
v  -0.9361 3.9320 -4.3800
v  -0.8319 2.9083 -5.0788
v  -0.7670 1.7451 -5.5152
v  -0.7448 0.5103 -5.6635
v  -0.7669 -0.7247 -5.5152
v  -0.8319 -1.8877 -5.0788
v  -0.9361 -2.9115 -4.3800
v  -1.0733 -3.7364 -3.4590
v  -1.2357 -4.3144 -2.3696
v  -1.4136 -4.6121 -1.1749
v  -1.5970 -4.6121 0.0554
v  -1.7750 -4.3144 1.2500
v  -1.9374 -3.7364 2.3395
v  -2.0746 -2.9115 3.2604
v  -2.1788 -1.8877 3.9594
v  -2.2438 -0.7246 4.3956
v  -2.2658 0.5103 4.5439
v  -2.3353 2.1869 6.1944
v  -2.3653 0.5103 6.3958
v  -2.1397 0.5103 7.1802
v  -2.1066 2.3647 6.9575
v  -2.2471 3.7662 5.6020
v  -2.0089 4.1114 6.3023
v  -2.1056 5.1563 4.6530
v  -1.8525 5.6488 5.2527
v  -1.9193 6.2763 3.4025
v  -1.6464 6.8875 3.8697
v  -1.6988 7.0613 1.9233
v  -1.4027 7.7557 2.2337
v  -1.4571 7.4655 0.3012
v  -1.1353 8.2027 0.4397
v  -1.4571 -6.4450 0.3012
v  -1.2082 -6.4450 -1.3693
v  -0.8600 -7.1822 -1.4080
v  -1.1353 -7.1822 0.4397
v  -1.6988 -6.0408 1.9233
v  -1.4027 -6.7351 2.2337
v  -1.9193 -5.2559 3.4025
v  -1.6464 -5.8670 3.8697
v  -2.1056 -4.1358 4.6530
v  -1.8525 -4.6282 5.2527
v  -2.2471 -2.7458 5.6020
v  -2.0089 -3.0909 6.3023
v  -2.3353 -1.1665 6.1944
v  -2.1066 -1.3442 6.9575
v  -0.6134 0.5103 7.4076
v  -0.5802 2.3647 7.1849
v  -0.4826 4.1114 6.5297
v  -0.3262 5.6488 5.4802
v  -0.1201 6.8875 4.0972
v  0.1237 7.7557 2.4612
v  0.3910 8.2027 0.6671
v  0.3910 -7.1822 0.6672
v  0.6663 -7.1822 -1.1805
v  0.1237 -6.7351 2.4612
v  -0.1201 -5.8670 4.0972
v  -0.3262 -4.6282 5.4802
v  -0.4826 -3.0909 6.5297
v  -0.5802 -1.3442 7.1849
v  -2.2946 3.3206 4.7363
v  -2.3707 1.9574 5.2477
v  -2.1725 4.5203 3.9172
v  -2.0116 5.4871 2.8380
v  -1.8214 6.1646 1.5612
v  -1.6128 6.5135 0.1612
v  -1.8214 -5.1440 1.5612
v  -1.5970 -4.6122 0.0554
v  -1.6128 -5.4929 0.1612
v  -2.0116 -4.4665 2.8380
v  -1.9374 -3.7364 2.3394
v  -2.1725 -3.4999 3.9172
v  -2.2946 -2.3000 4.7363
v  -2.3707 -0.9370 5.2477
v  -2.2438 -0.7247 4.3956
v  -2.3966 0.5103 5.4215
v  0.1445 0.5103 -8.1485
v  -0.3000 0.5103 -7.4638
v  -0.3301 2.1869 -7.2625
v  0.1112 2.3647 -7.9257
v  -0.4183 3.7662 -6.6701
v  0.0136 4.1114 -7.2705
v  -0.5598 5.1563 -5.7211
v  -0.1428 5.6488 -6.2209
v  -0.7461 6.2763 -4.4706
v  -0.3489 6.8875 -4.8380
v  -0.9665 7.0613 -2.9914
v  -0.5927 7.7557 -3.2019
v  -1.2082 7.4655 -1.3693
v  -0.8600 8.2027 -1.4080
v  -0.9665 -6.0408 -2.9914
v  -0.5927 -6.7351 -3.2019
v  -0.7461 -5.2559 -4.4706
v  -0.3489 -5.8670 -4.8380
v  -0.5598 -4.1358 -5.7211
v  -0.1428 -4.6282 -6.2209
v  -0.4183 -2.7458 -6.6701
v  0.0136 -3.0909 -7.2705
v  -0.3301 -1.1665 -7.2625
v  0.1112 -1.3442 -7.9257
v  1.6707 0.5103 -7.9210
v  1.6376 2.3647 -7.6983
v  1.5399 4.1114 -7.0431
v  1.3835 5.6488 -5.9935
v  1.1774 6.8875 -4.6105
v  0.9337 7.7557 -2.9744
v  0.6663 8.2027 -1.1805
v  0.9337 -6.7351 -2.9745
v  1.1775 -5.8670 -4.6106
v  1.3835 -4.6282 -5.9935
v  1.5399 -3.0909 -7.0431
v  1.6376 -1.3442 -7.6983
v  -0.7669 1.7451 -5.5152
v  -0.7162 3.3206 -5.8559
v  -0.6399 1.9574 -6.3672
v  -0.8382 4.5203 -5.0368
v  -0.9991 5.4871 -3.9575
v  -1.1893 6.1646 -2.6808
v  -1.3979 6.5135 -1.2808
v  -1.4136 -4.6122 -1.1749
v  -1.1893 -5.1440 -2.6808
v  -1.3979 -5.4929 -1.2808
v  -0.9991 -4.4665 -3.9575
v  -0.8382 -3.4999 -5.0368
v  -0.7162 -2.3000 -5.8559
v  -0.6399 -0.9370 -6.3672
v  -0.6141 0.5103 -6.5410
v  0.9129 0.5103 7.6351
v  1.3574 0.5103 6.9505
v  1.3874 2.1869 6.7491
v  0.9461 2.3647 7.4124
v  1.4757 3.7662 6.1568
v  1.0438 4.1114 6.7572
v  1.6171 5.1563 5.2077
v  1.2001 5.6488 5.7076
v  1.8035 6.2763 3.9573
v  1.4062 6.8875 4.3246
v  2.0238 7.0613 2.4780
v  1.6500 7.7557 2.6886
v  2.2655 7.4655 0.8560
v  1.9173 8.2027 0.8946
v  2.1926 -7.1822 -0.9531
v  2.5145 -6.4450 -0.8146
v  2.2655 -6.4450 0.8560
v  1.9173 -7.1822 0.8946
v  2.0238 -6.0408 2.4780
v  1.6500 -6.7351 2.6886
v  1.8035 -5.2559 3.9573
v  1.4062 -5.8670 4.3246
v  1.6171 -4.1358 5.2077
v  1.2001 -4.6282 5.7076
v  1.4757 -2.7458 6.1568
v  1.0438 -3.0909 6.7572
v  1.3874 -1.1665 6.7491
v  0.9461 -1.3442 7.4124
v  1.8242 1.7451 5.0018
v  1.8893 2.9083 4.5655
v  1.7735 3.3206 5.3425
v  1.6973 1.9574 5.8539
v  1.9934 3.9320 3.8666
v  1.8955 4.5203 4.5234
v  2.1306 4.7569 2.9456
v  2.0564 5.4871 3.4442
v  2.2930 5.3350 1.8562
v  2.2466 6.1646 2.1674
v  2.4710 5.6327 0.6616
v  2.4552 6.5135 0.7674
v  2.4710 -4.6121 0.6616
v  2.2930 -4.3144 1.8562
v  2.2466 -5.1440 2.1674
v  2.4552 -5.4929 0.7674
v  2.1306 -3.7364 2.9456
v  2.0564 -4.4665 3.4442
v  1.9934 -2.9115 3.8666
v  1.8955 -3.4999 4.5234
v  1.8893 -1.8877 4.5655
v  1.7735 -2.3000 5.3425
v  1.8242 -0.7247 5.0018
v  1.6973 -0.9370 5.8539
v  1.8022 0.5103 5.1501
v  1.6714 0.5103 6.0277
v  3.3926 2.1869 -6.7077
v  3.4226 0.5103 -6.9092
v  3.1971 0.5103 -7.6936
v  3.1639 2.3647 -7.4709
v  3.3043 3.7662 -6.1154
v  3.0662 4.1114 -6.8157
v  3.1630 5.1563 -5.1663
v  2.9099 5.6488 -5.7661
v  2.9766 6.2763 -3.9159
v  2.7037 6.8875 -4.3831
v  2.7562 7.0613 -2.4366
v  2.4600 7.7557 -2.7470
v  2.5145 7.4655 -0.8146
v  2.1926 8.2027 -0.9531
v  2.7562 -6.0408 -2.4367
v  2.4600 -6.7351 -2.7470
v  2.9766 -5.2559 -3.9159
v  2.7037 -5.8670 -4.3831
v  3.1630 -4.1358 -5.1664
v  2.9099 -4.6282 -5.7661
v  3.3043 -2.7458 -6.1154
v  3.0662 -3.0909 -6.8157
v  3.3926 -1.1665 -6.7077
v  3.1639 -1.3442 -7.4709
v  3.3518 3.3206 -5.2497
v  3.2360 2.9083 -4.4726
v  3.3011 1.7451 -4.9090
v  3.4281 1.9574 -5.7610
v  3.2298 4.5203 -4.4306
v  3.1319 3.9320 -3.7738
v  3.0690 5.4871 -3.3513
v  2.9947 4.7569 -2.8528
v  2.8787 6.1646 -2.0746
v  2.8324 5.3350 -1.7634
v  2.6701 6.5135 -0.6746
v  2.6543 5.6327 -0.5687
v  2.8787 -5.1440 -2.0746
v  2.8324 -4.3144 -1.7634
v  2.6543 -4.6121 -0.5687
v  2.6701 -5.4929 -0.6746
v  3.0690 -4.4665 -3.3513
v  2.9947 -3.7364 -2.8528
v  3.2298 -3.4999 -4.4306
v  3.1319 -2.9115 -3.7738
v  3.3518 -2.3000 -5.2497
v  3.2360 -1.8877 -4.4727
v  3.4281 -0.9370 -5.7610
v  3.3011 -0.7247 -4.9090
v  3.4540 0.5103 -5.9348
v  3.3232 0.5103 -5.0573
v  1.6079 1.5096 4.0034
v  1.2766 1.0650 2.1305
v  1.3058 1.5875 1.9344
v  1.6605 2.4508 3.6503
v  1.3526 2.0475 1.6204
v  1.7448 3.2793 3.0846
v  1.4143 2.4180 1.2067
v  1.8558 3.9468 2.3394
v  1.4872 2.6778 0.7172
v  1.9872 4.4147 1.4577
v  1.5671 2.8115 0.1806
v  2.1312 4.6556 0.4910
v  2.1312 -3.6351 0.4910
v  1.5671 -1.7910 0.1806
v  1.4872 -1.6573 0.7173
v  1.9872 -3.3941 1.4577
v  1.4142 -1.3976 1.2067
v  1.8558 -2.9263 2.3394
v  1.3526 -1.0270 1.6204
v  1.7448 -2.2588 3.0846
v  1.3058 -0.5671 1.9344
v  1.6605 -1.4303 3.6503
v  1.2766 -0.0445 2.1305
v  1.6079 -0.4891 4.0034
v  1.2666 0.5103 2.1971
v  1.5900 0.5103 4.1233
v  1.8190 1.6231 4.5003
v  1.8775 2.6712 4.1071
v  1.9714 3.5937 3.4773
v  2.0950 4.3371 2.6474
v  2.2413 4.8581 1.6656
v  2.4018 5.1263 0.5891
v  2.4018 -4.1058 0.5891
v  2.2413 -3.8375 1.6657
v  2.0950 -3.3166 2.6474
v  1.9714 -2.5733 3.4773
v  1.8775 -1.6507 4.1071
v  1.8190 -0.6026 4.5003
v  1.7990 0.5103 4.6339
v  2.0014 1.7282 4.9588
v  2.0655 2.8753 4.5285
v  2.1683 3.8851 3.8391
v  2.3037 4.6987 2.9308
v  2.4638 5.2689 1.8563
v  2.6393 5.5625 0.6781
v  2.5670 5.1263 -0.5196
v  2.8201 5.5625 -0.5354
v  2.6393 -4.5419 0.6781
v  2.4638 -4.2483 1.8563
v  2.3037 -3.6782 2.9308
v  2.1683 -2.8646 3.8391
v  2.0655 -1.8549 4.5285
v  2.0014 -0.7077 4.9588
v  1.9797 0.5103 5.1051
v  1.9109 1.5875 -2.1260
v  1.9400 1.0650 -2.3220
v  2.8030 1.5096 -4.0169
v  2.7504 2.4508 -3.6638
v  1.8640 2.0475 -1.8120
v  2.6661 3.2793 -3.0983
v  1.8024 2.4180 -1.3983
v  2.5550 3.9468 -2.3530
v  1.7295 2.6778 -0.9088
v  2.4236 4.4147 -1.4714
v  1.6495 2.8115 -0.3722
v  2.2796 4.6556 -0.5046
v  1.7295 -1.6573 -0.9088
v  1.6495 -1.7910 -0.3722
v  2.2796 -3.6351 -0.5046
v  2.4236 -3.3941 -1.4714
v  1.8024 -1.3976 -1.3983
v  2.5550 -2.9263 -2.3530
v  1.8640 -1.0270 -1.8120
v  2.6661 -2.2588 -3.0983
v  1.9109 -0.5671 -2.1260
v  2.7504 -1.4303 -3.6638
v  1.9400 -0.0445 -2.3220
v  2.8030 -0.4891 -4.0169
v  1.9500 0.5103 -2.3887
v  2.8209 0.5103 -4.1370
v  3.1497 1.6231 -4.4308
v  3.0912 2.6712 -4.0376
v  2.9973 3.5937 -3.4078
v  2.8737 4.3371 -2.5779
v  2.7274 4.8581 -1.5961
v  2.5670 -4.1058 -0.5196
v  2.7274 -3.8375 -1.5961
v  2.8737 -3.3166 -2.5779
v  2.9973 -2.5733 -3.4078
v  3.0912 -1.6507 -4.0376
v  3.1497 -0.6026 -4.4308
v  3.1697 0.5103 -4.5645
v  3.4580 1.7282 -4.8162
v  3.3939 2.8753 -4.3858
v  3.2912 3.8851 -3.6965
v  3.1559 4.6987 -2.7882
v  2.9957 5.2689 -1.7137
v  2.8201 -4.5419 -0.5354
v  2.9957 -4.2483 -1.7137
v  3.1559 -3.6782 -2.7882
v  3.2912 -2.8646 -3.6965
v  3.3939 -1.8549 -4.3858
v  3.4580 -0.7077 -4.8162
v  3.4799 0.5103 -4.9625
v  1.9109 0.5103 -2.1260
v  1.8640 0.5103 -1.8120
v  1.8024 0.5103 -1.3983
v  1.7295 0.5103 -0.9088
v  1.6495 0.5103 -0.3722
v  1.5671 0.5103 0.1806
v  1.4872 0.5103 0.7173
v  1.4143 0.5103 1.2067
v  1.3526 0.5103 1.6204
v  1.3058 0.5103 1.9344
# 597 vertices

vn -0.9991 -0.0290 -0.0301
vn -0.9996 -0.0000 -0.0266
vn -0.9891 0.0000 -0.1474
vn -0.9976 -0.0562 -0.0403
vn -0.9952 -0.0802 -0.0567
vn -0.9891 -0.0000 -0.1474
vn -0.9919 -0.0996 -0.0783
vn -0.9881 -0.1131 -0.1039
vn -0.9840 -0.1201 -0.1319
vn -0.9991 0.0290 -0.0301
vn -0.9976 0.0562 -0.0403
vn -0.9952 0.0802 -0.0567
vn -0.9919 0.0996 -0.0783
vn -0.9881 0.1131 -0.1039
vn -0.9840 0.1201 -0.1319
vn -0.9651 0.1755 0.1942
vn -0.9699 0.0904 0.2262
vn -0.7270 0.1874 0.6605
vn -0.7172 0.3640 0.5943
vn -0.9575 0.2504 0.1431
vn -0.7014 0.5194 0.4882
vn -0.9475 0.3108 0.0757
vn -0.6805 0.6446 0.3484
vn -0.9356 0.3531 -0.0040
vn -0.6559 0.7323 0.1831
vn -0.9226 0.3748 -0.0915
vn -0.6289 0.7775 0.0017
vn -0.9356 -0.3531 -0.0040
vn -0.9226 -0.3748 -0.0915
vn -0.6289 -0.7775 0.0017
vn -0.6559 -0.7323 0.1831
vn -0.9475 -0.3108 0.0757
vn -0.6805 -0.6446 0.3484
vn -0.9575 -0.2504 0.1431
vn -0.7014 -0.5194 0.4882
vn -0.9651 -0.1755 0.1942
vn -0.7172 -0.3640 0.5943
vn -0.9699 -0.0904 0.2262
vn -0.7270 -0.1874 0.6605
vn -0.9715 -0.0000 0.2370
vn -0.7304 -0.0000 0.6830
vn -0.9885 -0.0020 -0.1511
vn -0.9885 -0.0010 -0.1515
vn -0.6197 -0.1646 -0.7674
vn -0.6284 -0.3196 -0.7092
vn -0.9886 -0.0028 -0.1506
vn -0.6422 -0.4560 -0.6161
vn -0.9887 -0.0035 -0.1498
vn -0.6605 -0.5659 -0.4934
vn -0.9888 -0.0040 -0.1489
vn -0.6822 -0.6430 -0.3482
vn -0.9890 -0.0042 -0.1479
vn -0.7059 -0.6826 -0.1890
vn -0.9888 0.0040 -0.1489
vn -0.9890 0.0042 -0.1479
vn -0.7059 0.6826 -0.1890
vn -0.6822 0.6430 -0.3482
vn -0.9887 0.0035 -0.1498
vn -0.6605 0.5659 -0.4934
vn -0.9886 0.0028 -0.1506
vn -0.6423 0.4560 -0.6161
vn -0.9885 0.0020 -0.1511
vn -0.6284 0.3196 -0.7092
vn -0.9885 0.0010 -0.1515
vn -0.6197 0.1646 -0.7674
vn -0.9884 -0.0000 -0.1516
vn -0.6168 -0.0000 -0.7871
vn -0.7844 -0.1199 -0.6085
vn -0.7908 -0.2327 -0.5662
vn -0.8009 -0.3321 -0.4983
vn -0.8142 -0.4121 -0.4090
vn -0.8299 -0.4683 -0.3032
vn -0.8472 -0.4971 -0.1873
vn -0.8472 0.4972 -0.1873
vn -0.8299 0.4683 -0.3032
vn -0.8142 0.4122 -0.4090
vn -0.8009 0.3321 -0.4983
vn -0.7908 0.2327 -0.5662
vn -0.7844 0.1199 -0.6085
vn -0.7823 -0.0000 -0.6229
vn -0.9709 0.0894 0.2221
vn -0.9662 0.1736 0.1905
vn -0.9587 0.2477 0.1399
vn -0.9487 0.3075 0.0732
vn -0.9370 0.3493 -0.0057
vn -0.9241 0.3709 -0.0922
vn -0.9108 0.3709 -0.1813
vn -0.8650 -0.4971 -0.0679
vn -0.9241 -0.3709 -0.0922
vn -0.9370 -0.3493 -0.0057
vn -0.9487 -0.3075 0.0732
vn -0.9587 -0.2477 0.1399
vn -0.9662 -0.1736 0.1905
vn -0.9709 -0.0894 0.2221
vn -0.9725 0.0000 0.2328
vn -0.8084 0.3193 0.4946
vn -0.7245 0.3609 0.5873
vn -0.7343 0.1859 0.6529
vn -0.8170 0.1644 0.5527
vn -0.7945 0.4556 0.4015
vn -0.7088 0.5150 0.4821
vn -0.7762 0.5654 0.2789
vn -0.6882 0.6391 0.3435
vn -0.7546 0.6424 0.1339
vn -0.6637 0.7261 0.1795
vn -0.7309 0.6820 -0.0252
vn -0.6369 0.7709 -0.0003
vn -0.7546 -0.6424 0.1339
vn -0.6637 -0.7261 0.1795
vn -0.6369 -0.7709 -0.0003
vn -0.7309 -0.6820 -0.0252
vn -0.7762 -0.5654 0.2789
vn -0.6881 -0.6391 0.3435
vn -0.7945 -0.4556 0.4015
vn -0.7088 -0.5150 0.4821
vn -0.8083 -0.3193 0.4946
vn -0.7244 -0.3609 0.5873
vn -0.8170 -0.1644 0.5527
vn -0.7343 -0.1858 0.6529
vn -0.8200 -0.0000 0.5724
vn -0.7376 0.0000 0.6752
vn -0.9640 0.0000 -0.2660
vn -0.9645 -0.0290 -0.2625
vn -0.9660 -0.0562 -0.2523
vn -0.9685 -0.0802 -0.2359
vn -0.9717 -0.0996 -0.2143
vn -0.9755 -0.1132 -0.1887
vn -0.9797 -0.1201 -0.1607
vn -0.9660 0.0562 -0.2523
vn -0.9645 0.0290 -0.2625
vn -0.9685 0.0802 -0.2359
vn -0.9717 0.0996 -0.2143
vn -0.9755 0.1131 -0.1887
vn -0.9797 0.1201 -0.1607
vn -0.5029 0.1874 -0.8438
vn -0.8618 0.0904 -0.4991
vn -0.8666 0.1755 -0.4672
vn -0.5128 0.3640 -0.7776
vn -0.8742 0.2504 -0.4160
vn -0.5286 0.5194 -0.6715
vn -0.8842 0.3108 -0.3486
vn -0.5494 0.6446 -0.5317
vn -0.8961 0.3531 -0.2689
vn -0.5740 0.7323 -0.3663
vn -0.9092 0.3748 -0.1815
vn -0.6010 0.7775 -0.1850
vn -0.6010 -0.7775 -0.1850
vn -0.9092 -0.3748 -0.1815
vn -0.8961 -0.3531 -0.2689
vn -0.5740 -0.7323 -0.3663
vn -0.8842 -0.3108 -0.3486
vn -0.5494 -0.6446 -0.5317
vn -0.8742 -0.2504 -0.4160
vn -0.5286 -0.5194 -0.6715
vn -0.8666 -0.1755 -0.4672
vn -0.5128 -0.3640 -0.7776
vn -0.8618 -0.0904 -0.4991
vn -0.5029 -0.1874 -0.8438
vn -0.8602 -0.0000 -0.5100
vn -0.4995 0.0000 -0.8663
vn -0.8165 -0.1646 0.5534
vn -0.9897 -0.0010 -0.1433
vn -0.9896 -0.0020 -0.1436
vn -0.8079 -0.3196 0.4952
vn -0.9895 -0.0028 -0.1442
vn -0.7940 -0.4560 0.4021
vn -0.9894 -0.0035 -0.1450
vn -0.7757 -0.5659 0.2794
vn -0.9893 -0.0040 -0.1459
vn -0.7541 -0.6430 0.1342
vn -0.9891 -0.0042 -0.1469
vn -0.7303 -0.6826 -0.0250
vn -0.7303 0.6826 -0.0250
vn -0.9891 0.0042 -0.1469
vn -0.9893 0.0040 -0.1459
vn -0.7541 0.6430 0.1342
vn -0.9894 0.0035 -0.1450
vn -0.7757 0.5659 0.2794
vn -0.9895 0.0028 -0.1442
vn -0.7940 0.4560 0.4021
vn -0.9896 0.0020 -0.1436
vn -0.8079 0.3196 0.4952
vn -0.9897 0.0010 -0.1433
vn -0.8165 0.1646 0.5534
vn -0.9897 0.0000 -0.1432
vn -0.8195 0.0000 0.5731
vn -0.9278 -0.1198 0.3534
vn -0.9215 -0.2327 0.3110
vn -0.9114 -0.3321 0.2432
vn -0.8980 -0.4121 0.1538
vn -0.8823 -0.4683 0.0481
vn -0.8650 0.4971 -0.0679
vn -0.8823 0.4683 0.0481
vn -0.8980 0.4122 0.1538
vn -0.9114 0.3321 0.2432
vn -0.9215 0.2327 0.3110
vn -0.9278 0.1198 0.3534
vn -0.9299 -0.0000 0.3678
vn -0.8640 0.0894 -0.4955
vn -0.8687 0.1736 -0.4639
vn -0.8762 0.2477 -0.4133
vn -0.8862 0.3075 -0.3466
vn -0.8979 0.3493 -0.2678
vn -0.9108 -0.3709 -0.1813
vn -0.8979 -0.3493 -0.2678
vn -0.8862 -0.3075 -0.3466
vn -0.8762 -0.2477 -0.4133
vn -0.8687 -0.1736 -0.4639
vn -0.8640 -0.0894 -0.4955
vn -0.8624 0.0000 -0.5062
vn -0.5120 0.1859 -0.8387
vn -0.5218 0.3609 -0.7730
vn -0.6291 0.3193 -0.7087
vn -0.6204 0.1644 -0.7669
vn -0.5375 0.5150 -0.6678
vn -0.6429 0.4556 -0.6157
vn -0.5581 0.6391 -0.5292
vn -0.6612 0.5654 -0.4931
vn -0.5825 0.7261 -0.3652
vn -0.6828 0.6424 -0.3481
vn -0.6093 0.7709 -0.1854
vn -0.7065 0.6820 -0.1890
vn -0.6093 -0.7709 -0.1854
vn -0.7065 -0.6820 -0.1890
vn -0.5825 -0.7261 -0.3652
vn -0.6828 -0.6424 -0.3481
vn -0.5581 -0.6391 -0.5292
vn -0.6612 -0.5654 -0.4931
vn -0.5374 -0.5150 -0.6678
vn -0.6429 -0.4556 -0.6157
vn -0.5218 -0.3609 -0.7730
vn -0.6291 -0.3193 -0.7088
vn -0.5119 -0.1859 -0.8387
vn -0.6203 -0.1644 -0.7669
vn -0.5087 0.0000 -0.8609
vn -0.6175 0.0000 -0.7866
vn -0.5141 0.2207 0.8289
vn -0.5024 0.4287 0.7509
vn -0.4838 0.6116 0.6259
vn -0.4593 0.7591 0.4613
vn -0.4303 0.8624 0.2666
vn -0.3985 0.9157 0.0530
vn -0.3657 0.9157 -0.1669
vn -0.3339 0.8624 -0.3804
vn -0.3048 0.7591 -0.5752
vn -0.2803 0.6117 -0.7398
vn -0.2616 0.4287 -0.8648
vn -0.2500 0.2207 -0.9427
vn -0.2461 0.0000 -0.9692
vn -0.2501 -0.2207 -0.9427
vn -0.2617 -0.4287 -0.8647
vn -0.2803 -0.6117 -0.7398
vn -0.3048 -0.7591 -0.5752
vn -0.3339 -0.8624 -0.3804
vn -0.3657 -0.9157 -0.1669
vn -0.3984 -0.9157 0.0530
vn -0.4303 -0.8624 0.2666
vn -0.4593 -0.7591 0.4613
vn -0.4838 -0.6116 0.6259
vn -0.5025 -0.4286 0.7509
vn -0.5141 -0.2207 0.8289
vn -0.5180 0.0000 0.8554
vn -0.9851 0.0737 0.1555
vn -0.9864 0.0000 0.1644
vn -0.6427 0.0000 0.7661
vn -0.6390 0.2040 0.7416
vn -0.9812 0.1431 0.1295
vn -0.6283 0.3962 0.6696
vn -0.9750 0.2042 0.0878
vn -0.6111 0.5653 0.5541
vn -0.9668 0.2534 0.0328
vn -0.5884 0.7016 0.4019
vn -0.9571 0.2879 -0.0322
vn -0.5616 0.7971 0.2220
vn -0.9465 0.3057 -0.1035
vn -0.5322 0.8463 0.0246
vn -0.9465 -0.3057 -0.1035
vn -0.9355 -0.3057 -0.1769
vn -0.5019 -0.8463 -0.1787
vn -0.5322 -0.8463 0.0246
vn -0.9571 -0.2879 -0.0322
vn -0.5616 -0.7971 0.2220
vn -0.9668 -0.2534 0.0328
vn -0.5884 -0.7016 0.4019
vn -0.9750 -0.2042 0.0878
vn -0.6111 -0.5653 0.5541
vn -0.9812 -0.1431 0.1295
vn -0.6283 -0.3962 0.6696
vn -0.9851 -0.0737 0.1555
vn -0.6391 -0.2040 0.7416
vn -0.1474 0.0000 0.9891
vn -0.1431 0.2393 0.9603
vn -0.1305 0.4647 0.8758
vn -0.1103 0.6631 0.7403
vn -0.0837 0.8230 0.5619
vn -0.0523 0.9350 0.3507
vn -0.0178 0.9927 0.1192
vn -0.0178 -0.9927 0.1192
vn 0.0178 -0.9927 -0.1192
vn -0.0523 -0.9350 0.3507
vn -0.0837 -0.8230 0.5619
vn -0.1103 -0.6631 0.7403
vn -0.1305 -0.4647 0.8758
vn -0.1431 -0.2393 0.9603
vn -0.9971 0.0450 -0.0620
vn -0.9983 0.0232 -0.0538
vn -0.9951 0.0642 -0.0751
vn -0.9925 0.0796 -0.0923
vn -0.9895 0.0905 -0.1128
vn -0.9862 0.0960 -0.1352
vn -0.9895 -0.0905 -0.1128
vn -0.9862 -0.0960 -0.1352
vn -0.9925 -0.0796 -0.0923
vn -0.9951 -0.0642 -0.0751
vn -0.9971 -0.0450 -0.0620
vn -0.9983 -0.0232 -0.0538
vn -0.9987 -0.0000 -0.0510
vn -0.3914 -0.0000 -0.9202
vn -0.8956 -0.0000 -0.4448
vn -0.8969 0.0737 -0.4360
vn -0.3950 0.2040 -0.8957
vn -0.9008 0.1431 -0.4099
vn -0.4058 0.3962 -0.8236
vn -0.9070 0.2042 -0.3682
vn -0.4230 0.5653 -0.7082
vn -0.9152 0.2534 -0.3132
vn -0.4457 0.7016 -0.5560
vn -0.9249 0.2879 -0.2482
vn -0.4725 0.7971 -0.3760
vn -0.9355 0.3057 -0.1769
vn -0.5019 0.8463 -0.1787
vn -0.9249 -0.2879 -0.2482
vn -0.4725 -0.7971 -0.3760
vn -0.9152 -0.2534 -0.3132
vn -0.4457 -0.7016 -0.5560
vn -0.9070 -0.2042 -0.3682
vn -0.4230 -0.5653 -0.7082
vn -0.9008 -0.1431 -0.4099
vn -0.4058 -0.3962 -0.8236
vn -0.8969 -0.0737 -0.4360
vn -0.3950 -0.2040 -0.8957
vn 0.1474 -0.0000 -0.9891
vn 0.1431 0.2393 -0.9603
vn 0.1305 0.4647 -0.8758
vn 0.1103 0.6631 -0.7403
vn 0.0837 0.8230 -0.5619
vn 0.0523 0.9350 -0.3507
vn 0.0178 0.9927 -0.1192
vn 0.0523 -0.9350 -0.3507
vn 0.0837 -0.8230 -0.5619
vn 0.1103 -0.6631 -0.7403
vn 0.1305 -0.4647 -0.8758
vn 0.1431 -0.2393 -0.9603
vn -0.9718 0.0450 -0.2314
vn -0.9706 0.0232 -0.2396
vn -0.9738 0.0642 -0.2183
vn -0.9763 0.0796 -0.2011
vn -0.9794 0.0905 -0.1806
vn -0.9827 0.0960 -0.1582
vn -0.9794 -0.0905 -0.1806
vn -0.9827 -0.0960 -0.1582
vn -0.9763 -0.0796 -0.2011
vn -0.9738 -0.0642 -0.2183
vn -0.9718 -0.0450 -0.2314
vn -0.9706 -0.0232 -0.2396
vn -0.9702 -0.0000 -0.2424
vn 0.3914 0.0000 0.9202
vn 0.8956 0.0000 0.4448
vn 0.8969 0.0737 0.4360
vn 0.3950 0.2040 0.8957
vn 0.9008 0.1431 0.4099
vn 0.4058 0.3962 0.8236
vn 0.9070 0.2042 0.3682
vn 0.4230 0.5653 0.7082
vn 0.9152 0.2534 0.3132
vn 0.4457 0.7016 0.5560
vn 0.9249 0.2879 0.2482
vn 0.4725 0.7971 0.3760
vn 0.9355 0.3057 0.1769
vn 0.5019 0.8463 0.1787
vn 0.5322 -0.8463 -0.0246
vn 0.9465 -0.3057 0.1035
vn 0.9355 -0.3057 0.1769
vn 0.5019 -0.8463 0.1787
vn 0.9249 -0.2879 0.2482
vn 0.4725 -0.7971 0.3760
vn 0.9152 -0.2534 0.3132
vn 0.4457 -0.7016 0.5560
vn 0.9070 -0.2042 0.3682
vn 0.4230 -0.5653 0.7082
vn 0.9008 -0.1431 0.4099
vn 0.4058 -0.3962 0.8236
vn 0.8969 -0.0737 0.4360
vn 0.3950 -0.2040 0.8957
vn 0.7682 0.1252 0.6279
vn 0.7747 0.2431 0.5837
vn 0.9718 0.0450 0.2314
vn 0.9706 0.0232 0.2396
vn 0.7853 0.3468 0.5128
vn 0.9738 0.0642 0.2183
vn 0.7992 0.4304 0.4195
vn 0.9763 0.0796 0.2011
vn 0.8157 0.4891 0.3091
vn 0.9794 0.0905 0.1806
vn 0.8337 0.5192 0.1880
vn 0.9827 0.0960 0.1582
vn 0.8337 -0.5192 0.1880
vn 0.8157 -0.4890 0.3091
vn 0.9794 -0.0905 0.1806
vn 0.9827 -0.0960 0.1582
vn 0.7992 -0.4304 0.4195
vn 0.9763 -0.0796 0.2010
vn 0.7853 -0.3468 0.5128
vn 0.9738 -0.0642 0.2183
vn 0.7747 -0.2431 0.5837
vn 0.9718 -0.0450 0.2314
vn 0.7681 -0.1252 0.6279
vn 0.9706 -0.0232 0.2396
vn 0.7659 0.0000 0.6430
vn 0.9702 0.0000 0.2424
vn 0.9851 0.0737 -0.1555
vn 0.9864 0.0000 -0.1644
vn 0.6427 -0.0000 -0.7661
vn 0.6390 0.2040 -0.7416
vn 0.9812 0.1431 -0.1295
vn 0.6283 0.3962 -0.6696
vn 0.9750 0.2042 -0.0878
vn 0.6111 0.5653 -0.5541
vn 0.9668 0.2534 -0.0328
vn 0.5884 0.7016 -0.4019
vn 0.9571 0.2879 0.0322
vn 0.5616 0.7971 -0.2220
vn 0.9465 0.3057 0.1035
vn 0.5322 0.8463 -0.0246
vn 0.9571 -0.2879 0.0322
vn 0.5616 -0.7971 -0.2220
vn 0.9668 -0.2534 -0.0328
vn 0.5884 -0.7016 -0.4019
vn 0.9750 -0.2042 -0.0878
vn 0.6111 -0.5653 -0.5541
vn 0.9812 -0.1431 -0.1295
vn 0.6283 -0.3962 -0.6696
vn 0.9851 -0.0737 -0.1555
vn 0.6390 -0.2040 -0.7416
vn 0.9971 0.0450 0.0620
vn 0.9113 0.2431 -0.3325
vn 0.9178 0.1252 -0.3767
vn 0.9983 0.0232 0.0538
vn 0.9951 0.0642 0.0751
vn 0.9007 0.3468 -0.2616
vn 0.9925 0.0796 0.0923
vn 0.8868 0.4305 -0.1683
vn 0.9895 0.0905 0.1128
vn 0.8703 0.4890 -0.0578
vn 0.9862 0.0960 0.1352
vn 0.8523 0.5192 0.0633
vn 0.9895 -0.0905 0.1128
vn 0.8703 -0.4890 -0.0578
vn 0.8523 -0.5192 0.0633
vn 0.9862 -0.0960 0.1352
vn 0.9925 -0.0796 0.0923
vn 0.8868 -0.4304 -0.1683
vn 0.9951 -0.0642 0.0751
vn 0.9007 -0.3468 -0.2616
vn 0.9971 -0.0450 0.0620
vn 0.9113 -0.2431 -0.3325
vn 0.9983 -0.0232 0.0538
vn 0.9178 -0.1252 -0.3767
vn 0.9987 0.0000 0.0510
vn 0.9201 0.0000 -0.3917
vn 0.9578 -0.1004 -0.2693
vn 0.9991 -0.0402 -0.0162
vn 0.9969 -0.0782 -0.0020
vn 0.9525 -0.1950 -0.2338
vn 0.9935 -0.1115 0.0208
vn 0.9441 -0.2783 -0.1769
vn 0.9891 -0.1384 0.0508
vn 0.9329 -0.3454 -0.1020
vn 0.9838 -0.1572 0.0863
vn 0.9197 -0.3924 -0.0134
vn 0.9780 -0.1669 0.1252
vn 0.9052 -0.4166 0.0837
vn 0.9052 0.4166 0.0837
vn 0.9780 0.1669 0.1252
vn 0.9838 0.1572 0.0863
vn 0.9197 0.3924 -0.0134
vn 0.9891 0.1384 0.0508
vn 0.9329 0.3454 -0.1020
vn 0.9935 0.1115 0.0208
vn 0.9441 0.2783 -0.1769
vn 0.9969 0.0781 -0.0020
vn 0.9525 0.1950 -0.2338
vn 0.9991 0.0402 -0.0162
vn 0.9578 0.1004 -0.2693
vn 0.9998 -0.0000 -0.0210
vn 0.9596 -0.0000 -0.2813
vn 0.9278 -0.1198 -0.3534
vn 0.9215 -0.2327 -0.3110
vn 0.9114 -0.3321 -0.2432
vn 0.8980 -0.4122 -0.1538
vn 0.8823 -0.4683 -0.0481
vn 0.8650 -0.4971 0.0679
vn 0.8650 0.4971 0.0679
vn 0.8823 0.4683 -0.0481
vn 0.8980 0.4122 -0.1538
vn 0.9114 0.3321 -0.2432
vn 0.9215 0.2327 -0.3110
vn 0.9278 0.1198 -0.3534
vn 0.9299 -0.0000 -0.3678
vn 0.8640 0.0894 0.4955
vn 0.8687 0.1736 0.4639
vn 0.8762 0.2477 0.4133
vn 0.8862 0.3075 0.3466
vn 0.8979 0.3493 0.2677
vn 0.9108 0.3709 0.1813
vn 0.8472 -0.4971 0.1873
vn 0.9241 0.3709 0.0922
vn 0.9108 -0.3709 0.1813
vn 0.8979 -0.3493 0.2678
vn 0.8862 -0.3075 0.3466
vn 0.8762 -0.2477 0.4133
vn 0.8687 -0.1736 0.4639
vn 0.8640 -0.0894 0.4955
vn 0.8624 0.0000 0.5062
vn 0.9530 -0.0781 0.2926
vn 0.9509 -0.0402 0.3068
vn 0.8377 -0.1004 0.5368
vn 0.8430 -0.1950 0.5013
vn 0.9564 -0.1115 0.2698
vn 0.8515 -0.2783 0.4445
vn 0.9609 -0.1384 0.2398
vn 0.8626 -0.3454 0.3696
vn 0.9662 -0.1572 0.2043
vn 0.8758 -0.3924 0.2810
vn 0.9720 -0.1669 0.1653
vn 0.8903 -0.4166 0.1838
vn 0.9662 0.1572 0.2043
vn 0.9720 0.1669 0.1653
vn 0.8903 0.4166 0.1838
vn 0.8758 0.3924 0.2810
vn 0.9609 0.1384 0.2398
vn 0.8626 0.3454 0.3696
vn 0.9564 0.1115 0.2698
vn 0.8515 0.2783 0.4445
vn 0.9530 0.0781 0.2926
vn 0.8430 0.1950 0.5013
vn 0.9509 0.0402 0.3068
vn 0.8377 0.1004 0.5368
vn 0.9502 -0.0000 0.3116
vn 0.8359 0.0000 0.5489
vn 0.7844 -0.1198 0.6085
vn 0.7908 -0.2327 0.5662
vn 0.8009 -0.3321 0.4983
vn 0.8142 -0.4122 0.4090
vn 0.8299 -0.4683 0.3032
vn 0.8472 0.4971 0.1873
vn 0.8299 0.4683 0.3032
vn 0.8142 0.4122 0.4090
vn 0.8009 0.3321 0.4983
vn 0.7908 0.2327 0.5662
vn 0.7844 0.1198 0.6085
vn 0.7823 0.0000 0.6229
vn 0.9709 0.0894 -0.2221
vn 0.9662 0.1736 -0.1905
vn 0.9587 0.2477 -0.1399
vn 0.9487 0.3075 -0.0732
vn 0.9370 0.3493 0.0057
vn 0.9241 -0.3709 0.0922
vn 0.9370 -0.3493 0.0057
vn 0.9487 -0.3075 -0.0732
vn 0.9587 -0.2477 -0.1399
vn 0.9662 -0.1736 -0.1905
vn 0.9709 -0.0894 -0.2221
vn 0.9725 -0.0000 -0.2328
vn 0.9891 0.0000 0.1474
vn 0.9891 -0.0000 0.1474
# 576 vertex normals

vt 1.9666 -0.9561 0.0000
vt 1.9672 -0.9583 0.0000
vt 1.9671 -0.9583 0.0000
vt 1.9657 -0.9542 0.0000
vt 1.9660 -0.9583 0.0000
vt 1.9646 -0.9524 0.0000
vt 1.9645 -0.9583 0.0000
vt 1.9632 -0.9509 0.0000
vt 1.9624 -0.9583 0.0000
vt 1.9617 -0.9499 0.0000
vt 1.9607 -0.9583 0.0000
vt 1.9600 -0.9493 0.0000
vt 1.9666 -0.9604 0.0000
vt 1.9657 -0.9624 0.0000
vt 1.9646 -0.9641 0.0000
vt 1.9632 -0.9656 0.0000
vt 1.9617 -0.9666 0.0000
vt 1.9600 -0.9672 0.0000
vt 1.9763 -0.9676 0.0000
vt 1.9779 -0.9631 0.0000
vt 1.9844 -0.9646 0.0000
vt 1.9822 -0.9706 0.0000
vt 1.9736 -0.9716 0.0000
vt 1.9787 -0.9759 0.0000
vt 1.9701 -0.9749 0.0000
vt 1.9741 -0.9803 0.0000
vt 1.9660 -0.9773 0.0000
vt 1.9685 -0.9835 0.0000
vt 1.9615 -0.9785 0.0000
vt 1.9623 -0.9851 0.0000
vt 1.9661 -0.9392 0.0000
vt 1.9615 -0.9380 0.0000
vt 1.9623 -0.9314 0.0000
vt 1.9685 -0.9331 0.0000
vt 1.9701 -0.9416 0.0000
vt 1.9741 -0.9362 0.0000
vt 1.9736 -0.9449 0.0000
vt 1.9787 -0.9406 0.0000
vt 1.9763 -0.9489 0.0000
vt 1.9822 -0.9459 0.0000
vt 1.9779 -0.9535 0.0000
vt 1.9844 -0.9519 0.0000
vt 1.9785 -0.9583 0.0000
vt 1.9852 -0.9583 0.0000
vt 1.8345 -0.8655 0.0000
vt 1.8301 -0.8607 0.0000
vt 1.8347 -0.8559 0.0000
vt 1.8398 -0.8614 0.0000
vt 1.8381 -0.8710 0.0000
vt 1.8439 -0.8677 0.0000
vt 1.8409 -0.8769 0.0000
vt 1.8472 -0.8745 0.0000
vt 1.8429 -0.8832 0.0000
vt 1.8494 -0.8817 0.0000
vt 1.8439 -0.8898 0.0000
vt 1.8506 -0.8891 0.0000
vt 1.6952 -0.8900 0.0000
vt 1.6952 -0.8966 0.0000
vt 1.6885 -0.8970 0.0000
vt 1.6886 -0.8895 0.0000
vt 1.6962 -0.8836 0.0000
vt 1.6897 -0.8821 0.0000
vt 1.6982 -0.8774 0.0000
vt 1.6919 -0.8749 0.0000
vt 1.7010 -0.8715 0.0000
vt 1.6952 -0.8681 0.0000
vt 1.7047 -0.8661 0.0000
vt 1.6995 -0.8620 0.0000
vt 1.7092 -0.8612 0.0000
vt 1.7045 -0.8565 0.0000
vt 1.8250 -0.8564 0.0000
vt 1.8290 -0.8511 0.0000
vt 1.8378 -0.8526 0.0000
vt 1.8433 -0.8586 0.0000
vt 1.8478 -0.8654 0.0000
vt 1.8513 -0.8728 0.0000
vt 1.8538 -0.8806 0.0000
vt 1.8551 -0.8887 0.0000
vt 1.6841 -0.8974 0.0000
vt 1.6841 -0.8892 0.0000
vt 1.6853 -0.8811 0.0000
vt 1.6878 -0.8733 0.0000
vt 1.6913 -0.8659 0.0000
vt 1.6960 -0.8591 0.0000
vt 1.7016 -0.8532 0.0000
vt 1.8314 -0.8474 0.0000
vt 1.8406 -0.8496 0.0000
vt 1.8465 -0.8561 0.0000
vt 1.8514 -0.8634 0.0000
vt 1.8551 -0.8713 0.0000
vt 1.8577 -0.8797 0.0000
vt 1.8591 -0.8883 0.0000
vt 1.8593 -0.8970 0.0000
vt 1.8552 -0.8969 0.0000
vt 1.6800 -0.8977 0.0000
vt 1.6800 -0.8889 0.0000
vt 1.6814 -0.8802 0.0000
vt 1.6840 -0.8717 0.0000
vt 1.6878 -0.8638 0.0000
vt 1.6928 -0.8565 0.0000
vt 1.6990 -0.8501 0.0000
vt 1.8336 -0.8440 0.0000
vt 1.9930 -0.9667 0.0000
vt 1.9901 -0.9746 0.0000
vt 1.9854 -0.9817 0.0000
vt 1.9792 -0.9875 0.0000
vt 1.9717 -0.9916 0.0000
vt 1.9634 -0.9938 0.0000
vt 1.9634 -0.9227 0.0000
vt 1.9717 -0.9249 0.0000
vt 1.9792 -0.9291 0.0000
vt 1.9854 -0.9349 0.0000
vt 1.9901 -0.9419 0.0000
vt 1.9930 -0.9499 0.0000
vt 1.9940 -0.9583 0.0000
vt 1.9754 -0.9672 0.0000
vt 1.9750 -0.9669 0.0000
vt 1.9766 -0.9627 0.0000
vt 1.9771 -0.9628 0.0000
vt 1.9729 -0.9710 0.0000
vt 1.9725 -0.9707 0.0000
vt 1.9696 -0.9742 0.0000
vt 1.9693 -0.9739 0.0000
vt 1.9657 -0.9765 0.0000
vt 1.9655 -0.9761 0.0000
vt 1.9614 -0.9777 0.0000
vt 1.9613 -0.9773 0.0000
vt 1.9657 -0.9400 0.0000
vt 1.9655 -0.9404 0.0000
vt 1.9613 -0.9392 0.0000
vt 1.9614 -0.9388 0.0000
vt 1.9696 -0.9423 0.0000
vt 1.9693 -0.9427 0.0000
vt 1.9729 -0.9455 0.0000
vt 1.9725 -0.9458 0.0000
vt 1.9754 -0.9494 0.0000
vt 1.9750 -0.9496 0.0000
vt 1.9771 -0.9537 0.0000
vt 1.9766 -0.9538 0.0000
vt 1.9776 -0.9583 0.0000
vt 1.9772 -0.9583 0.0000
vt 1.9512 -0.9583 0.0000
vt 1.9510 -0.9583 0.0000
vt 1.9516 -0.9561 0.0000
vt 1.9526 -0.9542 0.0000
vt 1.9522 -0.9583 0.0000
vt 1.9537 -0.9524 0.0000
vt 1.9537 -0.9583 0.0000
vt 1.9551 -0.9509 0.0000
vt 1.9559 -0.9583 0.0000
vt 1.9566 -0.9499 0.0000
vt 1.9576 -0.9583 0.0000
vt 1.9583 -0.9493 0.0000
vt 1.9526 -0.9624 0.0000
vt 1.9516 -0.9604 0.0000
vt 1.9537 -0.9641 0.0000
vt 1.9551 -0.9656 0.0000
vt 1.9566 -0.9666 0.0000
vt 1.9583 -0.9672 0.0000
vt 1.9338 -0.9646 0.0000
vt 1.9403 -0.9631 0.0000
vt 1.9420 -0.9676 0.0000
vt 1.9360 -0.9706 0.0000
vt 1.9447 -0.9716 0.0000
vt 1.9396 -0.9759 0.0000
vt 1.9481 -0.9749 0.0000
vt 1.9442 -0.9803 0.0000
vt 1.9522 -0.9773 0.0000
vt 1.9498 -0.9835 0.0000
vt 1.9568 -0.9785 0.0000
vt 1.9559 -0.9851 0.0000
vt 1.9559 -0.9314 0.0000
vt 1.9568 -0.9380 0.0000
vt 1.9522 -0.9392 0.0000
vt 1.9498 -0.9331 0.0000
vt 1.9481 -0.9416 0.0000
vt 1.9442 -0.9362 0.0000
vt 1.9447 -0.9449 0.0000
vt 1.9396 -0.9406 0.0000
vt 1.9420 -0.9489 0.0000
vt 1.9360 -0.9459 0.0000
vt 1.9403 -0.9535 0.0000
vt 1.9338 -0.9519 0.0000
vt 1.9398 -0.9583 0.0000
vt 1.9331 -0.9583 0.0000
vt 1.8362 -0.9303 0.0000
vt 1.8314 -0.9256 0.0000
vt 1.8357 -0.9206 0.0000
vt 1.8411 -0.9247 0.0000
vt 1.8392 -0.9152 0.0000
vt 1.8451 -0.9183 0.0000
vt 1.8418 -0.9092 0.0000
vt 1.8482 -0.9114 0.0000
vt 1.8435 -0.9029 0.0000
vt 1.8501 -0.9042 0.0000
vt 1.8441 -0.8964 0.0000
vt 1.8508 -0.8967 0.0000
vt 1.6896 -0.9045 0.0000
vt 1.6962 -0.9030 0.0000
vt 1.6981 -0.9093 0.0000
vt 1.6918 -0.9117 0.0000
vt 1.7009 -0.9152 0.0000
vt 1.6951 -0.9185 0.0000
vt 1.7045 -0.9206 0.0000
vt 1.6993 -0.9247 0.0000
vt 1.7089 -0.9254 0.0000
vt 1.7043 -0.9302 0.0000
vt 1.7140 -0.9294 0.0000
vt 1.7102 -0.9349 0.0000
vt 1.7197 -0.9329 0.0000
vt 1.7166 -0.9387 0.0000
vt 1.8305 -0.9351 0.0000
vt 1.8264 -0.9299 0.0000
vt 1.8393 -0.9335 0.0000
vt 1.8447 -0.9274 0.0000
vt 1.8491 -0.9204 0.0000
vt 1.8524 -0.9129 0.0000
vt 1.8546 -0.9050 0.0000
vt 1.6853 -0.9055 0.0000
vt 1.6876 -0.9133 0.0000
vt 1.6912 -0.9207 0.0000
vt 1.6957 -0.9275 0.0000
vt 1.7013 -0.9335 0.0000
vt 1.7077 -0.9387 0.0000
vt 1.7148 -0.9427 0.0000
vt 1.8330 -0.9388 0.0000
vt 1.8421 -0.9365 0.0000
vt 1.8480 -0.9298 0.0000
vt 1.8527 -0.9223 0.0000
vt 1.8562 -0.9143 0.0000
vt 1.8586 -0.9057 0.0000
vt 1.6813 -0.9064 0.0000
vt 1.6838 -0.9148 0.0000
vt 1.6876 -0.9227 0.0000
vt 1.6925 -0.9300 0.0000
vt 1.6985 -0.9365 0.0000
vt 1.7054 -0.9421 0.0000
vt 1.7132 -0.9465 0.0000
vt 1.8353 -0.9421 0.0000
vt 1.9253 -0.9667 0.0000
vt 1.9282 -0.9746 0.0000
vt 1.9328 -0.9817 0.0000
vt 1.9391 -0.9875 0.0000
vt 1.9465 -0.9916 0.0000
vt 1.9548 -0.9938 0.0000
vt 1.9548 -0.9227 0.0000
vt 1.9465 -0.9249 0.0000
vt 1.9391 -0.9291 0.0000
vt 1.9328 -0.9349 0.0000
vt 1.9282 -0.9419 0.0000
vt 1.9253 -0.9499 0.0000
vt 1.9243 -0.9583 0.0000
vt 1.9417 -0.9627 0.0000
vt 1.9433 -0.9669 0.0000
vt 1.9428 -0.9672 0.0000
vt 1.9412 -0.9628 0.0000
vt 1.9458 -0.9707 0.0000
vt 1.9454 -0.9710 0.0000
vt 1.9490 -0.9739 0.0000
vt 1.9487 -0.9742 0.0000
vt 1.9528 -0.9761 0.0000
vt 1.9525 -0.9765 0.0000
vt 1.9570 -0.9773 0.0000
vt 1.9569 -0.9777 0.0000
vt 1.9570 -0.9392 0.0000
vt 1.9569 -0.9388 0.0000
vt 1.9528 -0.9404 0.0000
vt 1.9525 -0.9400 0.0000
vt 1.9490 -0.9427 0.0000
vt 1.9487 -0.9423 0.0000
vt 1.9458 -0.9458 0.0000
vt 1.9454 -0.9455 0.0000
vt 1.9433 -0.9496 0.0000
vt 1.9428 -0.9494 0.0000
vt 1.9417 -0.9538 0.0000
vt 1.9412 -0.9537 0.0000
vt 1.9411 -0.9583 0.0000
vt 1.9406 -0.9583 0.0000
vt 1.5128 -0.2722 0.0000
vt 1.5245 -0.2719 0.0000
vt 1.5242 -0.2743 0.0000
vt 1.5126 -0.2745 0.0000
vt 1.5348 -0.2717 0.0000
vt 1.5344 -0.2741 0.0000
vt 1.4379 -0.5267 0.0000
vt 1.4476 -0.5266 0.0000
vt 1.4480 -0.5290 0.0000
vt 1.4385 -0.5291 0.0000
vt 1.4590 -0.5264 0.0000
vt 1.4593 -0.5289 0.0000
vt 1.4715 -0.5263 0.0000
vt 1.4716 -0.5287 0.0000
vt 1.4844 -0.5261 0.0000
vt 1.4844 -0.5286 0.0000
vt 1.4969 -0.5260 0.0000
vt 1.4967 -0.5284 0.0000
vt 1.5084 -0.5258 0.0000
vt 1.5080 -0.5283 0.0000
vt 1.5180 -0.5257 0.0000
vt 1.5175 -0.5282 0.0000
vt 1.2789 -0.2813 0.0000
vt 1.2893 -0.2813 0.0000
vt 1.2896 -0.2836 0.0000
vt 1.2794 -0.2836 0.0000
vt 1.3010 -0.2813 0.0000
vt 1.3012 -0.2836 0.0000
vt 1.3135 -0.2813 0.0000
vt 1.3135 -0.2836 0.0000
vt 1.3259 -0.2813 0.0000
vt 1.3258 -0.2836 0.0000
vt 1.3377 -0.2813 0.0000
vt 1.3374 -0.2836 0.0000
vt 1.3480 -0.2813 0.0000
vt 1.3476 -0.2836 0.0000
vt 1.5290 -0.3658 0.0000
vt 1.5387 -0.3656 0.0000
vt 1.5391 -0.3680 0.0000
vt 1.5296 -0.3682 0.0000
vt 1.5501 -0.3655 0.0000
vt 1.5504 -0.3679 0.0000
vt 1.5626 -0.3653 0.0000
vt 1.5627 -0.3677 0.0000
vt 1.5755 -0.3651 0.0000
vt 1.5755 -0.3676 0.0000
vt 1.5880 -0.3650 0.0000
vt 1.5878 -0.3674 0.0000
vt 1.5995 -0.3648 0.0000
vt 1.5991 -0.3672 0.0000
vt 1.6091 -0.3647 0.0000
vt 1.6086 -0.3671 0.0000
vt 1.4657 -0.2732 0.0000
vt 1.4761 -0.2730 0.0000
vt 1.4765 -0.2753 0.0000
vt 1.4663 -0.2755 0.0000
vt 1.4878 -0.2727 0.0000
vt 1.4880 -0.2751 0.0000
vt 1.5003 -0.2724 0.0000
vt 1.5003 -0.2748 0.0000
vt 1.9603 -0.4975 0.0000
vt 1.9635 -0.4683 0.0000
vt 1.9787 -0.4683 0.0000
vt 1.9752 -0.5010 0.0000
vt 1.9501 -0.5250 0.0000
vt 1.9636 -0.5320 0.0000
vt 1.9335 -0.5493 0.0000
vt 1.9450 -0.5593 0.0000
vt 1.9117 -0.5690 0.0000
vt 1.9204 -0.5815 0.0000
vt 1.8857 -0.5829 0.0000
vt 1.8912 -0.5971 0.0000
vt 1.8571 -0.5900 0.0000
vt 1.8590 -0.6052 0.0000
vt 1.8571 -0.3465 0.0000
vt 1.8277 -0.3465 0.0000
vt 1.8258 -0.3313 0.0000
vt 1.8590 -0.3313 0.0000
vt 1.8857 -0.3536 0.0000
vt 1.8912 -0.3394 0.0000
vt 1.9117 -0.3675 0.0000
vt 1.9204 -0.3550 0.0000
vt 1.9335 -0.3872 0.0000
vt 1.9450 -0.3772 0.0000
vt 1.9501 -0.4116 0.0000
vt 1.9636 -0.4045 0.0000
vt 1.9603 -0.4390 0.0000
vt 1.9752 -0.4355 0.0000
vt 1.4262 -0.0120 0.0000
vt 1.4645 -0.0120 0.0000
vt 1.4645 -0.0437 0.0000
vt 1.4262 -0.0437 0.0000
vt 1.3880 -0.0120 0.0000
vt 1.3880 -0.0437 0.0000
vt 1.3499 -0.0120 0.0000
vt 1.3499 -0.0437 0.0000
vt 1.3120 -0.0120 0.0000
vt 1.3120 -0.0437 0.0000
vt 1.2742 -0.0120 0.0000
vt 1.2742 -0.0437 0.0000
vt 1.2364 -0.0120 0.0000
vt 1.2364 -0.0437 0.0000
vt 1.6925 -0.0437 0.0000
vt 1.6925 -0.0120 0.0000
vt 1.7302 -0.0120 0.0000
vt 1.7302 -0.0437 0.0000
vt 1.6548 -0.0120 0.0000
vt 1.6548 -0.0437 0.0000
vt 1.6169 -0.0120 0.0000
vt 1.6169 -0.0437 0.0000
vt 1.5790 -0.0120 0.0000
vt 1.5790 -0.0437 0.0000
vt 1.5409 -0.0120 0.0000
vt 1.5409 -0.0437 0.0000
vt 1.5027 -0.0120 0.0000
vt 1.5027 -0.0437 0.0000
vt 1.9347 -0.5172 0.0000
vt 1.9210 -0.5100 0.0000
vt 1.9286 -0.4897 0.0000
vt 1.9436 -0.4934 0.0000
vt 1.9205 -0.5381 0.0000
vt 1.9089 -0.5278 0.0000
vt 1.9017 -0.5550 0.0000
vt 1.8929 -0.5422 0.0000
vt 1.8795 -0.5668 0.0000
vt 1.8740 -0.5524 0.0000
vt 1.8550 -0.5730 0.0000
vt 1.8531 -0.5576 0.0000
vt 1.8795 -0.3697 0.0000
vt 1.8740 -0.3842 0.0000
vt 1.8531 -0.3789 0.0000
vt 1.8550 -0.3636 0.0000
vt 1.9017 -0.3815 0.0000
vt 1.8929 -0.3943 0.0000
vt 1.9205 -0.3984 0.0000
vt 1.9089 -0.4087 0.0000
vt 1.9347 -0.4194 0.0000
vt 1.9210 -0.4265 0.0000
vt 1.9436 -0.4431 0.0000
vt 1.9286 -0.4468 0.0000
vt 1.9465 -0.4683 0.0000
vt 1.9311 -0.4683 0.0000
vt 1.7061 -0.4683 0.0000
vt 1.7213 -0.4683 0.0000
vt 1.7245 -0.4975 0.0000
vt 1.7095 -0.5010 0.0000
vt 1.7347 -0.5250 0.0000
vt 1.7212 -0.5320 0.0000
vt 1.7513 -0.5493 0.0000
vt 1.7397 -0.5593 0.0000
vt 1.7731 -0.5690 0.0000
vt 1.7643 -0.5815 0.0000
vt 1.7991 -0.5829 0.0000
vt 1.7936 -0.5971 0.0000
vt 1.8277 -0.5900 0.0000
vt 1.8258 -0.6052 0.0000
vt 1.7991 -0.3536 0.0000
vt 1.7936 -0.3394 0.0000
vt 1.7731 -0.3675 0.0000
vt 1.7644 -0.3550 0.0000
vt 1.7513 -0.3872 0.0000
vt 1.7397 -0.3772 0.0000
vt 1.7347 -0.4116 0.0000
vt 1.7212 -0.4045 0.0000
vt 1.7245 -0.4390 0.0000
vt 1.7095 -0.4355 0.0000
vt 1.9583 -0.0437 0.0000
vt 1.9583 -0.0120 0.0000
vt 1.9965 -0.0120 0.0000
vt 1.9965 -0.0437 0.0000
vt 1.0089 -0.0437 0.0000
vt 1.0089 -0.0120 0.0000
vt 1.0471 -0.0120 0.0000
vt 1.0471 -0.0437 0.0000
vt 1.0852 -0.0120 0.0000
vt 1.0852 -0.0437 0.0000
vt 1.1232 -0.0120 0.0000
vt 1.1232 -0.0437 0.0000
vt 1.1610 -0.0120 0.0000
vt 1.1610 -0.0437 0.0000
vt 1.1987 -0.0120 0.0000
vt 1.1987 -0.0437 0.0000
vt 1.7680 -0.0120 0.0000
vt 1.7680 -0.0437 0.0000
vt 1.8058 -0.0120 0.0000
vt 1.8058 -0.0437 0.0000
vt 1.8437 -0.0120 0.0000
vt 1.8437 -0.0437 0.0000
vt 1.8818 -0.0120 0.0000
vt 1.8818 -0.0437 0.0000
vt 1.9200 -0.0120 0.0000
vt 1.9200 -0.0437 0.0000
vt 1.7562 -0.4897 0.0000
vt 1.7637 -0.5100 0.0000
vt 1.7501 -0.5172 0.0000
vt 1.7412 -0.4934 0.0000
vt 1.7759 -0.5278 0.0000
vt 1.7643 -0.5381 0.0000
vt 1.7919 -0.5422 0.0000
vt 1.7831 -0.5550 0.0000
vt 1.8108 -0.5524 0.0000
vt 1.8053 -0.5668 0.0000
vt 1.8317 -0.5576 0.0000
vt 1.8298 -0.5730 0.0000
vt 1.8317 -0.3789 0.0000
vt 1.8108 -0.3842 0.0000
vt 1.8053 -0.3697 0.0000
vt 1.8298 -0.3636 0.0000
vt 1.7919 -0.3943 0.0000
vt 1.7831 -0.3815 0.0000
vt 1.7759 -0.4087 0.0000
vt 1.7643 -0.3984 0.0000
vt 1.7637 -0.4265 0.0000
vt 1.7501 -0.4194 0.0000
vt 1.7562 -0.4468 0.0000
vt 1.7412 -0.4431 0.0000
vt 1.7537 -0.4683 0.0000
vt 1.7383 -0.4683 0.0000
vt 1.6587 -0.8582 0.0000
vt 1.6436 -0.8582 0.0000
vt 1.6404 -0.8874 0.0000
vt 1.6553 -0.8909 0.0000
vt 1.6301 -0.9149 0.0000
vt 1.6437 -0.9219 0.0000
vt 1.6136 -0.9392 0.0000
vt 1.6251 -0.9493 0.0000
vt 1.5917 -0.9589 0.0000
vt 1.6005 -0.9715 0.0000
vt 1.5658 -0.9728 0.0000
vt 1.5712 -0.9871 0.0000
vt 1.5372 -0.9800 0.0000
vt 1.5391 -0.9951 0.0000
vt 1.5059 -0.7213 0.0000
vt 1.5077 -0.7364 0.0000
vt 1.5372 -0.7364 0.0000
vt 1.5391 -0.7213 0.0000
vt 1.5658 -0.7436 0.0000
vt 1.5712 -0.7293 0.0000
vt 1.5917 -0.7575 0.0000
vt 1.6005 -0.7450 0.0000
vt 1.6136 -0.7772 0.0000
vt 1.6251 -0.7671 0.0000
vt 1.6301 -0.8015 0.0000
vt 1.6437 -0.7945 0.0000
vt 1.6404 -0.8290 0.0000
vt 1.6553 -0.8255 0.0000
vt 1.4645 -0.0754 0.0000
vt 1.4262 -0.0754 0.0000
vt 1.3880 -0.0754 0.0000
vt 1.3499 -0.0754 0.0000
vt 1.3120 -0.0754 0.0000
vt 1.2742 -0.0754 0.0000
vt 1.2364 -0.0754 0.0000
vt 1.7302 -0.0754 0.0000
vt 1.6925 -0.0754 0.0000
vt 1.6548 -0.0754 0.0000
vt 1.6169 -0.0754 0.0000
vt 1.5790 -0.0754 0.0000
vt 1.5409 -0.0754 0.0000
vt 1.5027 -0.0754 0.0000
vt 1.6086 -0.8797 0.0000
vt 1.6011 -0.8999 0.0000
vt 1.6148 -0.9071 0.0000
vt 1.6236 -0.8834 0.0000
vt 1.5890 -0.9178 0.0000
vt 1.6006 -0.9280 0.0000
vt 1.5730 -0.9322 0.0000
vt 1.5818 -0.9449 0.0000
vt 1.5540 -0.9423 0.0000
vt 1.5595 -0.9568 0.0000
vt 1.5332 -0.9475 0.0000
vt 1.5351 -0.9629 0.0000
vt 1.5332 -0.7689 0.0000
vt 1.5540 -0.7741 0.0000
vt 1.5595 -0.7596 0.0000
vt 1.5351 -0.7535 0.0000
vt 1.5730 -0.7842 0.0000
vt 1.5818 -0.7715 0.0000
vt 1.5890 -0.7986 0.0000
vt 1.6006 -0.7884 0.0000
vt 1.6011 -0.8165 0.0000
vt 1.6148 -0.8093 0.0000
vt 1.6086 -0.8367 0.0000
vt 1.6236 -0.8330 0.0000
vt 1.6112 -0.8582 0.0000
vt 1.6266 -0.8582 0.0000
vt 1.4045 -0.8874 0.0000
vt 1.4013 -0.8582 0.0000
vt 1.3862 -0.8582 0.0000
vt 1.3896 -0.8909 0.0000
vt 1.4148 -0.9149 0.0000
vt 1.4012 -0.9219 0.0000
vt 1.4313 -0.9392 0.0000
vt 1.4198 -0.9493 0.0000
vt 1.4532 -0.9589 0.0000
vt 1.4444 -0.9715 0.0000
vt 1.4791 -0.9728 0.0000
vt 1.4737 -0.9871 0.0000
vt 1.5077 -0.9800 0.0000
vt 1.5059 -0.9951 0.0000
vt 1.4791 -0.7436 0.0000
vt 1.4737 -0.7293 0.0000
vt 1.4532 -0.7575 0.0000
vt 1.4444 -0.7450 0.0000
vt 1.4313 -0.7772 0.0000
vt 1.4198 -0.7671 0.0000
vt 1.4148 -0.8015 0.0000
vt 1.4012 -0.7945 0.0000
vt 1.4045 -0.8290 0.0000
vt 1.3896 -0.8255 0.0000
vt 1.9965 -0.0754 0.0000
vt 1.9583 -0.0754 0.0000
vt 1.0471 -0.0754 0.0000
vt 1.0089 -0.0754 0.0000
vt 1.0852 -0.0754 0.0000
vt 1.1232 -0.0754 0.0000
vt 1.1610 -0.0754 0.0000
vt 1.1987 -0.0754 0.0000
vt 1.7680 -0.0754 0.0000
vt 1.8058 -0.0754 0.0000
vt 1.8437 -0.0754 0.0000
vt 1.8818 -0.0754 0.0000
vt 1.9200 -0.0754 0.0000
vt 1.4301 -0.9071 0.0000
vt 1.4438 -0.8999 0.0000
vt 1.4363 -0.8797 0.0000
vt 1.4213 -0.8834 0.0000
vt 1.4443 -0.9280 0.0000
vt 1.4559 -0.9178 0.0000
vt 1.4631 -0.9449 0.0000
vt 1.4719 -0.9322 0.0000
vt 1.4854 -0.9568 0.0000
vt 1.4909 -0.9423 0.0000
vt 1.5099 -0.9629 0.0000
vt 1.5117 -0.9475 0.0000
vt 1.4854 -0.7596 0.0000
vt 1.4909 -0.7741 0.0000
vt 1.5117 -0.7689 0.0000
vt 1.5099 -0.7535 0.0000
vt 1.4631 -0.7715 0.0000
vt 1.4719 -0.7842 0.0000
vt 1.4443 -0.7884 0.0000
vt 1.4559 -0.7986 0.0000
vt 1.4301 -0.8093 0.0000
vt 1.4438 -0.8165 0.0000
vt 1.4213 -0.8330 0.0000
vt 1.4363 -0.8367 0.0000
vt 1.4183 -0.8582 0.0000
vt 1.4337 -0.8582 0.0000
vt 1.4853 -0.8195 0.0000
vt 1.5007 -0.8160 0.0000
vt 1.5022 -0.8201 0.0000
vt 1.4880 -0.8269 0.0000
vt 1.5044 -0.8236 0.0000
vt 1.4922 -0.8335 0.0000
vt 1.5074 -0.8265 0.0000
vt 1.4979 -0.8390 0.0000
vt 1.5107 -0.8285 0.0000
vt 1.5048 -0.8429 0.0000
vt 1.5145 -0.8295 0.0000
vt 1.5124 -0.8450 0.0000
vt 1.5124 -0.7784 0.0000
vt 1.5145 -0.7940 0.0000
vt 1.5107 -0.7950 0.0000
vt 1.5048 -0.7805 0.0000
vt 1.5074 -0.7970 0.0000
vt 1.4979 -0.7844 0.0000
vt 1.5044 -0.7998 0.0000
vt 1.4922 -0.7899 0.0000
vt 1.5022 -0.8034 0.0000
vt 1.4880 -0.7965 0.0000
vt 1.5007 -0.8074 0.0000
vt 1.4853 -0.8039 0.0000
vt 1.5000 -0.8117 0.0000
vt 1.4844 -0.8117 0.0000
vt 1.4807 -0.8206 0.0000
vt 1.4838 -0.8290 0.0000
vt 1.4887 -0.8366 0.0000
vt 1.4952 -0.8428 0.0000
vt 1.5031 -0.8472 0.0000
vt 1.5119 -0.8496 0.0000
vt 1.5119 -0.7739 0.0000
vt 1.5031 -0.7762 0.0000
vt 1.4952 -0.7806 0.0000
vt 1.4887 -0.7869 0.0000
vt 1.4838 -0.7944 0.0000
vt 1.4807 -0.8028 0.0000
vt 1.4797 -0.8117 0.0000
vt 1.4766 -0.8216 0.0000
vt 1.4799 -0.8310 0.0000
vt 1.4854 -0.8393 0.0000
vt 1.4927 -0.8463 0.0000
vt 1.5015 -0.8512 0.0000
vt 1.5113 -0.8538 0.0000
vt 1.5209 -0.8496 0.0000
vt 1.5215 -0.8538 0.0000
vt 1.5113 -0.7696 0.0000
vt 1.5015 -0.7722 0.0000
vt 1.4927 -0.7772 0.0000
vt 1.4854 -0.7841 0.0000
vt 1.4799 -0.7925 0.0000
vt 1.4766 -0.8018 0.0000
vt 1.4754 -0.8117 0.0000
vt 1.5306 -0.8201 0.0000
vt 1.5321 -0.8160 0.0000
vt 1.5475 -0.8195 0.0000
vt 1.5448 -0.8269 0.0000
vt 1.5283 -0.8236 0.0000
vt 1.5405 -0.8335 0.0000
vt 1.5254 -0.8265 0.0000
vt 1.5349 -0.8390 0.0000
vt 1.5220 -0.8285 0.0000
vt 1.5280 -0.8429 0.0000
vt 1.5183 -0.8295 0.0000
vt 1.5204 -0.8450 0.0000
vt 1.5220 -0.7950 0.0000
vt 1.5183 -0.7940 0.0000
vt 1.5204 -0.7784 0.0000
vt 1.5280 -0.7805 0.0000
vt 1.5254 -0.7970 0.0000
vt 1.5349 -0.7844 0.0000
vt 1.5283 -0.7998 0.0000
vt 1.5405 -0.7899 0.0000
vt 1.5306 -0.8034 0.0000
vt 1.5448 -0.7965 0.0000
vt 1.5321 -0.8074 0.0000
vt 1.5475 -0.8039 0.0000
vt 1.5327 -0.8117 0.0000
vt 1.5484 -0.8117 0.0000
vt 1.5520 -0.8206 0.0000
vt 1.5490 -0.8290 0.0000
vt 1.5441 -0.8366 0.0000
vt 1.5376 -0.8428 0.0000
vt 1.5297 -0.8472 0.0000
vt 1.5209 -0.7739 0.0000
vt 1.5297 -0.7762 0.0000
vt 1.5376 -0.7806 0.0000
vt 1.5441 -0.7869 0.0000
vt 1.5490 -0.7944 0.0000
vt 1.5520 -0.8028 0.0000
vt 1.5530 -0.8117 0.0000
vt 1.5562 -0.8216 0.0000
vt 1.5528 -0.8310 0.0000
vt 1.5474 -0.8393 0.0000
vt 1.5401 -0.8463 0.0000
vt 1.5313 -0.8512 0.0000
vt 1.5215 -0.7696 0.0000
vt 1.5313 -0.7722 0.0000
vt 1.5401 -0.7772 0.0000
vt 1.5474 -0.7841 0.0000
vt 1.5528 -0.7925 0.0000
vt 1.5562 -0.8018 0.0000
vt 1.5573 -0.8117 0.0000
vt 1.1860 -0.2917 0.0000
vt 1.1861 -0.2942 0.0000
vt 1.1738 -0.2942 0.0000
vt 1.1735 -0.2917 0.0000
vt 1.1630 -0.2942 0.0000
vt 1.1625 -0.2917 0.0000
vt 1.2495 -0.2849 0.0000
vt 1.2489 -0.2874 0.0000
vt 1.2388 -0.2874 0.0000
vt 1.2392 -0.2849 0.0000
vt 1.2268 -0.2874 0.0000
vt 1.2271 -0.2849 0.0000
vt 1.2137 -0.2874 0.0000
vt 1.2138 -0.2849 0.0000
vt 1.2002 -0.2874 0.0000
vt 1.2001 -0.2849 0.0000
vt 1.1871 -0.2874 0.0000
vt 1.1868 -0.2849 0.0000
vt 1.1751 -0.2874 0.0000
vt 1.1747 -0.2849 0.0000
vt 1.1650 -0.2874 0.0000
vt 1.1644 -0.2849 0.0000
vt 1.6025 -0.3716 0.0000
vt 1.6020 -0.3741 0.0000
vt 1.5912 -0.3742 0.0000
vt 1.5915 -0.3717 0.0000
vt 1.5789 -0.3744 0.0000
vt 1.5790 -0.3719 0.0000
vt 1.5658 -0.3746 0.0000
vt 1.5658 -0.3721 0.0000
vt 1.5527 -0.3747 0.0000
vt 1.5525 -0.3722 0.0000
vt 1.5404 -0.3749 0.0000
vt 1.5401 -0.3724 0.0000
vt 1.5296 -0.3750 0.0000
vt 1.5291 -0.3726 0.0000
vt 1.3540 -0.2876 0.0000
vt 1.3535 -0.2902 0.0000
vt 1.3433 -0.2902 0.0000
vt 1.3438 -0.2876 0.0000
vt 1.3314 -0.2902 0.0000
vt 1.3317 -0.2876 0.0000
vt 1.3183 -0.2902 0.0000
vt 1.3184 -0.2876 0.0000
vt 1.3047 -0.2902 0.0000
vt 1.3047 -0.2876 0.0000
vt 1.2916 -0.2902 0.0000
vt 1.2913 -0.2876 0.0000
vt 1.2797 -0.2902 0.0000
vt 1.2792 -0.2876 0.0000
vt 1.2695 -0.2902 0.0000
vt 1.2690 -0.2876 0.0000
vt 1.2359 -0.2917 0.0000
vt 1.2354 -0.2942 0.0000
vt 1.2246 -0.2942 0.0000
vt 1.2249 -0.2917 0.0000
vt 1.2123 -0.2942 0.0000
vt 1.2124 -0.2917 0.0000
vt 1.1992 -0.2942 0.0000
vt 1.1992 -0.2917 0.0000
vt 1.5309 -0.8117 0.0000
vt 1.5287 -0.8117 0.0000
vt 1.5256 -0.8117 0.0000
vt 1.5221 -0.8117 0.0000
vt 1.5183 -0.8117 0.0000
vt 1.5145 -0.8117 0.0000
vt 1.5107 -0.8117 0.0000
vt 1.5072 -0.8117 0.0000
vt 1.5041 -0.8117 0.0000
vt 1.5019 -0.8117 0.0000
# 801 texture coords

o Wheel_F_L_2_0
g Wheel_F_L_2_0
usemtl material_1
s 1
f 1/1/1 2/2/2 3/3/3 
f 1/1/1 3/3/3 4/4/4 
f 4/4/4 3/3/3 5/5/3 
f 4/4/4 5/5/3 6/6/5 
f 6/6/5 5/5/3 7/7/6 
f 6/6/5 7/7/6 8/8/7 
f 8/8/7 7/7/6 9/9/6 
f 8/8/7 9/9/6 10/10/8 
f 10/10/8 9/9/6 11/11/6 
f 10/10/8 11/11/6 12/12/9 
f 13/13/10 14/14/11 3/3/3 
f 13/13/10 3/3/3 2/2/2 
f 14/14/11 15/15/12 5/5/3 
f 14/14/11 5/5/3 3/3/3 
f 15/15/12 16/16/13 7/7/6 
f 15/15/12 7/7/6 5/5/3 
f 16/16/13 17/17/14 9/9/6 
f 16/16/13 9/9/6 7/7/6 
f 17/17/14 18/18/15 11/11/6 
f 17/17/14 11/11/6 9/9/6 
f 19/19/16 20/20/17 21/21/18 
f 19/19/16 21/21/18 22/22/19 
f 23/23/20 19/19/16 22/22/19 
f 23/23/20 22/22/19 24/24/21 
f 25/25/22 23/23/20 24/24/21 
f 25/25/22 24/24/21 26/26/23 
f 27/27/24 25/25/22 26/26/23 
f 27/27/24 26/26/23 28/28/25 
f 29/29/26 27/27/24 28/28/25 
f 29/29/26 28/28/25 30/30/27 
f 31/31/28 32/32/29 33/33/30 
f 31/31/28 33/33/30 34/34/31 
f 35/35/32 31/31/28 34/34/31 
f 35/35/32 34/34/31 36/36/33 
f 37/37/34 35/35/32 36/36/33 
f 37/37/34 36/36/33 38/38/35 
f 39/39/36 37/37/34 38/38/35 
f 39/39/36 38/38/35 40/40/37 
f 41/41/38 39/39/36 40/40/37 
f 41/41/38 40/40/37 42/42/39 
f 43/43/40 41/41/38 42/42/39 
f 43/43/40 42/42/39 44/44/41 
f 20/20/17 43/43/40 44/44/41 
f 20/20/17 44/44/41 21/21/18 
f 45/45/42 46/46/43 47/47/44 
f 45/45/42 47/47/44 48/48/45 
f 49/49/46 45/45/42 48/48/45 
f 49/49/46 48/48/45 50/50/47 
f 51/51/48 49/49/46 50/50/47 
f 51/51/48 50/50/47 52/52/49 
f 53/53/50 51/51/48 52/52/49 
f 53/53/50 52/52/49 54/54/51 
f 55/55/52 53/53/50 54/54/51 
f 55/55/52 54/54/51 56/56/53 
f 57/57/54 58/58/55 59/59/56 
f 57/57/54 59/59/56 60/60/57 
f 61/61/58 57/57/54 60/60/57 
f 61/61/58 60/60/57 62/62/59 
f 63/63/60 61/61/58 62/62/59 
f 63/63/60 62/62/59 64/64/61 
f 65/65/62 63/63/60 64/64/61 
f 65/65/62 64/64/61 66/66/63 
f 67/67/64 65/65/62 66/66/63 
f 67/67/64 66/66/63 68/68/65 
f 69/69/66 67/67/64 68/68/65 
f 69/69/66 68/68/65 70/70/67 
f 46/46/43 69/71/66 70/72/67 
f 46/46/43 70/72/67 47/47/44 
f 48/48/45 47/47/44 71/73/68 
f 48/48/45 71/73/68 72/74/69 
f 50/50/47 48/48/45 72/74/69 
f 50/50/47 72/74/69 73/75/70 
f 52/52/49 50/50/47 73/75/70 
f 52/52/49 73/75/70 74/76/71 
f 54/54/51 52/52/49 74/76/71 
f 54/54/51 74/76/71 75/77/72 
f 56/56/53 54/54/51 75/77/72 
f 56/56/53 75/77/72 76/78/73 
f 60/60/57 59/59/56 77/79/74 
f 60/60/57 77/79/74 78/80/75 
f 62/62/59 60/60/57 78/80/75 
f 62/62/59 78/80/75 79/81/76 
f 64/64/61 62/62/59 79/81/76 
f 64/64/61 79/81/76 80/82/77 
f 66/66/63 64/64/61 80/82/77 
f 66/66/63 80/82/77 81/83/78 
f 68/68/65 66/66/63 81/83/78 
f 68/68/65 81/83/78 82/84/79 
f 70/70/67 68/68/65 82/84/79 
f 70/70/67 82/84/79 83/85/80 
f 47/47/44 70/72/67 83/86/80 
f 47/47/44 83/86/80 71/73/68 
f 84/87/81 85/88/82 72/74/69 
f 84/87/81 72/74/69 71/73/68 
f 85/88/82 86/89/83 73/75/70 
f 85/88/82 73/75/70 72/74/69 
f 86/89/83 87/90/84 74/76/71 
f 86/89/83 74/76/71 73/75/70 
f 87/90/84 88/91/85 75/77/72 
f 87/90/84 75/77/72 74/76/71 
f 88/91/85 89/92/86 76/78/73 
f 88/91/85 76/78/73 75/77/72 
f 90/93/87 91/94/88 76/78/73 
f 90/93/87 76/78/73 89/92/86 
f 92/95/89 93/96/90 78/80/75 
f 92/95/89 78/80/75 77/79/74 
f 93/96/90 94/97/91 79/81/76 
f 93/96/90 79/81/76 78/80/75 
f 94/97/91 95/98/92 80/82/77 
f 94/97/91 80/82/77 79/81/76 
f 95/98/92 96/99/93 81/83/78 
f 95/98/92 81/83/78 80/82/77 
f 96/99/93 97/100/94 82/84/79 
f 96/99/93 82/84/79 81/83/78 
f 97/100/94 98/101/95 83/85/80 
f 97/100/94 83/85/80 82/84/79 
f 98/102/95 84/87/81 71/73/68 
f 98/102/95 71/73/68 83/86/80 
f 46/103/43 45/104/42 22/22/19 
f 46/103/43 22/22/19 21/21/18 
f 45/104/42 49/105/46 24/24/21 
f 45/104/42 24/24/21 22/22/19 
f 49/105/46 51/106/48 26/26/23 
f 49/105/46 26/26/23 24/24/21 
f 51/106/48 53/107/50 28/28/25 
f 51/106/48 28/28/25 26/26/23 
f 53/107/50 55/108/52 30/30/27 
f 53/107/50 30/30/27 28/28/25 
f 58/109/55 57/110/54 34/34/31 
f 58/109/55 34/34/31 33/33/30 
f 57/110/54 61/111/58 36/36/33 
f 57/110/54 36/36/33 34/34/31 
f 61/111/58 63/112/60 38/38/35 
f 61/111/58 38/38/35 36/36/33 
f 63/112/60 65/113/62 40/40/37 
f 63/112/60 40/40/37 38/38/35 
f 65/113/62 67/114/64 42/42/39 
f 65/113/62 42/42/39 40/40/37 
f 67/114/64 69/115/66 44/44/41 
f 67/114/64 44/44/41 42/42/39 
f 69/115/66 46/103/43 21/21/18 
f 69/115/66 21/21/18 44/44/41 
f 99/116/96 100/117/97 101/118/98 
f 99/116/96 101/118/98 102/119/99 
f 103/120/100 104/121/101 100/117/97 
f 103/120/100 100/117/97 99/116/96 
f 105/122/102 106/123/103 104/121/101 
f 105/122/102 104/121/101 103/120/100 
f 107/124/104 108/125/105 106/123/103 
f 107/124/104 106/123/103 105/122/102 
f 109/126/106 110/127/107 108/125/105 
f 109/126/106 108/125/105 107/124/104 
f 111/128/108 112/129/109 113/130/110 
f 111/128/108 113/130/110 114/131/111 
f 115/132/112 116/133/113 112/129/109 
f 115/132/112 112/129/109 111/128/108 
f 117/134/114 118/135/115 116/133/113 
f 117/134/114 116/133/113 115/132/112 
f 119/136/116 120/137/117 118/135/115 
f 119/136/116 118/135/115 117/134/114 
f 121/138/118 122/139/119 120/137/117 
f 121/138/118 120/137/117 119/136/116 
f 123/140/120 124/141/121 122/139/119 
f 123/140/120 122/139/119 121/138/118 
f 102/119/99 101/118/98 124/141/121 
f 102/119/99 124/141/121 123/140/120 
f 125/142/3 126/143/122 127/144/123 
f 125/142/3 127/144/123 128/145/124 
f 129/146/6 125/142/3 128/145/124 
f 129/146/6 128/145/124 130/147/125 
f 131/148/6 129/146/6 130/147/125 
f 131/148/6 130/147/125 132/149/126 
f 133/150/6 131/148/6 132/149/126 
f 133/150/6 132/149/126 134/151/127 
f 135/152/3 133/150/6 134/151/127 
f 135/152/3 134/151/127 136/153/128 
f 125/142/3 137/154/129 138/155/130 
f 125/142/3 138/155/130 126/143/122 
f 129/146/6 139/156/131 137/154/129 
f 129/146/6 137/154/129 125/142/3 
f 131/148/6 140/157/132 139/156/131 
f 131/148/6 139/156/131 129/146/6 
f 133/150/6 141/158/133 140/157/132 
f 133/150/6 140/157/132 131/148/6 
f 135/152/3 142/159/134 141/158/133 
f 135/152/3 141/158/133 133/150/6 
f 11/11/6 18/18/15 142/159/134 
f 11/11/6 142/159/134 135/152/3 
f 11/11/6 135/152/3 136/153/128 
f 11/11/6 136/153/128 12/12/9 
f 143/160/135 144/161/136 145/162/137 
f 143/160/135 145/162/137 146/163/138 
f 146/163/138 145/162/137 147/164/139 
f 146/163/138 147/164/139 148/165/140 
f 148/165/140 147/164/139 149/166/141 
f 148/165/140 149/166/141 150/167/142 
f 150/167/142 149/166/141 151/168/143 
f 150/167/142 151/168/143 152/169/144 
f 152/169/144 151/168/143 153/170/145 
f 152/169/144 153/170/145 154/171/146 
f 153/170/145 29/29/26 30/30/27 
f 153/170/145 30/30/27 154/171/146 
f 155/172/147 156/173/148 157/174/149 
f 155/172/147 157/174/149 158/175/150 
f 158/175/150 157/174/149 159/176/151 
f 158/175/150 159/176/151 160/177/152 
f 160/177/152 159/176/151 161/178/153 
f 160/177/152 161/178/153 162/179/154 
f 162/179/154 161/178/153 163/180/155 
f 162/179/154 163/180/155 164/181/156 
f 164/181/156 163/180/155 165/182/157 
f 164/181/156 165/182/157 166/183/158 
f 166/183/158 165/182/157 167/184/159 
f 166/183/158 167/184/159 168/185/160 
f 168/185/160 167/184/159 144/161/136 
f 168/185/160 144/161/136 143/160/135 
f 33/33/30 32/32/29 156/173/148 
f 33/33/30 156/173/148 155/172/147 
f 169/186/161 170/187/162 171/188/163 
f 169/186/161 171/188/163 172/189/164 
f 172/189/164 171/188/163 173/190/165 
f 172/189/164 173/190/165 174/191/166 
f 174/191/166 173/190/165 175/192/167 
f 174/191/166 175/192/167 176/193/168 
f 176/193/168 175/192/167 177/194/169 
f 176/193/168 177/194/169 178/195/170 
f 178/195/170 177/194/169 179/196/171 
f 178/195/170 179/196/171 180/197/172 
f 179/196/171 55/55/52 56/56/53 
f 179/196/171 56/56/53 180/197/172 
f 181/198/173 182/199/174 183/200/175 
f 181/198/173 183/200/175 184/201/176 
f 184/201/176 183/200/175 185/202/177 
f 184/201/176 185/202/177 186/203/178 
f 186/203/178 185/202/177 187/204/179 
f 186/203/178 187/204/179 188/205/180 
f 188/205/180 187/204/179 189/206/181 
f 188/205/180 189/206/181 190/207/182 
f 190/207/182 189/206/181 191/208/183 
f 190/207/182 191/208/183 192/209/184 
f 192/209/184 191/208/183 193/210/185 
f 192/209/184 193/210/185 194/211/186 
f 194/212/186 193/213/185 170/187/162 
f 194/212/186 170/187/162 169/186/161 
f 59/59/56 58/58/55 182/199/174 
f 59/59/56 182/199/174 181/198/173 
f 195/214/187 169/186/161 172/189/164 
f 195/214/187 172/189/164 196/215/188 
f 196/215/188 172/189/164 174/191/166 
f 196/215/188 174/191/166 197/216/189 
f 197/216/189 174/191/166 176/193/168 
f 197/216/189 176/193/168 198/217/190 
f 198/217/190 176/193/168 178/195/170 
f 198/217/190 178/195/170 199/218/191 
f 199/218/191 178/195/170 180/197/172 
f 199/218/191 180/197/172 91/94/88 
f 180/197/172 56/56/53 76/78/73 
f 180/197/172 76/78/73 91/94/88 
f 200/219/192 181/198/173 184/201/176 
f 200/219/192 184/201/176 201/220/193 
f 201/220/193 184/201/176 186/203/178 
f 201/220/193 186/203/178 202/221/194 
f 202/221/194 186/203/178 188/205/180 
f 202/221/194 188/205/180 203/222/195 
f 203/222/195 188/205/180 190/207/182 
f 203/222/195 190/207/182 204/223/196 
f 204/223/196 190/207/182 192/209/184 
f 204/223/196 192/209/184 205/224/197 
f 205/224/197 192/209/184 194/211/186 
f 205/224/197 194/211/186 206/225/198 
f 206/226/198 194/212/186 169/186/161 
f 206/226/198 169/186/161 195/214/187 
f 77/79/74 59/59/56 181/198/173 
f 77/79/74 181/198/173 200/219/192 
f 207/227/199 195/214/187 196/215/188 
f 207/227/199 196/215/188 208/228/200 
f 208/228/200 196/215/188 197/216/189 
f 208/228/200 197/216/189 209/229/201 
f 209/229/201 197/216/189 198/217/190 
f 209/229/201 198/217/190 210/230/202 
f 210/230/202 198/217/190 199/218/191 
f 210/230/202 199/218/191 211/231/203 
f 211/231/203 199/218/191 91/94/88 
f 211/231/203 91/94/88 90/93/87 
f 92/95/89 77/79/74 200/219/192 
f 92/95/89 200/219/192 212/232/204 
f 212/232/204 200/219/192 201/220/193 
f 212/232/204 201/220/193 213/233/205 
f 213/233/205 201/220/193 202/221/194 
f 213/233/205 202/221/194 214/234/206 
f 214/234/206 202/221/194 203/222/195 
f 214/234/206 203/222/195 215/235/207 
f 215/235/207 203/222/195 204/223/196 
f 215/235/207 204/223/196 216/236/208 
f 216/236/208 204/223/196 205/224/197 
f 216/236/208 205/224/197 217/237/209 
f 217/237/209 205/224/197 206/225/198 
f 217/237/209 206/225/198 218/238/210 
f 218/239/210 206/226/198 195/214/187 
f 218/239/210 195/214/187 207/227/199 
f 170/240/162 143/160/135 146/163/138 
f 170/240/162 146/163/138 171/241/163 
f 171/241/163 146/163/138 148/165/140 
f 171/241/163 148/165/140 173/242/165 
f 173/242/165 148/165/140 150/167/142 
f 173/242/165 150/167/142 175/243/167 
f 175/243/167 150/167/142 152/169/144 
f 175/243/167 152/169/144 177/244/169 
f 177/244/169 152/169/144 154/171/146 
f 177/244/169 154/171/146 179/245/171 
f 179/245/171 154/171/146 30/30/27 
f 179/245/171 30/30/27 55/108/52 
f 58/109/55 33/33/30 155/172/147 
f 58/109/55 155/172/147 182/246/174 
f 182/246/174 155/172/147 158/175/150 
f 182/246/174 158/175/150 183/247/175 
f 183/247/175 158/175/150 160/177/152 
f 183/247/175 160/177/152 185/248/177 
f 185/248/177 160/177/152 162/179/154 
f 185/248/177 162/179/154 187/249/179 
f 187/249/179 162/179/154 164/181/156 
f 187/249/179 164/181/156 189/250/181 
f 189/250/181 164/181/156 166/183/158 
f 189/250/181 166/183/158 191/251/183 
f 191/251/183 166/183/158 168/185/160 
f 191/251/183 168/185/160 193/252/185 
f 193/252/185 168/185/160 143/160/135 
f 193/252/185 143/160/135 170/240/162 
f 219/253/211 220/254/212 221/255/213 
f 219/253/211 221/255/213 222/256/214 
f 220/254/212 223/257/215 224/258/216 
f 220/254/212 224/258/216 221/255/213 
f 223/257/215 225/259/217 226/260/218 
f 223/257/215 226/260/218 224/258/216 
f 225/259/217 227/261/219 228/262/220 
f 225/259/217 228/262/220 226/260/218 
f 227/261/219 229/263/221 230/264/222 
f 227/261/219 230/264/222 228/262/220 
f 229/263/221 110/127/107 109/126/106 
f 229/263/221 109/126/106 230/264/222 
f 114/131/111 113/130/110 231/265/223 
f 114/131/111 231/265/223 232/266/224 
f 231/265/223 233/267/225 234/268/226 
f 231/265/223 234/268/226 232/266/224 
f 233/267/225 235/269/227 236/270/228 
f 233/267/225 236/270/228 234/268/226 
f 235/269/227 237/271/229 238/272/230 
f 235/269/227 238/272/230 236/270/228 
f 237/271/229 239/273/231 240/274/232 
f 237/271/229 240/274/232 238/272/230 
f 239/273/231 241/275/233 242/276/234 
f 239/273/231 242/276/234 240/274/232 
f 241/275/233 243/277/235 244/278/236 
f 241/275/233 244/278/236 242/276/234 
f 243/277/235 219/253/211 222/256/214 
f 243/277/235 222/256/214 244/278/236 
f 245/279/237 246/280/238 85/281/82 
f 245/279/237 85/281/82 84/282/81 
f 246/280/238 247/283/239 86/284/83 
f 246/280/238 86/284/83 85/281/82 
f 247/285/239 248/286/240 87/287/84 
f 247/285/239 87/287/84 86/288/83 
f 248/286/240 249/289/241 88/290/85 
f 248/286/240 88/290/85 87/287/84 
f 249/289/241 250/291/242 89/292/86 
f 249/289/241 89/292/86 88/290/85 
f 250/291/242 251/293/243 90/294/87 
f 250/291/242 90/294/87 89/292/86 
f 251/293/243 252/295/244 211/296/203 
f 251/293/243 211/296/203 90/294/87 
f 252/295/244 253/297/245 210/298/202 
f 252/295/244 210/298/202 211/296/203 
f 253/297/245 254/299/246 209/300/201 
f 253/297/245 209/300/201 210/298/202 
f 254/301/246 255/302/247 208/303/200 
f 254/301/246 208/303/200 209/304/201 
f 255/302/247 256/305/248 207/306/199 
f 255/302/247 207/306/199 208/303/200 
f 256/305/248 257/307/249 218/308/210 
f 256/305/248 218/308/210 207/306/199 
f 257/307/249 258/309/250 217/310/209 
f 257/307/249 217/310/209 218/308/210 
f 258/309/250 259/311/251 216/312/208 
f 258/309/250 216/312/208 217/310/209 
f 259/311/251 260/313/252 215/314/207 
f 259/311/251 215/314/207 216/312/208 
f 260/315/252 261/316/253 214/317/206 
f 260/315/252 214/317/206 215/318/207 
f 261/316/253 262/319/254 213/320/205 
f 261/316/253 213/320/205 214/317/206 
f 262/319/254 263/321/255 212/322/204 
f 262/319/254 212/322/204 213/320/205 
f 263/321/255 264/323/256 92/324/89 
f 263/321/255 92/324/89 212/322/204 
f 264/323/256 265/325/257 93/326/90 
f 264/323/256 93/326/90 92/324/89 
f 265/325/257 266/327/258 94/328/91 
f 265/325/257 94/328/91 93/326/90 
f 266/327/258 267/329/259 95/330/92 
f 266/327/258 95/330/92 94/328/91 
f 267/331/259 268/332/260 96/333/93 
f 267/331/259 96/333/93 95/334/92 
f 268/332/260 269/335/261 97/336/94 
f 268/332/260 97/336/94 96/333/93 
f 269/335/261 270/337/262 98/338/95 
f 269/335/261 98/338/95 97/336/94 
f 270/337/262 245/279/237 84/282/81 
f 270/337/262 84/282/81 98/338/95 
f 14/14/11 13/13/10 101/118/98 
f 14/14/11 101/118/98 100/117/97 
f 15/15/12 14/14/11 100/117/97 
f 15/15/12 100/117/97 104/121/101 
f 16/16/13 15/15/12 104/121/101 
f 16/16/13 104/121/101 106/123/103 
f 17/17/14 16/16/13 106/123/103 
f 17/17/14 106/123/103 108/125/105 
f 18/18/15 17/17/14 108/125/105 
f 18/18/15 108/125/105 110/127/107 
f 10/10/8 12/12/9 113/130/110 
f 10/10/8 113/130/110 112/129/109 
f 8/8/7 10/10/8 112/129/109 
f 8/8/7 112/129/109 116/133/113 
f 6/6/5 8/8/7 116/133/113 
f 6/6/5 116/133/113 118/135/115 
f 4/4/4 6/6/5 118/135/115 
f 4/4/4 118/135/115 120/137/117 
f 1/1/1 4/4/4 120/137/117 
f 1/1/1 120/137/117 122/139/119 
f 2/2/2 1/1/1 122/139/119 
f 2/2/2 122/139/119 124/141/121 
f 13/13/10 2/2/2 124/141/121 
f 13/13/10 124/141/121 101/118/98 
f 138/155/130 137/154/129 220/254/212 
f 138/155/130 220/254/212 219/253/211 
f 137/154/129 139/156/131 223/257/215 
f 137/154/129 223/257/215 220/254/212 
f 139/156/131 140/157/132 225/259/217 
f 139/156/131 225/259/217 223/257/215 
f 140/157/132 141/158/133 227/261/219 
f 140/157/132 227/261/219 225/259/217 
f 141/158/133 142/159/134 229/263/221 
f 141/158/133 229/263/221 227/261/219 
f 229/263/221 142/159/134 18/18/15 
f 229/263/221 18/18/15 110/127/107 
f 12/12/9 136/153/128 231/265/223 
f 12/12/9 231/265/223 113/130/110 
f 136/153/128 134/151/127 233/267/225 
f 136/153/128 233/267/225 231/265/223 
f 134/151/127 132/149/126 235/269/227 
f 134/151/127 235/269/227 233/267/225 
f 132/149/126 130/147/125 237/271/229 
f 132/149/126 237/271/229 235/269/227 
f 130/147/125 128/145/124 239/273/231 
f 130/147/125 239/273/231 237/271/229 
f 128/145/124 127/144/123 241/275/233 
f 128/145/124 241/275/233 239/273/231 
f 127/144/123 126/143/122 243/277/235 
f 127/144/123 243/277/235 241/275/233 
f 126/143/122 138/155/130 219/253/211 
f 126/143/122 219/253/211 243/277/235 
f 99/116/96 102/119/99 20/20/17 
f 99/116/96 20/20/17 19/19/16 
f 103/120/100 99/116/96 19/19/16 
f 103/120/100 19/19/16 23/23/20 
f 105/122/102 103/120/100 23/23/20 
f 105/122/102 23/23/20 25/25/22 
f 107/124/104 105/122/102 25/25/22 
f 107/124/104 25/25/22 27/27/24 
f 109/126/106 107/124/104 27/27/24 
f 109/126/106 27/27/24 29/29/26 
f 111/128/108 114/131/111 32/32/29 
f 111/128/108 32/32/29 31/31/28 
f 115/132/112 111/128/108 31/31/28 
f 115/132/112 31/31/28 35/35/32 
f 117/134/114 115/132/112 35/35/32 
f 117/134/114 35/35/32 37/37/34 
f 119/136/116 117/134/114 37/37/34 
f 119/136/116 37/37/34 39/39/36 
f 121/138/118 119/136/116 39/39/36 
f 121/138/118 39/39/36 41/41/38 
f 123/140/120 121/138/118 41/41/38 
f 123/140/120 41/41/38 43/43/40 
f 102/119/99 123/140/120 43/43/40 
f 102/119/99 43/43/40 20/20/17 
f 222/256/214 221/255/213 145/162/137 
f 222/256/214 145/162/137 144/161/136 
f 221/255/213 224/258/216 147/164/139 
f 221/255/213 147/164/139 145/162/137 
f 224/258/216 226/260/218 149/166/141 
f 224/258/216 149/166/141 147/164/139 
f 226/260/218 228/262/220 151/168/143 
f 226/260/218 151/168/143 149/166/141 
f 228/262/220 230/264/222 153/170/145 
f 228/262/220 153/170/145 151/168/143 
f 153/170/145 230/264/222 109/126/106 
f 153/170/145 109/126/106 29/29/26 
f 232/266/224 234/268/226 157/174/149 
f 232/266/224 157/174/149 156/173/148 
f 234/268/226 236/270/228 159/176/151 
f 234/268/226 159/176/151 157/174/149 
f 236/270/228 238/272/230 161/178/153 
f 236/270/228 161/178/153 159/176/151 
f 238/272/230 240/274/232 163/180/155 
f 238/272/230 163/180/155 161/178/153 
f 240/274/232 242/276/234 165/182/157 
f 240/274/232 165/182/157 163/180/155 
f 242/276/234 244/278/236 167/184/159 
f 242/276/234 167/184/159 165/182/157 
f 244/278/236 222/256/214 144/161/136 
f 244/278/236 144/161/136 167/184/159 
f 114/131/111 232/266/224 156/173/148 
f 114/131/111 156/173/148 32/32/29 
f 271/339/263 272/340/264 273/341/265 
f 271/339/263 273/341/265 274/342/266 
f 275/343/267 271/339/263 274/342/266 
f 275/343/267 274/342/266 276/344/268 
f 277/345/269 275/343/267 276/344/268 
f 277/345/269 276/344/268 278/346/270 
f 279/347/271 277/345/269 278/346/270 
f 279/347/271 278/346/270 280/348/272 
f 281/349/273 279/347/271 280/348/272 
f 281/349/273 280/348/272 282/350/274 
f 283/351/275 281/349/273 282/350/274 
f 283/351/275 282/350/274 284/352/276 
f 285/353/277 286/354/278 287/355/279 
f 285/353/277 287/355/279 288/356/280 
f 289/357/281 285/353/277 288/356/280 
f 289/357/281 288/356/280 290/358/282 
f 291/359/283 289/357/281 290/358/282 
f 291/359/283 290/358/282 292/360/284 
f 293/361/285 291/359/283 292/360/284 
f 293/361/285 292/360/284 294/362/286 
f 295/363/287 293/361/285 294/362/286 
f 295/363/287 294/362/286 296/364/288 
f 297/365/289 295/363/287 296/364/288 
f 297/365/289 296/364/288 298/366/290 
f 272/340/264 297/365/289 298/366/290 
f 272/340/264 298/366/290 273/341/265 
f 274/367/266 273/368/265 299/369/291 
f 274/367/266 299/369/291 300/370/292 
f 276/371/268 274/367/266 300/370/292 
f 276/371/268 300/370/292 301/372/293 
f 278/373/270 276/371/268 301/372/293 
f 278/373/270 301/372/293 302/374/294 
f 280/375/272 278/373/270 302/374/294 
f 280/375/272 302/374/294 303/376/295 
f 282/377/274 280/375/272 303/376/295 
f 282/377/274 303/376/295 304/378/296 
f 284/379/276 282/377/274 304/378/296 
f 284/379/276 304/378/296 305/380/297 
f 306/381/298 288/382/280 287/383/279 
f 306/381/298 287/383/279 307/384/299 
f 290/385/282 288/382/280 306/381/298 
f 290/385/282 306/381/298 308/386/300 
f 292/387/284 290/385/282 308/386/300 
f 292/387/284 308/386/300 309/388/301 
f 294/389/286 292/387/284 309/388/301 
f 294/389/286 309/388/301 310/390/302 
f 296/391/288 294/389/286 310/390/302 
f 296/391/288 310/390/302 311/392/303 
f 298/393/290 296/391/288 311/392/303 
f 298/393/290 311/392/303 312/394/304 
f 273/368/265 298/393/290 312/394/304 
f 273/368/265 312/394/304 299/369/291 
f 313/395/305 246/396/6 245/397/6 
f 313/395/305 245/397/6 314/398/306 
f 315/399/307 247/400/6 246/396/6 
f 315/399/307 246/396/6 313/395/305 
f 316/401/308 248/402/3 247/400/6 
f 316/401/308 247/400/6 315/399/307 
f 317/403/309 249/404/3 248/402/3 
f 317/403/309 248/402/3 316/401/308 
f 318/405/310 250/406/6 249/404/3 
f 318/405/310 249/404/3 317/403/309 
f 319/407/311 265/408/3 320/409/3 
f 319/407/311 320/409/3 321/410/312 
f 322/411/313 323/412/3 265/408/3 
f 322/411/313 265/408/3 319/407/311 
f 324/413/314 267/414/6 323/412/3 
f 324/413/314 323/412/3 322/411/313 
f 325/415/315 268/416/3 267/414/6 
f 325/415/315 267/414/6 324/413/314 
f 326/417/316 327/418/3 268/416/3 
f 326/417/316 268/416/3 325/415/315 
f 328/419/317 270/420/6 327/418/3 
f 328/419/317 327/418/3 326/417/316 
f 314/398/306 245/397/6 270/420/6 
f 314/398/306 270/420/6 328/419/317 
f 314/398/306 328/419/317 272/340/264 
f 314/398/306 272/340/264 271/339/263 
f 313/395/305 314/398/306 271/339/263 
f 313/395/305 271/339/263 275/343/267 
f 315/399/307 313/395/305 275/343/267 
f 315/399/307 275/343/267 277/345/269 
f 316/401/308 315/399/307 277/345/269 
f 316/401/308 277/345/269 279/347/271 
f 317/403/309 316/401/308 279/347/271 
f 317/403/309 279/347/271 281/349/273 
f 318/405/310 317/403/309 281/349/273 
f 318/405/310 281/349/273 283/351/275 
f 319/407/311 321/410/312 285/353/277 
f 319/407/311 285/353/277 289/357/281 
f 322/411/313 319/407/311 289/357/281 
f 322/411/313 289/357/281 291/359/283 
f 324/413/314 322/411/313 291/359/283 
f 324/413/314 291/359/283 293/361/285 
f 325/415/315 324/413/314 293/361/285 
f 325/415/315 293/361/285 295/363/287 
f 326/417/316 325/415/315 295/363/287 
f 326/417/316 295/363/287 297/365/289 
f 328/419/317 326/417/316 297/365/289 
f 328/419/317 297/365/289 272/340/264 
f 329/421/318 330/422/319 331/423/320 
f 329/421/318 331/423/320 332/424/321 
f 332/424/321 331/423/320 333/425/322 
f 332/424/321 333/425/322 334/426/323 
f 334/426/323 333/425/322 335/427/324 
f 334/426/323 335/427/324 336/428/325 
f 336/428/325 335/427/324 337/429/326 
f 336/428/325 337/429/326 338/430/327 
f 338/430/327 337/429/326 339/431/328 
f 338/430/327 339/431/328 340/432/329 
f 340/432/329 339/431/328 341/433/330 
f 340/432/329 341/433/330 342/434/331 
f 287/355/279 286/354/278 343/435/332 
f 287/355/279 343/435/332 344/436/333 
f 344/436/333 343/435/332 345/437/334 
f 344/436/333 345/437/334 346/438/335 
f 346/438/335 345/437/334 347/439/336 
f 346/438/335 347/439/336 348/440/337 
f 348/440/337 347/439/336 349/441/338 
f 348/440/337 349/441/338 350/442/339 
f 350/442/339 349/441/338 351/443/340 
f 350/442/339 351/443/340 352/444/341 
f 352/444/341 351/443/340 330/422/319 
f 352/444/341 330/422/319 329/421/318 
f 353/445/342 329/446/318 332/447/321 
f 353/445/342 332/447/321 354/448/343 
f 354/449/343 332/450/321 334/451/323 
f 354/449/343 334/451/323 355/452/344 
f 355/452/344 334/451/323 336/453/325 
f 355/452/344 336/453/325 356/454/345 
f 356/454/345 336/453/325 338/455/327 
f 356/454/345 338/455/327 357/456/346 
f 357/456/346 338/455/327 340/457/329 
f 357/456/346 340/457/329 358/458/347 
f 358/458/347 340/457/329 342/459/331 
f 358/458/347 342/459/331 359/460/348 
f 307/384/299 287/383/279 344/461/333 
f 307/384/299 344/461/333 360/462/349 
f 360/462/349 344/461/333 346/463/335 
f 360/462/349 346/463/335 361/464/350 
f 361/464/350 346/463/335 348/465/337 
f 361/464/350 348/465/337 362/466/351 
f 362/466/351 348/465/337 350/467/339 
f 362/466/351 350/467/339 363/468/352 
f 363/468/352 350/467/339 352/469/341 
f 363/468/352 352/469/341 364/470/353 
f 364/470/353 352/469/341 329/446/318 
f 364/470/353 329/446/318 353/445/342 
f 365/471/6 255/472/6 366/473/354 
f 365/471/6 366/473/354 367/474/355 
f 255/472/6 254/475/3 368/476/356 
f 255/472/6 368/476/356 366/473/354 
f 254/475/3 253/477/6 369/478/357 
f 254/475/3 369/478/357 368/476/356 
f 253/477/6 252/479/6 370/480/358 
f 253/477/6 370/480/358 369/478/357 
f 252/479/6 251/481/3 371/482/359 
f 252/479/6 371/482/359 370/480/358 
f 251/481/3 250/406/6 318/405/310 
f 251/481/3 318/405/310 371/482/359 
f 372/483/6 262/484/3 373/485/360 
f 372/483/6 373/485/360 374/486/361 
f 262/484/3 261/487/3 375/488/362 
f 262/484/3 375/488/362 373/485/360 
f 261/487/3 260/489/6 376/490/363 
f 261/487/3 376/490/363 375/488/362 
f 260/489/6 259/491/3 377/492/364 
f 260/489/6 377/492/364 376/490/363 
f 259/491/3 258/493/3 378/494/365 
f 259/491/3 378/494/365 377/492/364 
f 258/493/3 257/495/6 379/496/366 
f 258/493/3 379/496/366 378/494/365 
f 257/495/6 365/471/6 367/474/355 
f 257/495/6 367/474/355 379/496/366 
f 283/351/275 341/433/330 371/482/359 
f 283/351/275 371/482/359 318/405/310 
f 284/379/276 305/380/297 359/460/348 
f 284/379/276 359/460/348 342/459/331 
f 321/410/312 320/409/3 372/483/6 
f 321/410/312 372/483/6 374/486/361 
f 330/422/319 379/496/366 367/474/355 
f 330/422/319 367/474/355 331/423/320 
f 331/423/320 367/474/355 366/473/354 
f 331/423/320 366/473/354 333/425/322 
f 333/425/322 366/473/354 368/476/356 
f 333/425/322 368/476/356 335/427/324 
f 335/427/324 368/476/356 369/478/357 
f 335/427/324 369/478/357 337/429/326 
f 337/429/326 369/478/357 370/480/358 
f 337/429/326 370/480/358 339/431/328 
f 339/431/328 370/480/358 371/482/359 
f 339/431/328 371/482/359 341/433/330 
f 286/354/278 285/353/277 321/410/312 
f 286/354/278 321/410/312 374/486/361 
f 286/354/278 374/486/361 373/485/360 
f 286/354/278 373/485/360 343/435/332 
f 343/435/332 373/485/360 375/488/362 
f 343/435/332 375/488/362 345/437/334 
f 345/437/334 375/488/362 376/490/363 
f 345/437/334 376/490/363 347/439/336 
f 347/439/336 376/490/363 377/492/364 
f 347/439/336 377/492/364 349/441/338 
f 349/441/338 377/492/364 378/494/365 
f 349/441/338 378/494/365 351/443/340 
f 351/443/340 378/494/365 379/496/366 
f 351/443/340 379/496/366 330/422/319 
f 341/433/330 283/351/275 284/352/276 
f 341/433/330 284/352/276 342/434/331 
f 380/497/367 381/498/368 382/499/369 
f 380/497/367 382/499/369 383/500/370 
f 383/500/370 382/499/369 384/501/371 
f 383/500/370 384/501/371 385/502/372 
f 385/502/372 384/501/371 386/503/373 
f 385/502/372 386/503/373 387/504/374 
f 387/504/374 386/503/373 388/505/375 
f 387/504/374 388/505/375 389/506/376 
f 389/506/376 388/505/375 390/507/377 
f 389/506/376 390/507/377 391/508/378 
f 391/508/378 390/507/377 392/509/379 
f 391/508/378 392/509/379 393/510/380 
f 394/511/381 395/512/382 396/513/383 
f 394/511/381 396/513/383 397/514/384 
f 397/514/384 396/513/383 398/515/385 
f 397/514/384 398/515/385 399/516/386 
f 399/516/386 398/515/385 400/517/387 
f 399/516/386 400/517/387 401/518/388 
f 401/518/388 400/517/387 402/519/389 
f 401/518/388 402/519/389 403/520/390 
f 403/520/390 402/519/389 404/521/391 
f 403/520/390 404/521/391 405/522/392 
f 405/522/392 404/521/391 406/523/393 
f 405/522/392 406/523/393 407/524/394 
f 407/524/394 406/523/393 381/498/368 
f 407/524/394 381/498/368 380/497/367 
f 299/369/291 380/525/367 383/526/370 
f 299/369/291 383/526/370 300/370/292 
f 300/370/292 383/526/370 385/527/372 
f 300/370/292 385/527/372 301/372/293 
f 301/372/293 385/527/372 387/528/374 
f 301/372/293 387/528/374 302/374/294 
f 302/374/294 387/528/374 389/529/376 
f 302/374/294 389/529/376 303/376/295 
f 303/376/295 389/529/376 391/530/378 
f 303/376/295 391/530/378 304/378/296 
f 304/378/296 391/530/378 393/531/380 
f 304/378/296 393/531/380 305/380/297 
f 306/381/298 307/384/299 394/532/381 
f 306/381/298 394/532/381 397/533/384 
f 306/381/298 397/533/384 399/534/386 
f 306/381/298 399/534/386 308/386/300 
f 308/386/300 399/534/386 401/535/388 
f 308/386/300 401/535/388 309/388/301 
f 309/388/301 401/535/388 403/536/390 
f 309/388/301 403/536/390 310/390/302 
f 310/390/302 403/536/390 405/537/392 
f 310/390/302 405/537/392 311/392/303 
f 311/392/303 405/537/392 407/538/394 
f 311/392/303 407/538/394 312/394/304 
f 312/394/304 407/538/394 380/525/367 
f 312/394/304 380/525/367 299/369/291 
f 408/539/395 409/540/396 410/541/397 
f 408/539/395 410/541/397 411/542/398 
f 409/540/396 412/543/399 413/544/400 
f 409/540/396 413/544/400 410/541/397 
f 412/543/399 414/545/401 415/546/402 
f 412/543/399 415/546/402 413/544/400 
f 414/545/401 416/547/403 417/548/404 
f 414/545/401 417/548/404 415/546/402 
f 416/547/403 418/549/405 419/550/406 
f 416/547/403 419/550/406 417/548/404 
f 420/551/407 421/552/408 422/553/409 
f 420/551/407 422/553/409 423/554/410 
f 421/552/408 424/555/411 425/556/412 
f 421/552/408 425/556/412 422/553/409 
f 424/555/411 426/557/413 427/558/414 
f 424/555/411 427/558/414 425/556/412 
f 426/557/413 428/559/415 429/560/416 
f 426/557/413 429/560/416 427/558/414 
f 428/559/415 430/561/417 431/562/418 
f 428/559/415 431/562/418 429/560/416 
f 430/561/417 432/563/419 433/564/420 
f 430/561/417 433/564/420 431/562/418 
f 432/563/419 408/539/395 411/542/398 
f 432/563/419 411/542/398 433/564/420 
f 381/498/368 433/564/420 411/542/398 
f 381/498/368 411/542/398 382/499/369 
f 382/499/369 411/542/398 410/541/397 
f 382/499/369 410/541/397 384/501/371 
f 384/501/371 410/541/397 413/544/400 
f 384/501/371 413/544/400 386/503/373 
f 386/503/373 413/544/400 415/546/402 
f 386/503/373 415/546/402 388/505/375 
f 388/505/375 415/546/402 417/548/404 
f 388/505/375 417/548/404 390/507/377 
f 390/507/377 417/548/404 419/550/406 
f 390/507/377 419/550/406 392/509/379 
f 396/513/383 423/554/410 422/553/409 
f 396/513/383 422/553/409 398/515/385 
f 398/515/385 422/553/409 425/556/412 
f 398/515/385 425/556/412 400/517/387 
f 400/517/387 425/556/412 427/558/414 
f 400/517/387 427/558/414 402/519/389 
f 402/519/389 427/558/414 429/560/416 
f 402/519/389 429/560/416 404/521/391 
f 404/521/391 429/560/416 431/562/418 
f 404/521/391 431/562/418 406/523/393 
f 406/523/393 431/562/418 433/564/420 
f 406/523/393 433/564/420 381/498/368 
f 434/565/421 435/566/422 436/567/423 
f 434/565/421 436/567/423 437/568/424 
f 438/569/425 434/565/421 437/568/424 
f 438/569/425 437/568/424 439/570/426 
f 440/571/427 438/569/425 439/570/426 
f 440/571/427 439/570/426 441/572/428 
f 442/573/429 440/571/427 441/572/428 
f 442/573/429 441/572/428 443/574/430 
f 444/575/431 442/573/429 443/574/430 
f 444/575/431 443/574/430 445/576/432 
f 446/577/433 444/575/431 445/576/432 
f 446/577/433 445/576/432 447/578/434 
f 448/579/435 395/512/382 394/511/381 
f 448/579/435 394/511/381 449/580/436 
f 450/581/437 448/579/435 449/580/436 
f 450/581/437 449/580/436 451/582/438 
f 452/583/439 450/581/437 451/582/438 
f 452/583/439 451/582/438 453/584/440 
f 454/585/441 452/583/439 453/584/440 
f 454/585/441 453/584/440 455/586/442 
f 456/587/443 454/585/441 455/586/442 
f 456/587/443 455/586/442 457/588/444 
f 435/566/422 456/587/443 457/588/444 
f 435/566/422 457/588/444 436/567/423 
f 437/589/424 436/590/423 353/445/342 
f 437/589/424 353/445/342 354/448/343 
f 439/591/426 437/592/424 354/449/343 
f 439/591/426 354/449/343 355/452/344 
f 441/593/428 439/591/426 355/452/344 
f 441/593/428 355/452/344 356/454/345 
f 443/594/430 441/593/428 356/454/345 
f 443/594/430 356/454/345 357/456/346 
f 445/595/432 443/594/430 357/456/346 
f 445/595/432 357/456/346 358/458/347 
f 447/596/434 445/595/432 358/458/347 
f 447/596/434 358/458/347 359/460/348 
f 449/597/436 394/532/381 307/384/299 
f 449/597/436 307/384/299 360/462/349 
f 451/598/438 449/597/436 360/462/349 
f 451/598/438 360/462/349 361/464/350 
f 453/599/440 451/598/438 361/464/350 
f 453/599/440 361/464/350 362/466/351 
f 455/600/442 453/599/440 362/466/351 
f 455/600/442 362/466/351 363/468/352 
f 457/601/444 455/600/442 363/468/352 
f 457/601/444 363/468/352 364/470/353 
f 436/590/423 457/601/444 364/470/353 
f 436/590/423 364/470/353 353/445/342 
f 458/602/445 459/603/446 460/604/447 
f 458/602/445 460/604/447 461/605/448 
f 462/606/449 463/607/450 459/603/446 
f 462/606/449 459/603/446 458/602/445 
f 464/608/451 465/609/452 463/607/450 
f 464/608/451 463/607/450 462/606/449 
f 466/610/453 467/611/454 465/609/452 
f 466/610/453 465/609/452 464/608/451 
f 468/612/455 469/613/456 467/611/454 
f 468/612/455 467/611/454 466/610/453 
f 419/550/406 418/549/405 469/613/456 
f 419/550/406 469/613/456 468/612/455 
f 470/614/457 471/615/458 472/616/459 
f 470/614/457 472/616/459 473/617/460 
f 474/618/461 475/619/462 471/615/458 
f 474/618/461 471/615/458 470/614/457 
f 476/620/463 477/621/464 475/619/462 
f 476/620/463 475/619/462 474/618/461 
f 478/622/465 479/623/466 477/621/464 
f 478/622/465 477/621/464 476/620/463 
f 480/624/467 481/625/468 479/623/466 
f 480/624/467 479/623/466 478/622/465 
f 482/626/469 483/627/470 481/625/468 
f 482/626/469 481/625/468 480/624/467 
f 461/605/448 460/604/447 483/627/470 
f 461/605/448 483/627/470 482/626/469 
f 468/612/455 446/577/433 392/509/379 
f 468/612/455 392/509/379 419/550/406 
f 393/531/380 447/596/434 359/460/348 
f 393/531/380 359/460/348 305/380/297 
f 423/554/410 473/617/460 472/616/459 
f 423/554/410 472/616/459 420/551/407 
f 461/605/448 482/626/469 435/566/422 
f 461/605/448 435/566/422 434/565/421 
f 458/602/445 461/605/448 434/565/421 
f 458/602/445 434/565/421 438/569/425 
f 462/606/449 458/602/445 438/569/425 
f 462/606/449 438/569/425 440/571/427 
f 464/608/451 462/606/449 440/571/427 
f 464/608/451 440/571/427 442/573/429 
f 466/610/453 464/608/451 442/573/429 
f 466/610/453 442/573/429 444/575/431 
f 468/612/455 466/610/453 444/575/431 
f 468/612/455 444/575/431 446/577/433 
f 395/512/382 473/617/460 423/554/410 
f 395/512/382 423/554/410 396/513/383 
f 470/614/457 473/617/460 395/512/382 
f 470/614/457 395/512/382 448/579/435 
f 474/618/461 470/614/457 448/579/435 
f 474/618/461 448/579/435 450/581/437 
f 476/620/463 474/618/461 450/581/437 
f 476/620/463 450/581/437 452/583/439 
f 478/622/465 476/620/463 452/583/439 
f 478/622/465 452/583/439 454/585/441 
f 480/624/467 478/622/465 454/585/441 
f 480/624/467 454/585/441 456/587/443 
f 482/626/469 480/624/467 456/587/443 
f 482/626/469 456/587/443 435/566/422 
f 446/577/433 447/578/434 393/510/380 
f 446/577/433 393/510/380 392/509/379 
f 484/628/471 485/629/472 486/630/473 
f 484/628/471 486/630/473 487/631/474 
f 487/631/474 486/630/473 488/632/475 
f 487/631/474 488/632/475 489/633/476 
f 489/633/476 488/632/475 490/634/477 
f 489/633/476 490/634/477 491/635/478 
f 491/635/478 490/634/477 492/636/479 
f 491/635/478 492/636/479 493/637/480 
f 493/637/480 492/636/479 494/638/481 
f 493/637/480 494/638/481 495/639/482 
f 496/640/483 497/641/484 498/642/485 
f 496/640/483 498/642/485 499/643/486 
f 499/643/486 498/642/485 500/644/487 
f 499/643/486 500/644/487 501/645/488 
f 501/645/488 500/644/487 502/646/489 
f 501/645/488 502/646/489 503/647/490 
f 503/647/490 502/646/489 504/648/491 
f 503/647/490 504/648/491 505/649/492 
f 505/649/492 504/648/491 506/650/493 
f 505/649/492 506/650/493 507/651/494 
f 507/651/494 506/650/493 508/652/495 
f 507/651/494 508/652/495 509/653/496 
f 509/653/496 508/652/495 485/629/472 
f 509/653/496 485/629/472 484/628/471 
f 510/654/497 484/628/471 487/631/474 
f 510/654/497 487/631/474 511/655/498 
f 511/655/498 487/631/474 489/633/476 
f 511/655/498 489/633/476 512/656/499 
f 512/656/499 489/633/476 491/635/478 
f 512/656/499 491/635/478 513/657/500 
f 513/657/500 491/635/478 493/637/480 
f 513/657/500 493/637/480 514/658/501 
f 514/658/501 493/637/480 495/639/482 
f 514/658/501 495/639/482 515/659/502 
f 516/660/503 496/640/483 499/643/486 
f 516/660/503 499/643/486 517/661/504 
f 517/661/504 499/643/486 501/645/488 
f 517/661/504 501/645/488 518/662/505 
f 518/662/505 501/645/488 503/647/490 
f 518/662/505 503/647/490 519/663/506 
f 519/663/506 503/647/490 505/649/492 
f 519/663/506 505/649/492 520/664/507 
f 520/664/507 505/649/492 507/651/494 
f 520/664/507 507/651/494 521/665/508 
f 521/665/508 507/651/494 509/653/496 
f 521/665/508 509/653/496 522/666/509 
f 522/666/509 509/653/496 484/628/471 
f 522/666/509 484/628/471 510/654/497 
f 523/667/510 510/654/497 511/655/498 
f 523/667/510 511/655/498 524/668/511 
f 524/668/511 511/655/498 512/656/499 
f 524/668/511 512/656/499 525/669/512 
f 525/669/512 512/656/499 513/657/500 
f 525/669/512 513/657/500 526/670/513 
f 526/670/513 513/657/500 514/658/501 
f 526/670/513 514/658/501 527/671/514 
f 527/671/514 514/658/501 515/659/502 
f 527/671/514 515/659/502 528/672/515 
f 515/659/502 529/673/516 530/674/517 
f 515/659/502 530/674/517 528/672/515 
f 531/675/518 516/660/503 517/661/504 
f 531/675/518 517/661/504 532/676/519 
f 532/676/519 517/661/504 518/662/505 
f 532/676/519 518/662/505 533/677/520 
f 533/677/520 518/662/505 519/663/506 
f 533/677/520 519/663/506 534/678/521 
f 534/678/521 519/663/506 520/664/507 
f 534/678/521 520/664/507 535/679/522 
f 535/679/522 520/664/507 521/665/508 
f 535/679/522 521/665/508 536/680/523 
f 536/680/523 521/665/508 522/666/509 
f 536/680/523 522/666/509 537/681/524 
f 537/681/524 522/666/509 510/654/497 
f 537/681/524 510/654/497 523/667/510 
f 538/682/525 539/683/526 540/684/527 
f 538/682/525 540/684/527 541/685/528 
f 542/686/529 538/682/525 541/685/528 
f 542/686/529 541/685/528 543/687/530 
f 544/688/531 542/686/529 543/687/530 
f 544/688/531 543/687/530 545/689/532 
f 546/690/533 544/688/531 545/689/532 
f 546/690/533 545/689/532 547/691/534 
f 548/692/535 546/690/533 547/691/534 
f 548/692/535 547/691/534 549/693/536 
f 495/639/482 494/638/481 548/692/535 
f 495/639/482 548/692/535 549/693/536 
f 550/694/537 551/695/538 552/696/539 
f 550/694/537 552/696/539 553/697/540 
f 554/698/541 550/694/537 553/697/540 
f 554/698/541 553/697/540 555/699/542 
f 556/700/543 554/698/541 555/699/542 
f 556/700/543 555/699/542 557/701/544 
f 558/702/545 556/700/543 557/701/544 
f 558/702/545 557/701/544 559/703/546 
f 560/704/547 558/702/545 559/703/546 
f 560/704/547 559/703/546 561/705/548 
f 562/706/549 560/704/547 561/705/548 
f 562/706/549 561/705/548 563/707/550 
f 539/683/526 562/706/549 563/707/550 
f 539/683/526 563/707/550 540/684/527 
f 551/695/538 497/641/484 496/640/483 
f 551/695/538 496/640/483 552/696/539 
f 541/685/528 540/684/527 564/708/551 
f 541/685/528 564/708/551 565/709/552 
f 543/687/530 541/685/528 565/709/552 
f 543/687/530 565/709/552 566/710/553 
f 545/689/532 543/687/530 566/710/553 
f 545/689/532 566/710/553 567/711/554 
f 547/691/534 545/689/532 567/711/554 
f 547/691/534 567/711/554 568/712/555 
f 549/693/536 547/691/534 568/712/555 
f 549/693/536 568/712/555 529/673/516 
f 515/659/502 495/639/482 549/693/536 
f 515/659/502 549/693/536 529/673/516 
f 553/697/540 552/696/539 569/713/556 
f 553/697/540 569/713/556 570/714/557 
f 555/699/542 553/697/540 570/714/557 
f 555/699/542 570/714/557 571/715/558 
f 557/701/544 555/699/542 571/715/558 
f 557/701/544 571/715/558 572/716/559 
f 559/703/546 557/701/544 572/716/559 
f 559/703/546 572/716/559 573/717/560 
f 561/705/548 559/703/546 573/717/560 
f 561/705/548 573/717/560 574/718/561 
f 563/707/550 561/705/548 574/718/561 
f 563/707/550 574/718/561 575/719/562 
f 540/684/527 563/707/550 575/719/562 
f 540/684/527 575/719/562 564/708/551 
f 552/696/539 496/640/483 516/660/503 
f 552/696/539 516/660/503 569/713/556 
f 576/720/563 577/721/564 565/709/552 
f 576/720/563 565/709/552 564/708/551 
f 577/721/564 578/722/565 566/710/553 
f 577/721/564 566/710/553 565/709/552 
f 578/722/565 579/723/566 567/711/554 
f 578/722/565 567/711/554 566/710/553 
f 579/723/566 580/724/567 568/712/555 
f 579/723/566 568/712/555 567/711/554 
f 580/724/567 530/674/517 529/673/516 
f 580/724/567 529/673/516 568/712/555 
f 531/675/518 581/725/568 569/713/556 
f 531/675/518 569/713/556 516/660/503 
f 581/725/568 582/726/569 570/714/557 
f 581/725/568 570/714/557 569/713/556 
f 582/726/569 583/727/570 571/715/558 
f 582/726/569 571/715/558 570/714/557 
f 583/727/570 584/728/571 572/716/559 
f 583/727/570 572/716/559 571/715/558 
f 584/728/571 585/729/572 573/717/560 
f 584/728/571 573/717/560 572/716/559 
f 585/729/572 586/730/573 574/718/561 
f 585/729/572 574/718/561 573/717/560 
f 586/730/573 587/731/574 575/719/562 
f 586/730/573 575/719/562 574/718/561 
f 587/731/574 576/720/563 564/708/551 
f 587/731/574 564/708/551 575/719/562 
f 408/732/395 523/733/510 524/734/511 
f 408/732/395 524/734/511 409/735/396 
f 409/735/396 524/734/511 525/736/512 
f 409/735/396 525/736/512 412/737/399 
f 412/738/399 525/739/512 526/740/513 
f 412/738/399 526/740/513 414/741/401 
f 414/741/401 526/740/513 527/742/514 
f 414/741/401 527/742/514 416/743/403 
f 416/743/403 527/742/514 528/744/515 
f 416/743/403 528/744/515 418/745/405 
f 418/745/405 528/744/515 530/746/517 
f 418/745/405 530/746/517 469/747/456 
f 469/747/456 530/746/517 580/748/567 
f 469/747/456 580/748/567 467/749/454 
f 467/749/454 580/748/567 579/750/566 
f 467/749/454 579/750/566 465/751/452 
f 465/751/452 579/750/566 578/752/565 
f 465/751/452 578/752/565 463/753/450 
f 463/754/450 578/755/565 577/756/564 
f 463/754/450 577/756/564 459/757/446 
f 459/757/446 577/756/564 576/758/563 
f 459/757/446 576/758/563 460/759/447 
f 460/759/447 576/758/563 587/760/574 
f 460/759/447 587/760/574 483/761/470 
f 483/761/470 587/760/574 586/762/573 
f 483/761/470 586/762/573 481/763/468 
f 481/763/468 586/762/573 585/764/572 
f 481/763/468 585/764/572 479/765/466 
f 479/765/466 585/764/572 584/766/571 
f 479/765/466 584/766/571 477/767/464 
f 477/768/464 584/769/571 583/770/570 
f 477/768/464 583/770/570 475/771/462 
f 475/771/462 583/770/570 582/772/569 
f 475/771/462 582/772/569 471/773/458 
f 471/773/458 582/772/569 581/774/568 
f 471/773/458 581/774/568 472/775/459 
f 472/775/459 581/774/568 531/776/518 
f 472/775/459 531/776/518 420/777/407 
f 420/777/407 531/776/518 532/778/519 
f 420/777/407 532/778/519 421/779/408 
f 421/779/408 532/778/519 533/780/520 
f 421/779/408 533/780/520 424/781/411 
f 424/781/411 533/780/520 534/782/521 
f 424/781/411 534/782/521 426/783/413 
f 426/784/413 534/785/521 535/786/522 
f 426/784/413 535/786/522 428/787/415 
f 428/787/415 535/786/522 536/788/523 
f 428/787/415 536/788/523 430/789/417 
f 430/789/417 536/788/523 537/790/524 
f 430/789/417 537/790/524 432/791/419 
f 432/791/419 537/790/524 523/733/510 
f 432/791/419 523/733/510 408/732/395 
f 560/704/547 562/706/549 588/792/575 
f 560/704/547 588/792/575 558/702/545 
f 558/702/545 588/792/575 589/793/575 
f 558/702/545 589/793/575 556/700/543 
f 556/700/543 589/793/575 590/794/575 
f 556/700/543 590/794/575 554/698/541 
f 554/698/541 590/794/575 591/795/575 
f 554/698/541 591/795/575 550/694/537 
f 550/694/537 591/795/575 592/796/575 
f 550/694/537 592/796/575 551/695/538 
f 551/695/538 592/796/575 593/797/575 
f 551/695/538 593/797/575 497/641/484 
f 498/642/485 497/641/484 593/797/575 
f 498/642/485 593/797/575 594/798/575 
f 500/644/487 498/642/485 594/798/575 
f 500/644/487 594/798/575 595/799/576 
f 502/646/489 500/644/487 595/799/576 
f 502/646/489 595/799/576 596/800/576 
f 504/648/491 502/646/489 596/800/576 
f 504/648/491 596/800/576 597/801/575 
f 506/650/493 504/648/491 597/801/575 
f 506/650/493 597/801/575 508/652/495 
f 539/683/526 538/682/525 588/792/575 
f 539/683/526 588/792/575 562/706/549 
f 538/682/525 542/686/529 589/793/575 
f 538/682/525 589/793/575 588/792/575 
f 542/686/529 544/688/531 590/794/575 
f 542/686/529 590/794/575 589/793/575 
f 544/688/531 546/690/533 591/795/575 
f 544/688/531 591/795/575 590/794/575 
f 546/690/533 548/692/535 592/796/575 
f 546/690/533 592/796/575 591/795/575 
f 548/692/535 494/638/481 593/797/575 
f 548/692/535 593/797/575 592/796/575 
f 593/797/575 494/638/481 492/636/479 
f 593/797/575 492/636/479 594/798/575 
f 594/798/575 492/636/479 490/634/477 
f 594/798/575 490/634/477 595/799/576 
f 595/799/576 490/634/477 488/632/475 
f 595/799/576 488/632/475 596/800/576 
f 596/800/576 488/632/475 486/630/473 
f 596/800/576 486/630/473 597/801/575 
f 597/801/575 486/630/473 485/629/472 
f 597/801/575 485/629/472 508/652/495 
# 0 polygons - 1180 triangles

