# 3ds Max Wavefront OBJ Exporter v0.99 - (c)2007 guruware
# File Created: 08.04.2025 22:53:57

mtllib pared.mtl

#
# object Plane001
#

v  -9.9288 11.5876 0.0000
v  -19.8576 11.5876 0.0000
v  -9.9288 5.7938 0.0000
v  -19.8576 5.7938 0.0000
v  -9.9288 -0.0000 0.0000
v  -19.8576 -0.0000 0.0000
v  -9.9288 -5.7938 0.0000
v  -19.8576 -5.7938 0.0000
v  -9.9288 -11.5876 0.0000
v  -0.0000 11.5876 -0.0000
v  -0.0000 5.7938 -0.0000
v  0.0000 0.0000 -0.0000
v  0.0000 -5.7938 -0.0000
v  0.0000 -11.5876 -0.0000
v  9.9288 11.5876 -0.0000
v  9.9288 5.7938 -0.0000
v  9.9288 0.0000 -0.0000
v  9.9288 -5.7938 -0.0000
v  9.9288 -11.5876 -0.0000
v  19.8576 11.5876 -0.0000
v  19.8576 5.7938 -0.0000
v  19.8576 0.0000 -0.0000
v  19.8576 -5.7938 -0.0000
v  19.8576 -11.5876 -0.0000
v  -19.8576 -11.5876 0.0000
# 25 vertices

vn 0.0000 0.0000 1.0000
# 1 vertex normals

vt 0.0000 0.2500 0.0000
vt 0.0000 0.0000 0.0000
vt 0.2500 0.2500 0.0000
vt 0.2500 0.0000 0.0000
vt 0.5000 0.2500 0.0000
vt 0.5000 0.0000 0.0000
vt 0.7500 0.2500 0.0000
vt 0.7500 0.0000 0.0000
vt 1.0000 0.2500 0.0000
vt 0.0000 0.5000 0.0000
vt 0.2500 0.5000 0.0000
vt 0.5000 0.5000 0.0000
vt 0.7500 0.5000 0.0000
vt 1.0000 0.5000 0.0000
vt 0.0000 0.7500 0.0000
vt 0.2500 0.7500 0.0000
vt 0.5000 0.7500 0.0000
vt 0.7500 0.7500 0.0000
vt 1.0000 0.7500 0.0000
vt 0.0000 1.0000 0.0000
vt 0.2500 1.0000 0.0000
vt 0.5000 1.0000 0.0000
vt 0.7500 1.0000 0.0000
vt 1.0000 1.0000 0.0000
vt 1.0000 0.0000 0.0000
# 25 texture coords

o Plane001
g Plane001
usemtl wire_055126113
s 1
f 1/1/1 2/2/1 3/3/1 
f 3/3/1 4/4/1 5/5/1 
f 5/5/1 6/6/1 7/7/1 
f 7/7/1 8/8/1 9/9/1 
f 10/10/1 1/1/1 11/11/1 
f 11/11/1 3/3/1 12/12/1 
f 12/12/1 5/5/1 13/13/1 
f 13/13/1 7/7/1 14/14/1 
f 15/15/1 10/10/1 16/16/1 
f 16/16/1 11/11/1 17/17/1 
f 17/17/1 12/12/1 18/18/1 
f 18/18/1 13/13/1 19/19/1 
f 20/20/1 15/15/1 21/21/1 
f 21/21/1 16/16/1 22/22/1 
f 22/22/1 17/17/1 23/23/1 
f 23/23/1 18/18/1 24/24/1 
f 2/2/1 4/4/1 3/3/1 
f 4/4/1 6/6/1 5/5/1 
f 6/6/1 8/8/1 7/7/1 
f 8/8/1 25/25/1 9/9/1 
f 1/1/1 3/3/1 11/11/1 
f 3/3/1 5/5/1 12/12/1 
f 5/5/1 7/7/1 13/13/1 
f 7/7/1 9/9/1 14/14/1 
f 10/10/1 11/11/1 16/16/1 
f 11/11/1 12/12/1 17/17/1 
f 12/12/1 13/13/1 18/18/1 
f 13/13/1 14/14/1 19/19/1 
f 15/15/1 16/16/1 21/21/1 
f 16/16/1 17/17/1 22/22/1 
f 17/17/1 18/18/1 23/23/1 
f 18/18/1 19/19/1 24/24/1 
# 0 polygons - 32 triangles

